<?xml version="1.0" encoding="UTF-8" standalone="no"?>
<!-- Created with Inkscape (http://www.inkscape.org/) -->

<svg
   width="210mm"
   height="297mm"
   viewBox="0 0 210 297"
   version="1.1"
   id="svg1"
   xml:space="preserve"
   xmlns="http://www.w3.org/2000/svg"
   xmlns:svg="http://www.w3.org/2000/svg"><defs
     id="defs1" /><g
     id="layer1"><path
       style="fill:#ab37c8;fill-opacity:1;stroke:#d35f8d;stroke-width:0.626999;stroke-opacity:0"
       d="m 123.94897,232.84342 c -13.94888,1.08514 -28.153191,1.5787 -42.152684,0.50182 -9.355281,-0.71964 -18.85587,-2.74441 -25.090885,-10.53818 -3.414786,-4.26848 -0.829286,-2.24756 -3.010905,-5.51999 -0.594122,-0.89118 -1.384726,-1.63753 -2.007272,-2.50909 -1.165879,-1.63223 -1.458219,-3.87284 -2.007272,-5.52 -0.236559,-0.70967 -0.747988,-1.30424 -1.003633,-2.00727 -1.415939,-3.89383 -1.505453,-7.94035 -1.505453,-12.04362 0,-6.00679 -0.350094,-12.10207 0.501817,-18.06544 0.592545,-4.14781 0.275804,-0.91934 1.505452,-5.01818 0.927751,-3.0925 0.56284,-6.39249 1.505453,-9.53453 1.050904,-3.50301 2.060006,-6.97229 3.010908,-10.53817 0.921917,-3.4572 1.34507,-6.54431 2.509089,-10.03636 0.473117,-1.41935 1.481942,-2.61367 2.007269,-4.01454 0.117467,-0.31325 -0.105791,-0.68626 0,-1.00364 1.213366,-3.64009 3.14964,-6.98469 4.516361,-10.53817 0.306181,-0.79607 0.232098,-1.69993 0.501816,-2.50909 1.142828,-3.42848 2.599791,-4.65241 4.516359,-7.52726 0.63709,-0.95563 4.349667,-10.87504 4.51636,-11.54181 0.246774,-0.9871 0.101013,-2.0757 0.501817,-3.0109 2.465877,-5.753716 0.20057,-1.20421 3.010908,-4.014546 0.118279,-0.118279 -0.08606,-0.358383 0,-0.501819 0.430305,-0.717175 0.914053,-1.415873 1.505453,-2.00727 1.093171,-1.093173 5.132313,-3.820702 6.52363,-4.51636 0.946237,-0.473118 2.06467,-0.530517 3.010905,-1.003634 0.149614,-0.07481 -0.141846,-0.413165 0,-0.501819 0.982692,-0.61418 6.560077,-3.225753 8.530902,-2.509089 2.819961,1.02544 5.729295,2.813854 8.530895,4.014542 0.3438,0.147338 0.79617,0.190603 1.00364,0.501819 0.18557,0.278357 -0.20899,0.742399 0,1.003633 6.6909,8.363633 -2.50909,-5.519994 3.51273,3.512725 2.03104,3.046571 -1.44458,-1.571257 1.00363,2.509089 0.24342,0.405696 0.76022,0.597939 1.00363,1.003636 0.27216,0.45358 0.18445,1.082283 0.50182,1.505453 0.22442,0.29922 0.77922,0.20259 1.00364,0.50182 0.31738,0.42317 0.22967,1.05187 0.50182,1.50545 1.12175,1.86959 3.11041,3.3779 4.51636,5.01818 2.21624,2.58561 3.6413,5.71286 5.51999,8.5309 0.46393,0.69589 1.16577,1.24299 1.50545,2.00727 1.04795,2.35788 1.30818,5.96754 2.00728,8.5309 0.28003,1.97603 1.4694,3.63745 2.00727,5.52 1.7572,6.1502 2.07296,12.92074 4.01454,19.06907 0.14247,0.45116 0.66909,0.66909 1.00363,1.00363 0.50182,1.33818 1.12941,2.63573 1.50546,4.01454 0.13203,0.48414 -0.10886,1.01559 0,1.50546 0.33454,1.00363 0.66909,2.00727 1.00363,3.01091 0,0.33454 -0.0656,0.67558 0,1.00363 1.90452,9.5226 4.55127,18.91635 5.52,28.60361 0.32997,3.29978 0,6.70482 0,10.03635 0,5.772 -0.40956,11.4698 -2.00727,17.06181 -0.42899,1.50144 -0.5971,0.64474 -1.50546,2.00727 -0.3519,0.52785 -0.12936,2.01248 -0.50182,2.50908 -3.26247,4.34997 0.19863,-0.56035 -3.0109,2.00728 -0.47095,0.37676 -0.64177,1.02296 -1.00364,1.50545 -0.88177,1.1757 -2.02405,1.52224 -3.0109,2.50909 -2.49228,2.49228 1.97857,-2.21513 -0.50182,1.50545 -0.20748,0.31121 -0.79616,0.1906 -1.00364,0.50182 -0.18557,0.27836 0.1058,0.68626 0,1.00363 -0.22442,0.67326 -1.07964,0.93772 -1.50545,1.50546 -0.22442,0.29922 -0.12778,1.00363 -0.50182,1.00363 -0.90079,0 -2.04563,-1.77605 -2.50909,-1.00363 -0.62653,1.04422 0.83142,2.3072 1.00364,3.51272 0.002,0.0116 -1.80431,0 -3.01091,0"
       id="path310" /><path
       style="fill:#d42aff;fill-opacity:1;stroke:#d35f8d;stroke-width:0.581513;stroke-opacity:0"
       d="m 121.74477,229.24849 c -12.76492,1.01999 -25.763594,1.48391 -38.574823,0.4717 -8.561217,-0.67644 -17.255407,-2.57963 -22.961206,-9.90542 -3.124943,-4.01218 -0.758898,-2.1126 -2.755343,-5.18854 -0.543694,-0.83768 -1.267192,-1.53921 -1.836898,-2.35843 -1.06692,-1.53422 -1.334446,-3.6403 -1.836896,-5.18855 -0.21648,-0.66706 -0.684501,-1.22593 -0.918446,-1.88674 -1.295756,-3.66002 -1.377672,-7.46358 -1.377672,-11.32047 0,-5.64611 -0.320379,-11.37538 0.459223,-16.98069 0.54225,-3.89876 0.252394,-0.86414 1.377671,-4.71686 0.849004,-2.90682 0.515066,-6.00866 1.377672,-8.96203 0.961705,-3.29267 1.885155,-6.55365 2.755346,-9.9054 0.843665,-3.24962 1.230902,-6.15137 2.296121,-9.43373 0.432959,-1.33413 1.356156,-2.45673 1.836894,-3.77348 0.107497,-0.29445 -0.09681,-0.64506 0,-0.94338 1.110377,-3.42152 2.882298,-6.5653 4.133022,-9.9054 0.280192,-0.74828 0.212391,-1.59787 0.459217,-2.35844 1.045829,-3.22261 2.379123,-4.37305 4.133017,-7.07528 0.583016,-0.89825 3.980476,-10.22205 4.133018,-10.84878 0.225824,-0.92783 0.09244,-1.95107 0.459225,-2.83012 2.25657,-5.40822 0.183546,-1.1319 2.755348,-3.77349 0.108232,-0.11117 -0.07879,-0.33686 0,-0.47168 0.393776,-0.67411 0.836466,-1.33086 1.377669,-1.88675 1.000384,-1.027526 4.696687,-3.591281 5.969913,-4.24517 0.865924,-0.444702 1.889423,-0.498656 2.755338,-0.943367 0.136921,-0.07031 -0.1298,-0.388352 0,-0.471688 0.899291,-0.577301 6.003269,-3.03206 7.806817,-2.358431 2.580612,0.963867 5.242993,2.644901 7.806803,3.773486 0.31462,0.138493 0.72859,0.179165 0.91846,0.471688 0.16981,0.261646 -0.19127,0.697822 0,0.943376 6.12297,7.861426 -2.29613,-5.18855 3.21456,3.301806 1.85865,2.86362 -1.32195,-1.476921 0.91845,2.35842 0.22276,0.38133 0.69569,0.56203 0.91844,0.94337 0.24906,0.42635 0.16879,1.0173 0.45922,1.41505 0.20538,0.28126 0.71309,0.19043 0.91846,0.4717 0.29044,0.39776 0.21018,0.98871 0.45922,1.41506 1.02655,1.75732 2.84641,3.17507 4.13302,4.71686 2.02813,2.43036 3.33223,5.36983 5.05146,8.01866 0.42455,0.6541 1.06683,1.16836 1.37768,1.88674 0.95899,2.21631 1.19713,5.60922 1.8369,8.01866 0.25626,1.85738 1.34467,3.41904 1.8369,5.18855 1.60804,5.78091 1.897,12.14492 3.67378,17.92407 0.13038,0.42406 0.6123,0.62891 0.91845,0.94336 0.45922,1.25784 1.03355,2.47747 1.37767,3.77349 0.12083,0.45506 -0.0996,0.9546 0,1.41506 0.30615,0.94337 0.6123,1.88674 0.91845,2.83013 0,0.31444 -0.0601,0.635 0,0.94336 1.74286,8.95081 4.16496,17.78051 5.05146,26.8861 0.30196,3.10165 0,6.30223 0,9.43372 0,5.42542 -0.3748,10.78109 -1.8369,16.03732 -0.39257,1.41129 -0.54641,0.60603 -1.37767,1.88675 -0.32203,0.49616 -0.11837,1.89164 -0.45922,2.35842 -2.98556,4.08878 0.18177,-0.5267 -2.75534,1.88676 -0.43098,0.35412 -0.58731,0.96153 -0.91845,1.41505 -0.80694,1.1051 -1.85225,1.43083 -2.75535,2.35843 -2.28073,2.34263 1.81064,-2.08213 -0.45922,1.41505 -0.18988,0.29253 -0.72858,0.17916 -0.91845,0.47169 -0.16981,0.26165 0.0968,0.64506 0,0.94337 -0.20538,0.63284 -0.988,0.88141 -1.37767,1.41506 -0.20538,0.28126 -0.11694,0.94337 -0.45922,0.94337 -0.82433,0 -1.87201,-1.6694 -2.29612,-0.94337 -0.57336,0.98152 0.76085,2.16867 0.91844,3.3018 0.002,0.0109 -1.65116,0 -2.75534,0"
       id="path310-8" /><path
       style="fill:#ffd42a;fill-opacity:1;stroke:#d35f8d;stroke-width:0.626999;stroke-opacity:0"
       d="m 72.763567,234.85069 c -0.61713,4.14762 -2.107695,7.97918 -3.010905,12.04362 -0.100365,0.45164 0.200726,1.104 0,1.50546 -0.374034,0.74806 -1.075148,1.29009 -1.505453,2.00727 -0.08414,0.14023 -0.226867,10.13251 0,11.03999 0.09072,0.36286 0.428463,0.63686 0.501817,1.00363 0.135612,0.67805 -0.336418,2.33807 0,3.0109 0.105793,0.21159 0.455424,0.26985 0.501819,0.50184 0.131217,0.65608 -0.211585,1.3725 0,2.00726 0.501817,1.50545 1.003633,0.50181 1.505453,1.50545 0.0748,0.14962 -0.11828,0.38354 0,0.50181 0.118279,0.11829 0.427011,-0.1496 0.501816,0 0.149614,0.29924 -0.105791,0.68628 0,1.00364 0.08587,0.25763 1.299096,0.91454 1.505453,0.50181 0.224814,-0.4496 -0.39986,-4.21047 -0.501817,-4.51636 -0.0529,-0.15867 -0.334544,0 -0.501816,0 -0.167275,-0.33454 -0.38354,-0.64878 -0.50182,-1.00361 -0.378745,-1.13626 -0.272444,-2.36588 -0.501816,-3.51274 -0.07336,-0.36677 -0.448922,-0.63336 -0.50182,-1.00363 -0.135916,-0.95142 -0.357195,-12.97931 0,-14.0509 1.422334,-4.267 2.509089,-7.93829 2.509089,-12.54544 z"
       id="path312" /><path
       style="fill:#ffd42a;fill-opacity:1;stroke:#d35f8d;stroke-width:0.626999;stroke-opacity:0"
       d="m 113.91262,234.34887 c -0.3725,3.02063 1.0176,5.60376 1.50545,8.5309 0.11,0.65999 0,1.33818 0,2.00727 0.33455,1.33818 0.70441,2.66802 1.00364,4.01454 0.254,1.14303 -0.1925,2.35775 0,3.51273 0.17392,1.04353 0.77414,1.97817 1.00363,3.0109 0.41513,1.86807 -0.073,3.80465 -0.50181,5.52 -0.28399,1.13595 0,2.34182 0,3.51272 0,1.41725 0.2914,3.56115 0,5.01818 -0.11843,0.59211 -1.3796,3.13677 -1.00364,3.51271 0.35484,0.35486 1.05662,0.22442 1.50545,0 0.33455,-0.16726 0.16728,-0.83634 0.50182,-1.00361 0.43067,-0.21535 0.81871,0.4228 1.00364,-0.50184 0.47246,-2.36233 1.07313,-14.84602 0.50181,-16.55997 -0.71874,-2.15625 -0.70615,-5.92867 -1.50545,-7.52727 -0.21158,-0.42317 -0.74119,-0.60998 -1.00363,-1.00363 -0.27836,-0.41754 0.15868,-1.02939 0,-1.50546 -0.34018,-1.02052 -1.28019,-2.38638 -1.50546,-3.51272 -0.24345,-1.21728 -0.13364,-1.90639 -0.50181,-3.01091 -0.14962,-0.44884 -0.79206,-0.58046 -1.00364,-1.00363 -0.0748,-0.14962 0.11828,-0.38354 0,-0.50182 -0.11828,-0.11828 -0.50182,0.16727 -0.50182,0 0,-0.85293 0.33455,-1.67273 0.50182,-2.50909 z"
       id="path313" /><path
       style="fill:#ffcc00;fill-opacity:1;stroke:#d35f8d;stroke-width:0.237029;stroke-opacity:0"
       d="m 94.603321,87.38547 c -1.037757,-0.452018 -1.497565,-0.627495 -2.726913,-1.583691 -0.786269,-0.611567 -1.446374,-1.395787 -2.181529,-2.078595 -0.785111,-0.729205 -1.586687,-1.437583 -2.363325,-2.177575 -0.28085,-0.267598 -0.472351,-0.613338 -0.727177,-0.890826 -0.04791,-0.05217 -0.133887,-0.04681 -0.181793,-0.09898 -0.428493,-0.466599 -0.689836,-1.088895 -1.090766,-1.583691 -0.156568,-0.193225 -0.393887,-0.296942 -0.545382,-0.494904 -0.156384,-0.204349 -0.210989,-0.485151 -0.363589,-0.692864 -0.09464,-0.128819 -0.26294,-0.173644 -0.363588,-0.296943 -0.145156,-0.177823 -0.221397,-0.413241 -0.363588,-0.593884 -0.04409,-0.05601 -0.121197,-0.06599 -0.181795,-0.09898 -0.0606,-0.06599 -0.130374,-0.123306 -0.181794,-0.197962 -0.05749,-0.08347 -0.02314,-0.223165 -0.0909,-0.296942 -0.0557,-0.06065 -0.315959,-0.136692 -0.0909,-0.197961 0.407364,-0.110897 0.941063,0.02555 1.363455,0 0.2985,-0.01806 1.718109,-0.09703 2.181531,-0.197962 0.49804,-0.108467 0.958543,-0.374925 1.454353,-0.494903 0.238461,-0.0577 0.488715,-0.04128 0.727176,-0.09898 1.915221,-0.625663 0.05329,-0.07099 1.545251,-0.395923 0.468872,-0.102113 0.909238,-0.346519 1.363457,-0.494903 0.774275,-0.25294 1.603352,-0.292955 2.363324,-0.593884 0.395625,-0.156658 0.77067,-0.367035 1.181662,-0.494904 0.368918,-0.114778 0.83923,-0.1105 1.181662,-0.296942 0.1355,-0.07377 0.220918,-0.241457 0.363587,-0.296942 0.680248,-0.26455 0.884652,-0.09457 1.454355,-0.197961 0.154878,-0.02811 1.060484,-0.197942 0.636279,-0.593884 -0.641981,-0.599206 -2.574523,-0.892324 -3.454089,-1.38573 -0.711616,-0.399192 -1.402583,-0.841255 -2.090633,-1.286749 -0.557821,-0.361173 -1.280492,-0.944636 -1.90884,-1.286749 -2.529555,-1.377257 0.15281,0.08635 -1.636146,-0.692865 -0.441184,-0.192167 -0.805141,-0.639149 -1.27256,-0.791846 -0.176529,-0.05767 -0.36923,-0.03996 -0.545382,-0.09898 -1.077081,-0.360882 -1.773427,-0.941333 -2.545118,-1.781653 -0.542215,-0.590434 -0.138721,-0.349019 -0.545383,-0.791845 -0.425959,-0.46384 -0.976849,-0.717381 -1.454354,-1.088788 -1.005096,-0.729654 0.195423,0.212802 -0.363587,-0.395923 -0.0523,-0.05695 -0.54602,-0.09829 -0.363589,-0.296942 0.02143,-0.02333 0.06569,0.0183 0.0909,0 0.106959,-0.07765 0.145435,-0.277146 0.272692,-0.296942 0.179967,-0.028 0.365702,0.0301 0.545382,0 0.218015,-0.03653 0.419478,-0.153696 0.63628,-0.197961 2.202402,-0.449675 -0.757339,0.368887 1.817941,-0.395923 2.25227,-0.668882 4.502697,-1.145423 6.817282,-1.48471 0.633444,-0.09286 1.274379,-0.113708 1.908838,-0.197962 3.406632,-0.452389 0.173595,-0.254679 4.453955,-0.395923 1.745017,-0.05758 3.451307,-0.09882 5.181137,-0.197961 0.30257,-0.01734 0.60722,0.02987 0.90897,0 0.36709,-0.03634 0.72382,-0.159906 1.09076,-0.197961 0.69088,-0.07165 1.39852,0.05797 2.09064,0 0.48712,-0.0408 0.96655,-0.168452 1.45435,-0.197962 0.62675,-0.03791 1.27904,0 1.90884,0 0.3077,0 0.78626,-0.04737 1.09076,0 0.16823,-0.07352 0.16671,0.16911 0.2727,0.197962 0.29881,0.08135 0.26458,-0.146685 0.45448,0.197961 0.75917,1.37781 0.5202,3.117288 0.36359,4.652093 -0.0839,0.822414 -0.0979,1.652104 -0.18179,2.474517 -0.0106,0.103697 -0.0803,0.193245 -0.0909,0.296942 -0.0201,0.19675 0.0225,0.397451 0,0.593884 -0.13498,1.175795 -1.37475,-0.09037 -1.72705,-0.296942 -0.3749,-0.219824 -1.13683,-0.434257 -1.54525,-0.494903 -0.29382,-0.04363 -2.3348,-0.178047 -2.54511,-0.197962 -1.38779,-0.131408 -2.71977,-0.444116 -4.09037,-0.692865 -0.60072,-0.109023 -1.21328,-0.118948 -1.81795,-0.197961 -4.055607,-0.529953 0.82859,0.100615 -2.363321,-0.395923 -0.301443,-0.04689 -0.610869,-0.03135 -0.908972,-0.09898 -0.945162,-0.214421 -1.8638,-0.602963 -2.817809,-0.791846 -0.421581,-0.08347 -0.855718,-0.08989 -1.27256,-0.197961 -0.224475,-0.0582 -0.415732,-0.223047 -0.636278,-0.296942 -0.352304,-0.118042 -0.733168,-0.100612 -1.090766,-0.197962 -0.597175,-0.16257 -0.433885,-0.228462 -0.999867,-0.296942 -0.363103,-0.04393 -0.646578,-0.06972 -0.999868,-0.197961 -0.272692,-0.09898 -0.534543,-0.245485 -0.818074,-0.296942 -0.179321,-0.03254 -0.363588,0 -0.545382,0 -0.121197,0 -0.401915,-0.125202 -0.363589,0 0.250939,0.819767 1.592428,0.460825 1.999736,0.593884 0.636485,0.207926 1.216681,0.582717 1.817942,0.890826 1.715505,0.879091 3.414712,1.815752 5.181134,2.573498 2.387264,1.024072 1.137112,0.149077 3.999474,2.078595 1.38262,0.932027 2.34537,2.222331 3.54498,3.365343 0.29201,0.278234 0.61437,0.516871 0.90897,0.791846 0.13014,0.121464 0.21825,0.297003 0.36359,0.395923 0.10594,0.0721 0.24876,0.04539 0.36359,0.09898 0.35497,0.165658 0.29591,0.322231 0.54539,0.593884 0.0214,0.02333 0.0695,-0.02333 0.0909,0 0.16965,0.184745 -0.26748,0.29588 -0.27269,0.296943 -0.54344,0.110955 -1.11162,0.106548 -1.63615,0.296942 -0.21891,0.07946 -0.41737,0.217482 -0.63628,0.296942 -0.80944,0.293809 -1.63567,0.529683 -2.45422,0.791845 -0.63485,0.203327 -1.26686,0.419115 -1.90884,0.593884 -0.45173,0.122976 -1.656781,0.297041 -2.090633,0.395923 -0.942496,0.21481 -1.872716,0.492057 -2.817811,0.692865 -0.298865,0.0635 -0.607529,0.05209 -0.908971,0.09898 -1.282073,0.199441 -2.54414,0.547117 -3.817677,0.791845 -1.053564,0.202458 -2.13531,0.20607 -3.181398,0.395923 -0.08485,0.0154 -0.523527,0.150364 -0.545382,0.197961 -0.171806,0.37417 0.488792,0.398542 0.63628,0.494904 0.152786,0.09982 0.37102,0.502997 0.454485,0.593884 0.107123,0.11665 0.270579,0.166725 0.363588,0.296942 0.124785,0.174705 0.156998,0.41191 0.272691,0.593884 0.159006,0.2501 0.383018,0.445339 0.545383,0.692865 0.141984,0.216455 0.208902,0.48699 0.363588,0.692865 0.326734,0.434856 0.802523,0.70769 1.181662,1.088788 0.491902,0.494443 0.925792,1.039021 1.363456,1.583691 0.112866,0.140461 0.265299,0.243022 0.363589,0.395923 0.116557,0.181318 0.164968,0.406199 0.272691,0.593884 0.04542,0.07914 0.149966,0.111316 0.181794,0.197961 0.03376,0.0919 -0.02205,0.200917 0,0.296942 0.03118,0.1358 0.201385,0.180472 0.272692,0.296942 0.0168,0.02745 -0.02143,0.07565 0,0.09898 0.04791,0.05217 0.144212,0.03759 0.181794,0.09898 0.03361,0.05491 -0.01917,0.13536 0,0.197961 0.0779,0.2545 0.197128,0.363739 0.272691,0.692865 z"
       id="path321" /><path
       style="fill:#ffcc00;fill-opacity:1;stroke:#d35f8d;stroke-width:0.626999;stroke-opacity:0"
       d="m 221.0507,203.23617 -1.50545,-30.86179"
       id="path328" /><path
       style="fill:#ffcc00;fill-opacity:1;stroke:#d35f8d;stroke-width:0.626999;stroke-opacity:0"
       d="m 71.759934,124.45079 c 0.02619,-0.4664 -0.09252,-0.94406 0.125452,-1.38 0.02646,-0.0529 0.109209,-0.0686 0.125455,-0.12545 0.06988,-0.24458 0.04502,-0.51141 0.125454,-0.75273 0.04768,-0.14304 0.209487,-0.23138 0.25091,-0.37636 0.04595,-0.16084 -0.05289,-0.34313 0,-0.50182 0.125455,-0.37636 0.25091,-0.12545 0.376362,-0.37636 0.136012,-0.27202 0.266486,-0.64285 0.501819,-0.87818 0.106614,-0.10662 0.277075,-0.13744 0.376362,-0.25091 0.321141,-0.36702 0.407887,-0.90971 0.752726,-1.25454 0.09351,-0.0935 0.26297,-0.0574 0.376365,-0.12546 0.412552,-0.24753 0.716537,-0.7561 1.129091,-1.00364 0.254973,-0.15298 0.831892,-0.42751 1.129088,-0.50181 0.08114,-0.0203 0.174035,0.0329 0.25091,0 0.623001,-0.267 0.717798,-0.4356 1.379998,-0.50182 1.448355,-0.14484 3.096638,-0.0696 4.390905,0.62727 0.690499,0.37181 1.369005,0.92409 2.00727,1.38 0.368911,0.26351 0.79725,0.42089 1.129091,0.75273 0.02957,0.0296 -0.0348,0.10225 0,0.12545 0.110029,0.0734 0.282855,0.032 0.376364,0.12546 0.132239,0.13223 0.13408,0.35578 0.250907,0.50181 0.05841,0.073 0.18479,0.0593 0.25091,0.12546 0.02957,0.0296 -0.02957,0.0959 0,0.12545 0.02957,0.0296 0.106751,-0.0374 0.125455,0 0.09536,0.19072 0.03009,0.43655 0.125454,0.62727 0.09111,0.18222 0.193067,0.27046 0.250907,0.50182 0.04057,0.16228 -0.09278,0.36264 0,0.50182 0.05187,0.0778 0.199041,0.0477 0.25091,0.12545 0.07671,0.11507 0.06391,1.12673 0,1.25455 -0.01871,0.0374 -0.08805,-0.0187 -0.125455,0 -0.820761,0.41038 -1.450276,-0.67621 -2.258179,-0.87818 -0.04057,-0.0101 -0.08364,0 -0.125455,0 -0.125454,-0.0836 -0.23637,-0.19491 -0.376361,-0.25091 -0.329838,-0.13194 -0.792308,-0.0825 -1.129091,-0.25091 -0.105794,-0.0529 -0.1387,-0.21351 -0.25091,-0.25091 -0.158689,-0.0529 -0.33682,0.0275 -0.501817,0 -0.222133,-0.037 -0.405138,-0.21389 -0.627271,-0.25091 -0.582168,-0.097 -1.750653,-0.12831 -2.258182,0.12546 -0.158686,0.0793 -0.208047,0.32026 -0.376362,0.37636 -0.07935,0.0265 -0.176104,-0.0374 -0.250909,0 -0.216805,0.1084 -0.612413,0.53868 -0.878181,0.62727 -0.07934,0.0265 -0.181319,-0.0464 -0.25091,0 -0.136351,0.0909 -0.314889,0.50433 -0.376362,0.62727 -0.02074,0.0415 -0.965637,0.90557 -1.129091,1.00364 -0.234164,0.1405 -0.623408,0.37443 -0.878181,0.50182 -0.209611,0.1048 -0.527587,0.0692 -0.752726,0.12545 -0.645184,0.1613 -1.937616,0.60867 -2.634541,0.37637 -0.315262,-0.10509 -0.679432,-0.46828 -0.878181,-0.62728 z"
       id="path333" /><path
       style="fill:#ffcc00;fill-opacity:1;stroke:#d35f8d;stroke-width:0.626999;stroke-opacity:0"
       d="m 101.99445,122.31807 c 0.16704,-0.66433 0.18963,-1.38291 0.50182,-2.00728 0.0935,-0.18701 0.27262,-0.32027 0.37636,-0.50181 0.0898,-0.26928 0.11246,-0.39653 0.25091,-0.62727 0.44084,-0.73474 0.80837,-1.51456 1.25454,-2.25818 0.30674,-0.51123 0.50049,-1.19115 1.12909,-1.50546 0.40804,-0.20401 0.29842,-0.0317 0.62728,-0.2509 0.0984,-0.0656 0.13616,-0.22223 0.2509,-0.25091 0.12171,-0.0304 0.26106,0.0494 0.37637,0 0.19218,-0.0824 0.32027,-0.27263 0.50181,-0.37637 1.14087,-0.65192 0.0149,0.0369 0.50182,-0.12545 0.14304,-0.0477 0.22852,-0.22134 0.37637,-0.25091 0.16402,-0.0328 0.34098,0.046 0.50182,0 1.78654,-0.51044 -1.21847,-0.0269 0.87818,-0.37637 0.5151,-0.0858 1.10219,0 1.6309,0 0.78524,0 1.89846,-0.11713 2.63454,0.25091 0.58856,0.29428 1.00774,0.63035 1.50546,1.00364 0.22028,0.16521 0.5234,0.22348 0.75273,0.37636 0.54616,0.36411 1.30169,0.80389 1.6309,1.38 0.25164,0.44037 0.67235,1.27407 0.75273,1.75637 0.0506,0.30327 0.18243,2.07574 0.12546,2.13272 -0.0296,0.0296 -0.0959,-0.0296 -0.12546,0 -0.36053,0.36053 0.21206,0.23359 -0.50182,0.37636 -0.46218,0.0924 -1.27284,-0.10781 -1.63091,-0.37636 -0.0946,-0.071 -0.14109,-0.20698 -0.2509,-0.25091 -0.11649,-0.0466 -0.25466,0.0304 -0.37637,0 -0.0574,-0.0143 -0.0763,-0.0927 -0.12545,-0.12546 -0.18738,-0.12491 -0.4399,-0.12598 -0.62727,-0.2509 -0.0348,-0.0232 0.0296,-0.0959 0,-0.12546 -0.21768,-0.21767 -0.9493,-0.74736 -1.25455,-0.87818 -0.15848,-0.0679 -0.3476,-0.0483 -0.50182,-0.12545 -0.10579,-0.0529 -0.15855,-0.17702 -0.25091,-0.25091 -0.33341,-0.26673 -0.84028,-0.54442 -1.25454,-0.62727 -0.12302,-0.0246 -0.25735,0.0397 -0.37636,0 -0.14304,-0.0477 -0.23637,-0.19491 -0.37637,-0.25091 -0.19798,-0.0792 -0.4204,-0.0737 -0.62727,-0.12546 -0.0406,-0.0101 -0.10675,0.0374 -0.12545,0 -0.0374,-0.0748 0.0696,-0.20451 0,-0.25091 -0.10439,-0.0696 -0.25091,0 -0.37637,0 -0.40495,0 -1.14607,-0.14375 -1.50545,0 -0.0616,0.0246 -0.9082,0.31274 -1.00364,0.37637 -0.22043,0.14695 -0.25158,0.18868 -0.50181,0.37636 -0.1058,0.0793 -0.28286,0.0319 -0.37637,0.12546 -0.0661,0.0661 -0.0736,0.1731 -0.12545,0.25091 -0.11128,0.16692 -0.3842,0.25874 -0.50182,0.37636 -0.15065,0.15065 -0.24352,0.87079 -0.37636,1.00363 -0.0296,0.0296 -0.0959,-0.0296 -0.12545,0 -0.0526,0.0526 -0.0874,0.30033 -0.12546,0.37636 -0.0529,0.1058 -0.19801,0.14512 -0.25091,0.25091 -0.0374,0.0748 0.0591,0.19177 0,0.25091 -0.0771,0.0771 -0.29235,0.0829 -0.37636,0.25091 -0.0374,0.0748 0.0591,0.19177 0,0.25091 -0.0827,0.0827 -0.57395,0.2164 -0.62728,0.37637 -0.0264,0.0793 0.0592,0.19176 0,0.2509 -0.0591,0.0591 -0.18131,-0.0464 -0.2509,0 -0.0778,0.0519 -0.0736,0.17311 -0.12546,0.25091 -0.1287,0.19306 -0.43176,0.30631 -0.50181,0.37637 -0.28388,0.28387 -0.29733,0.50181 -0.75273,0.50181"
       id="path334" /><path
       style="fill:#ffcc00;fill-opacity:1;stroke:#d35f8d;stroke-width:0.626999;stroke-opacity:0"
       d="m 77.907199,144.27259 c 1.308849,1.34491 3.026325,2.12693 4.767268,2.76 0.162041,0.0589 0.347602,0.0483 0.501819,0.12545 0.187016,0.0935 0.31904,0.27482 0.501817,0.37637 0.280887,0.15604 1.672746,0.60637 1.756362,0.62727 1.732217,0.43305 0.895951,0.1634 2.383634,0.25091 1.176226,0.0692 2.333765,0.31741 3.512725,0.37636 1.286825,0.0643 2.601248,0 3.889086,0 1.578647,0 3.19077,0.0927 4.767268,0 1.051692,-0.0619 2.085952,-0.29556 3.136362,-0.37636 1.26334,-0.0972 2.54184,-0.0946 3.76363,-0.50182 0.26613,-0.0887 0.49638,-0.26243 0.75273,-0.37636 0.53383,-0.23726 1.1339,-0.29594 1.63091,-0.62728 0.22279,-0.14852 0.39598,-0.36689 0.62727,-0.50181 0.62363,-0.36379 1.04465,-0.34235 1.63091,-0.75273 0.19379,-0.13566 0.31509,-0.35658 0.50181,-0.50182 0.43039,-0.33474 0.91764,-0.5892 1.38,-0.87818 0.7421,-0.46381 1.58775,-1.10751 2.38364,-1.50545 0.28485,-0.14243 0.59332,-0.23394 0.87818,-0.37636 0.74436,-0.37219 1.4783,-1.06917 2.13272,-1.50546 0.22304,-0.14869 0.4418,-0.56725 0.62728,-0.75273 0.0296,-0.0296 0,0.0836 0,0.12546 0,0.27343 0.0443,0.61231 0,0.87818 -0.0587,0.35205 -0.4894,1.04388 -0.75273,1.25455 -0.30806,0.24645 -0.70878,0.36517 -1.00364,0.62727 -0.0988,0.0879 -0.0319,0.28285 -0.12545,0.37636 -0.0935,0.0935 -0.26633,0.0521 -0.37637,0.12545 -0.51726,0.34485 -0.8755,0.88725 -1.25454,1.38001 -0.47176,0.18135 -0.28442,0.69926 -0.50182,1.00363 -0.13749,0.1925 -0.35037,0.32009 -0.50181,0.50182 -0.11973,0.14367 -0.10724,0.38209 -0.25091,0.50181 -0.35162,0.29302 -1.42044,1.03682 -1.88182,1.1291 -0.12302,0.0246 -0.2589,-0.0441 -0.37636,0 -0.22832,0.0856 -0.40918,0.26731 -0.62727,0.37636 -0.43116,0.21557 -0.92484,0.17505 -1.38,0.25091 -0.45647,0.0761 -0.79808,0.30028 -1.25455,0.37636 -0.36789,0.0613 -0.76309,-0.0813 -1.12909,0 -0.18256,0.0406 -0.32606,0.187 -0.50182,0.25091 -0.28611,0.10404 -0.58153,0.18245 -0.87818,0.25091 -0.74155,0.17113 -1.51164,0.15759 -2.25818,0.25091 -0.38256,0.0478 -0.77677,0.0943 -1.12909,0.2509 -0.19107,0.0849 -0.31074,0.29145 -0.50181,0.37637 -0.48905,0.21735 -1.30942,0.0935 -1.75637,0.12545 -0.42537,0.0304 -0.83137,0.19802 -1.254539,0.25091 -0.45833,0.0573 -0.923475,0.0552 -1.38,0.12546 -0.09242,0.0142 -0.16409,0.0907 -0.250907,0.12545 -0.48631,0.19452 -0.780291,0.20478 -1.380001,0.25091 -0.665117,0.0512 -1.342493,-0.0554 -2.007269,0 -0.42499,0.0354 -0.831377,0.19801 -1.254546,0.25091 -0.467061,0.0584 -2.340025,0.0969 -2.759996,0 -0.310322,-0.0716 -0.573135,-0.28485 -0.878181,-0.37636 -0.320437,-0.0961 -0.674486,0.0598 -1.003636,0 -0.52043,-0.0946 -1.022083,-0.28699 -1.505453,-0.50182 -0.461404,-0.20507 -0.865158,-0.51286 -1.38,-0.62728 -0.636847,-0.14152 -1.24922,-0.36124 -1.881815,-0.50181 -0.248314,-0.0552 -0.51141,-0.045 -0.752726,-0.12546 -0.143042,-0.0477 -0.241506,-0.18347 -0.376364,-0.25091 -0.574175,-0.28708 -1.213546,-0.28801 -1.756363,-0.62727 -0.383577,-0.23973 -0.699968,-0.60969 -1.129088,-0.75272 -0.119018,-0.0397 -0.264155,0.0561 -0.376364,0 -0.283975,-0.14199 -0.969987,-0.90145 -1.254546,-1.1291 -0.07302,-0.0584 -0.194802,-0.0506 -0.250907,-0.12545 -0.07935,-0.10579 -0.04859,-0.26875 -0.125455,-0.37636 -0.137496,-0.1925 -0.370599,-0.30499 -0.501817,-0.50182 -0.915193,-1.37279 -0.130439,-0.27084 -0.250909,-0.75272 -0.07495,-0.29979 -0.393187,-1.14592 -0.125455,-0.87819 0.02957,0.0296 -0.01871,0.0881 0,0.12546 0.06743,0.13486 0.167272,0.25091 0.250909,0.37636"
       id="path335" /><path
       style="fill:#ffcc00;fill-opacity:1;stroke:#d35f8d;stroke-width:0.626999;stroke-opacity:0"
       d="m 54.64516,151.87097 c -1.064514,0 -2.141411,-0.16187 -3.193547,0 -0.522812,0.0804 -0.917538,0.5424 -1.419355,0.70967 -0.925306,0.30844 -1.923489,0.37249 -2.838709,0.70968 -4.378383,1.61309 -8.948299,3.70897 -12.774195,6.3871 -1.673153,1.17121 -3.059099,2.96323 -4.612902,4.25806 -1.582396,1.31866 -3.891169,1.76214 -5.322581,3.19355 -0.301555,0.30156 -0.36265,0.81664 -0.709678,1.06452 -2.272013,1.62286 -1.367088,-0.0732 -3.193548,2.48387 -0.985663,1.37993 -1.544537,1.7949 -2.129032,3.54839 -0.11221,0.33662 0.11221,0.72788 0,1.06451 -1.450898,4.35269 -0.58854,0.052 -2.129033,3.90322 -0.411924,1.02982 -0.905453,3.74417 -1.774193,4.61291 -0.301555,0.30155 -0.762961,0.40812 -1.064516,0.70968 -0.295693,0.29569 -1.175636,2.37275 -1.064516,2.48387 0.426463,0.42646 1.34773,0.0716 1.774193,-0.35484 1.247688,-0.155 0.08432,-1.01358 0.354839,-1.41936 0.185572,-0.27835 0.524105,-0.43131 0.709677,-0.70967 0.06561,-0.0984 0,-0.23656 0,-0.35484 0.11828,-0.23656 0.167823,-0.52266 0.354839,-0.70968 0.08364,-0.0836 0.271202,0.0836 0.354839,0 0.411795,-0.4118 1.252371,-2.03858 1.419354,-2.48387 0.41205,-1.0988 0.236232,-1.53698 0.709678,-2.48387 0.366215,-0.73243 0.2688,-2.39783 0.709677,-2.83871 0.187017,-0.18702 0.591398,-0.11828 0.709678,-0.35484 0.158689,-0.31738 -0.11221,-0.72789 0,-1.06451 0.0374,-0.11221 0.256424,0.0656 0.354838,0 0.278359,-0.18558 0.524106,-0.43133 0.709678,-0.70968 0.06561,-0.0984 -0.06561,-0.25643 0,-0.35484 0.598968,-0.89846 1.639934,-1.21157 2.483871,-1.77419 0.139179,-0.0928 0.236559,-0.23657 0.354839,-0.35484 0.118279,-0.23656 0.143253,-0.55099 0.354838,-0.70968 0.299227,-0.22442 0.743786,-0.1624 1.064516,-0.35484 0.775828,-0.4655 0.998366,-0.95386 1.774194,-1.41936 0.32073,-0.19243 0.765291,-0.13041 1.064516,-0.35483 0.557504,-0.41813 0.880176,-1.67972 1.419355,-2.12903 0.907227,-0.75603 1.531572,-0.67254 2.129033,-1.41936 1.194977,-1.49372 2.097559,-3.32328 3.548385,-4.6129 0.515477,-0.4582 1.212977,-0.66365 1.774196,-1.06452 0.272229,-0.19445 0.419211,-0.5437 0.709676,-0.70968 1.616297,-0.9236 3.165043,-0.73675 4.967742,-1.06451 1.314945,-0.23908 2.599738,-0.84727 3.903226,-1.06452 0.350009,-0.0583 0.720273,0.0861 1.064517,0 0.544615,-0.13615 1.666163,-0.92823 2.483871,-1.06452 0.989237,-0.16487 4.247721,0.0103 4.96774,-0.70967 0.08364,-0.0836 -0.08363,-0.27121 0,-0.35484 0.08364,-0.0836 0.271203,0.0836 0.35484,0 0.508739,-0.50874 -0.180342,-1.43105 -0.35484,-2.12903 z"
       id="path336" /><path
       style="fill:#ffcc00;fill-opacity:1;stroke:#d35f8d;stroke-width:0.626999;stroke-opacity:0"
       d="m 131.64516,153.29032 c 5.77712,-0.13617 11.81547,-0.25466 17.3871,-1.77419 0.58186,-0.15869 1.20739,-0.14873 1.77419,-0.35484 4.2451,-1.54367 0.51353,-0.34236 3.19355,-2.12903 1.80665,-1.20444 3.73533,-2.22251 5.67742,-3.19355 2.32212,-1.16107 4.33512,-2.36425 6.3871,-3.90323 0.42316,-0.31737 1.10197,-0.28651 1.41935,-0.70967 0.22442,-0.29923 0.1624,-0.74379 0.35484,-1.06452 0.64989,-1.08315 0.75484,-0.48203 1.77419,-1.06452 0.80208,-0.45833 1.30277,-1.36106 2.12903,-1.77419 0.4362,-0.2181 0.98316,-0.13674 1.41936,-0.35484 0.52896,-0.26448 0.92728,-0.73647 1.41935,-1.06452 0.61465,-0.40976 2.12233,-2.48387 2.83871,-2.48387 0.37404,0 -0.21592,0.71724 -0.35484,1.06452 -0.13891,0.34728 -0.14736,0.7533 -0.35483,1.06451 -0.5914,0.8871 -1.1828,0.98567 -1.7742,1.7742 -0.15869,0.21158 -0.16782,0.52266 -0.35484,0.70968 -1.12368,1.12368 -2.00246,0.27046 -3.19354,1.06451 -0.0984,0.0656 0.0984,0.28923 0,0.35484 -0.40578,0.27052 -1.07452,0.01 -1.41936,0.35484 -0.30156,0.30155 -0.44327,0.7315 -0.70968,1.06451 -1.13021,1.41277 -2.90324,2.40325 -3.90322,3.90323 -0.20748,0.31122 -0.11539,0.77718 -0.35484,1.06452 -0.37861,0.45432 -0.97428,0.67508 -1.41936,1.06451 -0.50354,0.4406 -0.88408,1.0179 -1.41935,1.41936 -0.42317,0.31738 -1.02127,0.36135 -1.41936,0.70968 -1.30353,1.14058 -2.01678,2.62942 -3.54838,3.54838 -0.89778,0.53867 -2.41421,0.64002 -3.19355,1.41936 -0.30156,0.30155 -0.34399,0.8451 -0.70968,1.06451 -0.30427,0.18257 -0.7145,-0.0583 -1.06452,0 -1.54898,0.25817 -3.02775,0.80033 -4.6129,1.06452 -1.29024,0.21504 -5.8955,0.24026 -7.09677,0 -0.97355,-0.19471 -1.86516,-0.51497 -2.83871,-0.70968 -0.72495,-0.14499 -2.62933,-0.0727 -3.19355,-0.35484 -0.55818,-0.27908 -0.4023,-0.35483 -1.06452,-0.35483"
       id="path337" /></g></svg>
