<?xml version="1.0" encoding="UTF-8" standalone="no"?>
<!-- Created with Inkscape (http://www.inkscape.org/) -->

<svg
   width="210mm"
   height="297mm"
   viewBox="0 0 210 297"
   version="1.1"
   id="svg1"
   sodipodi:docname="aliens.long.svg"
   inkscape:version="1.3.2 (091e20e, 2023-11-25, custom)"
   xmlns:inkscape="http://www.inkscape.org/namespaces/inkscape"
   xmlns:sodipodi="http://sodipodi.sourceforge.net/DTD/sodipodi-0.dtd"
   xmlns="http://www.w3.org/2000/svg"
   xmlns:svg="http://www.w3.org/2000/svg">
  <sodipodi:namedview
     id="namedview1"
     pagecolor="#ffffff"
     bordercolor="#000000"
     borderopacity="0.25"
     inkscape:showpageshadow="2"
     inkscape:pageopacity="0.0"
     inkscape:pagecheckerboard="0"
     inkscape:deskcolor="#d1d1d1"
     inkscape:document-units="mm"
     inkscape:zoom="0.74564394"
     inkscape:cx="406.36017"
     inkscape:cy="562.60097"
     inkscape:window-width="1920"
     inkscape:window-height="1051"
     inkscape:window-x="-9"
     inkscape:window-y="-9"
     inkscape:window-maximized="1"
     inkscape:current-layer="layer1" />
  <defs
     id="defs1" />
  <g
     inkscape:groupmode="layer"
     id="layer1"
     inkscape:label="Layer 1">
    <g
       id="g38">
      <path
         style="fill:#008066;stroke:#000000;stroke-width:0.626999;stroke-opacity:0"
         d="m 9.5806449,64.225807 c 4.8540611,-0.467961 9.6281311,-0.709679 14.5483871,-0.709679 1.216553,0 2.718879,-0.236868 3.903225,0 0.164026,0.03281 0.192561,0.31427 0.354838,0.354838 0.803238,0.200811 1.658353,0.0635 2.483871,0 1.901585,-0.146275 3.774443,-0.582811 5.677422,-0.709676 1.571164,-0.104746 3.374326,0.199176 4.967739,0 0.598454,-0.07481 1.172861,-0.308583 1.774196,-0.35484 5.747469,-0.442111 11.651297,0.573582 17.387096,0 0.485259,-0.04852 0.934096,-0.306311 1.419355,-0.354838 2.693495,-0.269349 5.467794,0.269351 8.161289,0 4.976903,-0.49769 9.893549,-1.085377 14.903225,-1.419355 0.708107,-0.04721 1.444363,0.18673 2.129034,0 0.665379,-0.181467 1.112535,-0.86991 1.774192,-1.064517 4.569666,-1.344017 9.536361,-1.057703 14.193546,-1.774192 1.5597,-0.239954 3.0461,-0.876499 4.61291,-1.064517 1.40924,-0.169108 2.83871,0 4.25806,0 3.94265,0 7.78083,0.05262 11.70968,0.354838 1.87871,0.144518 3.79097,0 5.67742,0 5.89888,0 11.85017,-0.19639 17.74193,0 2.01311,0.0671 4.0263,0.172479 6.03226,0.354841 1.60157,0.145595 3.32618,0.589346 4.96774,0.354838 7.46766,-1.066808 14.72885,-3.177143 22.35484,-2.483872 1.11749,0.10159 2.09324,0.844455 3.19355,1.064517 0.46393,0.09279 0.95099,-0.06691 1.41935,0 0.37028,0.0529 0.69558,0.293349 1.06452,0.354838 2.48387,0.413978 -0.55197,-0.551971 2.48387,0 0.8472,0.154038 1.63667,0.555641 2.48387,0.709679 0.60317,0.109667 2.60084,-0.237871 2.83871,0 0.18702,0.187015 0.19615,0.498091 0.35484,0.709676 0.20073,0.267636 0.58543,0.39906 0.70968,0.709678 0.13178,0.329459 -0.0502,0.713243 0,1.064517 0.17929,1.25504 0.76212,1.983983 1.06451,3.193547 0.16035,0.641379 -0.28786,1.553303 0,2.129033 0.74109,1.482162 0.58848,1.999049 1.06452,3.903226 0.15448,0.617937 0.5715,1.152406 0.70968,1.774193 0.19706,0.886767 0,2.638848 0,3.548388 0,3.113992 -0.38676,6.486562 0,9.580644 0.49998,3.999881 0.35484,8.018188 0.35484,12.064516 0,2.095524 0.23115,4.306702 0,6.387102 -0.0666,0.59942 -0.30024,1.17355 -0.35484,1.77419 -0.1833,2.01629 -0.33495,8.99029 0,11 0.0435,0.26088 0.31743,0.44785 0.35484,0.70968 0.45625,3.19376 -0.35484,6.39305 -0.35484,9.58064 0,1.05199 0.21082,1.8306 0.35484,2.83871 0.43491,3.04436 0,6.15054 0,9.22581 0,0.70967 0.10527,1.4272 0,2.12903 -0.25122,1.67477 -0.75243,3.30324 -1.06452,4.96774 -0.99498,5.30657 -0.35484,11.17624 -0.35484,16.67742 0,2.45787 -0.41373,8.93132 0,11 0.52951,2.64755 1.10491,5.13371 1.41936,7.80645 0.77619,1.85403 0.14544,3.79285 0.35483,5.67742 0.12124,1.09113 0.87176,3.40676 0.35484,4.6129 -1.04184,2.43097 -3.02969,4.50333 -3.54838,7.09678 -0.25935,1.29672 0.0838,2.8453 -0.70968,3.90322 -0.15869,0.21159 -0.52266,0.16783 -0.70968,0.35484 -0.30155,0.30156 -0.4538,0.72335 -0.70968,1.06452 -0.30038,0.40051 -3.25982,2.67786 -3.90322,2.83871 -2.62199,0.65549 -5.20122,-0.0173 -7.80645,0.35484 -0.48278,0.069 -0.93831,0.27466 -1.41936,0.35483 -1.49111,0.24852 -3.10485,-0.13709 -4.6129,0 -3.3331,0.30302 -6.57695,1.19546 -9.93549,1.41936 -5.25189,0.35013 -10.39699,0.41253 -15.6129,1.06452 -1.79536,0.22441 -3.53022,0.81729 -5.32258,1.06451 -2.00563,0.27664 -4.02798,0.42335 -6.03226,0.70968 -0.48277,0.069 -0.93228,0.33048 -1.41935,0.35484 -1.89011,0.0945 -3.79652,0.20899 -5.67742,0 -1.34035,-0.14893 -2.58917,-0.76127 -3.90322,-1.06452 -3.30743,-0.76325 -6.53673,-1.06451 -9.93549,-1.06451 -4.02151,0 -8.04301,0 -12.06452,0 -2.09776,0 -4.30472,-0.23138 -6.387093,0 -0.484695,0.0539 -0.932757,0.3224 -1.419354,0.35484 -1.298194,0.0865 -2.605032,-0.0865 -3.903226,0 -0.486598,0.0324 -0.934096,0.30631 -1.419355,0.35483 -1.886754,0.18868 -3.800311,0.0867 -5.677418,0.35484 -7.984117,1.14059 5.990735,0.46165 -4.258067,1.06452 -5.078616,0.29874 -10.172628,0.21358 -15.258063,0.35484 -0.251177,0.007 -2.424954,-0.009 -2.483871,0 -3.269893,0.5163 -6.608596,1.49695 -9.935483,1.77419 -1.17871,0.0982 -2.379347,-0.17985 -3.548387,0 -1.077804,0.16582 -2.124242,0.49582 -3.19355,0.70968 -1.22082,0.24416 -2.634335,0 -3.903224,0 -5.255095,0 -10.449869,0.0279 -15.612903,-0.70968 -0.819637,-0.11709 -1.664237,0.11709 -2.483872,0 -0.370273,-0.0529 -0.695572,-0.29335 -1.064516,-0.35484 -0.922183,-0.1537 -2.28146,0 -3.193548,0 -0.923581,0 -2.289286,0.22607 -3.193549,0 -0.256584,-0.0641 -0.473118,-0.23656 -0.709677,-0.35484 -0.946236,-0.11828 -1.890942,-0.24953 -2.83871,-0.35483 -0.5959,-0.0662 -1.903472,0.29019 -2.48387,0 -1.274783,-0.6374 1.269509,-0.26154 -1.419355,-0.70968 -0.350011,-0.0583 -0.813608,0.25091 -1.064516,0 C 7.0532071,208.60159 9.470002,201.81549 8.5161288,198 c -0.3548385,-1.41936 -0.6625886,-2.85132 -1.0645161,-4.25807 -0.3803311,-1.33116 -0.8002201,-2.66495 -1.4193546,-3.90322 -0.052896,-0.1058 -0.3261519,0.11475 -0.3548388,0 -0.1147479,-0.459 0.066909,-0.95099 0,-1.41936 -0.1957874,-1.37051 -1.0215427,-2.57718 -1.4193549,-3.90322 -0.3411215,-1.13708 -1.0174166,-6.64933 -1.0645161,-7.09678 -0.2694331,-2.55961 -0.2665338,-11.17337 0,-13.83871 0.1917742,-1.91774 0.7096776,-3.7067 0.7096776,-5.67742 0,-4.96774 0,-9.93548 0,-14.90322 0,-2.19917 -0.2609276,-4.56754 0,-6.74194 0.7041536,-5.86794 2.1083124,-11.54392 2.8387095,-17.38709 0.4203084,-3.36247 -0.556505,-6.9513 0,-10.29033 0.1047147,-0.62828 0.5847604,-1.1496 0.7096773,-1.77419 0.3222321,-1.61116 0,-4.96297 0,-6.3871 0,-2.955969 0.4653997,-7.143082 0,-9.935481 -0.06149,-0.368943 -0.2365589,-0.709676 -0.3548385,-1.064514 0,-0.709679 0.1003633,-1.426488 0,-2.129033 -0.023656,-0.165593 -0.3340912,-0.188857 -0.3548388,-0.354838 -0.3778747,-3.023 0.075177,-6.215698 -0.3548388,-9.225807 -0.121776,-0.852434 -0.6028724,-1.629434 -0.7096773,-2.483871 -0.1320369,-1.056296 0.081645,-2.132169 0,-3.19355 -0.099706,-1.296175 -0.8217059,-3.567139 -0.3548388,-4.96774 0.6124297,-1.83729 0.217869,0.821817 0.7096776,-2.129033 0.029295,-0.175773 -0.1633651,-1.610828 0,-1.774193 0.083636,-0.08364 0.2365589,0 0.3548385,0 0.4825659,0 1.1463888,-0.191095 1.4193549,0.354838 0.052896,0.105794 -0.083636,0.271203 0,0.354838 0.4264631,0.426464 1.1890909,0.208563 1.7741934,0.354841 z"
         id="path20" />
      <path
         style="fill:#aaffee;stroke:#000000;stroke-width:0.626999;stroke-opacity:0"
         d="m 17.387096,195.87097 c -0.118279,-1.41936 -0.292972,-2.83514 -0.354838,-4.25807 -0.225567,-5.18804 0,-10.41877 0,-15.6129 0,-1.5134 0.137109,-3.1047 0,-4.6129 -0.388428,-4.27271 -0.354839,-8.4673 -0.354839,-12.7742 0,-7.37365 0.0227,-14.67625 -0.709677,-22 -0.228393,-2.28392 0.03298,-4.41503 -0.354839,-6.74193 -0.612829,-3.67698 -2.377319,-6.42228 -3.548387,-9.93549 -0.11221,-0.33663 0.09336,-0.72218 0,-1.06451 -0.265902,-0.97498 -0.804127,-1.86225 -1.064516,-2.83871 -0.2155,-0.80813 -0.182539,-1.66545 -0.354839,-2.48387 -0.301401,-1.43166 -0.8102615,-2.81729 -1.0645161,-4.25807 -0.102776,-0.5824 0.083636,-1.18874 0,-1.77419 -0.3209626,-2.24674 -0.2365589,0.35484 -0.7096773,-1.06452 -0.2494415,-0.74832 -0.6555705,-2.59837 -0.7096773,-3.19355 -0.277768,-3.05544 -0.3010043,-8.978632 1.0645161,-11.709675 0.1182796,-0.236558 0.1678223,-0.52266 0.3548385,-0.709676 0.083636,-0.08364 0.3019425,0.105791 0.3548388,0 0.6425293,-1.285057 2.0645743,-4.355073 2.4838713,-6.032259 0.07843,-0.3137 -0.241634,-1.887397 0,-2.129033 0.08364,-0.08364 0.282722,0.09375 0.354839,0 1.140259,-1.482336 2.071449,-3.11677 3.193548,-4.612902 0.30109,-0.401455 0.77284,-0.656169 1.064516,-1.064517 0.40087,-0.561218 0.756081,-1.157321 1.064516,-1.774192 0.0529,-0.105794 -0.08364,-0.271203 0,-0.354838 0.501818,-0.501819 1.426487,0.100362 2.129032,0 1.9061,-0.272301 3.774357,-0.771739 5.67742,-1.064517 1.174872,-0.18075 2.377486,-0.149931 3.548386,-0.354838 8.279572,-1.537636 16.559141,-3.07527 24.83871,-4.612904 1.537634,-0.236559 3.079236,-0.448628 4.612904,-0.709679 4.123995,-0.701955 14.418945,-2.69626 19.516127,-3.193547 5.925865,-0.578133 10.616128,-0.356547 16.67742,0 0.834919,0.04911 1.647508,0.354838 2.483872,0.354838 1.153043,0 3.586075,-1.905035 4.258065,-2.129031 1.25454,-0.418182 2.58738,-0.578093 3.90322,-0.709678 3.98475,-0.398476 8.07284,0.332642 12.06452,0 0.83347,-0.06946 1.64845,-0.315056 2.48387,-0.354838 3.14869,-0.149937 6.43249,0.286194 9.58065,0 2.48486,-0.225896 4.97021,-0.448477 7.45161,-0.709679 0.59979,-0.06314 1.1717,-0.327451 1.77419,-0.354838 3.30842,-0.150381 6.63341,0.254005 9.93549,0 0.2637,-0.02029 0.44651,-0.328523 0.70967,-0.354838 0.94154,-0.09416 1.91501,0.205266 2.83871,0 0.25819,-0.05738 0.10393,-0.626041 0.35484,-0.709679 0.56105,-0.187015 1.18642,0.06531 1.7742,0 0.48469,-0.05385 0.93228,-0.330483 1.41935,-0.354838 4.27981,-0.213989 8.5183,0.02746 12.77419,0.354838 2.05018,0.157708 -1.41935,-0.473117 2.83871,0 0.23086,0.02564 2.28736,0.578671 2.48388,0.709679 0.41753,0.278357 0.63105,0.811665 1.06451,1.064517 1.4488,0.845134 4.64282,2.321409 6.3871,3.193547 1.03223,0.51612 1.34696,0.254915 2.48387,0.709678 0.5491,0.219639 0.89039,0.800034 1.41935,1.064514 0.66909,0.334548 1.45994,0.375135 2.12904,0.709679 0.29922,0.149614 0.3923,0.603885 0.70967,0.709676 0.22442,0.07481 0.54241,-0.167272 0.70968,0 0.16727,0.167275 -0.0879,0.49004 0,0.709679 0.45822,1.14555 1.11218,1.610016 1.41935,2.838709 0.74832,2.993247 0.20434,6.193755 0.70968,9.225806 0.16035,0.962089 0.50531,1.885003 0.70968,2.83871 0.45583,2.127218 0.40794,4.274957 0.70968,6.387097 0.2723,1.9061 0.79221,3.77132 1.06451,5.677418 0.28486,1.993985 0.25426,4.020545 0.35484,6.032261 0.0709,1.41758 -0.48505,2.92416 0,4.25806 2.66834,7.33793 0.40279,-0.47954 2.12903,7.80645 0.77182,3.70474 2.04733,7.30689 2.83871,11 0.91029,4.24799 0.38139,8.5064 0.70968,12.7742 0.18243,2.37156 0.58424,4.7134 0.70968,7.09677 0.1538,2.92229 0,6.33533 0,9.22581 0,2.95166 0.41998,6.28591 0,9.2258 -0.15422,1.07953 -0.49582,2.12425 -0.70968,3.19355 -0.2484,1.24199 0.39173,2.72803 0,3.90323 -0.53226,1.59677 -0.35484,-0.35484 -1.06452,2.12903 -0.0975,0.34119 0.0583,0.71451 0,1.06452 -0.33425,2.00554 -0.35483,3.07992 -0.35483,5.32258 0,0.76692 0.18605,9.74943 0,9.93548 -0.73418,0.73418 0.0287,-1.12191 -0.70968,0.35484 -0.0529,0.10579 0.0836,0.2712 0,0.35484 -0.0836,0.0836 -0.2712,-0.0836 -0.35484,0 -0.0836,0.0836 0.10579,0.30194 0,0.35484 -0.66909,0.33454 -1.45994,0.37513 -2.12903,0.70967 -2.01228,1.00615 -0.93595,1.16658 -2.83871,2.48388 -1.00124,0.69316 -2.10435,1.22959 -3.19355,1.77419 -6.15875,3.07937 -18.63357,3.21174 -25.54839,3.90322 -6.40162,0.64017 -12.15703,2.92285 -18.45161,4.25807 -5.60394,1.18871 -4.48313,0.46771 -10.29032,0.70968 -1.07014,0.0446 -2.12413,0.29542 -3.19355,0.35483 -3.64818,0.20268 -7.36187,0.0138 -11,0.35484 -8.90551,0.8349 -7.91808,0.92728 -15.25806,1.7742 -3.30022,0.38079 -6.650607,0.55915 -9.935489,1.06451 -6.645664,1.02241 -5.373198,1.21659 -12.064515,1.7742 -0.825098,0.0687 -1.655914,0 -2.483872,0 -1.774192,0.11828 -3.554219,0.16869 -5.32258,0.35484 -1.861447,0.19594 -3.334126,0.57711 -5.322581,0.70967 -3.90236,0.26016 -7.823282,-0.2109 -11.709677,-0.35483 -4.38726,-0.1625 -8.736373,-0.35484 -13.129033,-0.35484 -3.18494,0 -6.407007,0.22669 -9.580644,0 -9.545305,-0.68181 1.649272,-0.0125 -5.322581,-0.70968 -2.504072,-0.25041 -5.3205,0 -7.806451,0 -1.301075,0 -2.60215,0 -3.903226,0 -0.236559,0 -0.542404,0.16727 -0.709677,0 -0.17742,-0.17742 0.08871,-0.79839 0,-1.06452 -0.856748,-2.57024 0.102301,0.55944 -0.709678,-1.06451 -0.140108,-0.28022 0.09975,-0.76527 0,-1.06452 -1.016375,-3.04912 -1.025535,-6.50404 0,-9.58064 z"
         id="path21" />
    </g>
    <path
       style="fill:#b7bec8;stroke:#000000;stroke-width:0.539815;stroke-opacity:0"
       d="m 74.17523,88.566234 c -0.279355,-2.772256 0.673515,-4.976832 1.586022,-7.414467 0.110379,-0.294859 0.776643,-0.662409 0.793012,-0.706139 0.07881,-0.21053 -0.05573,-0.482841 0,-0.706141 0.03941,-0.157898 0.218059,-0.198535 0.264339,-0.353069 0.486478,-1.624452 0.754856,-3.365685 1.321685,-4.942979 0.497141,-1.383378 1.305693,-2.532696 1.850361,-3.883769 0.135631,-0.33644 0.03507,-1.459121 0.264337,-1.765347 0.249219,-0.332878 0.707622,-0.0584 1.057348,0 0.989546,0.165214 2.989052,0.709168 3.700722,1.765347 0.556077,0.825269 0.875409,1.887856 1.321685,2.824559 0.170563,0.357998 0.428211,0.65665 0.528676,1.05921 0.169487,0.679143 0.07193,1.450255 0.264337,2.118421 0.255013,0.8856 0.768833,1.60442 1.057349,2.471489 0.07157,0.215092 -0.04274,0.477788 0,0.706138 0.388879,2.077669 0.314341,4.208146 0.528675,6.355258 0.107363,1.075529 0.438965,2.099218 0.528673,3.177627 0.98686,11.863148 -0.548255,-2.379952 0,4.942981 0.230424,3.0777 0.264337,5.71265 0.264337,8.826737 0,1.68986 0.28804,8.34705 0,9.88596 -0.04778,0.25531 -0.236472,0.44562 -0.264337,0.70614 -0.0623,0.58254 0.07243,1.1849 0,1.76534 -0.07022,0.56279 -1.128236,2.46929 -1.321685,2.82456 -0.440564,0.82384 -0.881124,1.64767 -1.321688,2.47149 -0.08811,0 -0.202031,-0.0832 -0.264337,0 -0.0623,0.0832 0.07331,0.28779 0,0.35308 -0.639371,0.56933 -0.717281,0.26336 -1.321685,0.35306 -2.786013,0.41347 -3.949172,1.4229 -6.608432,-0.35306 -2.317851,-1.54796 -5.023632,-2.68563 -6.608431,-5.64913 -1.815079,-3.3941 -1.586022,-7.34535 -1.586022,-11.29822 0,-1.81757 -0.09678,-3.52749 0.264337,-5.296047 0.36657,-1.79527 0.911972,-3.5175 1.321685,-5.296046 0.157622,-0.684228 0.02464,-1.478121 0.264339,-2.118424 0.445818,-1.190941 1.642078,-1.652203 2.114698,-2.824559 0.250643,-0.621736 -0.08691,-1.421889 0,-2.11842 0.01449,-0.11609 0.202032,0.08322 0.264336,0 0.06231,-0.08322 -0.06231,-0.269849 0,-0.353069 0.06231,-0.08322 0.224932,-0.105267 0.264337,0 0.269215,0.71917 -0.37906,2.071814 -0.528673,2.471489 z"
       id="path30" />
    <path
       style="fill:#6f7c91;stroke:#000000;stroke-width:0.626999;stroke-opacity:0"
       d="m 59.612903,186.99999 c -0.568809,-4.47024 -1.044141,-8.98129 -1.419354,-13.48387 -0.205036,-2.46044 0.272571,-4.99845 0,-7.45161 -0.194853,-1.75366 -0.60012,-3.56966 -0.709679,-5.32258 -0.190108,-3.04172 0,-6.17052 0,-9.22581 0,-1.06451 0.190426,-2.1462 0,-3.19354 -0.133818,-0.736 -0.663014,-1.38243 -0.709676,-2.12904 -0.07415,-1.18638 0.292362,-2.36133 0.354838,-3.54838 0.05595,-1.06305 -0.08165,-2.13217 0,-3.19355 0.103434,-1.34462 0.737434,-2.5949 1.064517,-3.90323 0.02869,-0.11475 -0.08364,-0.2712 0,-0.35484 0.08364,-0.0836 0.2712,0.0836 0.354838,0 0.167272,-0.16727 0,-0.47311 0,-0.70968 0,-0.59139 0.03934,-1.1841 0,-1.77419 -0.216826,-3.25239 -1.097026,-6.35736 -1.419355,-9.58064 -0.322717,-3.22718 0.533982,-6.73159 0,-9.93549 -0.141563,-0.84937 -0.578744,-1.63279 -0.709679,-2.48387 -0.50991,-3.31442 0.04138,-6.86608 1.064517,-9.93548 0.414086,-1.242257 -0.05536,-4.658287 0,-5.322577 0.02196,-0.26357 0.302969,-0.45033 0.354838,-0.70968 0.09279,-0.46393 -0.114747,-0.96036 0,-1.419355 0.397574,-1.590283 1.410007,-3.884525 2.129033,-5.32258 0.964991,-0.303708 0.173721,-0.966555 0.354838,-1.419355 1.410478,-3.526189 3.135265,-9.521333 8.161293,-8.516128 1.696871,0.339373 1.62474,1.904855 2.483868,3.193548 0.730187,1.095279 1.98486,2.300856 2.483872,3.548387 0.08786,0.219639 -0.07481,0.485257 0,0.709676 0.26153,0.784588 1.479454,1.796151 1.774195,2.483872 0.139777,0.326149 -0.08606,0.720272 0,1.064516 0.04057,0.16228 0.301942,0.196152 0.354838,0.354838 0.45879,1.376371 0.802436,3.171465 1.064517,4.612901 0.274505,1.50978 0.06128,3.14511 0.354838,4.61291 0.141099,0.70549 0.127322,1.446477 0.354838,2.129027 0.167272,0.50182 0.55768,0.9127 0.709678,1.41935 0.774682,2.58227 0.08965,1.51652 0.354838,3.90323 0.235085,2.11577 0.798277,4.25718 1.064517,6.3871 0.08734,0.69876 -0.08734,1.43027 0,2.12903 0.759619,6.07695 0.09386,-6.19026 0.709676,6.74194 0.04435,0.93144 -0.05069,4.51151 0,5.32258 0.118279,0.94623 0.236561,1.89247 0.35484,2.8387 0.236559,0.35484 0.606246,0.65079 0.709676,1.06452 0.343504,1.37401 -0.175895,3.20574 0,4.6129 0.04639,0.37115 0.301943,0.69425 0.354838,1.06452 0.137994,0.96595 -0.103494,1.55242 0,2.48387 0.07945,0.71507 0.303581,1.41139 0.354841,2.12903 0.175255,2.4536 -0.182973,4.69065 -0.354841,7.09678 -0.06742,0.94383 0.143884,1.90347 0,2.83871 -0.09685,0.62954 -0.604961,1.1459 -0.709676,1.77419 -0.136114,0.81669 0.07496,1.65932 0,2.48387 -0.09586,1.0544 -0.354838,1.78617 -0.354838,2.83871 0,3.87131 -0.320971,7.85803 0,11.70968 0.05975,0.71698 0.299657,1.41168 0.354838,2.12903 0.0635,0.82552 -0.148108,1.66927 0,2.48387 0.09462,0.52043 0.513226,0.92823 0.709676,1.41936 0.282647,0.70661 0.199425,6.25507 0,7.45161 -0.145862,0.87518 -0.437702,1.66794 -0.709676,2.48387 -0.137059,0.41118 0.103204,1.00654 0,1.41935 -0.134233,0.53694 -0.575444,1.23727 -0.709678,1.7742 -0.220295,0.88118 0.28603,1.98062 0,2.83871 -0.244565,0.73369 -0.354838,0.72014 -0.354838,1.41935 0,0.22329 -0.260448,2.38948 -0.354838,2.48387 -0.382268,0.38227 -0.439545,0.0424 -1.064517,0.35484 -0.105793,0.0529 0.08364,0.27121 0,0.35484 -0.529502,0.5295 -1.804879,0.21904 -2.483871,0.35484 -4.71786,0.94357 0.0013,-0.17802 -1.774193,0.70968 -0.416668,0.20833 -1.31246,-0.0577 -1.774195,0 -1.358008,0.16975 -4.527471,0.85643 -6.032256,0.35483 -0.15869,-0.0529 -0.192562,-0.31426 -0.354838,-0.35483 -0.344245,-0.0861 -0.735058,0.13178 -1.064517,0 -1.774195,-0.70968 0,-0.53226 -1.064517,-1.06452 -0.211584,-0.10579 -0.512847,0.13122 -0.709678,0 -1.646238,0.30363 -0.408123,-0.76296 -0.709676,-1.06452 -0.328126,-0.32812 -1.282134,-0.50384 -1.419355,-0.70967 -0.617762,-0.92665 -0.02085,-1.10619 -0.354838,-1.7742 -1.147315,-2.29462 -1.064517,-2.73521 -1.064517,-5.67742 z"
       id="path23" />
    <path
       style="fill:#6f7c91;stroke:#000000;stroke-width:0.626999;stroke-opacity:0"
       d="m 112.48387,98.290323 c 0.029,-2.39703 0.73003,-5.00844 1.77419,-7.096775 0.66199,-1.323965 -0.75052,-0.168477 1.06452,-3.19355 0.30427,-0.507119 0.82433,-0.878928 1.06452,-1.419355 0.37935,-0.85353 0.068,-1.985608 1.06452,-2.483871 0.82441,-0.412205 1.62463,1.370674 2.12903,1.774195 0.8871,0.709676 1.33064,0.532257 2.12903,1.064517 0.7415,0.494334 1.33769,2.811962 1.77419,3.903223 1.19506,2.987626 -0.26174,-0.261739 0.70968,0.709679 0.23977,0.239768 -0.0113,3.114187 0,3.193547 0.35852,2.50961 0.11237,0.22474 0.70968,1.41936 0.32282,0.64564 0,2.49552 0,3.19354 0,2.602147 0,5.204307 0,7.806457 0,6.18099 0.0602,10.2079 -1.77419,16.32258 -0.17331,0.57767 -0.0851,1.23475 -0.35484,1.77419 0.0825,0.74284 -0.55596,0.13962 -0.70968,0.35484 -0.55427,0.77597 -0.79876,1.75984 -1.41936,2.48387 -1.59843,1.86484 -4.6598,4.81642 -7.45161,4.25806 -5.68408,-1.13681 -4.70101,-26.71805 -4.61291,-29.09677 0.0266,-0.71897 0.27539,-1.41397 0.35484,-2.12903 0.13882,-1.249317 -0.37735,-2.804937 0.35484,-3.903227 0.45124,-0.67686 1.12452,-0.23482 1.41935,0.35484 0.0964,0.1927 0.30792,1.41936 0.35485,1.41936 0.52896,0 0.94623,-0.47312 1.41935,-0.70968 z"
       id="path33" />
    <path
       style="fill:#535d6c;stroke:#000000;stroke-width:0.626999;stroke-opacity:0"
       d="m 78.774193,185.2258 c 0,-12.18279 0,-24.36559 0,-36.54838 0,-4.13 -0.228849,-8.30009 0,-12.41936 0.03345,-0.60218 0.288237,-1.17477 0.354838,-1.77419 0.08576,-0.77182 -0.116449,-1.69783 0,-2.48387 0.641035,-4.32699 1.266174,-8.81474 2.129033,-13.12903 0.384921,-1.9246 -0.474216,-4.1354 0,-6.03226 0.245102,-0.98041 0.798616,-1.86374 1.064516,-2.83871 0.207926,-0.7624 -0.09909,-1.69118 0,-2.48387 0.207476,-1.65981 0.558237,-3.30189 0.709676,-4.96774 0.0626,-0.68858 -0.279855,-2.49391 0,-3.193547 1.211975,-3.02993 0.341197,1.132727 1.064517,-2.48387 0.0464,-0.23197 -0.211585,-0.60389 0,-0.70968 0.211585,-0.10579 0.498094,0.10579 0.709679,0 0.236558,-0.11828 0.118279,-0.5914 0.354838,-0.70968 0.503743,-0.25187 2.172017,0.12095 2.483871,0.35484 0.211585,0.15869 0.167823,0.52266 0.354838,0.70968 0.187018,0.18701 0.550989,0.14325 0.709679,0.35484 0.224419,0.29922 0.147362,0.7533 0.354838,1.06451 0.278357,0.41754 0.798552,0.63898 1.064516,1.06452 0.849874,1.359797 0.796457,2.208097 1.064517,3.548387 0.389154,1.94577 1.223036,3.81241 1.419354,5.67742 0.199655,1.89672 0.557586,3.77629 0.709676,5.67741 0.08489,1.06113 -0.124377,2.13633 0,3.19355 0.113962,0.96868 0.505312,1.885 0.709679,2.83871 0.842291,3.9307 1.443175,8.09231 1.774193,12.06452 0.117872,1.41445 -0.233342,2.85802 0,4.25806 0.141562,0.84938 0.602871,1.62943 0.709678,2.48387 0.180235,1.44189 -0.140184,4.13541 0,5.67742 0.04415,0.48568 0.306311,0.9341 0.354838,1.41936 0.397383,3.97383 -0.221358,8.08006 0,12.06451 0.105791,1.90427 0.597684,3.77351 0.709676,5.67742 0.104185,1.77114 -0.126404,3.5529 0,5.32259 0.225817,3.16142 0.354841,6.01838 0.354841,9.2258 0,1.65591 0,3.31183 0,4.96774 0,0.35484 0.11221,0.72789 0,1.06452 -0.201425,0.60427 -0.534694,1.16174 -0.709679,1.77419 -0.06499,0.22746 0.105794,0.49809 0,0.70968 -0.05289,0.10579 -0.271203,-0.0836 -0.354838,0 -0.167272,0.16727 0.08786,0.49004 0,0.70968 -0.30585,0.76462 -1.326329,3.8102 -1.774192,4.25806 -0.558221,0.55822 -2.02959,0.61024 -2.483872,1.06452 -0.08364,0.0836 0.105791,0.30194 0,0.35484 -1.124315,0.56215 -0.330213,-0.73431 -1.419354,0.35483 -0.187018,0.18702 -0.167823,0.52266 -0.354841,0.70968 -0.834379,0.83438 -7.767568,0.39372 -8.516128,-0.35484 -0.08364,-0.0836 0.08364,-0.2712 0,-0.35484 -0.177419,-0.17741 -0.887097,0.17742 -1.064516,0 -0.08364,-0.0836 0.08364,-0.2712 0,-0.35483 -0.06538,-0.0654 -0.999133,-0.28946 -1.064517,-0.35484 -0.55631,-0.55631 -1.199811,-6.13437 -1.419354,-7.45162 z"
       id="path24" />
    <path
       style="fill:#373e48;stroke:#000000;stroke-width:0.782806;stroke-opacity:0"
       d="m 93.735515,186.96369 c 0,-14.56089 0,-29.12178 0,-43.68267 0,-4.93619 -0.298458,-9.92029 0,-14.84364 0.04362,-0.71972 0.375909,-1.40408 0.462768,-2.12052 0.111846,-0.92248 -0.151869,-2.02925 0,-2.96872 0.836017,-5.17162 1.651307,-10.53539 2.776617,-15.69183 0.502,-2.30029 -0.61846,-4.94264 0,-7.20977 0.31966,-1.171787 1.04153,-2.227537 1.38831,-3.392827 0.27117,-0.91122 -0.12923,-2.02131 0,-2.96873 0.27059,-1.983809 0.72804,-3.946425 0.92554,-5.937443 0.0816,-0.823001 -0.36498,-2.980724 0,-3.816937 1.58062,-3.621377 0.44497,1.353833 1.3883,-2.968728 0.0606,-0.277251 -0.27593,-0.721767 0,-0.848208 0.27595,-0.12644 0.64961,0.126441 0.92555,0 0.30851,-0.141368 0.15425,-0.706841 0.46277,-0.84821 0.65696,-0.301036 2.83268,0.14456 3.23939,0.424106 0.27595,0.189666 0.21886,0.624683 0.46277,0.848206 0.2439,0.223515 0.71858,0.171213 0.92554,0.424106 0.29268,0.357628 0.19217,0.900344 0.46277,1.272303 0.36301,0.499044 1.04144,0.763711 1.3883,1.272316 1.10839,1.62524 1.03872,2.639126 1.38831,4.241046 0.50752,2.32558 1.59506,4.55659 1.85107,6.785653 0.2604,2.26696 0.7272,4.51343 0.92554,6.785647 0.11073,1.26827 -0.1622,2.55335 0,3.81694 0.14863,1.15777 0.65901,2.25296 0.92555,3.39283 1.09849,4.69797 1.88214,9.67194 2.31385,14.41953 0.15371,1.69056 -0.30432,3.41592 0,5.08924 0.18461,1.01519 0.78624,1.94749 0.92554,2.96873 0.23505,1.72334 -0.18282,4.94264 0,6.78566 0.0577,0.58048 0.39948,1.11643 0.46277,1.69642 0.51824,4.74952 -0.28869,9.65729 0,14.41952 0.13797,2.27598 0.77947,4.5101 0.92553,6.78565 0.13587,2.11688 -0.16485,4.24643 0,6.36158 0.29451,3.77853 0.46277,7.19316 0.46277,11.02669 0,1.97914 0,3.9583 0,5.93744 0,0.42411 0.14634,0.86998 0,1.27232 -0.26269,0.72222 -0.69733,1.38851 -0.92553,2.12051 -0.0848,0.27186 0.13797,0.59532 0,0.84821 -0.069,0.12644 -0.35371,-0.0999 -0.46277,0 -0.21815,0.19993 0.11463,0.5857 0,0.84821 -0.39889,0.91388 -1.72977,4.55396 -2.31385,5.08925 -0.72802,0.66718 -2.64693,0.72936 -3.2394,1.27231 -0.10902,0.0999 0.13797,0.36088 0,0.42411 -1.46628,0.67188 -0.43064,-0.87766 -1.85107,0.42408 -0.2439,0.22353 -0.21886,0.6247 -0.46277,0.84822 -1.08817,0.99725 -10.13021,0.47057 -11.10647,-0.42411 -0.10908,-0.0999 0.10908,-0.32414 0,-0.42411 -0.23138,-0.21203 -1.15692,0.21206 -1.38831,0 -0.10908,-0.0999 0.10908,-0.32413 0,-0.42408 -0.0853,-0.0782 -1.30304,-0.34598 -1.38831,-0.42411 -0.72552,-0.6649 -1.564755,-7.33181 -1.851075,-8.90619 z"
       id="path24-4" />
    <path
       style="fill:#373e48;stroke:#000000;stroke-width:0.708609;stroke-opacity:0"
       d="m 125.88784,175.2585 c -3.72922,-8.65926 -5.31037,-17.63338 -7.25665,-26.5942 -0.65472,-3.01443 -1.56749,-6.13383 -1.81415,-9.21932 -0.56614,-7.08186 0.45748,-14.3051 1.81415,-21.27536 0.5534,-2.84312 0.95867,-5.71316 1.81417,-8.51014 0.81173,-2.65396 2.20166,-5.1804 3.17478,-7.80097 2.8096,-7.566107 0.13857,-0.40377 0.90709,-4.609667 0.0676,-0.37001 0.41383,-0.69128 0.45354,-1.06376 0.41506,-3.894143 0.66933,-7.798232 0.90707,-11.701449 0.23046,-3.783891 -0.83121,-8.628781 1.36063,-12.056037 0.13521,-0.211439 -0.2138,-0.542025 0,-0.70918 0.95615,-0.747538 2.48166,0.858052 3.62832,1.418358 0.57904,0.282947 2.47941,0.8747 2.72124,1.063768 0.23904,0.186884 0.18309,0.550602 0.45354,0.709177 0.38246,0.224262 0.99764,0.111344 1.36063,0.354591 2.2715,1.522224 4.82861,5.286695 5.44247,7.446375 0.16398,0.57691 -0.0835,1.185579 0,1.772948 1.19388,8.400659 -0.25864,-5.615099 0.45355,4.964249 0.15294,2.271954 0.77195,6.39308 1.36061,8.51015 2.68105,6.987027 0.41564,0.36892 1.81417,6.382607 0.0855,0.36774 0.40597,0.69184 0.45354,1.06376 0.27585,2.15672 0,4.56895 0,6.7372 0,4.60966 0,9.21933 0,13.82899 0,1.56013 -0.54401,7.37627 0,9.21931 0.35491,1.20241 0.90707,2.36394 1.36063,3.5459 0.15116,1.41836 0.12206,2.85559 0.45353,4.25508 0.42735,1.80422 1.3156,3.52581 1.81416,5.31884 0.25892,0.93117 0.22892,1.9001 0.45355,2.8367 0.85332,3.55819 1.95736,7.05435 2.72123,10.63769 2.13729,10.02591 -1.13809,-3.55918 1.36063,4.25507 0.47043,1.47118 0.99362,6.82115 0.45353,8.51014 -1.23718,3.86908 -2.85693,7.46963 -5.89602,10.63768 -0.93334,0.97295 -2.26374,1.01829 -3.62832,1.41836 -0.81275,0.23829 -3.02919,1.28118 -4.08187,1.41836 -0.59649,0.0777 -1.22118,-0.0927 -1.81415,0 -0.20966,0.0328 -0.24613,0.31405 -0.45355,0.35459 -1.46936,0.2872 -4.51006,0.007 -5.89602,-0.35459 -0.46241,-0.12051 -0.72186,-0.87069 -0.90708,-1.06378 -1.86733,-1.94656 0.0129,-0.33435 -0.90708,-1.77294 -0.14767,-0.23089 -0.53004,0.29048 -0.90709,-1.77294 -0.1591,-0.87075 0.53634,-2.70725 0,-3.5459 -0.9459,-1.47906 -2.06388,-3.16212 -3.17478,-4.60966 z"
       id="path26" />
    <path
       style="fill:#939dac;stroke:#000000;stroke-width:0.626999;stroke-opacity:0"
       d="m 117.80646,184.16128 c -2.49304,-8.05201 -1.80697,-16.58477 -2.83871,-24.83871 -0.044,-0.35209 0.13178,-0.73505 0,-1.06451 -0.19646,-0.49113 -0.65954,-0.89277 -0.70969,-1.41936 -0.27826,-2.92172 -0.24996,-17.30958 0,-20.2258 0.19523,-2.27767 0.93222,-7.36746 1.41936,-10.29033 0.65339,-3.92032 0.66844,-8.1037 1.06452,-12.06451 0.0471,-0.47077 -0.11475,-0.96036 0,-1.41936 0.0287,-0.11474 0.2712,0.0836 0.35484,0 0.0836,-0.0836 -0.0609,-0.25341 0,-0.35483 0.65824,-1.09707 1.34356,-2.18366 2.12903,-3.19355 0.34822,-0.44771 4.23052,0.93705 4.6129,1.06451 0.61136,0.20379 2.45008,0.48157 2.83871,1.06452 1.65276,2.47914 2.46223,7.0102 3.19355,9.93549 0.38273,1.53092 0.82456,3.0532 1.06452,4.6129 0.0899,0.58452 -0.0653,1.18641 0,1.77419 0.0539,0.4847 0.23656,0.94624 0.35484,1.41935 0.11827,0.82796 0.28538,1.6504 0.35483,2.48388 0.0491,0.58935 -0.10579,1.19233 0,1.77419 0.13382,0.736 0.54147,1.40012 0.70968,2.12903 0.67091,2.90725 0.38428,5.94241 0.70968,8.87097 0.0539,0.4847 0.31434,0.93336 0.35484,1.41935 0.0786,0.94297 0,1.89248 0,2.83871 0.11828,2.12904 0.17012,4.2628 0.35484,6.3871 0.1944,2.23568 0.48589,4.50409 0.70967,6.74194 0.24117,2.41165 1.02789,4.74797 1.41936,7.09677 0.22795,1.36774 -0.12536,2.87913 0,4.25807 0.097,1.06666 0.23656,2.12903 0.35484,3.19354 0.14077,1.26701 0.82028,3.92625 0.35484,5.32258 -0.4121,1.23629 -1.51046,2.45921 -2.83871,2.83871 -0.45492,0.12998 -0.95543,-0.0928 -1.41936,0 -0.16402,0.0328 -0.20522,0.28003 -0.35484,0.35484 -0.48344,0.24172 -5.20706,0.2063 -6.03226,0 -1.11989,-0.27997 -3.51549,-0.87065 -4.6129,-1.41935 -0.70456,-0.35228 -1.40528,-1.05748 -2.12903,-1.41936 -1.63094,-0.81547 -0.61769,0.092 -1.41935,-0.70967"
       id="path28" />
    <path
       style="fill:#6f7c91;stroke:#000000;stroke-width:0.734919;stroke-opacity:0"
       d="m 121.82317,182.38043 c -0.32627,-5.9777 -0.56943,-12.1228 -0.35303,-18.13026 0.0889,-2.46865 0.57918,-4.88468 0.70605,-7.35011 0.179,-3.47837 0.083,-10.03052 1.05908,-12.7402 0.54181,-1.50411 1.2233,-2.90596 1.76512,-4.41007 1.70564,-4.73495 0.0397,-3.83307 3.88327,-4.90007 0.95152,-0.26415 1.86948,-0.73908 2.82419,-0.98002 0.13151,-0.0331 2.6289,-0.27106 2.8242,0 2.69627,3.7425 3.87901,9.29041 4.94235,14.21022 0.18209,0.84249 0.61642,1.57929 0.70604,2.45003 0.0832,0.80847 -0.0894,1.64285 0,2.45005 0.46969,4.23752 0.84894,3.06829 1.05908,6.8601 0.0902,1.62854 -0.16641,3.28313 0,4.90006 0.15504,1.50639 1.51077,16.20982 1.05908,17.15027 -0.18463,0.38439 -0.53481,0.58387 -0.70605,0.98001 -0.19146,0.44291 -0.13674,1.04972 -0.35303,1.47002 -0.38691,0.75186 -1.04285,1.19124 -1.4121,1.96003 -0.35151,0.73187 -0.35453,1.71817 -0.70604,2.45003 -0.14596,0.30389 -0.51999,0.23175 -0.70606,0.49001 -0.18606,0.25827 -0.16696,0.72176 -0.35302,0.98002 -0.57196,0.7939 -0.75112,0.34885 -1.4121,0.49 -1.30034,0.27769 -2.59585,0.60381 -3.88327,0.98002 -3.04776,0.8906 -3.52793,1.30776 -6.35445,0 -0.46028,-0.21296 -0.97813,-0.18883 -1.41209,-0.49001 -0.10525,-0.073 0.0832,-0.37451 0,-0.49001 -0.16642,-0.23099 -0.53963,0.231 -0.70605,0 -1.06594,-1.47954 -0.75799,-2.73839 -1.05907,-4.41006 -0.25528,-1.4173 -0.9414,-2.61338 -1.4121,-3.92006 z"
       id="path32" />
    <path
       style="fill:#dbdee3;stroke:#000000;stroke-width:0.825254;stroke-opacity:0"
       d="m 55.290812,138.79151 c -0.741104,-7.78276 -2.559816,-20.65028 -7.742555,-22.93209 -0.956689,-0.42121 -2.183183,0 -3.167409,0 -0.630682,0 -3.562612,0.56008 -3.871278,1.23957 -0.242204,0.53318 -1.918292,4.55676 -2.111607,5.57809 -0.191203,1.01017 -0.160731,2.70854 -0.351934,3.71871 -0.199773,1.05546 -0.566824,2.01288 -0.703867,3.09893 -0.101794,0.8067 0.09202,1.66882 0,2.47915 -0.452009,3.98012 -1.473797,7.74832 -1.759672,11.77594 -0.350247,4.93452 0,10.5381 0,15.49466 0,4.66337 -0.262785,9.62725 0,14.25509 0.0165,0.29072 0.277739,0.35847 0.351934,0.61979 0.316603,1.11513 0.421473,3.09521 0.703868,4.3385 0.445743,1.96248 1.326293,3.67004 1.759671,5.57809 0.08714,0.38363 -0.104925,0.86999 0,1.23957 0.656393,2.31193 3.848839,7.01766 5.279015,7.43743 0.462863,0.13589 0.943209,-0.11685 1.40774,0 1.625366,0.40892 3.908462,3.07275 5.630949,1.85937 2.868037,-2.02036 3.477013,-2.37975 5.630949,-7.43745 0.31478,-0.73914 0.332898,-1.82583 0.70387,-2.47914 0.428649,-0.75489 0.786295,-0.29033 1.055801,-1.23957 0.520995,-1.83504 0.642587,-8.48739 0.703869,-9.2968 0.556773,-7.3539 0.176182,1.54605 0.703871,-6.81766 0.28038,-4.44398 0,-9.20791 0,-13.6353 0,-2.9382 -0.588627,-7.39216 -1.40774,-9.91658 -0.291013,-0.89687 -0.754021,-1.59337 -1.055801,-2.47914 -0.120713,-0.35431 0.201188,-1.02699 0,-1.23958 -0.541714,-0.5724 -1.47715,-0.24448 -1.759674,-1.23958 -0.538933,-1.89821 0.778761,-4.3385 0.351936,-4.3385 -0.11731,0 0,0.41319 0,0.61979"
       id="path35" />
    <path
       style="fill:#dbdee3;stroke:#000000;stroke-width:0.626999;stroke-opacity:0"
       d="m 155.41936,178.48387 c -0.35484,-2.01076 -0.67653,-4.02764 -1.06452,-6.03226 -0.3218,-1.66265 -0.7861,-3.29728 -1.06451,-4.96775 -1.43708,-8.62246 -0.70968,-17.84765 -0.70968,-26.6129 0,-3.07527 0,-6.15053 0,-9.2258 0,-0.5914 0,-1.1828 0,-1.7742 0,-0.23656 0.13122,-0.51284 0,-0.70968 -0.18557,-0.27835 -0.69377,-0.37551 -0.70968,-0.70967 -0.10704,-2.24788 0.27452,-4.49295 0.35484,-6.74194 0.0755,-2.11396 -0.35258,-4.62647 0,-6.74193 0.53215,-3.19289 0.62284,-6.37852 1.06452,-9.58065 0.26308,-1.90739 0.79221,-3.77132 1.06451,-5.677417 0.26142,-1.82996 -0.1215,-2.24086 0.70968,-3.90322 0.26448,-0.52897 0.83155,-0.87578 1.06452,-1.41936 0.33173,-0.77404 -0.233,-1.302851 0.70967,-1.774191 0.31738,-0.158689 0.70968,0 1.06452,0 0.82796,0 1.66718,-0.136115 2.48387,0 5.3424,0.8904 5.11111,11.648748 5.67742,15.612898 0.25498,1.78484 0.8341,3.47924 1.06451,5.32258 0.39989,3.19911 0.44309,6.38156 0.70968,9.58065 0.26724,3.20683 1.453,6.36872 1.7742,9.58064 0.18281,1.8282 0.0245,5.09011 0.35483,6.74194 0.10374,0.51869 0.56437,0.91074 0.70968,1.41935 0.0975,0.34119 -0.0502,0.71325 0,1.06452 0.27568,1.92978 0.19512,3.40595 0.35484,5.32258 0.22803,2.73642 0.76468,5.46275 1.06452,8.16129 0.34033,3.06297 0.0753,6.15114 0.35483,9.22581 0.16402,1.80412 0.70968,3.50075 0.70968,5.32258 0,3.01373 0.0561,3.46979 -1.77419,6.03225 -0.34374,0.48124 -0.80004,0.8904 -1.06452,1.41936 -0.0529,0.10579 0.1058,0.30194 0,0.35484 -0.21158,0.10579 -0.50683,-0.12171 -0.70967,0 -0.43031,0.25818 -0.61568,0.84009 -1.06452,1.06451 -0.38527,0.19264 -1.73193,-0.0423 -2.12903,0.35484 -0.18702,0.18702 -0.11828,0.5914 -0.35484,0.70968 -0.74055,0.37027 -1.68064,-0.20081 -2.48387,0 -0.51317,0.12829 -0.92823,0.51323 -1.41936,0.70968 -0.59948,0.23979 -4.01263,0.0818 -4.25806,0 -0.54199,-0.18066 -0.4142,-0.35484 -1.06452,-0.35484"
       id="path37" />
  </g>
</svg>
