<?xml version="1.0" encoding="UTF-8" standalone="no"?>
<!-- Created with Inkscape (http://www.inkscape.org/) -->

<svg
   width="210mm"
   height="297mm"
   viewBox="0 0 210 297"
   version="1.1"
   id="svg1"
   sodipodi:docname="alien.walking.dog.svg"
   inkscape:version="1.3.2 (091e20e, 2023-11-25, custom)"
   xmlns:inkscape="http://www.inkscape.org/namespaces/inkscape"
   xmlns:sodipodi="http://sodipodi.sourceforge.net/DTD/sodipodi-0.dtd"
   xmlns="http://www.w3.org/2000/svg"
   xmlns:svg="http://www.w3.org/2000/svg">
  <sodipodi:namedview
     id="namedview1"
     pagecolor="#ffffff"
     bordercolor="#000000"
     borderopacity="0.25"
     inkscape:showpageshadow="2"
     inkscape:pageopacity="0.0"
     inkscape:pagecheckerboard="0"
     inkscape:deskcolor="#d1d1d1"
     inkscape:document-units="mm"
     inkscape:zoom="0.74564394"
     inkscape:cx="832.83719"
     inkscape:cy="339.9746"
     inkscape:window-width="1920"
     inkscape:window-height="1051"
     inkscape:window-x="-9"
     inkscape:window-y="-9"
     inkscape:window-maximized="1"
     inkscape:current-layer="layer1" />
  <defs
     id="defs1" />
  <g
     inkscape:groupmode="layer"
     id="layer1"
     inkscape:label="Layer 1">
    <path
       style="fill:#dd55ff;fill-opacity:1;stroke:#d35f8d;stroke-width:0.626999;stroke-opacity:0"
       d="m 271.45162,182.74193 33.35483,94.03226"
       id="path198" />
    <path
       style="fill:#ff7f2a;fill-opacity:1;stroke:#d35f8d;stroke-width:0.626999;stroke-opacity:0"
       d="m 46.12903,143.70967 c -2.704685,-1.89441 -6.206109,-5.04754 -7.451611,-8.16129 -1.169884,-0.41939 -0.164119,-1.20203 -0.354838,-1.77419 -0.25091,-0.75273 -0.76984,-1.39234 -1.064517,-2.12903 -0.740661,-1.85165 0.778042,-8.36639 1.419355,-10.29033 0.489011,-1.46703 1.012878,-1.11394 1.774192,-2.12903 0.11828,-0.23656 0.236559,-0.47312 0.354838,-0.70968 0,-0.11827 -0.0529,-0.24904 0,-0.35483 0.264483,-0.52897 0.921084,-0.84562 1.064517,-1.41936 0.08606,-0.34424 -0.139777,-0.73837 0,-1.06451 0.335984,-0.78397 0.946237,-1.41936 1.419355,-2.12904 0.376912,-0.56536 1.748141,-1.3933 1.774195,-1.41935 0.187015,-0.18702 0.134776,-0.56297 0.354838,-0.70968 0.196829,-0.13122 0.542404,0.16727 0.709676,0 0.264483,-0.26448 0.130421,-0.76529 0.354841,-1.06451 0.404889,-0.53986 1.569796,-0.99993 2.12903,-1.41936 0.842748,-0.0878 0.602713,-1.04991 1.064517,-1.41935 0.413052,-0.33044 0.965774,-0.43753 1.419355,-0.70968 0.722463,-0.43348 2.212578,-3.57983 2.483871,-4.25806 1.806569,-4.516428 -0.139761,-6.184914 -2.483871,-9.935489 -0.539264,-0.862819 -1.452439,-1.518605 -1.774193,-2.483871 -1.261277,-3.783827 0.352536,-0.183171 -0.709679,-2.838709 -0.158382,-0.39596 -0.606245,-0.650785 -0.709676,-1.064514 -0.143436,-0.573741 0.304271,-1.267077 0,-1.774196 -0.258183,-0.430305 -0.840097,-0.615677 -1.064516,-1.064516 -0.15869,-0.317376 0.06959,-0.716569 0,-1.064514 -0.05187,-0.259347 -0.311359,-0.448797 -0.354838,-0.709679 -0.47143,-2.828575 -0.02956,-7.737472 1.064516,-10.290323 0.629838,-1.46962 1.45819,-1.813031 2.483869,-2.838709 0.08364,-0.08364 -0.06561,-0.256424 0,-0.354838 0.133032,-0.199546 1.589556,-1.944394 1.774195,-2.129033 0.432655,-0.432655 0.9867,-0.631862 1.419355,-1.064517 1.007766,-1.007763 1.84378,-2.198619 2.838709,-3.193547 0.08364,-0.08364 0.236559,0 0.354838,0 0.47312,-0.473118 0.983917,-0.911344 1.419355,-1.419355 0.27754,-0.323794 0.408122,-0.76296 0.709678,-1.064516 0.721252,-0.721252 1.941751,-1.236017 2.83871,-1.774193 0.365688,-0.219414 0.650785,-0.606245 1.064516,-0.709679 0.573741,-0.143433 1.188741,0.08364 1.774191,0 1.8383,-0.262612 3.41644,-1.535924 5.32258,-1.774192 3.50668,-0.438336 7.46785,0 11,0 1.33409,0 4.10982,-0.404257 5.32258,0 0.25091,0.08364 0.11828,0.591396 0.35484,0.709676 0.97536,0.48768 2.12066,0.514606 3.19355,0.709678 3.68334,0.669698 7.76456,1.526236 10.999997,3.548388 0.58485,0.36553 0.57684,1.286513 1.06452,1.774193 0.0836,0.08364 0.26248,-0.07389 0.35484,0 0.52247,0.417978 0.94623,0.946237 1.41935,1.419354 0.41818,0.418182 0.5914,1.064517 1.06451,1.419355 0.29923,0.22442 0.74379,0.162401 1.06452,0.354838 2.26878,1.361271 -0.94834,0.140671 1.7742,1.774195 0.20284,0.121709 0.51284,-0.13122 0.70967,0 0.22006,0.146706 0.20813,0.489614 0.35484,0.709676 0.28387,0.425807 0.85161,0.567743 1.06452,1.064517 0.23757,0.554347 0.13085,1.21422 0.35484,1.774193 0.0439,0.10982 0.30194,-0.105791 0.35484,0 0.14696,0.29393 0.15233,2.179208 0,2.483871 -0.0748,0.149614 -0.30195,0.196151 -0.35484,0.35484 -0.0748,0.22442 0.0574,0.48018 0,0.709676 -0.21451,0.85802 -0.30389,0.523465 -0.70968,1.064517 -1.63105,2.174737 -3.73524,2.483871 -6.3871,2.483871 -1.70796,0 -3.018617,-0.887928 -4.612897,-1.419354 -0.22442,-0.07481 -0.49004,0.08786 -0.70968,0 -2.8582,-1.143281 -5.43781,-2.541487 -8.16129,-3.903226 -0.10579,-0.0529 -0.23656,0 -0.35484,0 -0.23655,-0.118279 -0.49809,-0.196152 -0.70967,-0.354838 -1.46743,-1.100574 -1.80797,-1.343314 -3.90323,-2.129033 -0.71777,-0.269164 -1.73816,0.186428 -2.48387,0 -0.16228,-0.04057 -0.19082,-0.322035 -0.35484,-0.354838 -0.46393,-0.09279 -0.95267,0.07778 -1.41935,0 -0.26089,-0.04348 -0.4531,-0.290693 -0.70968,-0.354841 -0.77926,-0.194813 -1.70462,0.194815 -2.48387,0 -0.25659,-0.06415 -0.4488,-0.311356 -0.70968,-0.354838 -1.21584,-0.202639 -7.06825,-0.273259 -8.16129,0 -0.11475,0.02869 0,0.236559 0,0.354838 -0.5914,0.118279 -1.17929,0.255688 -1.77419,0.354841 -0.77118,0.128529 -2.25891,-0.224962 -2.838715,0.354838 -0.08364,0.08364 0.08364,0.271203 0,0.354838 -0.08364,0.08364 -0.256423,-0.06561 -0.354838,0 -0.616495,0.410998 -1.586489,1.378222 -1.774192,2.129033 -0.191768,0.767072 0.249195,1.73628 0,2.483871 -0.0529,0.158689 -0.31427,0.192559 -0.354841,0.354838 -0.946235,3.784947 0.315412,-0.157705 0,1.419355 -0.933413,4.667078 -0.164034,9.523682 0.354841,14.193549 0.125544,1.129919 -0.316196,0.619207 0.354838,2.12903 0.60635,1.364292 1.316206,1.819587 1.774192,3.19355 0.07481,0.22442 -0.105791,0.498092 0,0.709676 0.149614,0.299228 0.537555,0.42281 0.709675,0.709679 0.40823,0.680371 0.75197,1.399741 1.06452,2.12903 0.19211,0.44825 0.10393,1.001174 0.35484,1.419354 0.13607,0.22679 0.60226,0.11315 0.70968,0.35484 1.683,3.78677 0.38688,1.64368 0.70967,3.90323 -0.41069,0.92365 0.5867,1.39114 0.70968,2.12903 0.42426,2.54552 -0.73256,4.63578 -2.48387,6.38709 -0.18702,0.18702 -0.52266,0.16782 -0.70968,0.35484 -0.64594,0.64594 -0.57548,1.0991 -1.419353,1.7742 -2.42299,0.80766 -0.114075,-0.24077 -1.419354,1.06451 -0.06538,0.0654 -0.999133,0.28946 -1.064517,0.35484 -0.103926,0.10393 -2.415384,2.66749 -2.483871,2.83871 -0.181118,0.4528 -0.06223,1.02921 -0.354838,1.41935 -0.141936,0.18925 -0.512847,-0.13122 -0.709676,0 -0.539187,0.35946 -3.323236,5.13165 -3.548388,6.03226 -0.465479,1.86192 -1.577102,3.98192 -1.064517,6.03226 0.189754,0.75901 0.745027,2.03432 1.419355,2.48387 0.311213,0.20748 0.800036,0.0904 1.064516,0.35484 0.264481,0.26448 0.09036,0.80004 0.354838,1.06452 0.213001,0.213 0.784964,0.29034 1.064517,0.70967 0.286941,0.43041 1.254371,2.42625 1.419355,2.83871 0.15654,0.39136 0.18185,6.55123 0,7.09678 -0.01894,0.0568 -1.769436,0 -1.774193,0 -0.420971,0 -4.569796,0.0431 -4.612904,0 -0.187016,-0.18702 -0.167823,-0.52266 -0.354838,-0.70968 -0.734174,-0.73417 0.0287,1.12192 -0.709679,-0.35484 -0.0529,-0.10579 0.08364,-0.2712 0,-0.35484 -0.08364,-0.0836 -0.249044,0.0529 -0.354838,0 -0.448839,-0.22442 -0.646978,-0.78615 -1.064517,-1.06451 -0.09841,-0.0656 -0.301942,0.10579 -0.354838,0 -0.158689,-0.31738 0.25091,-0.81361 0,-1.06452 -0.08364,-0.0836 -0.242628,0.0374 -0.354838,0 -0.604268,-0.20142 -1.182796,-0.47312 -1.774195,-0.70968 z"
       id="path202" />
    <path
       style="fill:#ff9955;fill-opacity:1;stroke:#d35f8d;stroke-width:0.626999;stroke-opacity:0"
       d="m 275,279.25807 38.32257,1.0645"
       id="path203" />
    <path
       style="fill:#ff9955;fill-opacity:1;stroke:#d35f8d;stroke-width:0.626999;stroke-opacity:0"
       d="m 47.548387,81.612902 c -4.124073,1.026414 -8.576931,1.480159 -11.709677,4.612905 -1.27307,1.273066 -3.665294,3.899101 -4.258067,5.677418 -0.811977,2.435937 1.358659,-1.652799 -0.354838,1.774193 -0.19072,0.381442 -0.574818,0.659937 -0.709676,1.064517 -0.427765,1.283292 0,4.167875 0,5.677415 0,0.62328 0.927687,3.73083 2.129031,2.12904 0.522033,-0.69605 0.70858,-5.676324 0.709678,-5.677422 0.08363,-0.08364 0.301943,0.105791 0.354838,0 0.245034,-0.490067 0.178827,-1.246159 0.354838,-1.774195 0.340382,-1.021141 1.41646,-1.055828 1.774196,-2.129031 0.112209,-0.336629 -0.15869,-0.747141 0,-1.064517 0.118279,-0.236558 0.52266,-0.167822 0.709676,-0.354838 0.909552,-0.09972 0.130418,-0.765291 0.35484,-1.064516 0.401453,-0.535274 1.048211,-0.86264 1.419355,-1.419355 0.293415,-0.440124 0.392298,-0.996185 0.709676,-1.419355 0.733909,-0.978545 2.913115,-2.888313 3.903226,-3.548388 1.713497,-1.14233 0.421968,0.0959 1.774192,-0.354838 0.851702,-0.2839 2.281783,-1.68349 2.838712,-2.129033 z"
       id="path204" />
    <path
       style="fill:#ff9955;fill-opacity:1;stroke:#d35f8d;stroke-width:0.626999;stroke-opacity:0"
       d="m 61.032258,86.225807 c 3.664465,0 -1.55452,-0.129977 3.903225,0.709676 0.70142,0.107913 1.43314,-0.139179 2.12903,0 1.22672,0.613357 1.48595,0.871265 2.83871,1.064516 1.26487,0.180695 2.65224,-0.250198 3.90323,0 0.73353,0.146707 1.39878,0.547399 2.12903,0.709676 0.34639,0.07698 0.71324,-0.05018 1.06452,0 1.70694,0.243851 3.21842,0.905489 4.96774,1.064517 3.41091,0.310084 6.87215,0.424831 10.29032,0.709679 0.47148,0.03929 0.96036,-0.11475 1.41935,0 0.11475,0.02869 -0.11666,0.335393 0,0.354838 2.69716,0.449524 5.55957,-0.512403 8.161297,0.354838 0.22442,0.07481 0.5424,-0.167273 0.70967,0 0.0836,0.08364 -0.10579,0.301942 0,0.35484 0.21159,0.105791 0.54241,-0.167275 0.70968,0 0.30726,0.307264 -0.23774,1.243703 -0.35484,1.419355 -0.45959,0.689382 -0.27598,0.118279 -1.06451,0.354838 -0.96797,0.290388 -1.863737,0.798616 -2.838717,1.064517 -1.43845,0.392303 -3.14613,-0.293355 -4.6129,0 -0.25934,0.05187 -0.47312,0.236558 -0.70968,0.354838 -0.70967,0 -1.42369,-0.07837 -2.12903,0 -0.37174,0.0413 -0.69177,0.323775 -1.06451,0.354838 -2.92929,0.244107 -6.73836,0.355734 -9.58065,-0.354838 -0.78853,-0.197134 -0.8871,0.295698 -1.77419,0 -0.40458,-0.134861 -0.70968,-0.473118 -1.06452,-0.709679 -0.47312,-0.118279 -0.94623,-0.236559 -1.41935,-0.354838 -1.64295,-0.410734 -3.36114,-0.528982 -4.96774,-1.064517 -0.11221,-0.0374 0.10579,-0.301942 0,-0.354838 -0.4362,-0.218096 -0.96273,-0.183602 -1.41936,-0.354838 -0.96929,-0.363484 -1.85278,-1.090713 -2.83871,-1.419354 -0.11221,-0.0374 -0.23656,0 -0.35484,0 -0.23656,0 -0.48526,0.0748 -0.70967,0 -0.21655,-0.07218 -0.84798,-0.637498 -1.06452,-0.709679 -0.58152,-0.193839 -1.62722,-0.103931 -2.129035,-0.354838 -0.801073,-0.400537 -0.865671,-0.482547 -1.774192,-0.709679 -0.236559,-0.118279 -0.473118,-0.236558 -0.709679,-0.354838 0,-0.118279 0.09842,-0.289229 0,-0.354838 -0.110993,-0.074 -2.269982,-0.709678 -2.483869,-0.709678"
       id="path205" />
    <path
       style="fill:#1a1a1a;fill-opacity:1;stroke:#d35f8d;stroke-width:0.626999;stroke-opacity:0"
       d="m 92.96774,54.64516 c -1.613249,-0.216337 -2.959674,-0.908601 -4.258064,-1.774193 -0.311213,-0.207475 -0.800034,-0.09036 -1.064516,-0.354838 -0.734174,-0.734174 1.121915,0.0287 -0.354838,-0.709678 -0.105794,-0.0529 -0.271204,0.08364 -0.354838,0 -0.268653,-0.26865 0.539204,-1.007693 0.709676,-1.064517 1.232,-0.410665 2.568744,-0.354838 3.903225,-0.354838 0.11828,0 0.301943,0.105794 0.354838,0 0.105794,-0.211585 -0.0748,-0.485257 0,-0.709676 0.676114,-2.028341 0.06775,2.145109 0.709679,-1.064517 0.06959,-0.347948 -0.06959,-0.716568 0,-1.064516 0.11916,-0.595808 0.982983,-1.284997 1.064517,-1.774193 0.11667,-0.700021 -0.22442,-1.455774 0,-2.129033 0.284855,-0.854565 0.779661,-1.629307 1.064516,-2.483871 0.111633,-0.334905 -0.228586,-1.190771 0,-1.419355 0.187016,-0.187016 0.522661,-0.167823 0.709676,-0.354838 0.442058,-0.442058 0.578316,-2.372135 1.774193,-1.774195 0.299228,0.149614 0.410453,0.560064 0.709679,0.709678 0.105793,0.0529 0.301942,-0.105793 0.354838,0 0.218098,0.436195 0.17372,0.966558 0.35484,1.419355 0.06212,0.155308 0.236559,0.236559 0.354838,0.354838 0.11828,0.236559 0.271203,0.458769 0.354838,0.709679 0.149614,0.448839 -0.149614,0.970515 0,1.419354 0.08364,0.25091 0.591399,0.118279 0.709683,0.354838 0.59812,1.196255 0.35483,6.421512 0.35483,8.16129 0,0.236561 -0.16727,0.542406 0,0.709679 0.17742,0.177419 0.8871,-0.177419 1.06452,0 0.0836,0.08363 -0.0836,0.271203 0,0.354838 0.73417,0.734173 -0.0287,-1.121916 0.70968,0.354838 0.0529,0.105793 -0.11221,0.317436 0,0.35484 3.81698,1.272326 -1.46603,-1.450469 1.77419,0.709676 0.0984,0.06561 0.2712,-0.08364 0.35484,0 0.0836,0.08364 -0.0529,0.249047 0,0.354841 0.12425,0.248489 1.02983,0.389525 0.70968,0.709676 -0.0836,0.08364 -0.24905,-0.0529 -0.35484,0 -0.38144,0.190719 -0.65994,0.574818 -1.06452,0.709678 -1.45254,0.48418 -4.67593,-0.257569 -6.032255,-0.709678 -1.20336,-0.401119 -3.593428,0.184925 -4.612905,0.354838 z"
       id="path206" />
    <path
       style="fill:#1a1a1a;fill-opacity:1;stroke:#d35f8d;stroke-width:0.626999;stroke-opacity:0"
       d="m 91.193547,64.935483 c 1.393751,-0.134115 0.303856,2.787727 0.709676,3.193547 0.234178,0.234177 1.371915,0.55598 1.774196,0.354841 0.211584,-0.105794 -0.167273,-0.542407 0,-0.709679 0.08363,-0.08364 0.301942,0.105794 0.354838,0 0.105793,-0.211585 -0.105791,-0.498091 0,-0.709676 0.05289,-0.105794 0.271203,0.08364 0.354838,0 0.268996,-0.268994 0.02056,-2.003901 -0.354838,-2.129033 -0.22442,-0.07481 -0.485257,0.0748 -0.709676,0 -1.778114,-0.592704 2.767938,-1.95879 -2.129034,0 z"
       id="path207" />
    <path
       style="fill:#1a1a1a;fill-opacity:1;stroke:#d35f8d;stroke-width:0.626999;stroke-opacity:0"
       d="m 103.25806,63.516128 c 0.81614,0.128051 0.18385,1.61607 0.35484,2.129033 0.2442,0.732608 0.76554,0.821389 1.06452,1.419355 0.10579,0.211585 -0.16727,0.542404 0,0.709676 0.0836,0.08364 0.24904,-0.05289 0.35484,0 0.14961,0.07481 0.20522,0.280032 0.35484,0.354838 1.24831,0.62416 2.59521,-3.437043 2.12903,-3.903223 -0.40804,-0.408035 -1.35848,-0.432533 -1.7742,-0.709679 -0.0984,-0.06561 0.11221,-0.317436 0,-0.354838 -0.66522,-0.221742 -1.93929,0.218694 -2.48387,0.354838 z"
       id="path208" />
    <path
       style="fill:#666666;fill-opacity:1;stroke:#d35f8d;stroke-width:0.626999;stroke-opacity:0"
       d="m -41.870968,258.67742 1.064516,34.06451"
       id="path209" />
    <path
       style="fill:#666666;fill-opacity:1;stroke:#d35f8d;stroke-width:0.626999;stroke-opacity:0"
       d="m 97.935483,93.322581 c 0.829082,2.919529 2.490177,5.339402 3.548387,8.161289 1.16988,0.41939 0.16412,1.20203 0.35484,1.77419 0.25234,0.75702 0.73243,1.46487 1.06452,2.12904 0.10579,0.21158 -0.16728,0.5424 0,0.70967 1.10394,1.10394 0.43369,-0.51254 1.06451,1.06452 0.45528,1.1382 0.38789,1.62078 1.06452,2.83871 0.44863,0.80754 1.36106,1.30276 1.77419,2.12903 1.25666,0.38867 0.14307,1.20949 0.35484,1.77419 0.41862,1.11633 1.75787,4.11259 2.48387,5.32258 0.17212,0.28687 0.53755,0.42281 0.70968,0.70968 0.19244,0.32073 0.12118,0.77245 0.35484,1.06452 0.26641,0.33301 0.71962,0.45884 1.06451,0.70968 0.95657,0.69568 1.81704,1.53305 2.83871,2.12903 0.42125,0.24573 0.98316,0.13674 1.41936,0.35484 0.10579,0.0529 -0.0984,0.28923 0,0.35484 1.28129,0.85419 0.7541,-0.1064 1.77419,0.70967 0.59958,0.47967 3.58457,2.91108 3.90323,3.54839 0.10579,0.21158 0,0.47312 0,0.70968 0.35483,0.23656 0.76296,0.40812 1.06451,0.70967 0.0836,0.0836 -0.0836,0.27121 0,0.35484 0.18702,0.18702 0.52266,0.16783 0.70968,0.35484 0.60497,0.60497 1.11936,1.4742 1.77419,2.12904 0.41819,0.41817 1.00118,0.64633 1.41936,1.06451 0.18701,0.18702 0.13477,0.56297 0.35484,0.70968 0.29524,0.19683 0.8136,-0.25091 1.06451,0 0.0836,0.0836 -0.0836,0.2712 0,0.35484 0.18702,0.18701 0.48962,0.20813 0.70968,0.35483 0.375,0.25001 2.36395,0.70968 2.83871,0.70968 0.35484,0 1.41936,0 1.06451,0 -2.95632,0 -3.01954,-1.33235 -5.32258,-2.48387 -0.21158,-0.10579 -0.50907,0.12538 -0.70967,0 -0.78338,-0.48961 -1.37731,-1.23725 -2.12903,-1.77419 -0.0962,-0.0687 -0.28923,0.0984 -0.35484,0 -3.5568,-5.33519 1.00222,0.72413 -1.7742,-3.90323 -0.0608,-0.10142 -0.2712,0.0836 -0.35484,0 -0.20244,-0.20244 -0.92451,-1.35418 -1.06451,-1.77419 -0.0748,-0.22442 0.16727,-0.54241 0,-0.70968 -0.18702,-0.18701 -0.50315,-0.18962 -0.70968,-0.35484 -0.39185,-0.31348 -0.66306,-0.76342 -1.06452,-1.06451 -0.0946,-0.071 -0.23655,0 -0.35483,0 -0.23656,-0.11828 -0.52266,-0.16783 -0.70968,-0.35484 -0.37403,-0.37403 -0.28651,-1.10198 -0.70968,-1.41936 -0.29923,-0.22442 -0.74378,-0.1624 -1.06451,-0.35484 -1.59522,-0.95713 -0.008,-0.36267 -1.06452,-1.41935 -0.54623,-0.54623 -1.5828,-0.87313 -2.12903,-1.41936 -1.40317,-1.40316 0.97412,-0.0904 -0.70968,-1.77419 -0.26448,-0.26448 -0.80003,-0.0904 -1.06452,-0.35484 -0.16727,-0.16727 0.0879,-0.49004 0,-0.70967 -0.41131,-1.02829 -1.25126,-1.61233 -1.77419,-2.48388 -0.19244,-0.32073 -0.18757,-0.72997 -0.35484,-1.06451 -0.14961,-0.29923 -0.56006,-0.41045 -0.70968,-0.70968 -0.25546,-0.51093 -0.71206,-2.13142 -1.06451,-2.48387 -0.0836,-0.0836 -0.2712,0.0836 -0.35484,0 -0.18702,-0.18702 -0.19615,-0.49809 -0.35484,-0.70968 -0.20073,-0.26763 -0.57789,-0.40218 -0.70968,-0.70967 -0.23757,-0.55435 -0.18915,-1.19429 -0.35484,-1.7742 0.21387,-0.64224 -0.57481,-0.65994 -0.70967,-1.06451 -0.17623,-0.52868 -0.078,-1.66767 -0.35484,-2.12904 -2.24305,-3.738411 -0.40859,1.15062 -1.06452,-2.12903 -0.0448,-0.22387 -1.77328,-2.837799 -1.77419,-2.838709 -0.21737,-0.217364 -0.92865,-0.302081 -1.06452,-0.709676 -0.11221,-0.33663 0.25091,-0.813607 0,-1.064517 -0.48147,-0.481478 -0.70967,0.402717 -0.70967,-0.709679"
       id="path210" />
    <path
       style="fill:#d35f5f;fill-opacity:1;stroke:#d35f8d;stroke-width:0.626999;stroke-opacity:0"
       d="m 125.25806,146.54839 c -0.11828,-0.47312 -0.23655,-0.94624 -0.35484,-1.41936 -0.11828,-0.23656 -0.29069,-0.45309 -0.35483,-0.70968 -0.38939,-1.55754 0,-3.72122 0,-5.32258 0,-0.35484 -0.25091,-0.8136 0,-1.06451 0.0836,-0.0836 0.2712,0.0836 0.35483,0 0.18702,-0.18702 0.11829,-0.5914 0.35484,-0.70968 0.37222,-0.18611 1.40627,0.0131 1.7742,-0.35484 0.0836,-0.0836 -0.1058,-0.30194 0,-0.35484 0.21158,-0.10579 0.48526,0.0748 0.70968,0 0.27117,-0.0904 0.80405,-0.57944 1.06451,-0.70968 0.29923,-0.14961 0.38512,-0.62853 0.70968,-0.70967 0.34424,-0.0861 0.72027,0.0861 1.06451,0 2.07656,-0.51914 -0.80346,-0.13053 0.35484,-0.70968 0.40922,-0.20461 9.69341,-0.12104 9.93548,0 0.14962,0.0748 0.23657,0.23656 0.35485,0.35484 0.35483,0 0.72788,-0.11221 1.06451,0 0.11221,0.0374 -0.10579,0.30194 0,0.35484 0.70968,0.35483 0.53226,-0.17742 1.06452,0 0.91933,0.30644 0.96092,1.01272 1.77419,1.41935 0.21159,0.10579 0.48526,-0.0748 0.70968,0 0.31738,0.10579 0.41045,0.56007 0.70968,0.70968 0.10579,0.0529 0.2712,-0.0836 0.35483,0 0.96113,0.96113 0.94233,5.57872 0.70968,6.74193 -0.29303,1.46518 -1.26511,1.48622 -2.12903,1.7742 -0.31738,0.10579 -0.43132,0.5241 -0.70968,0.70968 -0.91678,0.61118 -0.86312,0.0511 -1.77419,0.35483 -0.76427,0.25476 -1.57571,0.91316 -2.48387,1.06452 -1.26591,0.21098 -2.63732,-0.21099 -3.90323,0 -2.04317,0.34053 -3.94952,0.35484 -6.03226,0.35484 -0.90284,0 -4.77075,-0.15785 -4.96774,-0.35484 -0.34484,-0.34484 -0.23656,-0.94624 -0.35484,-1.41935 z"
       id="path211" />
    <path
       style="fill:#782121;fill-opacity:1;stroke:#d35f8d;stroke-width:0.626999;stroke-opacity:0"
       d="m 128.09677,135.81452 c -0.0646,1.0081 -0.0887,2.00228 -0.0887,3.01612 0,0.82247 -0.0936,1.75198 0.0887,2.57258 0.1126,0.50669 0.20989,2.95989 0.44355,3.19355 0.31932,0.31932 0.88043,0.79339 1.24194,1.06452 0.57287,0.42965 -0.50835,-0.63331 0.62097,0.35484 0.11126,0.0974 0.16991,0.24258 0.26612,0.35484 0.13608,0.15875 0.33597,0.26425 0.44355,0.44354 0.0481,0.0802 0.0469,0.1825 0.0887,0.26613 0.12557,0.25114 0.33772,0.42643 0.53226,0.62097 0.28555,0.28555 -0.17235,-0.13053 0.26613,0.0887 0.0265,0.0132 -0.0209,0.0678 0,0.0887 0.0172,0.0172 0.44256,0.003 0.44355,0 0.13394,-0.40183 -0.3539,-0.61956 -0.53226,-0.8871 -0.21419,-0.32128 -0.30789,-0.79424 -0.53226,-1.15322 -0.16952,-0.27123 -0.32164,-0.55768 -0.53226,-0.79839 -0.0702,-0.0802 -0.19787,-0.0955 -0.26613,-0.17742 -0.15089,-0.18107 -0.61862,-1.10302 -0.70967,-1.33064 -0.056,-0.14 -0.0372,-0.30185 -0.0887,-0.44355 -0.0678,-0.18642 -0.19834,-0.34584 -0.26613,-0.53226 -0.0856,-0.23542 -0.0655,-0.66322 -0.17742,-0.8871 -0.0771,-0.15421 -0.19821,-0.28506 -0.26613,-0.44354 -0.0233,-0.0544 0.0143,-0.12005 0,-0.17742 -0.10912,-0.43647 -0.27508,-0.71454 -0.35484,-1.15323 -0.0844,-0.46445 0.0106,-0.9727 -0.0887,-1.41935 -0.0722,-0.32489 -0.27427,-0.74225 -0.35484,-1.06452 -0.0618,-0.24733 0.0418,-0.54769 0,-0.79839 -0.0109,-0.0652 -0.0591,-0.11828 -0.0887,-0.17742 -0.0296,-0.20699 -0.0887,-0.41188 -0.0887,-0.62096 0,-0.21096 0.0887,-0.41001 0.0887,-0.62097"
       id="path212" />
    <path
       style="fill:#782121;fill-opacity:1;stroke:#d35f8d;stroke-width:0.626999;stroke-opacity:0"
       d="m 133.8629,135.19355 c 0.013,1.99462 -0.86637,3.88498 -0.9758,5.85484 -0.0667,1.20117 0.0484,2.08488 0.26613,3.28225 0.0687,0.37816 0.16086,1.281 0.26612,1.59678 0.0633,0.18996 0.24342,0.44269 0.35484,0.62097 0.0914,0.14621 0.15842,0.3089 0.26613,0.44354 0.0185,0.0231 0.0633,-0.0152 0.0887,0 0.26449,0.1587 0.39949,0.26672 0.53226,0.53226 0.0591,0.11828 0.11828,0.23656 0.17742,0.35484 0.0132,0.0265 -0.0209,0.10962 0,0.0887 0.31306,-0.31306 -0.12044,-1.49868 -0.26613,-1.8629 -0.0155,-0.0388 -0.0591,-0.0591 -0.0887,-0.0887 -0.0887,-0.23656 -0.20183,-0.46535 -0.26613,-0.70968 -0.2679,-1.01801 -0.19211,-2.06866 -0.26613,-3.10484 -0.009,-0.12161 -0.0777,-0.23342 -0.0887,-0.35484 -0.13142,-1.44564 0.0563,-0.0986 0,-0.88709 -0.0722,-1.01106 -0.0887,-2.00242 -0.0887,-3.01613 0,-0.50161 0.018,-1.0133 0.0887,-1.50807 0.022,-0.1542 0.32069,-0.68926 0.26613,-0.79838 -0.0771,-0.15422 -0.31149,-0.27721 -0.26613,-0.44355 0.066,-0.24207 0.38172,-0.33153 0.53226,-0.53226 0.0963,-0.1284 -0.1502,-0.35484 0.0887,-0.35484"
       id="path213" />
    <path
       style="fill:#782121;fill-opacity:1;stroke:#d35f8d;stroke-width:0.626999;stroke-opacity:0"
       d="m 138.20968,134.75 c -0.0798,1.00253 -0.29538,2.00522 -0.35484,3.01613 -0.0961,1.63365 -0.19229,3.33333 0,4.96774 0.0109,0.0929 0.0794,0.17308 0.0887,0.26613 0.0206,0.20596 -0.0206,0.415 0,0.62097 0.0279,0.27913 0.19809,0.52623 0.26613,0.79838 0.0143,0.0574 -0.0208,0.12205 0,0.17742 0.19909,0.53093 0.51482,1.07362 0.9758,1.41936 0.13794,0.10345 0.31109,0.15575 0.44355,0.26613 0.0508,0.0423 0.0358,0.13774 0.0887,0.17742 0.0748,0.0561 0.18249,0.0469 0.26613,0.0887 0.0954,0.0477 0.17077,0.12973 0.26613,0.17741 0.0265,0.0132 0.0678,-0.0209 0.0887,0 0.0222,0.0222 0.0915,0.44078 0.26613,0.26613 0.18321,-0.18322 -0.13167,-0.4236 -0.17742,-0.53225 -0.38094,-0.90473 -0.531,-1.77103 -0.8871,-2.66129 -0.23663,-0.59159 -0.62803,-1.14954 -0.79839,-1.7742 -0.30599,-1.12196 -0.25947,-2.31535 -0.35483,-3.45967 -0.0411,-0.49298 -0.23238,-1.60932 -0.0887,-2.04033 0.0337,-0.10114 0.12974,-0.17077 0.17742,-0.26613 0.24618,-0.49236 0.44354,-1.13948 0.44354,-1.68548"
       id="path214" />
    <path
       style="fill:#782121;fill-opacity:1;stroke:#d35f8d;stroke-width:0.626999;stroke-opacity:0"
       d="m 143.8871,136.34677 c 0,0.26613 -0.0265,0.53358 0,0.79839 0.0735,0.73507 0.30561,1.4793 0.35483,2.21774 0.0605,0.90787 0.0887,1.83928 0.0887,2.75 0,0.57378 -0.037,1.11671 -0.0887,1.68549 -0.0698,0.76761 -0.0887,1.53364 -0.0887,2.30645 0,0.12824 -0.12826,1.50806 -0.0887,1.50806 0.0296,0 -0.007,-0.06 0,-0.0887 0.0227,-0.0907 0.0591,-0.17742 0.0887,-0.26613 0.0473,-0.14193 0.13011,-0.30161 0.17742,-0.44355 0.19359,-0.58075 0.0887,-1.26176 0.0887,-1.8629 0,-0.54012 0.0494,-1.14254 0,-1.68548 -0.0972,-1.06968 -0.3247,-2.12393 -0.44354,-3.19355 -0.0208,-0.18724 -0.0579,-1.14953 -0.0887,-1.24194 -0.009,-0.028 -0.0723,0.0246 -0.0887,0 -0.0883,-0.13249 -0.12707,-0.29248 -0.17742,-0.44354 -0.0374,-0.11221 0.0212,-0.23847 0,-0.35484 -0.0758,-0.41663 -0.4357,-1.88646 -0.26613,-2.39516 0.0893,-0.26797 0.35977,0.0776 0.44355,0.26612 0.1776,0.39962 0.26199,1.18622 0.44354,1.68549 0.0995,0.27369 0.28421,0.51585 0.35484,0.79839 0.0578,0.23128 0.0495,0.47452 0.0887,0.70967 0.07,0.41992 0.20541,0.81685 0.26613,1.24194 0.10026,0.70179 0.0887,1.22883 0.0887,1.95161 0,0.42731 0.0289,0.83015 -0.0887,1.24194 -0.0749,0.26213 -0.0972,0.53782 -0.17742,0.79838 -0.0743,0.24148 -0.20932,0.46351 -0.26613,0.70968 -0.0332,0.14406 0.029,0.29857 0,0.44355 -0.0312,0.15615 -0.14287,0.2881 -0.17742,0.44355 -0.0321,0.14433 0.0359,0.30011 0,0.44355 -0.10385,0.41542 -0.26613,0.89892 -0.26613,1.33064"
       id="path215" />
    <path
       style="fill:#1a1a1a;fill-opacity:1;stroke:#d35f8d;stroke-width:0.626999;stroke-opacity:0"
       d="m 143.70968,132.53226 c -0.26613,0.0296 -0.53155,0.0665 -0.79839,0.0887 -0.53284,0.0444 -1.04113,-0.014 -1.50807,0.26613 -0.36021,0.21612 -0.28243,0.74227 -0.44354,1.06451 -0.0374,0.0748 -0.13103,0.10783 -0.17742,0.17742 -0.082,0.12302 0,0.2957 0,0.44355 0,0.56784 0.0341,0.99483 0.35484,1.50806 0.1096,0.17537 0.55272,0.2866 0.70967,0.44355 0.15278,0.15278 0.19122,0.29176 0.44355,0.35484 0.12023,0.0301 0.55354,0 0.62097,0 1.58597,0 2.00042,-0.99788 1.68548,-2.57258 -0.0494,-0.24686 -0.0107,-0.56425 -0.0887,-0.79839 -0.0294,-0.0883 -0.14797,-0.17779 -0.17742,-0.26613 -0.028,-0.0841 0.0397,-0.18678 0,-0.26612 -0.15403,-0.30808 -0.45153,-0.10468 -0.62096,-0.44355 -0.66279,-1.32557 0.28026,-0.34071 -0.0887,-0.70968"
       id="path217" />
    <path
       style="fill:#1a1a1a;fill-opacity:1;stroke:#d35f8d;stroke-width:0.626999;stroke-opacity:0"
       d="m 145.92742,132.53226 c 0,0.41398 0,0.82795 0,1.24193 0,0.6101 -0.10053,1.34845 0,1.95162 0.0109,0.0652 0.0778,0.11219 0.0887,0.17741 0.0194,0.11668 -0.0287,0.2401 0,0.35484 0.007,0.0287 0.0794,-0.0281 0.0887,0 0.0468,0.14027 -0.10455,0.33901 0,0.44355 0.53876,0.53876 1.65362,0.35939 2.30645,0.26613 0.31849,-0.0455 1.0782,-0.19795 1.24193,-0.44355 0.26046,-0.39068 0.38024,-1.05161 0.26613,-1.50806 -0.0321,-0.12829 -0.1283,-0.23206 -0.17742,-0.35484 -0.011,-0.0275 0,-0.0591 0,-0.0887 -0.0296,-0.14785 -0.009,-0.31569 -0.0887,-0.44355 -0.0784,-0.12538 -0.26019,-0.15255 -0.35483,-0.26613 -0.0599,-0.0718 -0.0469,-0.18249 -0.0887,-0.26613 -0.28521,-0.5704 -0.76132,-0.87474 -1.33065,-1.06451 -0.0445,-0.0148 -1.53118,-0.15431 -1.59677,-0.0887 -0.0418,0.0418 0.0591,0.17742 0,0.17742 -0.12192,0 -0.23656,-0.0591 -0.35484,-0.0887 z"
       id="path218" />
    <path
       style="fill:#f9f9f9;fill-opacity:1;stroke:#d35f8d;stroke-width:0.626999;stroke-opacity:0"
       d="m 143.08871,134.04032 c -0.0591,0.11828 -0.0948,0.25158 -0.17742,0.35484 -0.0413,0.0516 -0.12579,0.0474 -0.17742,0.0887 -0.30236,0.24189 -0.44355,0.42317 -0.44355,0.79839 0,0.0591 -0.0492,0.14461 0,0.17741 0.46894,0.31263 0.11736,0.0209 0.35484,0.0887 0.29885,0.0854 1.95161,0.8201 1.95161,0 0,-0.0174 0.0223,-0.58751 0,-0.62097 -0.0691,-0.10358 -0.74211,-0.49602 -0.88709,-0.53226 -0.0574,-0.0143 -0.12607,0.0293 -0.17742,0 -0.1644,-0.0939 -0.2957,-0.23656 -0.44355,-0.35484 z"
       id="path219" />
    <path
       style="fill:#f9f9f9;fill-opacity:1;stroke:#d35f8d;stroke-width:0.626999;stroke-opacity:0"
       d="m 148.5,134.92742 c -0.0229,0.11419 -0.19409,2.02365 -0.0887,2.12903 0.26759,0.26759 1.15331,0.0709 1.41935,-0.0887 0.0567,-0.034 0.042,-0.13067 0.0887,-0.17742 0.1081,-0.10809 0.33546,-0.15803 0.44355,-0.26613 0.10166,-0.10165 0.0887,-0.41766 0.0887,-0.53226 0,-0.0591 0.0328,-0.12821 0,-0.17741 -0.0845,-0.1267 -0.18166,-0.0507 -0.26613,-0.17742 -0.0369,-0.0553 -0.32081,-0.42313 -0.35484,-0.44355 -0.10454,-0.0627 -0.25029,-0.026 -0.35484,-0.0887 -0.0567,-0.034 -0.0419,-0.13067 -0.0887,-0.17742 -0.11951,-0.1195 -0.54501,-0.44355 -0.62097,-0.44355"
       id="path220" />
    <path
       style="fill:#501616;fill-opacity:1;stroke:#d35f8d;stroke-width:0.626999;stroke-opacity:0"
       d="m 127.74194,148.05645 c -0.0152,1.09506 0.011,2.25942 -0.44356,3.28226 -0.0433,0.0974 -0.13542,0.16813 -0.17741,0.26613 -0.099,0.23106 -0.15718,0.49177 -0.26613,0.70967 -0.0374,0.0748 -0.17742,0.0938 -0.17742,0.17742 0,0.16223 0.74634,-0.71512 0.79838,-0.79838 0.52581,-0.84129 0.62165,-1.87034 0.70968,-2.83871 0.002,-0.0271 -0.0475,-0.57352 0,-0.62097 0.0444,-0.0444 0.22178,0.0444 0.26613,0 0.11828,-0.11828 -0.18818,-0.0851 0.0887,-0.17742 0.51055,-0.17018 3.0953,0.22266 3.6371,0.53226 0.94898,0.54228 1.24193,1.53368 1.24193,2.57258 0,0.0973 -0.0798,0.67389 -0.0887,0.70968 -0.007,0.0287 -0.0723,-0.0246 -0.0887,0 -0.10204,0.15306 -0.0887,0.28281 -0.0887,0.44354 0,0.0296 0,0.11828 0,0.0887 0,-0.55023 -0.0265,0.46063 0.26612,-0.70967 0.0721,-0.2883 0.0304,-0.5957 0.0887,-0.8871 0.0312,-0.15615 0.14894,-0.28688 0.17742,-0.44355 0.082,-0.45117 0.0499,-1.69928 -0.17742,-2.04032 -0.0367,-0.055 -0.0678,-0.11469 -0.0887,-0.17742 -0.009,-0.0281 0.028,-0.0794 0,-0.0887 -0.35353,-0.11785 -0.78523,0.12649 -1.06451,0.26613 -0.0804,0.0402 -0.36483,0 -0.44355,0 -0.0296,0 0.0607,0.009 0.0887,0 0.34547,-0.11516 0.008,-0.0887 0.35484,-0.0887 0.44354,0 0.88709,0 1.33064,0 1.15627,0 2.24143,0.0362 3.37097,0.17742 0.0413,0.005 0.4193,-0.0377 0.53226,0 1.00735,0.33578 0.81913,1.93441 0.8871,2.75 0.008,0.0932 0.0591,0.17742 0.0887,0.26613 0,0.20699 0,0.41398 0,0.62097 0,0.11827 0,0.23655 0,0.35483 0,0.0296 -0.0296,0.0887 0,0.0887 0.0416,0 0.32772,-0.8538 0.35483,-0.9758 0.0884,-0.39794 0.20716,-1.41887 0.0887,-1.7742 -0.0132,-0.0397 -0.0722,-0.0503 -0.0887,-0.0887 -0.0737,-0.17189 -0.11828,-0.35483 -0.17742,-0.53225 -0.0603,-0.18091 -0.092,-0.45018 -0.17741,-0.62097 -0.23036,-0.4607 -1.28935,-0.34452 -1.68549,-0.44355 -0.73838,-0.18459 0.10708,0.006 -0.44355,-0.17742 -0.10837,-0.0361 -0.45594,0.0763 -0.53226,0 -0.14517,-0.14518 0.68752,-0.17742 0.79839,-0.17742 0.55941,0 1.61491,-0.006 2.12903,-0.17742 0.3972,-0.1324 0.82285,-0.31293 1.24194,-0.35484 0.48618,-0.0486 1.11248,0 1.59677,0 0.22024,0 1.26289,0.0105 1.41936,0.0887 0.0591,0.0296 0.0296,0.14785 0.0887,0.17742 0.16705,0.0835 0.54433,0.0121 0.70968,0.17742 0.11407,0.11408 0.31188,0.44915 0.35483,0.62097 0.10038,0.40151 0.0144,2.54949 -0.0887,2.92742 -0.0842,0.30878 -0.16884,0.59525 -0.26612,0.8871 -0.0187,0.0561 -0.0529,0.20386 0,0.17741 0.57465,-0.28732 0.46103,-1.54178 0.53225,-2.04032 0.009,-0.0654 0.0705,-0.11384 0.0887,-0.17742 0.0414,-0.14497 0.0293,-0.30496 0.0887,-0.44355 0.0329,-0.0769 0.13103,-0.10782 0.17742,-0.17741 0.0657,-0.0986 0.0463,-0.79459 0,-0.8871 -0.0968,-0.19366 -0.23402,-0.35104 -0.35484,-0.53226 -0.0164,-0.0246 0,-0.0591 0,-0.0887 -0.0296,-0.0591 -0.049,-0.12452 -0.0887,-0.17742 -0.47856,-0.63809 0.0985,0.18721 -0.35483,-0.26613 -0.0304,-0.0303 -0.34595,-0.52336 -0.35484,-0.53226 -0.0209,-0.0209 -0.0678,0.0209 -0.0887,0 -0.0209,-0.0209 0.0209,-0.0678 0,-0.0887 -0.10739,-0.10738 -0.35411,-0.088 -0.44355,-0.17741 -0.11828,-0.11828 0.14785,-0.0887 -0.0887,-0.0887"
       id="path221" />
  </g>
</svg>
