<?xml version="1.0" encoding="UTF-8" standalone="no"?>
<!-- Created with Inkscape (http://www.inkscape.org/) -->

<svg
   width="210mm"
   height="297mm"
   viewBox="0 0 210 297"
   version="1.1"
   id="svg1"
   sodipodi:docname="alien.surprised.svg"
   inkscape:version="1.3.2 (091e20e, 2023-11-25, custom)"
   xmlns:inkscape="http://www.inkscape.org/namespaces/inkscape"
   xmlns:sodipodi="http://sodipodi.sourceforge.net/DTD/sodipodi-0.dtd"
   xmlns="http://www.w3.org/2000/svg"
   xmlns:svg="http://www.w3.org/2000/svg">
  <sodipodi:namedview
     id="namedview1"
     pagecolor="#ffffff"
     bordercolor="#000000"
     borderopacity="0.25"
     inkscape:showpageshadow="2"
     inkscape:pageopacity="0.0"
     inkscape:pagecheckerboard="0"
     inkscape:deskcolor="#d1d1d1"
     inkscape:document-units="mm"
     inkscape:zoom="0.52724989"
     inkscape:cx="570.8868"
     inkscape:cy="554.76541"
     inkscape:window-width="1920"
     inkscape:window-height="1051"
     inkscape:window-x="-9"
     inkscape:window-y="-9"
     inkscape:window-maximized="1"
     inkscape:current-layer="layer1" />
  <defs
     id="defs1" />
  <g
     inkscape:groupmode="layer"
     id="layer1"
     inkscape:label="Layer 1">
    <path
       style="fill:#454837;fill-opacity:1;stroke:#d35f8d;stroke-width:0.626999;stroke-opacity:0"
       d="m 294.16129,75.935482 3.54838,23.774193"
       id="path237" />
    <path
       style="fill:#8800aa;fill-opacity:1;stroke:#d35f8d;stroke-width:0.626999;stroke-opacity:0"
       d="m 32.61815,296.57426 c -1.598803,-11.99102 -0.917217,-3.35354 -0.501816,-17.06179 0.376912,-12.43814 -0.577678,-1.56086 0.501816,-15.05454 0.295553,-3.69439 1.288495,-7.35167 1.505453,-11.03999 0.335209,-5.69852 0.506119,-11.3989 1.505455,-17.0618 1.038768,-5.88636 2.531912,-11.67875 3.512723,-17.56362 2.429142,-14.57485 -0.511371,2.09325 0.501819,-7.02545 0.284152,-2.55737 2.005391,-4.50696 2.509089,-7.02544 1.085371,-5.42686 1.516057,-11.36866 3.512722,-16.55999 0.350133,-0.91034 1.06926,-1.6367 1.505455,-2.50909 1.903727,-3.80745 3.503446,-8.44596 6.021811,-12.04362 0.959247,-1.37035 2.181002,-2.56221 3.010908,-4.01455 0.524875,-0.91853 0.396954,-2.14422 1.003633,-3.0109 1.490821,-2.12974 4.619651,-3.18306 6.021813,-5.51999 2.303254,-3.83876 4.064868,-8.06054 8.029083,-10.53818 1.259465,-0.78716 3.693332,-1.7423 5.018178,-2.00727 0.656098,-0.13122 1.351174,0.13122 2.007272,0 0.231965,-0.0464 0.282178,-0.41396 0.501816,-0.50181 1.492679,-0.59708 3.451958,-0.6904 5.018178,-1.00364 1.590984,-0.3182 3.383917,0 5.018177,0 4.349086,0 8.698174,0 13.047265,0 3.96477,0 8.19746,-0.0953 12.04362,1.00364 0.22746,0.065 0.33454,0.33454 0.50182,0.50181 1.00363,0.16727 1.99965,0.38946 3.0109,0.50182 0.49875,0.0554 1.05662,-0.22442 1.50546,0 1.25183,1.25183 1.14376,1.46114 2.50909,2.00727 4.09625,1.6385 8.30208,3.11472 12.04362,5.51999 1.40706,0.90454 2.62275,2.08305 4.01454,3.01091 0.13918,0.0928 0.38354,-0.11828 0.50182,0 2.47738,2.47738 4.54095,5.54459 7.02545,8.02909 0.11828,0.11827 0.36264,-0.0928 0.50182,0 2.17404,1.44936 3.5379,3.86868 5.01817,6.02181 1.90711,2.77397 2.866,6.09873 4.51636,9.03272 0.41004,0.72895 1.07515,1.29009 1.50545,2.00727 0.0861,0.14343 0,0.33454 0,0.50181 0.16728,0.50182 0.20841,1.06534 0.50182,1.50546 0.39366,0.59049 1.21723,0.85694 1.50546,1.50545 0.41323,0.92978 0.20944,2.03634 0.50181,3.01091 0.8435,2.81166 2.52202,5.75692 3.51273,8.5309 0.78647,2.20211 1.86555,4.77305 2.50909,7.02545 0.94243,3.29853 -1.59592,-2.10593 0.50181,2.50908 0.61911,1.36203 1.53416,2.59519 2.00728,4.01455 0.37403,1.12209 0.26985,2.35289 0.50181,3.51272 0.10374,0.51869 0.33455,1.00364 0.50182,1.50545 0.33455,1.17091 0.80344,2.31153 1.00363,3.51273 0.30375,1.82245 0.1147,3.71342 0.50182,5.51999 0.12637,0.58972 0.81292,0.9333 1.00364,1.50545 0.15869,0.47607 -0.10515,1.01478 0,1.50546 0.88211,4.11653 2.15794,7.82987 2.50909,12.04362 1.02506,12.30072 0.50182,24.79615 0.50182,37.13452 0,2.45928 -0.24395,5.08781 0,7.52726 0.0686,0.68625 0.43937,1.32041 0.50181,2.00727 0.63859,7.02445 0,15.41221 0,22.58179"
       id="path251" />
    <path
       style="fill:#d42aff;fill-opacity:1;stroke:#d35f8d;stroke-width:0.568693;stroke-opacity:0"
       d="m 40.614617,305.99666 c -1.386791,-11.37264 -0.795587,-3.1806 -0.435272,-16.18192 0.326931,-11.79669 -0.501073,-1.48036 0.435272,-14.27817 0.25636,-3.50386 1.117632,-6.97254 1.305819,-10.47066 0.290759,-5.40465 0.439005,-10.81105 1.305822,-16.18191 0.901019,-5.5828 2.196163,-11.07649 3.046911,-16.65787 2.10702,-13.82323 -0.44356,1.9853 0.435274,-6.66315 0.246471,-2.42548 1.739461,-4.27453 2.176366,-6.66314 0.941442,-5.14699 1.315016,-10.78238 3.04691,-15.70599 0.303703,-0.86338 0.927468,-1.5523 1.305821,-2.37969 1.651279,-3.61111 3.038865,-8.0104 5.223277,-11.42254 0.832043,-1.29967 1.891785,-2.43006 2.611639,-3.80752 0.455274,-0.87116 0.344315,-2.03363 0.870545,-2.85561 1.293127,-2.01992 4.007052,-3.01892 5.223277,-5.23533 1.997826,-3.6408 3.525838,-7.64487 6.96437,-9.99472 1.092451,-0.74658 3.20357,-1.65246 4.352732,-1.90377 0.569094,-0.12445 1.171999,0.12446 1.741093,0 0.201205,-0.044 0.24476,-0.39261 0.435272,-0.47592 1.294739,-0.5663 2.994204,-0.65481 4.352732,-0.95189 1.380008,-0.30179 2.935186,0 4.352731,0 3.772367,0 7.544739,0 11.317102,0 3.43902,0 7.11042,-0.0904 10.44655,0.95189 0.1973,0.0616 0.29018,0.31729 0.43528,0.47592 0.87054,0.15865 1.73448,0.36938 2.61163,0.47594 0.43261,0.0525 0.9165,-0.21284 1.30583,0 1.08583,1.18728 0.99209,1.3858 2.17636,1.90376 3.55306,1.554 7.20117,2.95409 10.44656,5.23533 1.22047,0.85789 2.27495,1.97561 3.48218,2.85564 0.12072,0.0881 0.33267,-0.11219 0.43527,0 2.14887,2.34962 3.93879,5.25865 6.09383,7.61502 0.10259,0.11217 0.31455,-0.0879 0.43527,0 1.88575,1.37462 3.06876,3.66917 4.35273,5.71126 1.65421,2.63093 2.48595,5.78423 3.91745,8.5669 0.35567,0.69137 0.93258,1.22357 1.30582,1.90377 0.0747,0.13602 0,0.31728 0,0.47593 0.14511,0.47594 0.18078,1.01039 0.43528,1.42782 0.34146,0.56004 1.05581,0.81275 1.30583,1.42781 0.35843,0.88183 0.18166,1.93133 0.43527,2.85564 0.73164,2.66667 2.18757,5.46004 3.0469,8.09095 0.68219,2.08856 1.61818,4.52691 2.17638,6.66316 0.81745,3.12843 -1.38429,-1.99733 0.43526,2.37968 0.53701,1.2918 1.33072,2.46136 1.74111,3.80752 0.32442,1.06423 0.23406,2.23155 0.43526,3.33158 0.09,0.49193 0.29018,0.95188 0.43527,1.4278 0.29019,1.11053 0.6969,2.19233 0.87055,3.33159 0.26346,1.72847 0.0995,3.52192 0.43527,5.23532 0.10961,0.55931 0.70512,0.88516 0.87055,1.42781 0.13765,0.45152 -0.0912,0.96246 0,1.42783 0.76514,3.90424 1.87178,7.42608 2.17637,11.42253 0.88913,11.66637 0.43527,23.51741 0.43527,35.21948 0,2.33247 -0.2116,4.82543 0,7.13908 0.0595,0.65086 0.38111,1.25233 0.43527,1.90376 0.5539,6.6622 0,14.61741 0,21.41724"
       id="path251-7" />
    <path
       style="fill:#dd55ff;fill-opacity:1;stroke:#d35f8d;stroke-width:0.626999;stroke-opacity:0"
       d="m 259.43976,232.3416 -1.50546,74.77083"
       id="path252" />
    <path
       style="fill:#ffd42a;fill-opacity:1;stroke:#d35f8d;stroke-width:0.626999;stroke-opacity:0"
       d="m 88.821735,251.91249 c 2.531197,-0.51759 4.444886,0.9679 6.52363,2.00727 0.473118,0.23656 1.131419,0.12779 1.505453,0.50182 0.236559,0.23656 -0.236559,0.76708 0,1.00363 0.236559,0.23656 0.735999,-0.20072 1.003636,0 0.482486,0.36187 0.577173,1.07899 1.003636,1.50546 0.238493,0.23849 1.76877,0.76514 2.00727,1.00363 0.11828,0.11828 -0.11828,0.38354 0,0.50182 6.05812,6.05812 -1.080522,-1.43766 3.51272,2.00727 0.29923,0.22442 0.23734,0.73916 0.50182,1.00364 0.11828,0.11828 0.38354,-0.11828 0.50182,0 0.37403,0.37403 0.18444,1.08228 0.50182,1.50545 0.7516,1.00213 2.28787,1.18178 2.50909,2.50908 0.31058,1.86349 0,4.12959 0,6.02181 0,0.50477 0.30728,4.05543 0,4.51636 -0.20748,0.31123 -0.73916,0.23736 -1.00364,0.50184 -0.11828,0.11826 0.11828,0.38354 0,0.5018 -0.42646,0.42646 -0.96602,0.73393 -1.50545,1.00365 -2.59864,1.29931 -8.623438,0.45553 -10.538175,-0.50184 -2.088446,-1.0442 0.536461,0.0347 -0.501819,-1.00361 -1.041945,-1.04196 -1.003633,-0.14672 -1.003633,-1.50546 0,-1.1023 -0.397145,-6.23117 0,-7.02545 0.353718,-0.70744 0.969002,-2.07653 0.501816,-3.01091 -0.218329,-0.43666 -0.841139,-2.29243 -1.003636,-2.50909 -0.609407,-0.3047 -1.122304,-0.42891 -1.505452,-1.00363 -0.207476,-0.31122 -0.334545,-0.66909 -0.501817,-1.00364 0,-0.33455 0.185571,-0.72528 0,-1.00363 -0.207476,-0.31122 -0.692423,-0.29435 -1.003636,-0.50182 -0.391848,-0.26123 -2.337882,-3.17031 -2.509089,-3.51273 -0.5446,-1.0892 0.618546,-2.35745 1.003636,-3.51272 z"
       id="path261" />
    <path
       style="fill:#ffd42a;fill-opacity:1;stroke:#d35f8d;stroke-width:0.626999;stroke-opacity:0"
       d="m 61.723579,191.69436 c -0.28888,4.38786 -1.131033,9.14458 -0.50182,13.54908 0.167275,0.50182 0.334548,1.00364 0.50182,1.50546 0.167272,0 0.427011,-0.14962 0.501816,0 0.25091,0.50181 -0.125454,1.00363 0,1.50545 0.258755,1.03501 0.861571,2.15239 1.505453,3.01091 1.253633,1.67151 4.490559,4.17751 6.52363,4.51635 1.219758,0.2033 4.088265,1.43174 4.516361,1.00364 0.118279,-0.11828 -0.118279,-0.38354 0,-0.50182 0.118279,-0.11828 0.383537,0.11828 0.501817,0 0.118279,-0.11828 -0.11828,-0.38354 0,-0.50182 0.264482,-0.26448 0.739156,-0.23733 1.003636,-0.50181 0.447577,-0.44758 1.284859,-2.91157 1.505452,-4.01454 0.241634,-1.20817 0.289698,-3.35758 0,-4.51636 -0.218474,-0.8739 -0.855546,-1.62056 -1.003636,-2.50909 -0.109998,-0.65999 0.183814,-1.36393 0,-2.00727 -0.267951,-0.93783 -1.197017,-1.58378 -1.505452,-2.50909 -0.568738,-1.70622 -1.379223,-3.44806 -2.00727,-5.01818 -0.256143,-0.64035 -0.11925,-1.43342 -0.501819,-2.00727 -0.594119,-0.89118 -1.914967,-1.11609 -2.509089,-2.00727 -0.414951,-0.62243 -0.554794,-1.40882 -1.003633,-2.00727 -0.100365,-0.13382 -0.352206,0.0748 -0.501819,0 -1.346256,-0.67313 -2.723068,-2.4021 -4.516359,-1.50545 -0.149613,0.0748 0.07481,0.3522 0,0.50181 0.13071,1.06022 -0.79616,0.19061 -1.003636,0.50182 -0.706638,1.05996 -0.935743,2.37331 -1.505452,3.51272 z"
       id="path262" />
    <path
       style="fill:#ffd42a;fill-opacity:1;stroke:#d35f8d;stroke-width:0.626999;stroke-opacity:0"
       d="m 110.39989,191.19255 c -0.0975,3.36971 0.0734,6.78064 1.00364,10.03635 0.17068,0.59738 1.46349,4.93425 1.50545,5.01818 1.85642,3.71283 1.29823,-0.5343 2.00728,3.0109 0.30606,1.53033 -0.58973,0.68986 0.50181,2.50909 0.24342,0.4057 0.79205,0.58047 1.00364,1.00364 0.14961,0.29922 -0.10579,0.68626 0,1.00364 0.24169,0.72506 2.90736,2.2064 3.51272,2.50908 4.8465,2.42325 -0.93584,-0.64649 2.50909,0.50182 0.22442,0.0748 0.33455,0.33455 0.50182,0.50182 0.33454,0.16727 0.64077,0.4111 1.00363,0.50182 2.39421,0.59855 3.24916,-0.6388 3.51273,-3.01091 0.69948,-6.29531 -1.1774,-9.04246 -4.51636,-14.0509 -3.29711,-4.94566 1.63878,3.8715 -2.00727,-2.50909 -1.0205,-1.78586 -1.64333,-3.78847 -2.50909,-5.51999 -0.30844,-0.61687 -0.14698,-1.41587 -0.50182,-2.00727 -0.4303,-0.71718 -1.07515,-1.2901 -1.50545,-2.00727 -0.0861,-0.14344 0.11828,-0.38354 0,-0.50182 -0.26448,-0.26448 -0.73916,-0.23733 -1.00364,-0.50182 -0.26448,-0.26448 -0.23733,-0.73915 -0.50181,-1.00363 -1.74043,-1.74042 -4.32466,4.19686 -4.51637,4.51636 z"
       id="path263" />
    <path
       style="fill:#ffd42a;fill-opacity:1;stroke:#d35f8d;stroke-width:0.626999;stroke-opacity:0"
       d="m 51.687224,184.66892 c 3.985487,-3.98549 0.192244,0.13231 3.512725,-4.51636 0.554331,-0.77607 1.835644,-2.95152 2.509088,-3.51273 1.323012,-1.10251 3.193347,-1.40657 4.516358,-2.50908 2.79295,-2.32746 -4.655997,0.366 3.010908,-2.50909 0.469866,-0.1762 1.013378,0.0984 1.505453,0 0.366768,-0.0734 0.648796,-0.38354 1.003634,-0.50182 0.317378,-0.10579 1.281996,-0.18557 1.003636,0 -1.111676,0.74112 -7.875085,5.14739 -8.5309,6.02181 -0.200729,0.26764 0.236559,0.76708 0,1.00364 -0.336066,0.33606 -2.570908,1.06545 -3.010908,1.50545 -0.118279,0.11828 0.118279,0.38354 0,0.50182 -0.26448,0.26448 -0.669089,0.33454 -1.003633,0.50182 -0.167275,0.50181 -0.208405,1.06532 -0.50182,1.50545 -0.09279,0.13918 -0.383537,-0.11828 -0.501816,0 -0.374034,0.37403 -0.127786,1.13142 -0.50182,1.50545 -0.118279,0.11828 -0.383537,-0.11828 -0.501816,0 -0.236559,0.23656 0.328049,0.93803 0,1.00364 -0.820121,0.16402 -1.672725,0 -2.509089,0 z"
       id="path264" />
    <path
       style="fill:#ffd42a;fill-opacity:1;stroke:#d35f8d;stroke-width:0.626999;stroke-opacity:0"
       d="m 117.42534,169.11257 c 2.75745,2.91156 6.73755,4.73027 9.53454,7.52726 1.22825,1.22826 4.89416,6.14966 6.02181,8.02909 0.0296,0.0492 2.53076,3.49106 2.00728,4.01454 -0.41164,0.41163 -4.71211,-1.77772 -5.01818,-2.00727 -0.29923,-0.22442 -0.23734,-0.73916 -0.50182,-1.00364 -0.26448,-0.26448 -0.73915,-0.23733 -1.00364,-0.50182 -0.42646,-0.42646 -0.57717,-1.07899 -1.00363,-1.50545 -0.11828,-0.11828 -0.37332,0.10709 -0.50182,0 -1.27211,-1.06009 -2.21967,-2.47828 -3.51272,-3.51272 -0.65309,-0.52247 -1.67782,-0.73672 -2.00727,-1.50546 -1.74501,-4.07167 -0.40592,-1.71957 -1.50546,-5.01817 -0.50049,-1.50149 -1.75774,-3.26412 -2.50909,-4.51636 z"
       id="path265" />
    <path
       style="fill:#ffd42a;fill-opacity:1;stroke:#d35f8d;stroke-width:0.626999;stroke-opacity:0"
       d="m 92.836277,146.02895 c -2.125766,-2.03023 -4.187849,-4.23117 -6.021814,-6.52363 -1.288441,-1.61055 -2.6319,-4.07595 -4.516358,-5.01817 -2.284418,0 -0.0287,0.23655 -1.505453,-0.50182 -0.03727,-0.0186 -2.007272,-0.79823 -2.007272,-0.50182 0,0.16727 0.334545,0 0.501817,0 0.83094,0 2.678795,0.27798 3.512725,0 2.868504,-0.95617 -3.033647,-0.0958 1.505452,-1.00363 0.656098,-0.13122 1.386036,0.24849 2.007272,0 2.170412,-0.86817 13.549077,-4.99869 13.549077,-7.02545 0,-1.59016 -2.978438,-2.49286 -4.014541,-3.01091 -1.338181,-0.66909 -2.817635,-1.10959 -4.014541,-2.00727 -0.133819,-0.10036 0.118279,-0.38354 0,-0.50182 -1.285807,-1.28581 -3.020209,-2.51529 -4.516359,-3.51272 -1.124259,-0.74951 -1.452946,-2.2188 -2.509088,-3.01091 -0.482489,-0.36186 -1.078992,-0.57717 -1.505456,-1.00363 -0.42646,-0.42647 -0.57717,-1.07899 -1.003633,-1.50546 -0.118279,-0.11828 -0.352205,0.0748 -0.501819,0 -2.125811,-1.0629 -2.643315,-2.45952 -4.014542,-4.51636 -0.551497,-0.82724 -3.615314,-3.91195 -3.010905,-4.51635 0.31831,-0.31831 1.589463,0.2089 2.007269,0 0.743913,-0.37196 1.761734,-0.62996 2.509089,-1.00364 2.128083,-1.064041 4.524827,-5.022411 6.52363,-6.021814 0.699918,-0.349957 2.381478,-1.348095 3.010908,-1.505453 0.486833,-0.121708 1.039527,0.18637 1.505453,0 1.218025,-0.487209 0.918535,-1.783265 2.007269,-2.509088 0.27836,-0.185571 0.704411,0.149613 1.003636,0 1.023546,-0.511771 2.014509,-1.50907 3.010908,-2.00727 0.149612,-0.07481 0.427011,0.149611 0.501817,0 0.149614,-0.299228 -0.200726,-0.735999 0,-1.003636 0.526846,-0.702461 2.120776,-1.117139 2.509089,-1.505453 0.236558,-0.236558 -0.236559,-0.767077 0,-1.003636 0.236558,-0.236558 0.854023,0.299226 1.003633,0 0.14961,-0.299225 -0.14961,-0.704408 0,-1.003636 0.23656,-0.473117 1.13142,-0.127783 1.50546,-0.501816 0.11827,-0.11828 -0.0748,-0.352206 0,-0.50182 0.22796,-0.455927 2.58203,-3.298287 3.0109,-3.512722 1.90576,-0.952881 -2.52481,3.528449 2.00727,-1.003636 0.42647,-0.426463 0.57718,-1.078989 1.00364,-1.505452 0.40956,-0.409562 2.99642,-1.118227 3.51272,-1.505453 0.29923,-0.22442 0.20259,-0.779216 0.50182,-1.003636 0.42317,-0.317378 0.98676,-0.398079 1.50545,-0.501817 0.32805,-0.06561 0.76708,0.236559 1.00364,0 0.37403,-0.374033 0.12778,-1.131422 0.50182,-1.505455 0.23655,-0.236559 0.7044,0.149614 1.00363,0 0.74807,-0.374031 1.31138,-1.041522 2.00727,-1.505453 0.31122,-0.207475 0.77922,-0.202591 1.00364,-0.501816 0.31738,-0.42317 0.18444,-1.082284 0.50181,-1.505453 0.62732,-0.836425 2.00728,-1.065829 2.00728,-2.509089 0,-0.118075 -0.18696,-1.692404 0.50181,-1.003636 0.11828,0.11828 -0.0529,0.343128 0,0.501817 0.54603,1.638083 0.65557,0.420645 1.00364,2.509089 0.19052,1.143121 -0.62057,4.087325 0,5.018177 0.20747,0.311213 0.79616,0.190603 1.00363,0.501819 0.2335,0.35024 0.42413,3.124282 0.50182,3.512722 0.0734,0.366771 0.33455,0.669092 0.50182,1.003636 0.16727,0.669092 0.38844,1.326973 0.50182,2.007272 0.18869,1.132139 -0.22504,2.387561 0,3.512722 0.12988,0.649433 1.58538,7.447341 1.00363,8.029083 -0.71382,0.713827 -3.23718,0.614955 -4.01454,1.003636 -0.42317,0.211585 -0.60998,0.741199 -1.00363,1.003636 -2.41082,1.607212 -10.26387,2.782589 -13.54908,4.014542 -0.2215,0.08306 -0.2774,0.427011 -0.50182,0.501819 -0.31738,0.105791 -0.72528,-0.185574 -1.00364,0 -0.43552,0.290351 -0.95422,1.56629 -1.50545,2.00727 -0.65309,0.52247 -1.31137,1.04152 -2.00727,1.50545 -0.31121,0.20748 -0.77922,0.20259 -1.00363,0.50182 -0.31738,0.42317 -0.12779,1.13142 -0.50182,1.50545 -0.23656,0.23656 -0.70441,-0.14961 -1.00364,0 -0.634754,0.31738 -1.111792,0.91497 -1.50545,1.50546 -0.430602,0.6459 -0.699336,1.2172 -0.501819,2.00727 0.332501,1.33001 1.690179,2.02821 2.509089,3.0109 1.43696,1.72435 2.58536,3.85263 4.01454,5.52 0.3925,0.45791 1.07899,0.57717 1.50545,1.00363 1.82659,1.82659 0.35377,1.20935 1.50546,3.51273 0.53944,1.07887 1.33818,2.00727 2.00727,3.0109 0.26507,0.39762 2.38339,3.13661 1.50545,4.01455 -1.14073,1.14073 -2.8196,-0.0957 -4.01454,0.50181 -0.42317,0.21159 -0.66909,0.66909 -1.00364,1.00364 -0.50181,0 -1.03952,-0.18637 -1.50545,0 -0.43928,0.17571 -0.59794,0.76022 -1.00364,1.00363 -0.45358,0.27215 -1.03233,0.26526 -1.50545,0.50182 -2.37774,1.18887 3.39043,-0.29378 -2.00727,1.50546 -0.476065,0.15868 -1.013378,-0.0984 -1.50545,0 -0.520724,0.10414 -1.562367,0.78118 -2.007272,1.00363 -1.354273,0.67714 0.01733,0.22493 -0.501817,1.00364 -0.26244,0.39365 -0.741198,0.60997 -1.003636,1.00363 -0.185573,0.27836 0.105791,0.68626 0,1.00364 -0.515749,1.54724 -1.082611,1.16158 -2.007272,3.0109 -0.200726,0.40146 0.200729,1.104 0,1.50546 -0.28771,0.57542 -1.003636,2.27227 -1.003636,3.0109 0,0.68969 0.334547,1.33818 0.50182,2.00727 z"
       id="path266" />
    <path
       style="fill:#ff0000;fill-opacity:1;stroke:#d35f8d;stroke-width:0.626999;stroke-opacity:0"
       d="m 287.03973,216.78525 70.75631,-50.18177"
       id="path267" />
    <path
       style="fill:#ff0000;fill-opacity:1;stroke:#d35f8d;stroke-width:0.35704;stroke-opacity:0"
       d="m 49.879398,118.47879 c 0,-5.34515 0.0684,-12.07339 -0.27905,-17.26489 -0.15103,-2.256921 -0.67167,-4.474591 -0.83714,-6.730391 -0.13138,-1.79104 -0.25698,-10.91145 -0.5581,-13.75339 -0.18744,-1.76908 -0.59709,-3.50518 -0.83714,-5.26726 -0.1322,-0.97043 -0.13136,-1.95828 -0.27905,-2.92625 -0.5093,-3.33799 -1.42906,-6.650512 -1.95333,-9.949261 -0.0967,-0.608516 -0.23178,-1.242454 -0.5581,-1.755753 -0.0516,-0.08116 -0.21328,0.06897 -0.27905,0 -0.41751,-0.437831 -0.50451,-1.142404 -1.11619,-1.463127 -0.0832,-0.04362 -0.21328,0.06897 -0.27905,0 -0.19732,-0.206917 -0.19732,-0.670958 0,-0.877876 0.26309,-0.27589 0.74413,0 1.11619,0 1.33596,0 2.58177,0.41158 3.90667,0.585251 1.10757,0.145182 2.23239,0 3.34858,0 1.31731,0 -2.13793,-0.0121 2.51144,0.292625 1.60269,0.105042 2.46448,-0.0098 3.90666,0.292626 0.41803,0.08767 1.94122,-0.305335 2.23239,0 0.0455,0.04768 0,3.500092 0,3.511503 0,3.375585 -0.0917,1.665511 0.83715,7.023012 0.54998,3.17209 0.70894,6.43017 0.83714,9.65664 0.29115,7.32772 0.70101,14.68483 -0.5581,21.946901 -0.34729,2.00306 -1.38178,3.8076 -1.67429,5.85251 -0.51472,6.47721 0.0238,1.3138 -0.55809,4.97463 -0.067,0.4214 -0.24551,2.8559 -0.5581,3.5115 -0.11766,0.24676 -0.41216,0.3557 -0.5581,0.58525 -0.64325,1.01183 -0.82052,2.21441 -1.39524,3.21888 -0.83714,1.46313 -0.27904,0 -0.83714,0.87787 -0.11537,0.18149 -0.10599,0.46427 -0.27905,0.58526 -0.15479,0.10821 -0.37762,-0.0473 -0.55809,0 -0.32836,0.0861 -1.86452,0.67839 -2.23239,0.29262 -0.27118,-0.28438 -0.0663,-0.83587 -0.27904,-1.1705 -0.0633,-0.0995 -0.46695,-0.19703 -0.5581,-0.29262 -0.0658,-0.069 0.0416,-0.20539 0,-0.29263 -0.40077,-0.84054 -0.56795,-0.76703 -1.67429,-1.46313 z"
       id="path268" />
    <path
       style="fill:#ff0000;fill-opacity:1;stroke:#d35f8d;stroke-width:0.35704;stroke-opacity:0"
       d="m 51.832738,131.93956 c 2.18185,-0.16659 2.3164,-2.38506 3.90667,-3.21888 0.56085,-0.29407 1.30811,-0.46178 1.95333,-0.29263 0.12762,0.0335 0.15426,0.249 0.27905,0.29263 0.26473,0.0925 0.58756,-0.13087 0.83715,0 1.24492,0.65275 1.39524,1.77413 1.39524,3.21888 0,0.14561 0.14096,1.55865 0,1.75575 -0.23678,0.33107 -0.60037,0.54681 -0.83715,0.87787 -0.0558,0.078 0.0658,0.22366 0,0.29263 -0.14707,0.15423 -0.41102,0.1384 -0.55809,0.29263 -0.14708,0.15422 -0.11266,0.45438 -0.27905,0.58525 -0.30681,0.24131 -0.845,0.008 -1.11619,0.29262 -2.80226,2.93861 0.81387,-0.28041 -1.39524,0.87788 -0.0832,0.0436 0.0882,0.26178 0,0.29263 -0.35297,0.12338 -0.74413,0 -1.1162,0 -0.093,0 -0.22745,0.0812 -0.27904,0 -0.31656,-0.49795 -0.24154,-0.96519 -0.5581,-1.46313 -0.78606,-1.23646 -1.51973,-2.4963 -2.23238,-3.80413 z"
       id="path269" />
  </g>
</svg>
