<?xml version="1.0" encoding="UTF-8" standalone="no"?>
<!-- Created with Inkscape (http://www.inkscape.org/) -->

<svg
   width="210mm"
   height="297mm"
   viewBox="0 0 210 297"
   version="1.1"
   id="svg1"
   sodipodi:docname="alien.sad.svg"
   inkscape:version="1.3.2 (091e20e, 2023-11-25, custom)"
   xmlns:inkscape="http://www.inkscape.org/namespaces/inkscape"
   xmlns:sodipodi="http://sodipodi.sourceforge.net/DTD/sodipodi-0.dtd"
   xmlns="http://www.w3.org/2000/svg"
   xmlns:svg="http://www.w3.org/2000/svg">
  <sodipodi:namedview
     id="namedview1"
     pagecolor="#ffffff"
     bordercolor="#000000"
     borderopacity="0.25"
     inkscape:showpageshadow="2"
     inkscape:pageopacity="0.0"
     inkscape:pagecheckerboard="0"
     inkscape:deskcolor="#d1d1d1"
     inkscape:document-units="mm"
     inkscape:zoom="0.52724989"
     inkscape:cx="570.8868"
     inkscape:cy="554.76541"
     inkscape:window-width="1920"
     inkscape:window-height="1051"
     inkscape:window-x="-9"
     inkscape:window-y="-9"
     inkscape:window-maximized="1"
     inkscape:current-layer="layer1" />
  <defs
     id="defs1" />
  <g
     inkscape:groupmode="layer"
     id="layer1"
     inkscape:label="Layer 1">
    <path
       style="fill:#ff0000;fill-opacity:1;stroke:#d35f8d;stroke-width:0.626999;stroke-opacity:0"
       d="m 287.03973,216.78525 70.75631,-50.18177"
       id="path267" />
    <path
       style="fill:#8800aa;fill-opacity:1;stroke:#d35f8d;stroke-width:0.691591;stroke-opacity:0"
       d="m 29.462213,299.52983 c -1.74367,-13.37678 -1.000326,-3.7411 -0.547285,-19.03356 0.411063,-13.87557 -0.630021,-1.74124 0.547285,-16.79434 0.322333,-4.12133 1.405244,-8.20127 1.641861,-12.31583 0.365582,-6.35708 0.551978,-12.71623 1.641863,-19.03357 1.13289,-6.56663 2.761327,-13.02842 3.831008,-19.59338 2.649245,-16.25921 -0.557705,2.33516 0.547289,-7.83736 0.309899,-2.85291 2.187098,-5.02781 2.736436,-7.83734 1.183715,-6.05402 1.653426,-12.68249 3.831007,-18.47376 0.381858,-1.01555 1.166145,-1.82585 1.641863,-2.79906 2.076223,-4.24746 3.820891,-9.42203 6.567443,-13.43545 1.046164,-1.52872 2.378621,-2.85832 3.283725,-4.4785 0.572433,-1.02468 0.432921,-2.39202 1.094571,-3.35886 1.625903,-2.37586 5.038234,-3.55091 6.567445,-6.15791 2.511951,-4.28239 4.433183,-8.99207 8.756593,-11.75604 1.373584,-0.87813 4.027982,-1.94365 5.472871,-2.23924 0.715547,-0.14639 1.473603,0.14638 2.18915,0 0.252983,-0.0518 0.307746,-0.4618 0.547285,-0.5598 1.62793,-0.66609 3.764738,-0.77019 5.472872,-1.11963 1.735142,-0.35497 3.690531,0 5.47287,0 4.743154,0 9.486315,0 14.229475,0 4.32401,0 8.94022,-0.10631 13.13488,1.11963 0.24807,0.0725 0.36485,0.3732 0.54729,0.5598 1.09456,0.1866 2.18083,0.43447 3.28371,0.55981 0.54394,0.0618 1.15236,-0.25035 1.64187,0 1.36526,1.3965 1.2474,1.63 2.73644,2.23924 4.46741,1.82786 9.05432,3.47468 13.13488,6.15792 1.53455,1.00907 2.8604,2.32378 4.3783,3.35887 0.15179,0.10352 0.41829,-0.13195 0.54729,0 2.70185,2.76368 4.9524,6.18535 7.66202,8.95698 0.12899,0.13194 0.3955,-0.10353 0.54729,0 2.37102,1.61686 3.85846,4.31577 5.47286,6.71773 2.07991,3.09454 3.12569,6.80353 4.92558,10.07659 0.4472,0.81319 1.17257,1.43918 1.64186,2.23924 0.0939,0.16001 0,0.37321 0,0.55981 0.18244,0.55981 0.2273,1.18845 0.54729,1.67944 0.42933,0.65873 1.32752,0.95597 1.64187,1.67943 0.45067,1.03723 0.22842,2.27167 0.54728,3.35887 0.91993,3.13659 2.75054,6.42222 3.83101,9.51678 0.85774,2.4566 2.03459,5.32465 2.73644,7.83735 1.02782,3.67973 -1.74052,-2.3493 0.54728,2.79905 0.67521,1.51943 1.67317,2.8951 2.18916,4.47849 0.40792,1.25177 0.2943,2.62481 0.54728,3.91868 0.11314,0.57863 0.36486,1.11962 0.54729,1.67943 0.36486,1.30622 0.87624,2.57866 1.09456,3.91868 0.33128,2.03306 0.1251,4.14256 0.54729,6.15791 0.13782,0.65787 0.88658,1.04116 1.09458,1.67943 0.17307,0.53109 -0.11467,1.13206 0,1.67944 0.96204,4.59226 2.35347,8.73474 2.73644,13.43546 1.11794,13.72226 0.54729,27.66174 0.54729,41.42601 0,2.74349 -0.26605,5.67579 0,8.39716 0.0748,0.76555 0.47918,1.473 0.54728,2.23924 0.69645,7.83624 0,17.19334 0,25.19148"
       id="path251" />
    <path
       style="fill:#d42aff;fill-opacity:1;stroke:#d35f8d;stroke-width:0.55798;stroke-opacity:0"
       d="m 42.138198,298.44358 c -1.431606,-10.6055 -0.821298,-2.96605 -0.449338,-15.09035 0.337496,-11.00095 -0.517266,-1.38051 0.449338,-13.31504 0.264645,-3.26751 1.153749,-6.5022 1.348018,-9.76435 0.300154,-5.04007 0.453191,-10.08179 1.34802,-15.09036 0.930137,-5.20621 2.267133,-10.3293 3.145374,-15.53419 2.175111,-12.89077 -0.457893,1.85138 0.449341,-6.21368 0.254436,-2.26188 1.795674,-3.9862 2.246697,-6.21367 0.971867,-4.79981 1.357513,-10.05505 3.145374,-14.64654 0.313517,-0.80515 0.957441,-1.44758 1.34802,-2.21917 1.704642,-3.36751 3.137068,-7.47005 5.392071,-10.65201 0.858932,-1.21201 1.952921,-2.26616 2.696038,-3.55068 0.469985,-0.8124 0.355442,-1.89647 0.898677,-2.663 1.334916,-1.88366 4.136544,-2.81527 5.392072,-4.88217 2.062388,-3.39521 3.639779,-7.12917 7.18943,-9.32053 1.127755,-0.69621 3.307097,-1.54098 4.493395,-1.77534 0.587485,-0.11605 1.209873,0.11606 1.797358,0 0.207707,-0.041 0.252669,-0.36612 0.449338,-0.44382 1.33658,-0.52809 3.090965,-0.61063 4.493395,-0.88767 1.424604,-0.28144 3.03004,0 4.49339,0 3.89428,0 7.788564,0 11.682834,0 3.55015,0 7.3402,-0.0843 10.78414,0.88767 0.20368,0.0575 0.29956,0.29588 0.44935,0.44382 0.89867,0.14795 1.79053,0.34446 2.69603,0.44384 0.44659,0.049 0.94612,-0.19849 1.34802,0 1.12092,1.10719 1.02415,1.29231 2.2467,1.77534 3.66788,1.44917 7.43388,2.75482 10.78414,4.88217 1.25991,0.80002 2.34847,1.84236 3.59471,2.66301 0.12463,0.0821 0.34343,-0.10462 0.44934,0 2.21831,2.19112 4.06608,4.90393 6.29076,7.10135 0.10591,0.1046 0.32471,-0.0821 0.44934,0 1.94668,1.28189 3.16792,3.42166 4.49339,5.32601 1.70767,2.45344 2.56628,5.39404 4.04405,7.98901 0.36716,0.64472 0.96272,1.14103 1.34802,1.77534 0.0771,0.12686 0,0.29588 0,0.44383 0.14978,0.44383 0.18661,0.94224 0.44934,1.3315 0.35249,0.52227 1.08993,0.75793 1.34802,1.3315 0.37002,0.82235 0.18754,1.80105 0.44933,2.66301 0.75529,2.48678 2.25828,5.09173 3.14539,7.54518 0.70422,1.94766 1.67045,4.22154 2.24669,6.21368 0.84388,2.9174 -1.42902,-1.86259 0.44934,2.21917 0.55436,1.20465 1.37372,2.29532 1.79736,3.55068 0.33492,0.99243 0.24163,2.08102 0.44933,3.10683 0.0929,0.45876 0.29957,0.88767 0.44935,1.3315 0.29956,1.03562 0.71941,2.04444 0.89867,3.10685 0.27198,1.61187 0.1027,3.28434 0.44934,4.88217 0.11316,0.52158 0.72791,0.82546 0.89868,1.3315 0.1421,0.42106 -0.0941,0.89752 0,1.33151 0.78987,3.64087 1.93227,6.92515 2.2467,10.65201 0.91786,10.87941 0.44934,21.93103 0.44934,32.84374 0,2.17511 -0.21844,4.49993 0,6.6575 0.0614,0.60696 0.39343,1.16785 0.44934,1.77534 0.5718,6.2128 0,13.63138 0,19.97253"
       id="path251-6" />
    <path
       style="fill:#ffd42a;fill-opacity:1;stroke:#d35f8d;stroke-width:0.626999;stroke-opacity:0"
       d="m 60.218126,214.77798 c 1.500439,-0.82105 3.505084,-1.494 4.516358,-3.01091 0.638421,-0.95763 -1.50236,-0.16933 0.501819,-1.50545 0.278358,-0.18557 0.725276,0.18557 1.003634,0 0.311216,-0.20747 0.202591,-0.77922 0.501819,-1.00364 3.426624,-1.1422 0.161327,0.34049 2.00727,-1.50545 1.21826,-1.21826 3.025695,-1.20732 4.51636,-1.50545 1.096201,-0.21924 1.402083,-1.34731 2.509089,-1.50545 0.239136,-0.0342 3.801771,-0.2382 4.516358,0 0.709679,0.23656 1.281541,0.8222 2.007272,1.00363 0.324556,0.0811 0.704408,-0.14961 1.003633,0 0.334548,0.16727 0.23734,0.73916 0.50182,1.00364 0.501816,0.50181 1.111795,0.91496 1.505452,1.50545 0.232659,0.34899 0.307356,1.11653 0.501817,1.50545 0.105794,0.21159 0.396026,0.29024 0.501819,0.50182 0.158195,0.31639 0.245092,3.76945 0,4.01454 -0.118279,0.11828 -0.383537,-0.11828 -0.501819,0 -0.118279,0.11828 0.149614,0.42701 0,0.50182 -0.987727,0.49386 -3.765074,-0.35156 -4.516358,-0.50182 -1.254363,-0.25087 -11.321005,-0.36131 -12.043624,0 -0.211585,0.10579 -0.2774,0.42701 -0.501819,0.50182 -0.32688,0.10896 -2.228102,-0.28099 -2.509089,0 -0.108884,0.10889 -0.403979,0.95472 -0.501817,1.00363 -1.38874,0.69437 -4.579353,-0.62737 -5.519994,-1.00363 z"
       id="path269" />
    <path
       style="fill:#ffd42a;fill-opacity:1;stroke:#d35f8d;stroke-width:0.626999;stroke-opacity:0"
       d="m 119.43261,212.26889 c 0.33455,-0.66909 0.6691,-1.33818 1.00364,-2.00727 0.33455,0 0.76708,0.23656 1.00364,0 0.37403,-0.37403 0.12778,-1.13142 0.50181,-1.50545 0.4723,-0.4723 4.57201,-1.85855 5.01818,-2.00727 0.69927,-0.23309 1.3655,-0.2879 2.00727,-0.50182 1.4576,-0.48587 0.7002,-0.52515 2.00727,-1.50545 1.06934,-0.80201 4.28462,-0.91361 5.52,-0.50182 2.48687,0.82896 1.94842,1.22512 3.51272,2.00727 0.61687,0.30843 1.51959,0.0141 2.00727,0.50182 0.52896,0.52896 0.47467,1.47831 1.00364,2.00727 0.15109,0.15109 3.00469,2.49045 3.0109,2.50909 0.1058,0.31737 -0.14961,0.7044 0,1.00363 0.16728,0.33455 0.83637,0.16727 1.00364,0.50182 0.26089,0.52177 0.98008,2.29351 0.50182,3.0109 -0.20748,0.31122 -0.73916,0.23734 -1.00364,0.50182 -0.11828,0.11828 0.13918,0.40903 0,0.50182 -1.82173,1.21449 -3.45619,0.27918 -5.01817,-0.50182 -0.29923,-0.14961 -0.72528,0.18557 -1.00364,0 -0.52471,-0.3498 -1.34566,-1.34005 -2.00727,-1.50545 -0.48684,-0.12171 -1.01862,0.12171 -1.50546,0 -0.22949,-0.0574 -0.27739,-0.42701 -0.50181,-0.50182 -1.40553,-0.46851 -2.32542,-0.50181 -4.01454,-0.50181 -1.81784,0 -8.46874,0.58785 -10.03636,0 -1.05065,-0.394 -2.00727,-1.00364 -3.01091,-1.50546 z"
       id="path270" />
    <path
       style="fill:#ffd42a;fill-opacity:1;stroke:#d35f8d;stroke-width:0.626999;stroke-opacity:0"
       d="m 127.96352,180.65438 c 2.39297,1.21175 5.77634,1.15744 8.02908,2.50908 0.71718,0.43031 1.23853,1.176 2.00727,1.50546 0.46124,0.19767 1.01862,-0.12171 1.50545,0 0.27312,0.0683 4.96512,2.43834 5.01818,2.50909 0.31738,0.42317 0.2084,1.06532 0.50182,1.50545 0.0928,0.13918 0.3522,-0.0748 0.50182,0 2.35994,1.17997 3.0109,3.54545 3.0109,6.02181 0,0.36547 0.30384,2.70707 0,3.01091 -1.36799,1.36799 -3.66151,-2.16715 -4.51636,-2.50909 -0.64035,-0.25614 -1.3904,-0.19338 -2.00727,-0.50182 -0.63475,-0.31738 -0.91496,-1.11179 -1.50545,-1.50545 -0.13918,-0.0928 -0.33455,0 -0.50182,0 -0.33454,-0.16728 -0.70441,-0.2774 -1.00363,-0.50182 -0.59018,-0.44263 -1.30084,-1.65405 -2.00728,-2.00727 -0.47311,-0.23656 -1.08228,-0.18444 -1.50545,-0.50182 -1.22241,-0.91681 0.1515,-0.92788 -1.00363,-1.50545 -0.14962,-0.0748 -0.38354,0.11828 -0.50182,0 -0.93215,-0.93215 -1.57481,-2.57844 -2.50909,-3.51273 -0.11828,-0.11828 -0.44892,0.15869 -0.50182,0 -0.15869,-0.47606 0.12171,-1.01861 0,-1.50545 -0.34807,-1.39229 -0.45761,0.0442 -1.00363,-0.50182 -0.75736,-0.75735 -1.33818,-1.67272 -2.00727,-2.50908 z"
       id="path271" />
    <path
       style="fill:#ffd42a;fill-opacity:1;stroke:#d35f8d;stroke-width:0.626999;stroke-opacity:0"
       d="m 73.265386,187.17801 c -2.461797,1.13936 -5.545764,2.53485 -7.527266,4.51635 -3.163139,3.16314 4.209984,-2.15385 -2.007272,2.50909 -3.345092,2.50882 -3.218947,2.06843 -5.519994,5.52 -0.325115,0.48767 -1.107943,2.40478 -0.501817,3.0109 1.176378,1.17638 3.119657,-1.51593 3.512722,-2.00727 4.426919,-5.53364 -0.4699,0.28195 2.509089,-1.50545 0.501819,-0.50182 1.003636,-1.00364 1.505455,-1.50545 0,-0.16728 -0.118281,-0.38354 0,-0.50182 0.61377,-0.61377 1.435709,-0.74337 2.00727,-1.50545 0.361865,-0.48249 0.577173,-1.07899 1.003636,-1.50546 0.26448,-0.26448 0.739153,-0.23733 1.003636,-0.50181 0.212603,-0.21261 1.317051,-2.32069 1.505453,-2.50909 0.118279,-0.11828 0.427011,0.14961 0.501816,0 0.149614,-0.29923 -0.149614,-0.70441 0,-1.00364 0.07481,-0.14961 0.383538,0.11828 0.50182,0 0.265173,-0.26517 1.504833,-3.00936 1.505452,-3.0109 z"
       id="path272" />
    <path
       style="fill:#ffd42a;fill-opacity:1;stroke:#d35f8d;stroke-width:0.626999;stroke-opacity:0"
       d="m 67.243573,269.47611 c 1.003636,-0.66909 2.103133,-1.21297 3.010905,-2.00727 0.453888,-0.39715 0.617535,-1.04214 1.003636,-1.50546 0.411755,-0.4941 5.38829,-4.95232 5.519994,-5.01817 0.616874,-0.30844 1.408459,-0.15964 2.007272,-0.50182 0.616173,-0.3521 0.896911,-1.14033 1.505453,-1.50546 0.286872,-0.17212 0.669092,0 1.003636,0 0.836364,-0.66909 1.617906,-1.41315 2.509089,-2.00727 0.551717,-0.36781 5.807226,-1.4031 6.52363,-1.50545 0.662366,-0.0946 1.358159,0.16228 2.007272,0 1.94144,-0.48536 3.9354,-0.74283 6.02181,-1.00363 1.41464,-0.17684 3.16164,0.38706 4.51636,0 0.5799,-0.16569 0.92035,-0.85737 1.50545,-1.00364 1.37048,-0.34262 9.37543,-0.23779 11.03999,0 2.03028,0.29004 3.99271,1.13653 6.02182,1.50545 3.03442,0.55172 6.00281,1.50229 9.03271,2.00727 0.33,0.055 0.70441,-0.14961 1.00364,0 1.36022,0.68011 2.65831,2.23592 4.01454,3.01091 7.69623,3.84811 0.42039,-0.18653 4.01454,2.50909 3.08056,2.31042 -0.96042,-0.98203 2.00728,0.50182 0.42316,0.21158 0.62513,0.71976 1.00363,1.00363 0.29923,0.22442 0.73915,0.23734 1.00363,0.50182 0.26449,0.26448 0.23734,0.73915 0.50182,1.00363 0.21261,0.21261 2.32069,1.31706 2.50909,1.50546 0.16727,0.33454 0.33455,0.66909 0.50182,1.00363 0.16727,0 0.38354,-0.11828 0.50182,0 0.11828,0.11828 -0.11828,0.38354 0,0.50182 0.0502,0.0502 1.73963,-0.23418 1.00363,0.50182 -0.71234,0.71234 -4.66971,-1.86208 -5.01818,-2.00727 -0.63663,-0.26526 -1.41587,-0.14698 -2.00726,-0.50182 -0.32074,-0.19244 -0.33455,-0.66909 -0.50182,-1.00364 -0.66909,-0.33454 -1.31969,-0.70895 -2.00727,-1.00363 -1.46701,-0.62872 -3.17069,-0.60834 -4.51636,-1.50545 -1.11346,-0.74231 -1.65048,-2.05561 -3.01091,-2.50909 -0.15869,-0.0529 -0.33454,0 -0.50182,0 -0.66909,-0.16728 -1.36691,-0.24568 -2.00727,-0.50182 -0.21964,-0.0879 -0.33454,-0.33454 -0.50181,-0.50182 -0.50182,-0.16727 -0.99229,-0.37352 -1.50546,-0.50182 -0.90905,-0.22726 -2.76092,-0.0507 -3.51272,-0.50181 -0.60855,-0.36513 -0.89691,-1.14033 -1.50546,-1.50546 -0.73595,-0.44157 -4.46785,0.11007 -5.01817,0 -0.16403,-0.0328 0.15868,-0.44892 0,-0.50181 -0.47607,-0.15869 -1.01862,0.1217 -1.50546,0 -0.22949,-0.0574 -0.27232,-0.44445 -0.50181,-0.50182 -0.94884,-0.23721 -2.54172,0.12137 -3.51273,0 -4.35318,-0.54415 -8.63362,-0.50182 -13.04726,-0.50182 -2.60834,0 -5.526074,-0.33252 -8.029082,0.50182 -0.22442,0.0748 -0.277397,0.42701 -0.501817,0.50182 -0.58525,0.19508 -2.020768,-0.36624 -2.509088,0 -4.22705,3.17028 1.736542,0.0902 -4.014542,2.00727 -0.224419,0.0748 -0.2774,0.42701 -0.501819,0.50181 -0.965266,0.32176 -2.100845,0.0468 -3.010906,0.50182 -1.297514,0.64876 -2.236099,2.3726 -3.512724,3.01091 -0.695249,0.34762 -1.887157,0.58901 -2.509089,1.00363 -0.923184,0.61546 -1.518687,2.01389 -2.509089,2.50909 -1.905762,0.95288 2.524813,-3.52845 -2.007269,1.00364 -0.118279,0.11828 0,0.33454 0,0.50182 -0.669092,0.66908 -1.338181,1.33818 -2.007272,2.00727 z"
       id="path273" />
    <path
       style="fill:#ffd42a;fill-opacity:1;stroke:#d35f8d;stroke-width:0.626999;stroke-opacity:0"
       d="m 95.847182,128.96715 c -2.341817,-0.83636 -4.744982,-1.51758 -7.025447,-2.50909 -1.579356,-0.68667 -2.911284,-1.88489 -4.516361,-2.50909 -1.437314,-0.55895 -3.026253,-0.60627 -4.516358,-1.00363 -1.022204,-0.27259 -1.973527,-0.79616 -3.010908,-1.00364 -4.667514,-0.9335 0.952717,1.32121 -4.516358,-0.50181 -0.224419,-0.0748 -0.272322,-0.44445 -0.501816,-0.50182 -0.486836,-0.12171 -1.01862,0.12171 -1.505456,0 -0.229494,-0.0574 -0.277397,-0.42701 -0.501816,-0.50182 -1.192517,-0.39751 -0.911416,0.59404 -2.007272,-0.50182 -0.65337,-0.65337 0.545488,-1.00363 -1.505453,-1.00363 -0.167272,0 0.334547,0 0.501819,0 0.836361,0 1.677839,-0.0924 2.509089,0 5.378516,0.59761 -0.241125,0.19062 3.010905,1.00363 2.394628,0.59866 5.190517,-0.26814 7.527266,-0.50182 5.567376,-0.55673 11.468021,0 17.061802,0 2.174544,0 4.414012,0.52741 6.523632,0 0.22949,-0.0574 0.2774,-0.42701 0.50181,-0.50181 0.83771,-0.27924 2.12725,0 3.01091,0 0.84318,0 5.96768,0.61009 6.52363,-0.50182 0.43682,-0.87363 -5.69056,-1.91263 -6.02181,-2.00727 -0.45491,-0.12998 -0.5548,-0.85402 -1.00364,-1.00364 -0.96526,-0.32175 -2.00128,-0.37561 -3.0109,-0.50181 -2.32373,-0.29047 -4.690533,0.17961 -7.025449,0 -1.214175,-0.0934 -2.311532,-0.80344 -3.512724,-1.00364 -2.407045,-0.40118 0.727874,1.08841 -3.512725,-0.50182 -1.12539,-0.42202 -1.814505,-1.76799 -3.010906,-2.00727 -0.492072,-0.0984 -1.008679,0.071 -1.505452,0 -1.757556,-0.25108 -3.362606,-1.03243 -5.018178,-1.50545 -3.931581,-1.12331 -1.054952,-0.11722 -4.51636,-0.50182 -1.962939,-0.2181 -4.695061,-1.2236 -6.52363,-2.00727 -0.906413,-0.38846 -2.085105,-1.69867 -3.010906,-2.00727 -0.317378,-0.10579 -0.725278,0.18557 -1.003636,0 -0.897607,-0.59841 -1.15666,-1.96902 -1.003636,-2.00727 2.55047,-0.63762 5.478656,0.13579 8.029086,-0.50182 10.007441,-2.50186 -2.150071,0.0875 5.018174,-1.50545 3.002833,-0.6673 6.046171,-1.26064 9.032719,-2.007273 8.588187,-2.147046 17.761883,-1.505453 26.596343,-1.505453 6.11098,0 -1.95415,0.103738 6.52363,-0.501819 8.09315,-0.578081 16.46428,0 24.58906,0 0.92868,0 2.86392,-0.363255 3.51273,0.501819 1.57113,2.094844 1.50545,8.087586 1.50545,10.538176 0,0.82929 0.54726,3.9691 0,4.51635 -0.39181,0.39182 -5.85912,-0.39106 -6.52363,-0.50181 -1.58352,-0.26392 -4.98341,-2.41966 -5.51999,-2.50909 -0.82499,-0.1375 -1.68897,0.16402 -2.50909,0 -0.16403,-0.0328 0.15662,-0.44309 0,-0.50182 -1.33818,-0.33455 -2.67636,-0.66909 -4.01454,-1.00363 -0.33455,0 -0.67908,0.0811 -1.00364,0 -2.18456,-0.54614 -4.31827,-1.51719 -6.52363,-2.00728 -3.67782,-0.81729 -7.49083,-0.61816 -11.03999,-1.50545 -2.83379,-0.70845 -6.19892,0.70845 -9.03272,0 -2.3065,-0.57662 -0.11385,-0.50182 -1.50545,-0.50182 -1.338181,0 -2.676362,0 -4.014542,0 -0.501817,0 -1.003636,0 -1.505453,0 -0.167272,0 -0.501819,-0.16727 -0.501819,0 0,0.0979 2.501746,-0.25458 3.010908,0 0.539438,0.26972 0.945478,0.77965 1.505453,1.00364 0.931853,0.37274 2.015023,-0.12449 3.010903,0 0.98259,0.12282 4.21621,0.60265 5.01818,1.00363 1.55749,0.77875 3.12578,1.96798 4.51636,3.01091 1.38834,1.04126 2.46257,3.23856 4.01454,4.01454 0.61687,0.30844 1.43342,0.11925 2.00727,0.50182 0.50182,0.33454 0.57717,1.07899 1.00364,1.50545 0.28485,0.28486 2.62732,1.31366 3.0109,1.50546 2.08845,1.04422 -0.53646,-0.0346 0.50182,1.00363 0.11828,0.11828 0.38354,-0.11828 0.50182,0 0.32695,0.32695 2.2178,2.53601 1.50545,3.01091 -2.38897,1.59264 -9.76356,-0.0455 -13.04726,0.50182 -2.13141,0.35523 -3.55901,0.52496 -5.51999,1.50545 -0.70695,0.35347 -2.38414,1.34876 -3.01091,1.50545 -0.48683,0.12171 -1.00363,0 -1.50545,0 -0.66909,0.33455 -1.28799,0.79813 -2.007273,1.00364 -0.609159,0.48683 -1.35816,-0.16228 -2.007272,0 -1.325933,0.33148 -1.925389,0.96269 -3.010906,1.50545 -0.789974,0.39499 -2.509088,-0.7681 -2.509088,0.50182 0,0.16727 -0.11828,0.38354 0,0.50182 0.231973,0.23197 1.20247,-0.1515 1.505452,0 1.858344,0.92917 4.026948,1.15232 6.021814,2.00727 0.06305,0.027 0.415607,0.91742 0.501816,1.00363 0.236557,0.23656 0.767077,-0.23656 1.003637,0 0.23656,0.23656 0,0.66909 0,1.00364"
       id="path274" />
  </g>
</svg>
