<?xml version="1.0" encoding="UTF-8" standalone="no"?>
<!-- Created with Inkscape (http://www.inkscape.org/) -->

<svg
   width="210mm"
   height="297mm"
   viewBox="0 0 210 297"
   version="1.1"
   id="svg1"
   xmlns="http://www.w3.org/2000/svg"
   xmlns:svg="http://www.w3.org/2000/svg">
  <defs
     id="defs1" />
  <g
     id="layer1">
    <path
       style="fill:#ac9d93;stroke:#000000;stroke-width:0.626999;stroke-opacity:0"
       d="m 63.16129,218.2258 c -0.47312,-0.11828 -1.001175,-0.10393 -1.419354,-0.35483 -0.989174,-0.59351 -0.09481,-0.54447 -0.354841,-1.06452 0.728692,-2.09122 -1.556872,-2.04923 -2.129031,-3.19355 -0.451945,-0.90389 -0.555315,-1.96579 -1.064516,-2.83871 -0.955337,-1.63772 -1.091811,-0.92122 -1.774193,-1.77419 -0.369443,-0.46181 -0.610193,-1.04075 -1.064517,-1.41936 -0.28734,-0.23945 -0.840097,-0.0556 -1.064516,-0.35484 -1.080947,-1.44126 -1.518801,-3.27265 -2.129033,-4.96774 -0.886844,-2.46346 -2.246826,-4.84413 -2.483869,-7.45161 -0.593307,-6.52636 -0.102121,-13.83562 1.419355,-20.22581 0.234071,-0.9831 0.774125,-1.87075 1.064514,-2.83871 0.06798,-0.22658 0,-0.47312 0,-0.70967 0.35484,-1.1828 0.696184,-2.36973 1.064516,-3.54839 0.602864,-1.92916 1.52617,-3.74826 2.129033,-5.67742 0.214599,-0.68672 0.165534,-1.43492 0.354838,-2.12903 0.167595,-0.61451 0.571503,-1.15241 0.709679,-1.7742 0.426363,-1.91863 0.710904,-6.39078 1.419355,-8.51612 0.218096,-0.6543 0.756081,-1.15733 1.064516,-1.7742 0.436192,-0.87238 0.367205,-1.92545 0.709676,-2.83871 0.05873,-0.15662 0.296106,-0.19821 0.354838,-0.35484 0.30235,-0.80626 0.38988,-1.68437 0.709679,-2.48387 0.820558,-2.05139 2.018152,-3.98086 2.838709,-6.03226 0.277826,-0.69456 0.355021,-1.47038 0.709679,-2.12903 0.836406,-1.55333 2.796405,-3.65968 3.903223,-4.96774 4.309263,-5.09276 -0.837478,1.02607 3.548388,-4.6129 0.820042,-1.05434 1.870988,-1.96779 2.483871,-3.19355 0.865598,-1.7312 1.116717,-4.05772 2.129033,-5.67742 0.226023,-0.36164 0.798106,-0.37667 1.064514,-0.70968 0.233659,-0.29207 0.187569,-0.72997 0.354841,-1.06451 0.484119,-0.96824 7.015501,-5.63679 8.516128,-6.3871 0.211585,-0.10579 0.51285,0.13122 0.709679,0 0.492072,-0.32805 0.572441,-1.09131 1.064516,-1.41936 0.440121,-0.29341 0.98892,-0.40222 1.419355,-0.70967 1.342543,-0.95896 2.530107,-2.27814 3.903226,-3.19355 0.311213,-0.20748 0.717235,-0.21593 1.064514,-0.35484 4.540594,-1.816237 9.014595,-2.483871 13.838715,-2.483871 3.38662,0 6.92538,-0.336494 10.29032,0 0.13778,0.01378 8.70938,3.445561 8.87096,3.548391 0.70561,0.44902 1.06497,1.33092 1.7742,1.77419 0.3009,0.18806 0.7951,-0.23093 1.06451,0 0.6476,0.55508 0.93024,1.43029 1.41936,2.12903 0.67829,0.96899 1.52049,1.82447 2.12903,2.83871 1.73816,2.89693 0.31029,1.46346 2.48387,4.25807 1.02343,1.31583 2.26538,1.73498 3.19355,3.19354 1.472,2.31314 2.98748,4.85701 3.90323,7.45162 0.41099,1.16447 0.58956,2.4085 1.06451,3.54839 0.12867,0.3088 0.58543,0.39905 0.70968,0.70967 0.13178,0.32946 -0.0861,0.72027 0,1.06452 0.0406,0.16227 0.28003,0.20522 0.35484,0.35484 0.15869,0.31737 0,0.70967 0,1.06451 0,0.5914 0.14344,1.20046 0,1.77419 -0.10343,0.41374 -0.60625,0.65079 -0.70968,1.06452 -0.25977,1.03909 -0.28802,2.12457 -0.35484,3.19355 -0.11722,1.87561 0.25303,4.20866 -0.35484,6.03226 -0.27981,0.83944 -0.7847,1.64443 -1.06451,2.48387 -0.5901,1.77031 -0.0567,3.88846 -0.35484,5.67742 -0.16614,0.99683 -0.81941,1.8583 -1.06452,2.83871 -0.27527,1.10111 -0.13095,2.42895 -0.35483,3.54838 0.0814,0.71257 -0.5552,1.15626 -0.70968,1.7742 -0.21611,0.86442 0.32724,2.02059 0,2.83871 -1.7574,4.39349 0.48584,-3.51196 -1.41936,2.83871 -0.20674,0.68912 -0.0331,1.48552 -0.35484,2.12903 -0.38142,0.76285 -0.80308,1.21401 -1.06451,2.12903 -0.16569,0.57991 -0.0851,1.23476 -0.35484,1.7742 -0.19072,0.38144 -0.57482,0.65993 -0.70968,1.06451 -0.38144,1.14432 -0.51138,2.35858 -0.70968,3.54839 -0.0583,0.35001 0.25091,0.81361 0,1.06452 -0.0836,0.0836 -0.2712,-0.0836 -0.35484,0 -0.50873,0.50873 -0.15718,1.43724 -0.35483,2.12903 -0.27184,0.95144 -0.81893,1.85635 -1.06452,2.83871 -0.0574,0.22949 0.16727,0.5424 0,0.70967 -0.30155,0.30156 -0.83849,0.34804 -1.06451,0.70968 -0.39648,0.63436 -0.3962,1.44982 -0.70968,2.12903 -0.39962,0.86583 -1.03206,1.61246 -1.41936,2.48388 -0.14411,0.32425 0.18256,0.76024 0,1.06451 -0.30427,0.50712 -0.7711,0.90588 -1.06451,1.41936 -0.48713,0.85247 -0.47652,2.41634 -0.70968,3.19354 -0.19354,0.64515 -1.8783,3.29766 -2.48387,3.90323 -2.3292,2.3292 -5.46361,3.87897 -8.16129,5.67742 -0.6959,0.46393 -1.13169,1.23877 -1.7742,1.77419 -0.32761,0.27302 -0.81995,0.36031 -1.06451,0.70968 -0.18253,0.26075 -0.87868,2.52191 -1.7742,3.19355 -0.34117,0.25588 -0.76296,0.40812 -1.06451,0.70968 -0.65322,0.65322 -0.99712,1.62948 -1.7742,2.12903 -1.51871,0.97631 -3.01522,1.99782 -4.6129,2.83871 -1.9345,1.01815 -4.0738,1.041 -6.03226,2.12903 -0.29244,0.16247 -0.442038,0.50895 -0.709675,0.70968 -0.438888,0.32917 -4.245636,2.12193 -4.258064,2.12903 -0.396962,0.22684 -5.535131,3.11069 -6.032256,3.19355 -0.583354,0.0972 -1.213147,-0.18702 -1.774195,0 -0.561049,0.18702 -0.912236,0.76024 -1.419355,1.06451 -0.512657,0.3076 -1.524947,0.15348 -2.129031,0.35484 -2.68429,0.89477 -5.319305,1.41936 -8.161292,1.41936 -0.877128,0 -3.248488,0.32737 -3.903226,0 -1.202881,-0.60144 -2.745602,-1.76834 -3.548385,-2.83871 -0.05281,-0.0704 -1.051304,-2.12022 -1.064517,-2.12903 -0.196829,-0.13122 -0.498091,0.10579 -0.709679,0 -0.211584,-0.1058 0.167275,-0.54241 0,-0.70968 -0.946234,0 0.118282,0.11828 -0.354838,-0.35484 -0.167272,-0.16727 -0.542403,0.16727 -0.709676,0 -0.08364,-0.0836 0.08364,-0.2712 0,-0.35484 -0.08364,-0.0836 -0.241112,0.0325 -0.35484,0 -0.719283,-0.20551 -1.419355,-0.47312 -2.129031,-0.70968 z"
       id="path1" />
    <path
       style="fill:#483e37;stroke:#000000;stroke-width:0.626999;stroke-opacity:0"
       d="M 325.38709,270.74193 312.25807,217.16129"
       id="path2" />
    <path
       style="fill:#483e37;stroke:#000000;stroke-width:0.626999;stroke-opacity:0"
       d="m 55.908733,193.41797 c -0.164687,-1.92207 0.166122,-3.79023 0.354838,-5.67741 0.05885,-0.58847 -0.09722,-1.19085 0,-1.7742 0.0275,-0.16499 0.301943,-0.19615 0.354841,-0.35484 0.118279,-0.35484 -0.05914,-0.70967 0,-1.06451 0.09915,-0.59491 0.304752,-1.17317 0.354838,-1.7742 0.157467,-1.88961 0.20941,-3.78683 0.354838,-5.67742 0.204758,-2.66186 0.54056,-5.18666 1.064517,-7.80645 0.04639,-0.23196 -0.131221,-0.51284 0,-0.70968 0.146708,-0.22005 0.569502,-0.13055 0.709676,-0.35483 1.444929,-2.31189 2.378559,-6.07116 3.193549,-8.51613 0.772856,-2.31857 1.139434,-4.87018 2.129031,-7.09678 -0.19672,-0.87881 0.800037,-0.89039 1.064517,-1.41935 0.167272,-0.33455 0.162401,-0.74379 0.35484,-1.06452 0.172122,-0.28687 0.524106,-0.43132 0.709676,-0.70967 1.072812,-1.60922 2.321097,-3.6862 3.548388,-5.32258 1.030116,-1.37349 2.668717,-2.43712 3.548385,-3.90323 0.19244,-0.32073 0.162402,-0.74379 0.354841,-1.06452 0.527421,-0.87903 1.480296,-1.12546 2.129031,-1.77419 0.752816,-0.75282 3.360862,-4.24459 3.903226,-4.96774 0.476067,-0.63476 0.603337,-1.48338 1.064516,-2.12904 1.122233,-1.57112 3.094575,-3.17354 4.612905,-4.25806 0.89309,-0.63792 2.561071,-0.93089 3.193547,-1.77419 0.22442,-0.29923 0.175734,-0.73616 0.354838,-1.06452 0.624187,-1.14434 3.612377,-5.70105 4.258064,-6.3871 0.924279,-0.98204 2.195671,-1.5767 3.193546,-2.48387 0.315557,-0.28687 0.373047,-0.80269 0.709674,-1.06451 1.242864,-0.96668 3.664645,-2.50713 5.322565,-2.83871 0.34795,-0.0696 0.72027,0.0861 1.06452,0 0.70257,-0.17565 2.44638,-1.40061 3.19355,-1.7742 2.29417,-1.14708 5.60756,-0.70967 8.16129,-0.70967 1.66695,0 7.23899,-0.42571 8.51612,0 0.63476,0.21158 0.86264,1.04821 1.41936,1.41935 0.92237,0.61492 1.90681,0.67384 2.83871,1.41936 2.5655,2.0524 3.985,5.37663 4.6129,8.51613 0.15779,0.78893 0.10628,1.73816 0.35484,2.48387 0.45098,1.35293 0.85922,2.82099 1.06452,4.25806 0.46778,3.2745 0,6.97566 0,10.29032 0,3.03343 0.0188,5.88214 -0.35484,8.87097 -0.15654,1.2523 0.30464,2.68465 0,3.90323 -0.0406,0.16227 -0.23656,0.23656 -0.35484,0.35484 -0.23656,0.94623 -0.5352,1.87908 -0.70968,2.8387 -0.67676,3.72219 -1.33889,7.6017 -2.12903,11.35484 -0.3014,1.43166 -0.88305,2.80633 -1.06451,4.25807 -0.0734,0.58683 0.0836,1.18874 0,1.77419 -0.10923,0.76458 -0.89685,1.81319 -1.06452,2.48387 -0.11475,0.45899 0.11475,0.96037 0,1.41936 -0.21848,0.87389 -0.8275,1.61482 -1.06452,2.48387 -0.54747,2.00738 -1.10591,5.01948 -2.48387,6.74193 -1.20939,1.51175 -2.25003,2.25003 -3.54839,3.54839 -0.48767,0.48768 -0.62299,1.24437 -1.06451,1.77419 -0.42834,0.51401 -1.0179,0.88409 -1.41936,1.41936 -0.51175,0.68234 -1.10258,1.33711 -1.41935,2.12903 -0.0879,0.21964 0.14777,0.52496 0,0.70968 -0.36945,0.4618 -1.04991,0.60271 -1.41936,1.06451 -0.14777,0.18473 0.1058,0.4981 0,0.70968 -0.14961,0.29923 -0.50895,0.44204 -0.70967,0.70968 -0.31738,0.42317 -0.33565,1.04532 -0.70968,1.41935 -0.48768,0.48768 -1.22245,0.65071 -1.77419,1.06452 -0.60589,0.45442 -1.14404,0.99925 -1.7742,1.41935 -1.05996,0.70664 -2.40896,0.84965 -3.54839,1.41936 -1.23374,0.61687 -2.31464,1.51216 -3.54838,2.12903 -0.10579,0.0529 -0.26398,-0.0757 -0.35484,0 -2.44212,2.0351 -4.817711,4.3491 -7.806432,5.67742 -2.025348,0.90016 -4.296693,1.36889 -6.387097,2.12903 -1.164299,0.42339 -2.760578,0.92965 -3.903226,1.41936 -1.831684,0.78501 -0.260038,0.69072 -2.12903,1.06452 -2.71712,0.54342 -6.623299,0.50792 -9.225807,0.35483 -1.135242,-0.0668 -4.22656,-1.69377 -5.677421,-2.12903 -0.591397,-0.11828 -1.182793,-0.23656 -1.774193,-0.35484 -0.118279,-0.11828 -0.205224,-0.28003 -0.354838,-0.35484 -0.211584,-0.10579 -0.498094,0.1058 -0.709678,0 -0.851477,-0.42574 -1.565937,-1.31522 -2.483872,-1.77419 -0.334544,-0.16727 -0.830857,-0.0628 -1.064514,-0.35484 -0.595709,-0.74463 -0.745058,-1.80957 -1.419354,-2.48387 -0.418182,-0.41818 -1.049912,-0.60271 -1.419357,-1.06451 -0.147776,-0.18473 0.07481,-0.48526 0,-0.70968 -0.369187,-1.10757 -0.236559,0.11828 -0.709676,-0.35484 -0.48768,-0.48768 -0.709679,-1.1828 -1.064517,-1.7742 -0.473117,-0.82795 -0.946237,-1.65591 -1.419355,-2.48387 -0.118279,0 -0.293984,0.10143 -0.354838,0 -0.381682,-0.63613 -2.086406,-5.01036 -1.419354,-5.67742 0.418182,-0.41818 1.182796,0 1.774192,0 z"
       id="path3" />
    <path
       style="fill:#5fbcd3;stroke:#000000;stroke-width:0.626999;stroke-opacity:0"
       d="m 85.161288,169.96774 c -0.828032,-1.2069 -3.186723,-2.82506 -3.903226,-4.25807 -0.105791,-0.21158 0.0464,-0.47771 0,-0.70967 -0.62408,-3.12041 -1.527344,-6.34084 -1.064514,-9.58065 1.93693,-5.81079 0.345242,-0.28766 0.709676,-2.83871 0.406908,-2.84835 0.05565,-0.80705 1.419355,-3.19354 0.897244,-1.57018 -0.34295,-0.72454 1.064517,-2.48388 0.165219,-0.20652 0.489616,-0.20813 0.709678,-0.35483 0.68112,-0.45408 1.118817,-1.28267 1.774193,-1.7742 -0.848413,-5.42838 1.702652,-0.8725 2.483871,-1.41935 2.653636,-1.85755 2.949242,-3.01799 5.677419,-4.25807 1.096203,-0.49827 2.019318,-0.35484 3.193547,-0.35484 1.064517,0 2.154383,-0.23092 3.193546,0 5.94884,1.32197 10.67588,8.63898 12.06452,14.19355 0.66161,2.64643 0.67634,9.88068 0.35484,12.77419 -0.21783,1.96044 -0.85053,4.13617 -1.41936,6.03226 -0.21341,0.71138 -0.87906,3.09279 -1.41935,3.90323 -0.0656,0.0984 -0.30194,-0.10579 -0.35484,0 -0.10579,0.21158 0.18472,0.5619 0,0.70968 -0.43909,0.35127 -2.79686,1.26905 -3.54839,1.41935 -0.78274,0.15655 -1.69742,-0.11235 -2.48387,0 -2.02895,0.28985 -7.350338,0.82371 -9.225805,0.35484 -0.642237,0.21387 -0.659937,-0.57482 -1.064514,-0.70968 -0.224423,-0.0748 -0.47312,0 -0.709679,0 -0.473117,-0.11828 -0.966557,-0.17372 -1.419355,-0.35484 -0.465926,-0.18637 -0.786159,-0.64697 -1.064516,-1.06451 -0.06561,-0.0984 0.09841,-0.28923 0,-0.35484 -0.311214,-0.20748 -0.743786,-0.1624 -1.064517,-0.35484 -1.074266,0.8756 -0.610343,-0.96518 -0.709676,-1.06451 -0.187018,-0.18702 -0.56297,-0.13478 -0.709678,-0.35485 -0.131218,-0.19682 0.07481,-0.48525 0,-0.70967 -0.271979,-0.81594 -2.09381,-2.70597 -2.483872,-3.19355 z"
       id="path4" />
    <path
       style="fill:#55ddff;stroke:#000000;stroke-width:0.626999;stroke-opacity:0"
       d="m 264.70967,212.54839 18.45162,53.2258"
       id="path5" />
    <path
       style="fill:#55ddff;stroke:#000000;stroke-width:0.626999;stroke-opacity:0"
       d="m 88.709676,166.06452 c -1.042649,-1.71691 -0.820597,-3.52632 -1.419354,-5.32259 -0.0529,-0.15868 -0.301943,-0.19615 -0.354838,-0.35484 -1.046311,-3.13892 -1.450404,-5.75282 -1.064517,-9.2258 0.07583,-0.68247 0.742672,-0.58175 1.064517,-1.06452 0.146706,-0.22006 0.167822,-0.52266 0.354838,-0.70967 0.734173,-0.73418 -0.0287,1.12191 0.709678,-0.35484 0.0529,-0.1058 -0.08364,-0.27121 0,-0.35484 0.250907,-0.25091 0.714505,0.0583 1.064514,0 0.47312,-0.11828 0.946237,-0.23656 1.419355,-0.35484 0,-0.11828 -0.08364,-0.2712 0,-0.35484 0.190722,-0.19072 6.437225,-0.35484 7.096776,-0.35484 1.472318,0 4.107825,-0.40492 5.322585,0 0.40457,0.13486 0.66855,0.55129 1.06451,0.70968 0.34728,0.13891 0.80004,0.0904 1.06452,0.35484 0.37403,0.37403 0.43753,0.96577 0.70967,1.41935 0.34425,0.57374 1.03046,0.8749 1.41936,1.41936 0.22343,0.3128 1.65434,3.18882 1.77419,3.54838 0.31936,0.95807 -0.31935,2.23549 0,3.19355 0.1058,0.31738 0.56007,0.41045 0.70968,0.70968 0.15869,0.31738 0,0.70968 0,1.06452 0,0.59139 0.0972,1.19084 0,1.77419 -0.0275,0.165 -0.30194,0.19615 -0.35484,0.35484 -0.27755,0.83267 0.14387,1.97551 0,2.83871 -0.28345,1.70067 -0.46873,1.4062 -1.06451,3.19355 -0.36563,1.09687 -0.10399,1.83529 -0.35484,2.83871 -0.42838,1.71349 -0.16863,-0.0176 -0.70968,1.06451 -0.0529,0.1058 0.10579,0.30194 0,0.35484 -0.21159,0.10579 -0.48526,-0.0748 -0.70968,0 -0.15869,0.0529 -0.19615,0.30194 -0.35484,0.35484 -0.88917,0.29639 -2.28106,-0.11406 -3.19354,0 -1.69707,0.21213 -3.600868,0.92874 -5.322585,0.35484 -0.50182,-0.16727 -0.917538,-0.54241 -1.419355,-0.70968 -0.22442,-0.0748 -0.51285,0.13122 -0.709679,0 -0.165285,-0.11019 -1.596638,-1.95148 -1.774192,-2.12903 -0.861833,-0.86183 -0.521055,0.10551 -1.064517,-0.70968 -0.382566,-0.57385 -0.633674,-1.23564 -1.064517,-1.77419 -0.07389,-0.0924 -0.283871,0.0946 -0.354838,0 -0.317378,-0.42317 -0.279243,-1.1119 -0.709678,-1.41936 -2.068648,-1.4776 -2.680102,1.45698 -0.709676,-2.48387"
       id="path6" />
    <path
       style="fill:#55ddff;stroke:#000000;stroke-width:0.626999;stroke-opacity:0"
       d="m 295.22581,187 34.41935,53.93548"
       id="path7" />
  </g>
</svg>
