<?xml version="1.0" encoding="UTF-8" standalone="no"?>
<!-- Created with Inkscape (http://www.inkscape.org/) -->

<svg
   width="210mm"
   height="297mm"
   viewBox="0 0 210 297"
   version="1.1"
   id="svg1"
   xmlns="http://www.w3.org/2000/svg"
   xmlns:svg="http://www.w3.org/2000/svg">
  <defs
     id="defs1" />
  <g
     id="layer1">
    <path
       style="fill:#ff55dd;stroke:#000000;stroke-width:0.626999;stroke-opacity:0"
       d="m 28.032257,212.19354 c -0.61242,-2.33183 -2.33968,-4.11011 -3.193548,-6.38709 -0.171235,-0.45663 -0.173719,-0.96656 -0.354838,-1.41936 -0.124247,-0.31061 -0.560065,-0.41045 -0.709678,-0.70967 -0.0529,-0.1058 0,-0.23656 0,-0.35484 -0.118279,-0.35484 -0.1624,-0.74379 -0.354838,-1.06452 -0.172123,-0.28687 -0.560065,-0.41045 -0.709678,-0.70968 -2.697136,-5.39427 -0.104844,-0.41937 -0.709677,-2.83871 0.213871,-0.64223 -0.574818,-0.65993 -0.709678,-1.06451 -0.496257,-1.48877 0,-5.27581 0,-7.09678 0,-1.26323 -0.267189,-3.63179 0,-4.96774 0.0328,-0.16402 0.301943,-0.19615 0.354839,-0.35484 0.149613,-0.44884 -0.09279,-0.95542 0,-1.41935 0.392461,-1.96231 1.178421,-3.77095 1.774194,-5.67742 0.80759,-2.58429 1.27701,-5.25039 2.129032,-7.80645 0.07481,-0.22442 -0.167273,-0.54241 0,-0.70968 0.08364,-0.0836 0.289229,0.0984 0.354839,0 0.207475,-0.31121 0.187566,-0.72997 0.354838,-1.06452 0.695794,-1.39158 1.622243,-2.96562 2.483872,-4.25806 0.408853,-0.61328 1.006337,-1.15467 1.419354,-1.77419 0.86473,-1.2971 2.077726,-4.07423 2.483872,-4.96775 0.09635,-0.21197 -0.158814,-0.9057 0,-1.06451 0.08364,-0.0836 0.262477,0.0739 0.354838,0 0.426508,-0.34121 2.101982,-2.54402 2.838709,-2.83871 0.329459,-0.13178 0.720273,0.0861 1.064517,0 1.039209,-0.2598 1.631868,-1.45478 3.548388,-1.77419 0.514744,-0.0858 1.271563,0.16754 1.774192,0 0.351959,-0.11733 3.903226,-0.74113 3.903226,-0.35484 0,0.1213 -1.001202,1.22941 -1.064517,1.41935 -0.0748,0.22442 -0.167272,0.54241 0,0.70968 0.08364,0.0836 0.271204,-0.0836 0.354838,0 0.08364,0.0836 -0.08363,0.2712 0,0.35484 0.21054,0.21054 0.447099,0.17978 0.709679,0.35484 0.473168,0.31544 0.891167,1.15526 1.419355,1.41935 1.023366,0.51169 3.507729,-0.85137 3.903226,-1.77419 0.237577,-0.55435 0.18915,-1.19429 0.354838,-1.7742 0.571166,-1.99907 0.07832,0.19821 0.709678,-1.06451 0.211585,-0.42317 -0.11475,-0.96036 0,-1.41936 0.04057,-0.16227 0.280033,-0.20522 0.354838,-0.35483 0.284856,-0.56971 0.486027,-1.1778 0.709679,-1.7742 0.631859,-1.68496 0.944486,-3.58139 1.419354,-5.32258 0.10046,-0.36835 0.118827,-2.24868 0.354838,-2.83871 0.906119,-2.2653 1.740361,-4.90008 2.83871,-7.09677 0.426463,-0.85293 1.056272,-1.6021 1.419354,-2.48387 2.196963,-5.33549 0.09193,-1.67675 1.774193,-6.3871 0.354841,-0.70968 0.709679,-1.41936 1.064517,-2.12903 0.118279,0 0.310911,0.10982 0.354838,0 0.223991,-0.55998 0.143073,-1.20949 0.35484,-1.7742 0.456835,-1.21822 2.043806,-1.73855 2.483871,-2.83871 0.181118,-0.45279 0.236559,-0.94623 0.354838,-1.41935 0.354838,-0.35484 0.840098,-0.61568 1.064517,-1.06452 0.227126,-0.45425 1.933236,-5.34697 2.129031,-6.03225 0.118279,-0.41398 -0.236559,-0.5914 0,-1.06452 0.0529,-0.10579 0.271203,0.0836 0.35484,0 0.938819,-0.93882 1.545051,-2.60957 2.483869,-3.54839 0.719468,-0.71946 1.730999,-1.08976 2.483871,-1.77419 0.560401,-0.50946 0.883822,-1.23866 1.419355,-1.77419 0.609558,-0.609562 1.562312,-0.85264 2.129033,-1.419359 1.182796,-1.182796 2.477535,-2.263365 3.548388,-3.548388 0.714346,-0.857218 1.117883,-1.936284 1.774193,-2.838709 0.295156,-0.405839 0.763426,-0.663062 1.064516,-1.064517 0.07097,-0.09462 -0.08364,-0.271203 0,-0.354838 0.08364,-0.08364 0.236559,0 0.354838,0 0.11828,-0.118279 0.262054,-0.215659 0.354838,-0.35484 0.146709,-0.220062 0.134779,-0.56297 0.354841,-0.709676 1.441389,-0.960927 0.400166,3.948551 0.709676,4.258064 0.167272,0.167272 0.485259,-0.07481 0.709679,0 0.773385,0.257796 -0.177171,1.206351 1.064516,0.709678 0.39596,-0.158385 0.650785,-0.606245 1.064514,-0.709678 0.573741,-0.143436 1.203635,0.155606 1.774195,0 0.765485,-0.20877 1.392338,-0.76984 2.129031,-1.064517 0.4528,-0.181118 0.983163,-0.136742 1.419355,-0.354838 0.762881,-0.381439 1.349618,-1.072949 2.129033,-1.419355 0.324255,-0.144113 0.714505,0.05834 1.064517,0 0.385151,-0.06419 4.520345,-1.326795 4.612905,-1.419354 0.30155,-0.301556 0.40812,-0.762961 0.70968,-1.064517 0.23559,-0.235593 2.42993,-1.010576 2.8387,-1.419354 0.0836,-0.08364 -0.0836,-0.271204 0,-0.354838 1.38878,-1.388782 3.66843,-2.201053 5.32258,-3.19355 1.84595,-1.107565 -0.64039,0.285554 0.35484,-0.709676 1.84781,-1.847811 0.25743,0.528783 2.48387,-1.419355 0.56997,-0.498726 0.88383,-1.23866 1.41936,-1.774195 0.18702,-0.187016 0.52266,-0.167823 0.70968,-0.354838 0.0855,-0.08551 2.97904,-3.560019 3.19354,-3.903226 0.19824,-0.31718 0.13042,-0.765289 0.35484,-1.064517 0.15869,-0.211584 0.55099,-0.143253 0.70968,-0.354838 0.22442,-0.299225 0.23656,-0.709676 0.35484,-1.064516 0.23656,-0.354838 0.43666,-0.736897 0.70968,-1.064517 2.3085,-2.770203 5.40071,-4.838121 8.16129,-7.096773 1.89749,-1.55249 4.48927,-4.048419 6.03225,-6.032257 0.22964,-0.295246 0.13744,-0.760153 0.35484,-1.064516 0.38891,-0.544463 0.97876,-0.915813 1.41936,-1.419355 0.38944,-0.445074 0.76024,-0.912236 1.06452,-1.419355 0.0608,-0.101425 -0.0836,-0.271203 0,-0.35484 2.41326,-2.413267 5.55439,-3.486875 8.51612,-4.96774 0.82796,-0.47312 1.65592,-0.946237 2.48388,-1.419357 0.23655,-0.236559 0.4228,-0.537554 0.70967,-0.709676 0.32073,-0.19244 0.7533,-0.147363 1.06452,-0.354838 0.0984,-0.06561 -0.0673,-0.257591 0,-0.354841 1.06451,-1.419355 2.12903,-2.838709 3.19355,-4.258064 0.23656,-0.591397 0.35635,-1.244214 0.70967,-1.774192 0.37115,-0.556718 0.99102,-0.905346 1.41936,-1.419355 0.23945,-0.28734 0.0363,-0.868487 0.35484,-1.064517 1.48731,-0.91527 3.10764,-1.598422 4.6129,-2.483871 0.50975,-0.29985 0.90238,-0.777309 1.41936,-1.064517 0.48783,-0.271018 2.99856,-1.590918 3.54838,-1.774192 0.22442,-0.07481 0.52496,0.147777 0.70968,0 0.4618,-0.369443 0.70393,-0.950598 1.06452,-1.419355 1.62188,-2.108449 4.77827,-6.263573 6.74193,-7.806452 0.0508,-0.03993 5.59438,-3.664871 7.80645,-4.612903 0.34379,-0.147339 0.74379,-0.1624 1.06452,-0.354839 1.44412,-0.866475 -0.0223,-0.583953 1.41935,-1.064516 0.71057,-0.236856 1.36157,-0.87265 2.12904,-1.064516 0.22949,-0.05737 0.51284,0.131219 0.70967,0 0.49208,-0.328048 0.60272,-1.049912 1.06452,-1.419355 0.29457,-0.235654 1.94874,-0.884218 2.12903,-1.064516 0.0836,-0.08364 -0.0946,-0.283871 0,-0.354838 3.60113,-2.700843 7.39888,-5.1056091 11,-7.8064519 0.0929,-0.069683 2.67759,-2.483871 2.83871,-2.483871 0.34278,0 -0.70501,1.0598462 -0.70968,1.0645161 -1.62832,1.6283231 -3.49302,3.1980835 -4.96774,4.9677417 -0.16931,0.2031802 -0.14325,0.5509891 -0.35484,0.7096781 -0.29922,0.224419 -0.76529,0.130418 -1.06451,0.354838 -0.86438,0.648282 0.10712,0.656115 -0.70968,1.064516 -1.85356,0.926779 -2.74863,2.616252 -3.90323,3.193549 -0.10579,0.0529 -0.2712,-0.08364 -0.35483,0 -0.0836,0.08364 0.0529,0.249046 0,0.354838 -0.42647,0.852926 -0.85848,1.71266 -1.41936,2.483871 -0.39354,0.541118 -0.99101,0.905346 -1.41935,1.419355 -0.33864,0.40636 -0.33565,1.045322 -0.70968,1.419355 -0.0836,0.08364 -0.2712,-0.08364 -0.35484,0 -0.0836,0.08364 0.0836,0.271202 0,0.354839 -0.30156,0.301554 -0.7915,0.382059 -1.06452,0.709677 -0.33863,0.40636 -0.35582,1.02618 -0.70967,1.419355 -0.7295,0.81055 -1.67333,1.399537 -2.48387,2.129032 -0.9721,0.390786 -1.12098,1.475811 -1.7742,2.129033 -0.14824,0.148241 -1.88321,1.050629 -2.12903,1.419355 -0.13122,0.196829 0.10579,0.498091 0,0.709676 -0.46929,0.93857 -1.65975,2.25498 -2.12903,3.19355 -0.45673,0.91345 -1.17503,2.652506 -1.41936,3.548385 -0.1893,0.694116 -0.12732,1.446488 -0.35484,2.129033 -0.13486,0.404577 -0.51895,0.683075 -0.70967,1.064517 -0.24667,0.493329 -0.0487,1.16196 -0.35484,1.774193 -0.59731,1.194617 -0.35117,-1.090253 -0.70968,1.419354 -0.13983,0.97881 0.31875,2.592152 0,3.548388 -0.0529,0.158689 -0.30194,0.196149 -0.35484,0.354838 -0.14961,0.448839 0.0928,0.955424 0,1.419355 -0.23598,1.179922 -0.89683,2.503344 -1.41935,3.548388 -0.14962,0.299225 -0.56007,0.41045 -0.70968,0.709676 -0.37271,0.745418 -0.34964,1.414152 -1.06452,2.129033 -0.18701,0.187015 -0.52266,0.167822 -0.70967,0.354838 -0.62074,0.620739 -0.79862,1.863132 -1.41936,2.483871 -0.18701,0.187018 -0.49809,0.196152 -0.70968,0.354838 -1.07426,-0.875601 -0.61034,0.965184 -0.70967,1.064517 -0.18702,0.187018 -0.56297,0.134778 -0.70968,0.35484 -0.13122,0.196829 0.0879,0.490038 0,0.709676 -0.79609,1.990217 -2.42844,3.637129 -3.19355,5.677419 -0.21176,0.564711 -0.16412,1.202034 -0.35484,1.774195 0.60307,0.960461 -0.5424,0.917535 -0.70968,1.419355 -0.0748,0.224419 0.0464,0.47771 0,0.709676 -0.45119,2.255991 -2.15333,5.611241 -3.19354,7.451613 -2.37555,4.202883 -4.95178,8.28919 -7.45162,12.419354 -0.22082,0.364839 -0.47311,0.709679 -0.70967,1.064517 -0.35484,0.709678 -0.67086,1.440129 -1.06452,2.129033 -0.16598,0.290465 -0.58543,0.39906 -0.70968,0.709676 -0.41673,1.041842 -0.64778,2.151708 -1.06451,3.19355 -0.69898,1.747448 -1.68025,2.817762 -2.12904,4.6129 -0.57792,2.31171 -1.55446,4.21848 -2.48387,6.3871 -0.50541,1.17929 -0.5372,2.13892 -1.06451,3.19355 -0.76932,1.53864 -1.93736,2.97337 -2.48388,4.6129 -0.0748,0.22442 0.0574,0.48018 0,0.70968 -0.38314,1.53257 -1.64286,2.99656 -2.48386,4.25806 -0.29342,0.44012 -0.28651,1.10198 -0.70968,1.41936 -0.29923,0.22442 -0.76016,0.13743 -1.06452,0.35484 -0.81312,0.5808 -2.63998,2.25248 -3.19355,3.19354 -1.864,3.16881 -3.03157,5.80858 -5.32258,8.51613 -1.67841,1.98358 -3.99488,3.5497 -6.38709,4.61291 -0.44565,0.19806 -1.01984,0.0752 -1.41936,0.35484 -0.82221,0.57554 -1.3789,1.46225 -2.12903,2.12903 -0.31874,0.28332 -0.81664,0.36265 -1.06452,0.70968 -0.37022,0.51831 -0.4461,1.19432 -0.70967,1.77419 -0.63727,1.40199 -0.92136,1.84271 -1.41936,2.83871 -0.25804,0.51609 -0.27772,4.98338 -0.35484,5.67742 -0.13468,1.21216 -0.93398,2.93661 0.35484,3.90322 0.70472,0.52854 1.73912,0.46143 2.48387,0.70968 0.56365,0.18788 1.22426,0.78955 1.77419,1.06452 0.1058,0.0529 0.27121,-0.0836 0.35484,0 0.0836,0.0836 0,0.23656 0,0.35483 0.23656,0.35484 0.40813,0.76297 0.70968,1.06452 0.18702,0.18702 0.56297,0.13478 0.70968,0.35484 0.16695,0.25042 0.38992,2.36694 0.35484,2.48387 -0.92008,3.06692 -3.02427,5.15872 -4.61291,7.80645 -0.38828,0.64714 -2.60192,4.39987 -3.54838,4.96775 -0.45359,0.27214 -0.97924,0.41626 -1.41936,0.70967 -1.31473,0.87649 -0.10462,0.54287 -1.41935,1.41936 -0.33999,0.22666 -1.0619,0.35222 -1.41936,0.70967 -0.0836,0.0836 0,0.23656 0,0.35484 -0.35484,0.47312 -0.61019,1.04075 -1.06451,1.41936 -0.28734,0.23945 -0.80004,0.0904 -1.06452,0.35483 -0.43694,0.43695 -1.09756,2.51693 -1.41935,2.83872 -0.26449,0.26448 -0.80004,0.0904 -1.06452,0.35483 -0.31509,0.3151 -1.51074,6.04296 -1.77419,7.09678 -0.2113,0.84517 1.86804,2.22288 2.48387,2.83871 0.82795,0.82796 1.43657,1.96022 2.48387,2.48387 0.21158,0.10579 0.49809,-0.10579 0.70968,0 0.10579,0.0529 0,0.23656 0,0.35484 0.23655,0.11828 0.46411,0.25661 0.70967,0.35484 0.4528,0.18111 1.01358,0.0843 1.41936,0.35484 0.41754,0.27835 0.61567,0.84009 1.06451,1.06451 1.23048,0.61524 2.82285,1.06848 4.25807,0.70968 0.16228,-0.0406 0.20522,-0.28003 0.35484,-0.35484 1.3753,-0.68765 2.79933,-1.28795 4.25806,-1.77419 0.33663,-0.11221 0.71657,0.0696 1.06452,0 1.0014,-0.20028 1.84364,-0.78021 2.83871,-1.06452 0.44193,-0.12627 1.40356,0.0158 1.77419,-0.35484 0.009,-0.009 0.76372,-1.36531 1.41935,-0.70968 0.55743,0.55743 -0.62445,3.87458 -0.70967,4.25807 -0.42828,1.92724 -1.69863,3.24021 -2.48387,4.96774 -0.41818,0.92 -0.61257,1.93482 -1.06452,2.83871 -1.11773,2.23546 -3.87555,4.10079 -5.67742,5.67742 -1.76877,1.54767 -2.23577,3.11502 -3.90322,4.96774 -1.80433,2.00481 -4.34886,3.20127 -6.3871,4.96774 -0.32227,0.27931 -0.37305,0.8027 -0.70968,1.06452 -1.3802,1.07349 -5.71538,3.57116 -7.451611,4.6129 -0.680373,0.40823 -1.483381,0.60334 -2.129033,1.06452 -1.214459,0.86747 -1.986793,1.52565 -3.193547,2.12903 -0.598453,0.29923 -0.884084,1.0179 -1.419355,1.41936 -1.310942,0.9832 -4.292544,1.31256 -5.677421,1.77419 -0.501817,0.16727 -0.965772,0.43753 -1.419355,0.70968 -0.143433,0.0861 -0.189841,0.32734 -0.354838,0.35484 -0.933362,0.15555 -1.920724,-0.2295 -2.838709,0 -0.617937,0.15448 -1.156256,0.55519 -1.774193,0.70967 -1.714336,0.42859 -3.563834,0.21955 -5.32258,0.35484 -6.488412,0.49911 -12.996683,0.35484 -19.51613,0.35484 -4.558294,0 -8.948539,-0.25614 -13.48387,-0.70968 -0.771186,-0.0771 -1.786138,0.2791 -2.483871,0 -0.49113,-0.19645 -0.928227,-0.51322 -1.419355,-0.70967 -0.728292,-0.29132 -0.0054,0.7043 -1.064516,-0.35484 -0.08364,-0.0836 0.08363,-0.27121 0,-0.35484 -0.08364,-0.0836 -0.271204,0.0836 -0.354838,0 -0.301557,-0.30156 -0.354841,-0.82796 -0.709679,-1.06452 -1.46109,-0.97406 -1.338882,0.36672 -2.483871,-1.06451 -0.233656,-0.29207 -0.130419,-0.7653 -0.354838,-1.06452 -0.158689,-0.21159 -0.522661,-0.16782 -0.709679,-0.35484 -0.08364,-0.0836 0.0529,-0.24905 0,-0.35484 -0.381439,-0.76288 -0.886534,-1.46301 -1.419355,-2.12903 -0.07389,-0.0924 -0.249044,0.0529 -0.354838,0 -0.199892,-0.0999 -0.948338,-1.187 -1.064516,-1.41935 -0.147717,-0.29544 0.225078,-1.19428 0,-1.41936 -0.08364,-0.0836 -0.271201,0.0836 -0.354838,0 -0.734174,-0.73417 1.121915,0.0287 -0.354838,-0.70968 -0.105794,-0.0529 -0.271203,0.0836 -0.354841,0 -0.187645,-0.18764 -0.354838,-6.3071 -0.354838,-7.09677 0,-3.08075 -1.323496,0.0193 0,-4.61291 z"
       id="path10" />
    <path
       style="fill:#de87cd;stroke:#000000;stroke-width:0.626999;stroke-opacity:0"
       d="m 51.451613,227.09677 c -5.405123,-1.80171 -1.218113,-0.11917 -7.096774,-3.54839 -0.102168,-0.0596 -0.271203,0.0836 -0.35484,0 -0.418182,-0.41818 -0.646335,-1.00117 -1.064517,-1.41935 -0.771088,-0.77109 -1.632344,-1.44781 -2.483868,-2.12903 -2.771572,-2.21726 -3.368599,-2.32909 -5.677422,-4.96774 -0.440597,-0.50355 -1.094414,-0.83447 -1.419354,-1.41936 -0.437462,-0.78743 -0.617599,-1.70177 -1.064517,-2.48387 -0.05868,-0.10269 -0.301942,0.10579 -0.354838,0 -0.451945,-0.90389 -0.689194,-1.90041 -1.064517,-2.83871 0.176676,-0.62861 -0.551291,-0.66856 -0.709676,-1.06452 -1.169884,-0.41939 -0.164118,-1.20203 -0.354838,-1.77419 -0.13486,-0.40458 -0.639569,-0.64386 -0.709678,-1.06452 -0.556713,-3.34027 -0.354838,-6.93169 -0.354838,-10.29032 0,-1.12633 -0.373676,-4.91123 0,-6.03226 0.05289,-0.15869 0.292714,-0.19953 0.354838,-0.35483 0.715094,-1.78774 0.637796,-3.79985 1.064516,-5.67742 0.273675,-1.20417 0.674013,-2.37688 1.064517,-3.54839 0.354838,-0.94624 0.709676,-1.89248 1.064514,-2.83871 0.118279,0 0.271203,0.0836 0.354841,0 0.334544,-0.33454 -0.186373,-0.98449 0,-1.41935 1.175829,-2.74361 0.807365,-0.21816 2.12903,-2.48388 0.666324,-1.14226 1.182796,-2.36559 1.774196,-3.54838 0.05289,-0.1058 -0.08364,-0.27121 0,-0.35484 0.187015,-0.18702 0.562969,-0.13478 0.709676,-0.35484 0.353319,-0.52998 0.47312,-1.1828 0.709678,-1.7742 0.591397,-0.70967 1.244434,-1.37223 1.774193,-2.12903 1.721202,-2.45886 1.219782,-2.28429 3.548388,-4.6129 0.187015,-0.18702 0.619318,-0.70968 0.354838,-0.70968 -0.128315,0 0.208372,0.8788 0,2.12903 -0.259429,1.55658 -0.565494,3.11584 -1.064517,4.61291 -0.218096,0.65429 -0.799253,1.13756 -1.064517,1.77419 -1.019627,2.44711 -0.439758,2.07142 -1.064513,4.25807 -0.204457,0.71559 -0.981792,0.95785 -0.709679,1.77419 0.03312,0.0994 2.660869,0.88696 3.193547,1.06451 0.698016,0.23268 4.361408,-0.15272 4.967743,-0.35483 0.112209,-0.0374 0,-0.23656 0,-0.35484 0.709678,-0.23656 1.407326,-0.51285 2.129033,-0.70968 1.649677,-0.44991 2.695189,-0.74955 4.258064,-1.41935 0.448249,-0.19211 1.02921,-0.0622 1.419354,-0.35484 3.346543,-2.50991 -0.597961,0.29175 1.419355,-2.12904 0.378603,-0.45432 1.0434,-0.60799 1.419355,-1.06451 3.086015,-3.7473 4.768527,-7.25861 6.387097,-11.70968 0.08084,-0.22231 -0.04111,-0.47672 0,-0.70968 0.314436,-1.78179 0.645438,-3.56245 1.064516,-5.32258 0.173268,-0.72772 0.5474,-1.39878 0.709676,-2.12903 0.07698,-0.34639 -0.112209,-0.72788 0,-1.06451 0.111663,-0.33499 0.980816,-1.27199 1.064517,-1.7742 0.07778,-0.46668 -0.06691,-0.95099 0,-1.41935 0.255175,-1.78622 0.923655,-3.58763 1.419355,-5.32258 0.664765,-2.32668 1.185095,-4.74038 1.774195,-7.09678 0.932146,-3.72859 2.838924,-7.2162 3.548385,-11 0.828008,-4.41603 -0.08415,-1.79244 0.709679,-4.96774 0.58956,-2.35824 1.040603,-1.91574 2.12903,-3.54839 0.06561,-0.0984 -0.08363,-0.2712 0,-0.35484 0.08364,-0.0836 0.265825,0.0779 0.354841,0 0.960353,-0.84031 3.903226,-3.24723 3.903226,-4.6129 0,-0.47312 0.262438,1.0257 0,1.41936 -0.146709,0.22006 -0.573603,0.12805 -0.709679,0.35484 -0.250909,0.41818 -0.17372,0.96655 -0.354838,1.41935 -0.402698,1.00674 -1.069101,1.61283 -1.419354,2.83871 -0.374306,1.31007 -0.125362,4.79988 0,5.67742 0.183716,1.28602 0.880798,1.90752 1.064516,3.19355 0.08363,0.58545 -0.143436,1.20045 0,1.77419 0.2661,1.06441 0.793303,2.1087 1.064514,3.19355 0.08871,0.35484 -0.177419,0.70968 0,1.06451 0.0529,0.1058 0.249047,-0.0529 0.354841,0 0.97668,0.48835 0.500184,0.70968 1.774193,0.70968 0.55423,0 1.939925,-0.67598 2.483871,-1.06451 0.408345,-0.29168 0.634211,-0.80634 1.064517,-1.06452 1.360744,-0.81645 2.916367,-1.28164 4.258063,-2.12903 0.921991,-0.58231 1.623095,-1.45954 2.483872,-2.12903 1.269891,-0.9877 2.809637,-1.65879 3.903226,-2.83871 7.661895,-0.96264 6.823645,-8.98906 10.645165,-13.12904 1.02112,-1.10621 2.17846,-2.08179 3.19354,-3.19354 1.47056,-1.61062 2.76056,-3.382153 4.25807,-4.967745 0.52002,-0.550612 1.23866,-0.883823 1.77419,-1.419355 3.72628,-3.726278 7.3958,-7.510362 11,-11.35484 1.27908,-1.364353 2.08417,-3.107317 3.19355,-4.612902 3.02126,-4.100282 2.22785,-2.536113 5.32258,-7.096775 10.90052,-16.063921 -0.67214,0.347583 6.03226,-8.870966 0.50167,-0.689793 0.81624,-1.525924 1.41935,-2.129033 0.0836,-0.08364 0.27121,0.08364 0.35484,0 0.0836,-0.08364 0,-0.236559 0,-0.354838 0.11828,-0.11828 0.22422,-0.250347 0.35484,-0.354841 0.4618,-0.369443 1.05627,-0.597694 1.41936,-1.064514 0.48712,-0.626308 0.65629,-1.44866 1.06451,-2.129033 0.52349,-0.872482 1.05473,-1.764406 1.7742,-2.483872 0.0836,-0.08363 0.29215,0.100301 0.35483,0 3.16794,-6.335868 -0.56175,0.375442 3.54839,-4.967742 0.47312,-0.827955 0.94624,-1.655913 1.41936,-2.483871 0.11827,0 0.2712,0.08364 0.35483,0 0.18702,-0.187016 0.16783,-0.522661 0.35484,-0.709676 0.0836,-0.08364 0.2712,0.08364 0.35484,0 0.0836,-0.08364 0.0609,-0.456264 0,-0.354838 -0.7625,1.270836 -1.36653,2.632387 -2.12903,3.903226 -1.36753,2.279218 -3.0029,4.398957 -4.25806,6.741935 -0.52988,0.989107 -0.64116,2.15438 -1.06452,3.193547 -0.87904,2.157645 -1.95967,4.229452 -2.83871,6.387097 -0.42337,1.039167 -0.60879,2.168163 -1.06452,3.193547 -2.30629,5.189157 -5.68739,9.895475 -8.87097,14.548387 -0.6301,0.920917 -1.11788,1.936285 -1.77419,2.838712 -0.29515,0.405837 -0.80151,0.637138 -1.06452,1.064514 -1.85763,3.018655 -3.18541,6.336366 -4.6129,9.580647 -5.28651,12.014809 3.10487,-5.854893 -2.48387,5.322579 -0.16727,0.33455 -0.14736,0.7533 -0.35484,1.06452 -0.27836,0.41753 -0.78616,0.64698 -1.06451,1.06451 -0.20748,0.31122 -0.18757,0.72997 -0.35484,1.06452 -0.93583,1.87166 -3.17873,2.73425 -4.61291,4.25806 -0.58456,0.6211 -0.94623,1.41936 -1.41935,2.12904 -0.70968,0.59139 -1.47581,1.12097 -2.12903,1.77419 -0.88402,0.88402 -1.45332,2.17998 -2.12903,3.19355 -0.42011,0.63016 -1.0297,1.12476 -1.41936,1.77419 -1.38902,2.31504 -2.48828,4.79748 -3.90322,7.09677 -0.17534,0.28492 -0.5437,0.41922 -0.70968,0.70968 -1.25998,2.20497 -2.37001,4.49231 -3.54839,6.74194 -0.12272,0.23428 -0.14831,0.54446 -0.35484,0.70967 -0.41305,0.33044 -1.01299,0.37105 -1.41935,0.70968 -0.32762,0.27302 -0.40813,0.76296 -0.70968,1.06452 -0.18702,0.18701 -0.5422,0.15014 -0.70968,0.35484 -1.288612,1.57497 -2.455866,3.25092 -3.548386,4.96774 -1.654154,2.59939 -3.27397,5.26579 -4.96774,7.80645 -0.765135,1.1477 -1.294402,2.45019 -2.129033,3.54839 -1.420604,1.86921 -3.227673,3.427 -4.612902,5.32258 -1.57997,2.16206 -3.809206,6.6191 -4.967743,9.2258 -0.07988,0.17974 -0.507214,1.57173 -0.709678,1.7742 -0.187016,0.18701 -0.522661,0.16782 -0.709676,0.35484 -0.08364,0.0836 0,0.23656 0,0.35484 0,1.64482 1.097888,2.26956 2.483871,3.19355 2.298721,1.53247 7.647424,0.78918 9.935482,-0.35485 1.006094,-0.50304 2.250398,-1.10051 3.19355,-1.77419 1.554396,-1.11028 2.656803,-2.78234 4.258064,-3.90322 0.433343,-0.30334 0.996186,-0.3923 1.419351,-0.70968 1.00587,-0.7544 1.84624,-1.71195 2.83871,-2.48387 0.0934,-0.0726 0.27121,0.0836 0.35484,0 0.0836,-0.0836 -0.0836,-0.2712 0,-0.35484 0.0836,-0.0836 0.30194,-0.10579 0.35484,0 0.5166,1.0332 -1.94628,3.96937 -2.48387,4.96774 -0.62695,1.16434 -1.10371,2.40856 -1.774195,3.54839 -0.807651,1.37301 -2.154965,2.89058 -2.838709,4.25806 -0.253929,0.50786 -1.004178,0.51095 -1.419355,1.06452 -0.158689,0.21158 -0.134776,0.56297 -0.354838,0.70967 -0.196829,0.13123 -0.498094,-0.10579 -0.709678,0 -0.105791,0.0529 0.101425,0.29399 0,0.35485 -1.614443,0.96866 -3.69992,1.3177 -5.322581,2.12903 -0.149611,0.0748 -0.196149,0.30194 -0.354838,0.35484 -0.572159,0.19072 -1.19652,0.18153 -1.774192,0.35483 -1.431775,0.42954 -2.797535,1.05423 -4.258067,1.41936 -0.229494,0.0574 -0.542404,-0.16727 -0.709676,0 -0.167272,0.16727 0.07481,0.48526 0,0.70968 -0.616598,1.84979 -0.709679,1.44848 -0.709679,3.54838 0,2.04138 1.100826,3.52693 1.774196,5.32258 0.932024,2.4854 1.176213,4.09598 3.548385,5.67742 0.529979,0.35332 1.215014,0.40467 1.774195,0.70968 0.893241,0.48722 1.573811,1.31916 2.483871,1.77419 0.568791,0.2844 4.642906,-0.32483 4.96774,0 0.329084,0.32909 -0.254256,3.78869 -0.354838,4.25807 -0.333877,1.5581 -4.149952,8.82772 -6.032256,9.58064 -0.219641,0.0879 -0.47312,0 -0.709679,0 -0.473117,0.11828 -0.971105,0.16274 -1.419354,0.35484 -3.161478,1.35492 1.518824,0.21083 -2.129034,1.7742 -0.434864,0.18637 -0.98449,-0.18637 -1.419354,0 -2.053802,2.0538 -0.04059,0.5424 -2.129031,1.06451 -0.414523,0.10363 -1.112367,1.24394 -1.419355,1.41936 -0.553032,0.31601 -1.204483,0.42482 -1.774195,0.70968 -2.016977,1.00848 -1.343514,1.51235 -4.258064,2.48387 -0.448839,0.14961 -0.952674,-0.0778 -1.419354,0 -0.521767,0.087 -0.910746,0.56436 -1.419355,0.70967 -0.579906,0.16569 -1.194289,0.18916 -1.774193,0.35484 -0.642239,-0.21387 -0.659939,0.57482 -1.064516,0.70968 -0.904031,0.30134 -3.653917,0.0528 -4.258064,0.35484 -2.248265,1.12413 -4.673031,0.71826 -7.096776,1.06451 -3.058327,0.43691 -1.798018,0.70968 -5.677418,0.70968 z"
       id="path8" />
    <path
       style="fill:#ff55dd;stroke:#000000;stroke-width:0.626999;stroke-opacity:0"
       d="M 282.09676,115.32258 253,72.032256"
       id="path11" />
  </g>
</svg>
