<?xml version="1.0" encoding="UTF-8" standalone="no"?>
<!-- Created with Inkscape (http://www.inkscape.org/) -->

<svg
   width="210mm"
   height="297mm"
   viewBox="0 0 210 297"
   version="1.1"
   id="svg1"
   sodipodi:docname="spaceship landed.svg"
   inkscape:version="1.3.2 (091e20e, 2023-11-25, custom)"
   xmlns:inkscape="http://www.inkscape.org/namespaces/inkscape"
   xmlns:sodipodi="http://sodipodi.sourceforge.net/DTD/sodipodi-0.dtd"
   xmlns="http://www.w3.org/2000/svg"
   xmlns:svg="http://www.w3.org/2000/svg">
  <sodipodi:namedview
     id="namedview1"
     pagecolor="#ffffff"
     bordercolor="#000000"
     borderopacity="0.25"
     inkscape:showpageshadow="2"
     inkscape:pageopacity="0.0"
     inkscape:pagecheckerboard="0"
     inkscape:deskcolor="#d1d1d1"
     inkscape:document-units="mm"
     inkscape:zoom="0.74564394"
     inkscape:cx="396.97231"
     inkscape:cy="561.25984"
     inkscape:window-width="1920"
     inkscape:window-height="1051"
     inkscape:window-x="-9"
     inkscape:window-y="-9"
     inkscape:window-maximized="1"
     inkscape:current-layer="layer1" />
  <defs
     id="defs1" />
  <g
     inkscape:label="Layer 1"
     inkscape:groupmode="layer"
     id="layer1">
    <path
       style="fill:#ac9d93;stroke:#000000;stroke-width:0.626999;stroke-opacity:0"
       d="m 43.645161,199.41935 c -2.787042,-1.05381 -5.364618,-2.00402 -7.806452,-3.90322 -0.208769,-0.16238 -0.146069,-0.5473 -0.354838,-0.70968 -1.387933,-1.0795 -3.898836,-2.24439 -5.322581,-3.19355 -1.171429,-0.78095 -0.839123,-1.5488 -1.064516,-1.77419 -0.187016,-0.18702 -0.535517,-0.1558 -0.709679,-0.35484 -1.505246,-1.72029 -1.331222,-2.3424 -2.838708,-3.54839 -0.206525,-0.16522 -0.522661,-0.16782 -0.709678,-0.35484 -0.344841,-0.34484 -0.200621,-0.9567 -0.354838,-1.41935 -0.868572,-2.60572 -0.327698,-2.67587 -0.709678,-4.96775 -0.367338,-2.20402 -0.812125,-5.16517 -0.354838,-7.45161 0.279727,-1.39863 1.099996,-2.82095 1.419354,-4.25806 0.156075,-0.70233 0.07143,-1.46774 0.354839,-2.12903 0.102292,-0.23868 0.960296,-0.60546 1.064516,-0.70968 0.08364,-0.0836 -0.06085,-0.25341 0,-0.35484 1.108523,-1.84754 2.665686,-4.01972 4.258064,-5.32258 1.542318,-1.2619 4.097984,-3.68579 6.387098,-4.25806 0.229497,-0.0574 0.498091,0.10579 0.709676,0 0.299227,-0.14962 0.3923,-0.60389 0.709678,-0.70968 0.448839,-0.14961 0.94787,0.0393 1.419355,0 0.616741,-0.0514 5.060677,-0.30345 5.677418,-0.35484 1.612416,-0.13437 3.35533,-0.57531 4.967743,-0.70968 0.790472,-0.0659 1.71826,0.19141 2.483871,0 0.256585,-0.0642 0.453094,-0.29069 0.709679,-0.35484 1.313569,-0.32839 2.901042,0.15078 4.258064,0 0.599421,-0.0666 1.174075,-0.29482 1.774192,-0.35484 1.634631,-0.16346 3.338015,0.20372 4.967743,0 3.437162,-0.42964 -0.668176,-0.35483 1.774192,-0.35483 0.96573,0 2.606331,0.26915 3.548388,0 0.971699,-0.27763 1.836994,-0.93096 2.83871,-1.06452 2.733799,-0.36451 5.181232,-0.27214 7.806451,-0.70968 1.726243,-0.2877 3.596339,0.28771 5.322581,0 2.824527,-0.47075 5.593561,-0.70967 8.516128,-0.70967 3.870838,0 7.925635,-0.40198 11.709675,0.35483 0.56866,0.11373 1.20554,-0.11373 1.7742,0 1.84594,0.36919 0.35484,0.23656 1.77419,0.70968 0.67326,0.22442 1.44436,-0.18673 2.12903,0 0.76549,0.20877 1.38336,0.79336 2.12903,1.06452 1.1336,0.41221 2.3656,0.47312 3.54839,0.70967 3.7012,0.74024 7.5982,2.20233 11,3.90323 0.29923,0.14961 0.41045,0.56006 0.70968,0.70968 0.73666,0.36833 3.18022,0.34817 3.90323,0.70967 0.52896,0.26449 0.89039,0.80004 1.41935,1.06452 0.33454,0.16727 0.74378,0.1624 1.06451,0.35484 1.44413,0.86648 -0.0223,0.58395 1.41936,1.06452 4.81834,1.20458 -1.03452,-0.51727 2.12903,1.06451 1.34938,0.67469 0.12843,-1.34753 1.77419,0.70968 0.23366,0.29207 0.12119,0.77244 0.35485,1.06452 0.2664,0.33301 0.76296,0.40812 1.06451,0.70967 1.44988,1.44989 1.41936,6.55727 1.41936,8.51613 0,1.30108 0.41143,2.66892 0,3.90323 -0.86461,2.59382 -5.00592,5.70287 -7.09678,7.09677 -0.62599,0.41733 -1.76407,1.39912 -2.12903,2.12903 -0.0529,0.1058 0.0836,0.27121 0,0.35484 -0.0836,0.0836 -0.2712,-0.0836 -0.35484,0 -0.0836,0.0836 0.0836,0.27121 0,0.35484 -0.0836,0.0836 -0.24904,-0.0529 -0.35484,0 -0.61687,0.30844 -1.20034,0.68195 -1.77419,1.06452 -1.70259,1.13506 -2.87753,2.81862 -4.61291,3.90322 -2.63416,1.64636 -0.2296,-0.0417 -1.41935,0.35484 -0.99784,0.33262 -2.26151,0.95334 -3.19355,1.41936 -0.79197,0.39598 -1.26825,1.3438 -2.12903,1.77419 -1.52649,0.76325 -2.61577,0.43596 -4.25806,0.70968 -0.73789,0.12298 -1.40975,0.50417 -2.12904,0.70968 -2.05442,0.58697 -5.17833,0.78035 -7.45161,1.06451 -1.28106,0.16013 -2.62217,-0.16013 -3.90322,0 -1.74112,0.21764 -3.877119,0.88449 -5.677426,1.06452 -0.94764,0.0948 -3.565488,-0.41897 -4.612902,0 -0.395962,0.15838 -0.683075,0.51895 -1.064517,0.70967 -0.287295,0.14365 -4.182123,0.2933 -4.612901,0.35484 -0.261824,0.0374 -0.47312,0.23656 -0.709679,0.35484 -0.473117,0.11828 -0.933678,0.31069 -1.419355,0.35484 -0.824555,0.075 -1.659313,-0.075 -2.483871,0 -0.485674,0.0442 -0.946235,0.23656 -1.419355,0.35484 -0.709676,0.11828 -1.411684,0.29966 -2.12903,0.35484 -2.22622,0.17125 -4.526227,0.0779 -6.741938,0.35484 -0.371144,0.0464 -0.69337,0.30844 -1.064514,0.35484 -1.431047,0.17888 -3.160363,0 -4.612905,0 -3.548387,0 -7.096773,0 -10.645161,0 -1.146055,0 -8.535775,0.34829 -9.580644,0 -0.891693,-0.29723 -1.921722,-1.32448 -2.483871,-1.7742 z"
       id="path11" />
    <path
       style="fill:#917c6f;stroke:#000000;stroke-width:0.626999;stroke-opacity:0"
       d="m 298.06452,219.29032 -30.1613,-67.41935"
       id="path12" />
    <path
       style="fill:#917c6f;stroke:#000000;stroke-width:0.626999;stroke-opacity:0"
       d="m 41.516127,183.09677 c -3.435603,-2.5767 0.935083,0.46754 -3.548385,-1.77419 -0.528963,-0.26448 -0.87893,-0.82433 -1.419354,-1.06452 -0.364718,-0.16209 -1.966585,-0.19239 -2.483872,-0.70967 -0.08364,-0.0836 0.08364,-0.27121 0,-0.35485 -0.08364,-0.0836 -0.236558,0 -0.35484,0 -0.473118,-0.59139 -0.926471,-1.19916 -1.419355,-1.77419 -0.593611,-0.69254 -1.419355,-1.11628 -1.419355,-2.12903 0,-1.20381 0.0529,0.12342 -1.064514,-2.48387 -0.48433,-1.1301 -1.025906,-10.72238 -0.709678,-11.35484 0.16995,-0.3399 2.826845,-1.99493 3.193547,-2.48387 0.141936,-0.18925 -0.167272,-0.5424 0,-0.70968 0.354841,-0.11828 0.709679,-0.23656 1.064517,-0.35484 0,-0.11828 -0.08364,-0.2712 0,-0.35484 0.128579,-0.12857 3.662198,-0.15621 4.258064,-0.35483 0.158689,-0.0529 0.196151,-0.30195 0.35484,-0.35484 1.228201,-0.4094 2.950962,-0.44826 4.258064,-0.70968 0.651801,-0.13036 1.559042,0.285 2.129033,0 0.748213,-0.37411 1.089941,-0.78113 2.129031,-1.06452 1.924031,-0.52473 4.136207,-0.23566 6.032259,-0.70967 0.256583,-0.0641 0.473117,-0.23656 0.709676,-0.35484 0.827958,-0.23656 1.643288,-0.52288 2.483871,-0.70968 1.887361,-0.41941 -0.917268,1.31449 2.83871,-0.35484 0.458568,-0.20381 0.64698,-0.78616 1.064516,-1.06451 0.325229,-0.21682 2.268789,-0.64516 2.483872,-0.70968 1.577964,-0.47339 3.028846,-1.32161 4.612901,-1.77419 7.108899,-2.03112 0.405591,0.10982 3.19355,-0.35484 3.193548,-0.53226 -0.709678,-0.35484 4.258064,-1.06452 2.302854,-0.32898 4.771885,-0.12235 7.096773,-0.35484 4.458055,-0.4458 10.74446,-1.03969 14.903228,0 2.179452,0.54486 8.27324,-0.29886 10.29032,0.70968 0.23656,0.11828 0.14326,0.55099 0.35484,0.70968 1.02771,0.77078 1.30479,0.018 2.48387,0.35484 0.41006,0.11715 0.68308,0.51895 1.06452,0.70967 0.34484,0.17242 1.07451,0.18242 1.41935,0.35484 0.44884,0.22442 0.66307,0.76343 1.06452,1.06452 1.33152,0.99864 3.19838,1.32073 4.6129,2.12903 0.90059,0.51462 0.40738,0.86212 1.41936,1.06452 0.34794,0.0696 0.71657,-0.0696 1.06451,0 0.88048,0.17609 5.01813,2.8168 5.67742,3.19354 -0.85254,3.42519 1.79583,0.7205 2.48387,1.06452 0.91926,0.45963 1.19382,1.7584 1.7742,2.48387 0.41797,0.52247 1.12013,0.8209 1.41935,1.41936 0.93149,1.86297 1.96983,3.97608 2.48387,6.03225 0.19504,0.78017 0.0766,2.19161 -0.35484,2.83871 0.0354,0.70296 -0.52266,0.16783 -0.70968,0.35484 -0.0836,0.0836 0.0836,0.2712 0,0.35484 -0.0836,0.0836 -0.30194,-0.10579 -0.35483,0 -0.1058,0.21158 0.10579,0.49809 0,0.70968 -0.0529,0.10579 -0.27121,-0.0836 -0.35484,0 -0.85564,0.85564 -1.214,1.70574 -2.48387,2.12903 -0.80095,0.26698 -1.19251,-0.11343 -2.12904,0.35484 -0.6774,0.3387 -1.09679,1.08065 -1.77419,1.41935 -0.66909,0.33455 -1.40975,0.50417 -2.12903,0.70968 -0.11373,0.0325 -0.2712,-0.0836 -0.35484,0 -0.0836,0.0836 0.10579,0.30194 0,0.35484 -0.21158,0.10579 -0.48889,-0.0849 -0.70968,0 -3.68388,1.41688 -7.37324,3.1622 -11,4.6129 -0.5841,0.23364 -1.63533,0.10799 -2.12903,0.35484 -0.14961,0.0748 -0.23656,0.23656 -0.35484,0.35484 -1.53763,0.5914 -3.01881,1.35834 -4.6129,1.77419 -1.1502,0.30006 -2.36887,0.2074 -3.54839,0.35484 -3.281546,0.4102 -6.300111,1.21432 -9.580643,1.41936 -3.985471,0.24909 -8.07095,0 -12.064515,0 -2.324487,0 -4.432726,-0.17721 -6.741935,-0.35484 -2.102017,-0.16169 -4.693082,0.51221 -6.741936,0 -0.256585,-0.0642 -0.450334,-0.30297 -0.709678,-0.35484 -2.040115,-0.40802 -4.320283,0.25835 -6.387097,0 -0.483913,-0.0605 -0.93544,-0.29435 -1.419355,-0.35484 -0.469463,-0.0587 -0.964441,0.12998 -1.419355,0 -0.410053,-0.11716 -0.659937,-0.57482 -1.064516,-0.70968 -0.833586,-0.27786 -1.960684,0.14634 -2.838709,0 -0.709676,-0.11828 -1.446485,-0.12732 -2.129031,-0.35483 -0.158689,-0.0529 -0.190815,-0.32204 -0.354841,-0.35484 -0.760042,-0.15201 -1.71982,0.19101 -2.483871,0 -1.785975,-0.4465 -3.507372,-1.05632 -5.322581,-1.41936 z"
       id="path13" />
    <g
       id="g17">
      <path
         style="fill:#87cdde;stroke:#000000;stroke-width:0.626999;stroke-opacity:0"
         d="m 51.451613,119.42962 c 0.354838,-0.70968 0.785918,-1.38611 1.064516,-2.12904 0.08306,-0.22149 -0.105793,-0.49809 0,-0.70967 0.530551,-1.06111 4.261631,-3.19831 5.322581,-4.61291 1.017201,-1.35627 2.592744,-3.63004 3.903226,-4.6129 0.455676,-0.34176 1.406776,-0.43412 1.774192,-0.70968 0.401455,-0.30109 0.615678,-0.84009 1.064517,-1.06451 0.317375,-0.15869 0.720272,0.0861 1.064516,0 0.162277,-0.0406 0.199531,-0.29272 0.354838,-0.35484 2.698586,-1.07944 9.224235,-2.30672 12.419354,-1.77419 0.260885,0.0435 0.448797,0.31135 0.709679,0.35483 0.940625,0.15677 1.89094,0.24954 2.838709,0.35484 1.887024,0.20967 3.849653,-0.0214 5.677419,0.70968 0.15531,0.0621 0.236558,0.23656 0.35484,0.35484 0.354838,0.11828 0.697746,0.28148 1.064514,0.35484 0.231966,0.0464 0.498094,-0.10579 0.709679,0 0.299225,0.14961 0.39906,0.58543 0.709676,0.70968 0.329462,0.13178 0.716568,-0.0696 1.064516,0 2.482943,0.49658 5.267124,2.45614 7.451614,3.54838 0.569709,0.28486 1.244211,0.35636 1.774191,0.70968 0.22006,0.14671 0.20813,0.48962 0.35484,0.70968 0.39273,0.5891 1.46089,0.7512 1.7742,1.06451 0.30155,0.30156 0.3685,0.80864 0.70967,1.06452 0.18925,0.14193 0.48526,-0.0748 0.70968,0 0.56105,0.18701 0.91224,0.76024 1.41935,1.06452 0.32073,0.19243 0.80004,0.0904 1.06452,0.35483 0.17539,0.17539 0,2.41132 0,2.48387 0,0.23656 0.16727,0.54241 0,0.70968 -0.0836,0.0836 -0.2712,-0.0836 -0.35484,0 -0.16727,0.16728 0.10579,0.49809 0,0.70968 -0.29159,0.58318 -0.92898,0.38276 -1.41935,0.70968 -0.0984,0.0656 0.0836,0.2712 0,0.35484 -0.0836,0.0836 -0.24905,-0.0529 -0.35484,0 -1.46254,0.73126 -2.43421,2.96556 -4.25807,3.19354 -0.704193,0.088 -1.43625,-0.15395 -2.129029,0 -0.416306,0.0925 -0.672534,0.54169 -1.064517,0.70968 -0.369141,1.30706 -1.214218,0.13085 -1.774193,0.35484 -2.504858,1.00194 -0.466574,0.77633 -2.483871,1.06452 -2.081318,0.29733 -4.089236,0.77168 -6.032256,1.41935 -1.122897,0.3743 -6.582077,0 -8.16129,0 -0.86491,0 -1.252998,-0.13583 -2.129034,-0.35484 -0.787444,-0.19686 -2.750269,-0.12425 -3.903225,-0.35484 -0.682382,-0.13647 -1.446649,0.13648 -2.129034,0 -1.551627,-0.31032 -3.118926,-1.2762 -4.612902,-1.77419 -0.336629,-0.11221 -0.720272,0.0861 -1.064516,0 -1.713497,-0.42837 0.0176,-0.16863 -1.064517,-0.70968 -0.457681,-0.22884 -1.357926,-0.1467 -1.774192,-0.35484 -0.105794,-0.0529 0.08364,-0.2712 0,-0.35484 -0.08364,-0.0836 -0.256424,0.0656 -0.354838,0 -0.278361,-0.18557 -0.402183,-0.57789 -0.709679,-0.70967 -0.554344,-0.23758 -1.19429,-0.18915 -1.774193,-0.35484 -0.508611,-0.14532 -0.900665,-0.60594 -1.419354,-0.70968 -0.463931,-0.0928 -1.08481,0.33455 -1.419355,0 -0.08364,-0.0836 0.09841,-0.28923 0,-0.35484 -1.252675,-0.83511 -3.591766,-0.83518 -4.967742,-1.06451 z"
         id="path15" />
      <path
         style="fill:#80e5ff;stroke:#000000;stroke-width:0.626999;stroke-opacity:0"
         d="m 58.193548,116.04939 c 0.851244,0.0318 1.289068,-3.06327 1.774192,-3.54839 0.02201,-0.99914 0.800037,-0.0904 1.064517,-0.35484 0.08364,-0.0836 -0.07097,-0.26022 0,-0.35484 0.426117,-0.56815 1.908254,-1.84122 2.483871,-2.12903 0.211585,-0.10579 0.498092,0.10579 0.709679,0 0.105791,-0.0529 -0.08364,-0.27121 0,-0.35484 0.04588,-0.0459 3.356184,-0.57292 3.903223,-0.70968 1.198007,-0.2995 2.350384,-0.76501 3.548388,-1.06452 0.344244,-0.0861 0.727887,0.11222 1.064517,0 0.726739,-0.24224 1.389882,-0.52488 2.129033,-0.70967 1.555409,-0.38885 3.699486,0 5.32258,0 0.236559,0 0.542404,-0.16727 0.709676,0 0.08364,0.0836 -0.105791,0.30194 0,0.35484 0.252209,0.1261 1.590742,0.17138 1.774193,0.35483 0.167275,0.16728 -0.105791,0.4981 0,0.70968 0.0529,0.1058 0.249047,-0.0529 0.354841,0 1.476753,0.73838 -0.379336,-0.0245 0.354838,0.70968 0.232325,0.23232 0.820015,0.22068 1.064516,0.70968 0.177419,0.35484 -0.354838,0.70968 0,1.06451 0.167272,0.16728 0.498092,-0.10579 0.709676,0 0.469032,0.23452 -0.293357,2.94762 -0.354838,3.19355 -0.07491,0.29964 0.155099,1.10916 0,1.41936 -0.383434,0.76687 -1.508516,1.332 -1.774192,2.12903 -0.07481,0.22442 0.167272,0.5424 0,0.70968 -0.167273,0.16727 -0.485259,-0.0748 -0.709679,0 -0.180364,0.0601 -0.687554,1.14769 -1.774193,1.41935 -2.12226,0.53057 -4.144343,0.13056 -6.387097,0.35484 -0.372176,0.0372 -0.697746,0.28149 -1.064516,0.35484 -1.931956,0.38639 -4.137179,-0.35484 -6.032257,-0.35484 -0.473514,0 -3.398025,0.3368 -3.903226,0 -0.27836,-0.18557 -0.431318,-0.5241 -0.709678,-0.70968 -0.530352,-0.35357 -1.618181,-0.19882 -2.129031,-0.70967 -0.08364,-0.0836 0.07697,-0.26504 0,-0.35484 -0.653158,-0.76202 -1.419355,-1.41936 -2.129033,-2.12903 z"
         id="path17" />
    </g>
    <path
       style="fill:#000000;stroke:#000000;stroke-width:0.626999;stroke-opacity:0"
       d="m 37.612902,196.93548 c 0.322619,1.95078 0.338584,3.82195 0.709678,5.67742 0.05187,0.25934 0.236559,0.47312 0.354838,0.70968 0.11828,0.47312 0.274667,0.93831 0.354841,1.41935 0.116668,0.70002 -0.100365,1.42649 0,2.12903 0.05289,0.37028 0.26412,0.70166 0.354838,1.06452 0.02841,0.11362 -0.08293,1.02305 0,1.06452 0.41974,0.20987 1.262861,-0.0419 0.709676,1.06451 -0.0529,0.1058 -0.271201,-0.0836 -0.354838,0 -0.08364,0.0836 0.08364,0.2712 0,0.35484 -0.187016,0.18702 -0.522661,0.16782 -0.709676,0.35484 -1.610405,2.41561 0.139382,0.17237 -1.419357,1.41935 -0.833181,0.66655 -1.036873,1.856 -2.129031,2.12904 -0.573741,0.14343 -1.186413,-0.0653 -1.774195,0 -2.892489,0.32138 -4.950069,0.34726 -7.451612,1.41935 -1.413411,0.60575 1.525747,0.35484 -1.419355,0.35484 -0.236559,0 -0.946236,0 -0.709677,0 1.355442,0 0.05561,-0.0748 1.774194,0.35484 2.338282,0.58457 5.085184,-0.47329 7.451612,0 1.889027,0.37781 3.73008,0.35484 5.677421,0.35484 1.401067,0 3.638161,0.44319 4.96774,0 0.226274,-0.0754 1.375561,-1.64281 1.419354,-1.77419 0.78681,-2.36043 -1.593754,-3.36393 -2.12903,-4.61291 -0.18637,-0.43486 0.114747,-0.96036 0,-1.41935 -0.265377,-1.06151 -1.064517,-1.69584 -1.064517,-2.83871 0,-0.91193 -0.412999,0.0902 -0.709679,-0.35484 -0.440121,-0.66019 -0.742267,-1.40397 -1.064513,-2.12903 -1.512962,-3.40416 -0.501836,-3.82085 -2.838712,-6.74194 z"
       id="path18" />
    <path
       style="fill:#000000;stroke:#000000;stroke-width:0.626999;stroke-opacity:0"
       d="m 123.83871,192.32258 c -1.64552,2.59595 -1.49973,5.72772 -2.48387,8.51613 -0.5118,1.4501 -4.77786,11.18988 -3.90323,12.06451 0.0836,0.0836 0.24905,-0.0529 0.35484,0 1.20402,0.60201 1.15276,1.44142 2.48387,1.7742 0.9206,0.23015 2.24065,0 3.19355,0 2.60215,0 5.2043,0 7.80645,0 0.72676,0 3.16303,0.061 3.19355,0 0.51535,-1.0307 -0.19713,-0.4337 -0.35484,-1.06452 -0.0861,-0.34424 0.13178,-0.73506 0,-1.06451 -0.58767,-1.46919 -3.5974,-2.73677 -4.96774,-3.19355 -0.37723,-0.12575 -1.8536,0.27543 -2.12903,0 -0.16728,-0.16728 0.0748,-0.48526 0,-0.70968 -0.0722,-0.21655 -0.6375,-0.84797 -0.70968,-1.06452 -0.10472,-0.31416 0.12269,-0.75778 0,-1.06451 -0.46164,-1.1541 -0.83607,-1.34167 -1.06452,-2.48388 -0.0696,-0.34794 0.19683,-0.76927 0,-1.06451 -0.18557,-0.27836 -0.67638,-0.37679 -0.70967,-0.70968 -0.0164,-0.16445 0.35483,-5.32514 0.35483,-6.03226 0,-0.48767 0.49498,-0.95224 0.35484,-1.41935 -0.27401,-0.91339 -0.94623,-1.65591 -1.41935,-2.48387 z"
       id="path19" />
  </g>
</svg>
