<?xml version="1.0" encoding="UTF-8" standalone="no"?>
<!-- Created with Inkscape (http://www.inkscape.org/) -->

<svg
   width="210mm"
   height="297mm"
   viewBox="0 0 210 297"
   version="1.1"
   id="svg1"
   sodipodi:docname="alien.in.ship.svg"
   inkscape:version="1.3.2 (091e20e, 2023-11-25, custom)"
   xmlns:inkscape="http://www.inkscape.org/namespaces/inkscape"
   xmlns:sodipodi="http://sodipodi.sourceforge.net/DTD/sodipodi-0.dtd"
   xmlns="http://www.w3.org/2000/svg"
   xmlns:svg="http://www.w3.org/2000/svg">
  <sodipodi:namedview
     id="namedview1"
     pagecolor="#ffffff"
     bordercolor="#000000"
     borderopacity="0.25"
     inkscape:showpageshadow="2"
     inkscape:pageopacity="0.0"
     inkscape:pagecheckerboard="0"
     inkscape:deskcolor="#d1d1d1"
     inkscape:document-units="mm"
     inkscape:zoom="0.74564394"
     inkscape:cx="497.55652"
     inkscape:cy="608.19914"
     inkscape:window-width="1920"
     inkscape:window-height="1051"
     inkscape:window-x="-9"
     inkscape:window-y="-9"
     inkscape:window-maximized="1"
     inkscape:current-layer="layer1" />
  <defs
     id="defs1" />
  <g
     inkscape:groupmode="layer"
     id="layer1"
     inkscape:label="Layer 1">
    <path
       style="fill:#beb7c8;fill-opacity:1;stroke:#d35f8d;stroke-width:0.626999;stroke-opacity:0"
       d="m -23.064516,286 c 1.182796,-0.82796 2.365592,-1.65592 3.548387,-2.48388 0.591398,-0.70967 1.035159,-1.57475 1.774194,-2.12902 0.720632,-0.54049 1.668819,-0.68096 2.483871,-1.06453 1.196537,-0.56306 2.300223,-1.33733 3.548387,-1.77419 1.1385,-0.39846 2.4098862,-0.3112 3.5483867,-0.70966 1.8479569,-0.6468 3.5714037,-1.6083 5.3225808,-2.48389 0.7628802,-0.38144 1.5259223,-0.81623 2.12903208,-1.41935 0.41818144,-0.41818 0.53555382,-1.15488 1.06451613,-1.41936 3.64829539,-1.82414 -0.48519079,0.60105 4.25806449,-3.19355 2.6623576,-2.12987 5.9170238,-3.37714 8.8709678,-4.96773 0.74503,-0.40118 1.863551,-1.39914 2.838709,-1.7742 7.48759,-2.87984 0.07159,-0.13898 9.225807,-2.12903 0.987517,-0.21468 1.879988,-0.74494 2.838708,-1.06452 1.27939,-0.42646 2.586747,-0.77196 3.903226,-1.06451 1.114571,-0.24769 1.120439,0.14748 2.483871,-0.35484 1.793047,-0.6606 3.509775,-1.52477 5.322581,-2.12903 3.602109,-1.2007 7.645225,-1.42244 11.35484,-2.12904 2.622806,-0.49958 5.207156,-1.17435 7.806451,-1.77419 3.267848,-0.75412 6.61987,-0.0998 9.935483,-0.35484 3.078744,-0.23682 6.143966,-0.45286 9.225806,-0.70967 3.28785,-0.27399 6.650157,0.29866 9.935485,0 0.600633,-0.0546 1.17574,-0.28004 1.774193,-0.35485 2.582055,-0.32275 5.211966,0.19958 7.806452,0 0.858551,-0.066 1.630336,-0.59587 2.483867,-0.70967 0.93794,-0.12506 1.89526,0.0726 2.83871,0 0.60134,-0.0463 1.17929,-0.25569 1.7742,-0.35484 0.90201,-0.15034 1.95223,0.22162 2.83871,0 0.16227,-0.0406 0.18785,-0.34502 0.35484,-0.35484 3.54226,-0.20837 7.10223,-0.19683 10.64516,0 2.60885,0.14494 5.19639,0.58828 7.80645,0.70968 2.48119,0.1154 4.97289,-0.15992 7.45161,0 1.20372,0.0777 2.36559,0.47312 3.54839,0.70967 2.01075,0 4.0215,0 6.03226,0 2.79935,0 5.72147,-0.21497 8.51612,0 2.50344,0.19258 4.57312,0.90679 7.09678,1.06452 1.65269,0.10329 3.31863,-0.14992 4.96774,0 2.86135,0.26012 5.74412,1.51303 8.51613,2.12903 4.45678,0.9904 0.52009,-0.39275 6.03226,0.70968 0.62458,0.12492 1.1641,0.52665 1.77419,0.70968 1.914,0.5742 2.50973,0.16315 4.6129,1.06452 0.78397,0.33598 1.36616,1.03791 2.12904,1.41935 1.1045,0.55225 2.38391,0.65352 3.54838,1.06452 2.01076,0.70967 3.95072,1.66646 6.03226,2.12903 0.34639,0.077 0.70968,0 1.06452,0 0.5914,0.11828 1.19652,0.18153 1.77419,0.35484 2.27788,0.68336 4.45327,1.82996 6.74194,2.48387 0.69178,0.19765 1.41935,0.23656 2.12903,0.35484 0.94623,0.23656 1.90648,0.42283 2.83871,0.70967 4.57523,1.40777 -0.36607,-0.005 2.83871,1.41936 0.68359,0.30382 1.47953,0.33853 2.12903,0.70969 0.22963,0.1312 0.16782,0.52266 0.35484,0.70966 0.60311,0.60312 1.48144,0.86429 2.12903,1.41936 0.50801,0.43543 0.91582,0.97875 1.41936,1.41936 2.25367,1.97196 5.07659,3.18648 7.45161,4.96773 0.40145,0.3011 0.62881,0.81556 1.06451,1.06453 0.74764,0.42722 1.7137,0.32459 2.48388,0.70966 1.23706,0.61855 2.06027,1.7756 3.19354,2.48389 0.41356,0.25847 0.96273,0.18359 1.41936,0.35483 1.41374,0.53015 3.74519,2.16781 4.25806,3.19355 0.11828,0.23656 0.5914,0.11827 0.70968,0.35483 0.10579,0.21159 -0.10579,0.4981 0,0.70969 0.0529,0.10578 0.2712,-0.0836 0.35484,0 0.14869,0.1487 0.24731,0.84945 0.35484,1.0645 0.14961,0.29924 0.5241,0.43132 0.70968,0.70969 0.48282,0.72425 0.44606,1.69302 0.70967,2.48386 0.31958,0.95874 0.81942,1.8583 1.06452,2.83871 0.55197,2.2079 -0.41398,0.62098 0,2.48388 0.47183,2.12323 1.10751,4.20418 1.41936,6.3871 0.0836,0.58544 -0.14344,1.20044 0,1.77419 0.31906,1.27627 0.81817,0.92667 1.06451,1.41935 0.37576,0.75153 0,3.02684 0,3.90322 0,0.11829 0.0836,0.27122 0,0.35486 -0.0382,0.0382 -4.6582,0.36615 -6.03226,0.70966 -0.21087,0.0527 -5.26342,1.60335 -6.03226,1.77419 -5.11342,1.13633 -12.97605,1.76848 -17.03225,2.12905 -0.94252,0.0838 -1.90078,-0.12507 -2.83871,0 -0.85354,0.1138 -1.62576,0.63815 -2.48388,0.70967 -2.0038,0.16698 -4.0217,-0.0283 -6.03225,0 -6.38756,0.0899 -12.77367,0.26966 -19.16129,0.35483 -17.37955,0.23172 -34.79262,0.15602 -52.16129,-0.35483 -0.94583,-0.0278 -1.89248,0 -2.83871,0 -4.02151,0 -8.04636,0.16401 -12.06452,0 -1.7884,-0.073 -3.53665,-0.59061 -5.32258,-0.70967 -0.40834,-0.0272 -9.68052,0.0254 -10.29032,0 -1.18766,-0.0495 -2.36057,-0.30916 -3.54839,-0.35486 -4.461826,-0.17161 -9.015397,0 -13.483868,0 -15.119512,0 -30.30529,0.45802 -45.419354,0 -1.188151,-0.036 -2.362007,-0.28067 -3.548388,-0.35483 -1.883754,-0.11774 -3.795839,0.14475 -5.677418,0 -1.185196,-0.0912 -2.362007,-0.2807 -3.548388,-0.35483 -7.319142,-0.45744 -14.674077,0.25564 -21.9999998,-0.35484 -12.8307654,-1.06923 -0.6575645,-0.23505 -13.4838708,-1.77419 -0.7046225,-0.0846 -1.421615,0.0566 -2.1290322,0 -2.2473122,-0.23656 -4.4946232,-0.47312 -6.7419352,-0.70969 -0.473119,-0.11827 -0.935442,-0.29435 -1.419355,-0.35483 -0.704197,-0.088 -1.494278,0.31737 -2.129032,0 -0.528963,-0.26448 -0.890393,-0.80005 -1.419355,-1.06453 -0.211585,-0.10578 -0.542405,0.16727 -0.709678,0 -0.323023,-0.32303 -0.312911,-4.19361 -0.354838,-4.6129 -0.185635,-1.85634 -0.618452,-4.24799 -1.064516,-6.03226 C -23.3679,292.23808 -24.63061,289.91523 -23.064516,286 Z M 271.45161,243.41935 331.77419,62.096774"
       id="path197" />
    <path
       style="fill:#9d93ac;fill-opacity:1;stroke:#d35f8d;stroke-width:0.626999;stroke-opacity:0"
       d="m -23.064516,300.54838 c 1.040447,-2.41768 3.419256,-3.44509 5.322581,-4.96774 0.522471,-0.41799 1.120128,-0.82089 1.419355,-1.41935 0.0529,-0.10578 -0.08364,-0.2712 0,-0.35484 0.719466,-0.71948 1.832496,-0.99255 2.48387,-1.77419 0.338634,-0.40637 0.361354,-1.02129 0.709678,-1.41935 0.498724,-0.56997 1.23866,-0.88384 1.774193,-1.41936 0.418182,-0.41818 0.646335,-1.00118 1.064516,-1.41936 0.84968,-0.84968 2.6189624,-0.95464 3.5483876,-1.41936 0.7628803,-0.38145 1.3371102,-1.10257 2.1290322,-1.41935 4.11402302,-1.64561 -0.2641084,0.24344 2.1290323,-0.35484 1.4047959,-0.3512 2.83224579,-1.01197 4.2580644,-1.41935 0.9378303,-0.26795 1.9422138,-0.32547 2.8387097,-0.70967 0.9352111,-0.40082 1.5391651,-1.39631 2.483871,-1.77422 0.6680078,-0.2672 1.4505821,-0.11538 2.1290322,-0.35483 1.3477006,-0.47564 2.5762676,-1.24341 3.9032256,-1.77419 4.747556,-1.89902 -4.1963942,2.72619 4.612903,-1.41936 1.00964,-0.47511 1.859112,-1.23986 2.83871,-1.77419 0.953329,-0.51998 2.546547,-1.05026 3.548387,-1.41935 1.068167,-0.39354 11.208522,-3.6912 11.709677,-3.90322 1.02766,-0.43478 1.795965,-1.37697 2.838709,-1.77421 1.474666,-0.56176 3.061478,-0.77587 4.612905,-1.0645 3.536645,-0.65799 7.101025,-1.15782 10.645161,-1.77419 1.896978,-0.32991 3.793268,-0.66786 5.677418,-1.06452 0.366009,-0.0771 0.691891,-0.32244 1.064517,-0.35484 2.359641,-0.20519 4.735769,-0.16596 7.096773,-0.35484 0.601189,-0.0481 1.172014,-0.32139 1.774195,-0.35484 10.699292,-0.59441 21.256387,1.12271 31.935483,1.41935 7.68499,0.21346 15.38052,-0.90369 23.06452,-0.35483 0.95117,0.0679 1.88722,0.29141 2.8387,0.35483 0.82613,0.0551 1.66555,-0.12589 2.48388,0 0.73936,0.11374 1.41935,0.47313 2.12903,0.70969 0.94623,0.11827 1.89035,0.25501 2.83871,0.35483 1.8016,0.18963 5.20226,0.42551 7.09677,0.70967 1.30778,0.19619 2.60215,0.47313 3.90323,0.70969 2.01075,0.35483 4.01248,0.76528 6.03226,1.0645 1.17586,0.1742 2.38607,0.10578 3.54838,0.35486 2.1606,0.46297 4.23007,1.29484 6.3871,1.77419 3.24736,0.72162 6.64842,0.24527 9.93548,0.35483 5.75516,0.19185 12.04057,0.37343 17.74194,1.06452 1.08256,0.13121 2.11148,0.57442 3.19355,0.70967 1.40839,0.17605 2.86627,-0.27834 4.25806,0 1.45034,0.29006 9.31746,2.2452 10.64516,3.19355 0.61629,0.44021 1.1828,0.94625 1.7742,1.41935 0.59139,0.5914 1.09779,1.28228 1.77419,1.77419 1.66969,1.21434 4.00678,2.08659 5.67742,3.54841 1.51062,1.32178 2.56461,3.1804 4.25806,4.25805 0.50882,0.32379 1.21985,0.11726 1.7742,0.35483 0.30749,0.13179 0.45267,0.49551 0.70967,0.70969 1.49855,1.24878 3.12091,2.30505 4.61291,3.54838 3.14982,2.62485 6.49813,5.08871 8.87096,8.51614 0.5428,0.78404 0.8472,1.72099 1.41936,2.48386 1.44783,1.93045 3.97543,3.6567 5.32258,5.67743 0.20748,0.3112 0.13042,0.76528 0.35484,1.06452 0.50182,0.66908 1.26072,1.11401 1.77419,1.77419 1.10905,1.42592 1.78586,3.46366 2.83871,4.96774 0.71907,1.02725 1.58899,2.65351 2.48387,3.54838 0.0836,0.0836 0.27121,-0.0836 0.35484,0 0.26198,0.26199 1.06452,1.27868 1.06452,1.41936"
       id="path196" />
    <path
       style="fill:#dd55ff;fill-opacity:1;stroke:#d35f8d;stroke-width:0.626999;stroke-opacity:0"
       d="m 271.45162,182.74193 33.35483,94.03226"
       id="path198" />
    <path
       style="fill:#aa00d4;fill-opacity:1;stroke:#d35f8d;stroke-width:0.626999;stroke-opacity:0"
       d="m 42.580644,297.35483 c -0.289967,-3.22363 0.906775,-6.15032 1.419355,-9.22581 0.03889,-0.23333 -0.121709,-0.50683 0,-0.70966 0.258183,-0.43032 0.866841,-0.60328 1.064516,-1.06453 0.18637,-0.43487 -0.03629,-0.94763 0,-1.41935 0.167796,-2.18136 0.829466,-4.27165 1.064517,-6.3871 0.07837,-0.70532 -0.116671,-1.42901 0,-2.12902 0.122981,-0.7379 0.547399,-1.3988 0.709676,-2.12905 0.305811,-1.37612 -0.237329,-2.52148 0.354841,-3.90321 0.167992,-0.39198 0.649367,-0.64236 0.709676,-1.06453 0.183999,-1.28799 -0.06838,-2.60395 0,-3.90321 0.107124,-2.03539 0.911373,-6.7905 1.774195,-8.51614 0.498226,-0.99645 -1.116044,-2.48192 -0.354841,-4.25806 0.167992,-0.39198 0.536475,-0.67481 0.709679,-1.06452 1.76049,-3.9611 2.846342,-8.246 4.967742,-12.06451 0.635209,-1.14338 1.712648,-2.16525 2.483869,-3.19355 0.301091,-0.40146 0.840097,-0.61568 1.064517,-1.06452 0.269719,-0.53944 0.04454,-1.25703 0.35484,-1.77419 0.258183,-0.43031 0.815544,-0.62882 1.064514,-1.06452 0.65082,-1.13893 0.660768,-3.04682 1.064517,-4.25806 0.317439,-0.95232 1.258361,-1.97899 1.774193,-2.83871 0.06086,-0.10143 -0.08364,-0.2712 0,-0.35484 0.434837,-0.43484 2.17312,-1.79624 2.838711,-2.12903 1.007179,-0.50359 2.275023,-0.37563 3.193548,-1.06452 0.977662,-0.73325 2.791052,-2.4521 3.903226,-3.19355 0.311213,-0.20747 0.753303,-0.14736 1.064516,-0.35484 1.085694,-0.72379 1.834394,-2.57756 3.193547,-3.54838 0.304364,-0.2174 0.729973,-0.18757 1.064517,-0.35484 1.362935,-0.68147 2.540291,-1.8024 3.903226,-2.48387 1.988746,-0.99438 5.546476,-1.00845 7.806452,-1.41936 1.301075,-0.23656 2.64868,-0.29149 3.903226,-0.70967 0.158689,-0.0529 0.196149,-0.30195 0.354838,-0.35484 2.235239,-0.74508 6.299743,0.81825 8.516133,1.06451 0.70533,0.0784 1.42483,-0.088 2.12903,0 2.66596,0.33325 7.66861,4.09384 10.29032,4.96774 1.6115,0.53717 3.13305,0.78763 4.6129,1.7742 1.76029,1.17352 3.82809,2.40873 5.32258,3.90322 0.18702,0.18702 0.23656,0.47312 0.35484,0.70968 0.35484,0.35484 0.67266,0.75103 1.06452,1.06452 3.59215,2.87372 1.16984,0.93975 4.25806,2.48387 2.57815,1.28907 -0.20606,0.0992 1.7742,1.41935 0.66018,0.44013 1.56798,0.50347 2.12903,1.06452 0.29775,0.29774 0.57966,1.96651 0.70968,2.12903 0.23365,0.29207 0.80003,0.0904 1.06451,0.35484 0.16728,0.16727 -0.0574,0.48018 0,0.70968 0.19373,0.7749 0.74692,1.84867 1.06452,2.48387 0.42646,0.85292 0.99289,1.63094 1.41935,2.48387 0.64454,1.28908 0.9753,3.05971 1.7742,4.25806 0.27836,0.41754 0.78616,0.64698 1.06451,1.06452 0.56714,0.8507 0.87017,2.4613 1.41936,3.19355 -0.98088,3.15542 1.06451,0.5914 1.41935,1.06452 1.20458,1.60609 2.04484,3.82504 2.83871,5.67741 1.16059,2.70805 0.97792,6.21391 2.12904,8.51613 0.26448,0.52896 0.7711,0.90588 1.06451,1.41936 0.38186,0.66824 1.63752,5.56704 1.77419,6.38709 0.0583,0.35002 -0.11221,0.7279 0,1.06453 0.13487,0.40457 0.5998,0.65243 0.70968,1.0645 1.07128,4.01732 1.16736,8.46981 2.48387,12.41935 0.31958,0.95872 0.80413,1.86227 1.06452,2.83872 1.1228,4.2105 1.06451,8.80665 1.06451,13.12904 0,0.96965 0.2307,2.27079 0,3.19355 -0.20884,0.83537 -0.5408,1.63949 -0.70967,2.48386 -0.0961,0.4804 0.17864,4.43426 0,4.6129 -0.25662,0.25662 -2.64844,0.0761 -2.83871,0 -0.39596,-0.15838 -0.64634,-0.62603 -1.06452,-0.70966 -2.49403,-0.49882 -2.10391,0.20095 -4.25806,0.35483 -4.22442,0.30173 -8.53368,0.35483 -12.7742,0.35483 -5.29968,0 -10.69795,-0.43915 -15.96774,0 -5.80567,0.48382 -11.56886,1.39883 -17.38709,1.77419 -3.34263,0.21566 -11.756832,-0.15383 -14.90323,1.41936 -1.484869,0.74245 -3.309176,-0.28273 -4.967743,-0.35483 -0.354105,-0.0154 -7.310482,0.0169 -7.451611,0 -13.282832,-1.59393 3.956661,-0.81095 -10.645161,-1.41936 -2.714382,-0.11311 -5.447006,-0.35483 -8.16129,-0.35483 -2.297956,0 -5.172829,0.45574 -7.451614,0 -1.319143,-0.26385 -2.64047,-0.74883 -3.903226,-1.06453 -0.50724,-0.12681 -2.621295,-0.13742 -2.838709,-0.35483 -0.541795,-0.54179 0.939551,-1.58676 1.064517,-1.77419 0.754009,-1.13102 0.709676,-2.89724 0.709676,-4.25807 0,-0.70967 0,-1.41936 0,-2.12903 0,-1.96598 -0.07172,-0.56626 0.709678,-2.12904 0.15869,-0.31737 -0.250909,-0.8136 0,-1.0645 0.487032,-0.48705 0.354838,0.62616 0.354838,0.70966 0,0.84656 0.05759,3.16476 0,3.19355 -0.211584,0.10581 -0.498091,-0.10578 -0.709676,0 -0.152902,0.0765 -0.216995,0.84751 -0.709678,0.35483 -0.336894,-0.33689 0.244438,-1.72161 0,-2.12902 -0.304271,-0.50713 -0.709679,-0.94623 -1.064517,-1.41936 z"
       id="path199" />
    <path
       style="fill:#ffd42a;fill-opacity:1;stroke:#d35f8d;stroke-width:0.626999;stroke-opacity:0"
       d="m 93.322581,209.35484 c -3.492426,-0.99511 -6.85469,-2.40318 -10.290323,-3.54839 -2.294906,-0.76497 -5.10902,-0.89367 -7.096776,-2.48387 -0.206523,-0.16522 -0.196149,-0.4981 -0.354838,-0.70968 -0.200726,-0.26764 -0.524105,-0.43132 -0.709676,-0.70968 -0.06561,-0.0984 0.09841,-0.28922 0,-0.35484 -0.311216,-0.20747 -0.753303,-0.14736 -1.064517,-0.35483 -0.295243,-0.19683 0.158689,-0.74714 0,-1.06452 -0.05289,-0.10579 -0.354838,-0.11828 -0.354838,0 0,0.11828 0.236559,0 0.354838,0 0.473118,0 0.946238,0 1.419355,0 0.946237,0 1.892472,0 2.838709,0 2.252104,0 3.326908,-0.5656 5.322581,-1.06452 1.31256,-0.32814 2.965418,-0.27879 4.258064,-0.70967 2.838709,-0.94624 -0.143497,-0.68098 3.548387,-1.41936 0.03821,-0.008 7.313393,-0.57146 7.451614,-0.70968 1.100672,-1.10067 -2.799731,-2.37692 -3.548388,-2.48387 -0.819637,-0.11709 -1.667179,0.13612 -2.483871,0 -3.342084,-0.55701 -6.343973,-1.48797 -9.580644,-2.48387 -1.15288,-0.35473 -2.378184,-0.41712 -3.548388,-0.70968 -1.767089,-0.44177 -0.836364,-0.53541 -3.193548,-1.41935 -2.246151,-0.84231 0.425765,0.76287 -1.064516,-0.35484 -0.678133,-0.5086 -1.885678,-1.176 -2.483871,-1.77419 -0.08364,-0.0836 0.09236,-0.28095 0,-0.35484 -0.538552,-0.43084 -1.235642,-0.63368 -1.774193,-1.06452 -0.09236,-0.0739 0.08364,-0.2712 0,-0.35484 -0.301556,-0.30155 -1.469096,-0.57481 -1.064517,-0.70967 1.374765,-0.45826 3.185375,0.2855 4.612902,0 0.259347,-0.0519 0.453094,-0.2907 0.709679,-0.35484 0.803235,-0.20081 1.658773,0.0688 2.483871,0 1.419355,-0.11828 2.840858,-0.21312 4.258064,-0.35484 1.623743,-0.16238 3.904774,-0.59191 5.322581,-1.06452 0.604268,-0.20142 1.151376,-0.57621 1.774192,-0.70967 1.047292,-0.22442 2.137056,-0.17876 3.19355,-0.35484 2.335009,-0.38917 4.71152,-1.18083 7.096773,-1.41936 0.588463,-0.0588 1.200453,0.14344 1.774193,0 0.41373,-0.10343 0.66856,-0.55129 1.06452,-0.70967 0.21964,-0.0879 0.47771,0.0464 0.70968,0 0.99357,-0.19872 1.90298,-0.39778 2.8387,-0.70968 1.13708,-0.37903 3.97704,0 5.32258,0 0.11935,0 5.25874,-0.20935 5.67742,0 0.55013,0.27506 1.63253,1.20751 1.7742,1.77419 0.25905,1.03621 0.61437,4.72438 0.70967,5.67742 0.0527,0.52684 -0.16755,1.27154 0,1.77419 0.0363,0.10901 0.63992,1.13428 0.35484,1.41936 -0.41818,0.41818 -1.18279,0 -1.77419,0 -4.19872,0 -8.22639,-0.46303 -12.41935,-0.70968 -2.81794,-0.16576 -5.709566,0.28066 -8.516134,0 -0.948867,-0.0949 -1.889842,-0.25995 -2.838709,-0.35484 -0.353079,-0.0353 -1.419355,0 -1.064517,0 1.84577,0 3.549097,0.11852 5.322581,0.70968 0.158689,0.0529 0.196151,0.30194 0.35484,0.35484 0.572159,0.19072 1.223063,0.10989 1.774189,0.35484 1.22016,0.91512 1.44706,1.21753 2.83871,1.77419 1.3907,0.55628 -2.01785,-2.54064 1.7742,0.70968 0.44902,0.38488 0.64633,1.00117 1.06451,1.41935 0.94253,0.94253 2.25103,0.83167 3.19355,1.7742 0.8924,0.89239 0.43583,0.97117 1.77419,1.77419 0.32074,0.19244 0.85705,0.0436 1.06452,0.35484 0.28189,0.42283 0.76467,1.7192 0.70968,1.77419 -1.7112,1.7112 -3.91359,0.81402 -6.03226,1.41936 -1.68483,0.48138 -3.22172,1.07015 -4.96774,1.41935 -0.46393,0.0928 -0.95099,-0.0669 -1.41936,0 -1.559294,0.22276 -3.08422,0.40394 -4.612901,0.70968 -1.517539,0.30351 -3.10905,-0.14645 -4.612902,0.35484 -0.167632,0.0559 -0.647157,0.96707 -0.354838,1.06451 0.485281,0.16176 2.248887,0.35484 2.83871,0.35484 1.989862,0 3.213192,0.89692 4.967742,1.7742 0.105791,0.0529 0.271201,-0.0836 0.354838,0 0.301554,0.30155 0.408123,0.76296 0.709676,1.06451 0.08364,0.0836 0.236561,0 0.354845,0 0.23655,0.11828 0.56297,0.13478 0.70967,0.35484 0.13122,0.19683 -0.0748,0.48526 0,0.70968 0.16776,0.50326 0.86149,0.50664 1.06452,0.70968 0.0836,0.0836 0,0.23655 0,0.35484 0,0.90467 -0.22697,0.70967 -1.06452,0.70967 -0.47699,0 -1.710204,0.20941 -2.129029,0 -0.105793,-0.0529 0.08364,-0.2712 0,-0.35484 -0.08364,-0.0836 -0.249047,0.0529 -0.35484,0 -0.149612,-0.0748 -0.196149,-0.30194 -0.354838,-0.35483 -0.340768,-0.11359 -1.078797,0.17027 -1.419355,0 C 95.975881,209.43955 96.308359,209 95.451611,209 c -0.719465,0 -1.419354,0.23656 -2.12903,0.35484 z"
       id="path201" />
  </g>
</svg>
