<?xml version="1.0" encoding="UTF-8" standalone="no"?>
<!-- Created with Inkscape (http://www.inkscape.org/) -->

<svg
   width="210mm"
   height="297mm"
   viewBox="0 0 210 297"
   version="1.1"
   id="svg1"
   sodipodi:docname="alien.eating.food.svg"
   inkscape:version="1.3.2 (091e20e, 2023-11-25, custom)"
   xmlns:inkscape="http://www.inkscape.org/namespaces/inkscape"
   xmlns:sodipodi="http://sodipodi.sourceforge.net/DTD/sodipodi-0.dtd"
   xmlns="http://www.w3.org/2000/svg"
   xmlns:svg="http://www.w3.org/2000/svg">
  <sodipodi:namedview
     id="namedview1"
     pagecolor="#ffffff"
     bordercolor="#000000"
     borderopacity="0.25"
     inkscape:showpageshadow="2"
     inkscape:pageopacity="0.0"
     inkscape:pagecheckerboard="0"
     inkscape:deskcolor="#d1d1d1"
     inkscape:document-units="mm"
     inkscape:zoom="0.74564394"
     inkscape:cx="410.38354"
     inkscape:cy="474.08687"
     inkscape:window-width="1920"
     inkscape:window-height="1051"
     inkscape:window-x="-9"
     inkscape:window-y="-9"
     inkscape:window-maximized="1"
     inkscape:current-layer="layer1" />
  <defs
     id="defs1" />
  <g
     inkscape:groupmode="layer"
     id="layer1"
     inkscape:label="Layer 1">
    <path
       style="fill:#37c871;fill-opacity:1;stroke:#d35f8d;stroke-width:0.626999;stroke-opacity:0"
       d="m 136.25806,158.25806 c -1.25317,3.16787 -3.55834,9.36177 0.35484,11.70968 0.20285,0.12171 0.49809,-0.10579 0.70968,0 0.29922,0.14961 0.42281,0.53756 0.70968,0.70968 0.32073,0.19244 0.74378,0.1624 1.06451,0.35484 1.44413,0.86647 -0.0223,0.58395 1.41936,1.06451 0.22442,0.0748 0.48526,-0.0748 0.70968,0 2.68886,0.89629 -0.12813,-0.12813 0.70967,0.70968 0.11218,0.11218 4.48343,0.597 4.96774,0.35484 0.43059,-0.2153 1.27775,-1.7042 1.41936,-2.12903 0.0748,-0.22442 -0.10579,-0.4981 0,-0.70968 0.0529,-0.10579 0.2712,0.0836 0.35484,0 0.0836,-0.0836 -0.0836,-0.2712 0,-0.35484 0.18701,-0.18702 0.56297,-0.13478 0.70968,-0.35484 2.6e-4,-5.3e-4 0.0705,-1.27826 0,-1.41935 -0.60658,-1.21314 -2.4545,-1.16321 -2.83871,-1.41936 -0.27836,-0.18557 -0.52411,-0.43132 -0.70968,-0.70967 -0.0656,-0.0984 0.10579,-0.30195 0,-0.35485 -0.21159,-0.10579 -0.49809,0.1058 -0.70968,0 -0.23656,-0.11827 -0.13478,-0.56297 -0.35484,-0.70967 -0.55113,-0.36742 -1.44591,-0.7628 -1.77419,-1.41936 -0.10579,-0.21158 0.16727,-0.5424 0,-0.70967 -0.18702,-0.18702 -0.56297,-0.13478 -0.70968,-0.35484 -0.13122,-0.19683 0.0879,-0.49004 0,-0.70968 -1.75937,-4.39844 0.23177,1.05734 -1.41936,-1.41936 -0.13121,-0.19682 0.0574,-0.48018 0,-0.70967 -0.59752,-2.3901 -0.005,-0.005 -0.70967,-0.70968 -0.0836,-0.0836 0.0836,-0.2712 0,-0.35484 -0.0836,-0.0836 -0.2712,0.0836 -0.35484,0 -0.0836,-0.0836 0.0836,-0.2712 0,-0.35484 -0.0836,-0.0836 -0.24905,0.0529 -0.35484,0 -1.17082,-0.58541 -1.69079,-0.30055 -3.19355,0 z"
       id="path231" />
    <path
       style="fill:#dd55ff;fill-opacity:1;stroke:#d35f8d;stroke-width:0.626999;stroke-opacity:0"
       d="m 271.45162,182.74193 33.35483,94.03226"
       id="path198" />
    <path
       style="fill:#6f8a91;fill-opacity:1;stroke:#d35f8d;stroke-width:0.626999;stroke-opacity:0"
       d="m 107.87097,179.54839 c -4.23903,0.184 -7.74996,-2.71531 -11.70968,-3.90323 -1.623986,-0.4872 -3.196492,-0.82992 -4.612905,-1.7742 -0.556715,-0.37114 -0.884081,-1.0179 -1.419354,-1.41935 -0.211585,-0.15869 -0.591397,-0.11828 -0.709676,-0.35484 -0.158689,-0.31738 0.08606,-0.72027 0,-1.06451 -0.272151,-1.0886 -0.775393,-2.10934 -1.064517,-3.19355 -0.747466,-2.803 -1.424098,-5.6964 -2.129033,-8.51613 -0.709181,-2.83673 1.854462,3.40759 -0.354838,-2.48387 -1.193697,-3.18319 -0.496284,1.92054 -1.064517,-3.19355 -0.4138,-3.72422 -0.117258,-8.99741 0.354838,-12.7742 0.307705,-2.46163 0.133631,-5.0034 0.709679,-7.45161 0.30888,-1.31274 0.761272,-2.58916 1.064517,-3.90322 0.402508,-1.7442 -0.162198,-3.89327 0,-5.67742 0.04415,-0.48568 0.280683,-0.93735 0.354838,-1.41936 0.198654,-1.29125 0.127799,-2.61666 0.354838,-3.90322 0.61143,-3.46477 1.481624,-6.83747 2.129033,-10.29032 0.461563,-2.46167 0.767553,-6.85769 1.774192,-8.870973 0.172339,-0.344678 -0.332464,-0.863163 -0.354838,-1.064516 -0.09143,-0.822892 0,-1.655914 0,-2.483872 0,-2.60215 -0.136765,-5.207897 0,-7.806449 0.237178,-4.506378 0.939753,-4.766127 2.483872,-8.51613 0.847579,-2.058411 1.063561,-3.010884 1.419354,-4.967743 0.128702,-0.707861 0.102217,-1.455375 0.354838,-2.12903 0.464328,-1.238208 1.253273,-2.332906 1.774193,-3.548388 0.192109,-0.448247 0.17372,-0.966558 0.354841,-1.419355 0.219638,-0.5491 0.781322,-0.900168 1.064516,-1.419355 0.506587,-0.928748 0.98969,-1.871966 1.419359,-2.838709 0.34972,-0.786873 0.43737,-1.666973 0.70967,-2.483871 0.64901,-1.947024 1.41551,-3.774691 2.12904,-5.677419 0.47839,-1.27573 0.56673,-2.766406 1.41935,-3.903225 0.20073,-0.267637 0.53755,-0.42281 0.70968,-0.709679 0.40646,-0.677437 1.46467,-3.571044 2.12903,-3.903226 0.25558,-0.127791 1.87344,-0.127791 2.12903,0 0.48033,0.240168 0.80314,1.382125 1.06452,1.774193 0.66652,0.999791 2.34387,1.4942 2.83871,2.483871 0.24835,0.496707 0.70713,1.652529 1.06451,2.129033 0.15869,0.211585 0.4981,0.196149 0.70968,0.354838 1.3072,0.9804 2.90319,2.752603 3.54839,4.258064 0.59182,1.380929 0.63764,2.835172 1.06451,4.258067 0.304,1.013306 1.02646,1.856451 1.41936,2.838709 0.41673,1.041842 0.88004,2.086716 1.06451,3.193547 0.0583,0.350012 -0.077,0.718127 0,1.064517 -2.45226,3.046727 1.18808,1.558742 1.41936,2.483871 0.56579,2.263166 0.54396,4.776764 0.70968,7.096773 0.25321,3.544943 0.71191,7.119088 1.06451,10.645161 0.37319,3.731861 0.44907,0.537422 0.70968,4.967743 0.0625,1.06268 -0.12438,2.136322 0,3.193547 0.11396,0.968679 0.5887,1.870885 0.70968,2.838716 0.39283,3.14261 -0.31512,6.42942 0,9.58064 0.06,0.60012 0.23656,1.1828 0.35484,1.77419 0.11828,1.06452 0.28359,2.12486 0.35483,3.19355 0.0944,1.41621 -0.1285,2.84454 0,4.25807 0.0546,0.60063 0.30476,1.17316 0.35485,1.77419 0.27397,3.2877 -0.20581,6.64268 0,9.93548 0.25136,4.0218 0.62168,8.07905 1.06451,12.06452 0.19593,1.76334 0,3.54839 0,5.32258 0,4.6129 0,9.22581 0,13.83871 0,0.70968 0,1.41935 0,2.12903 0.11828,0.23656 0.31136,0.4488 0.35484,0.70968 0.44965,2.69789 0,6.73737 0,9.58065 0,0.89582 -0.0894,5.41197 -0.70968,6.03225 -0.0836,0.0836 -0.25642,-0.0656 -0.35484,0 -0.27835,0.18558 -0.4228,0.53756 -0.70968,0.70968 -0.94787,0.56873 -1.53073,0.16421 -2.48387,0.35484 -3.89553,0.7791 -7.818,1.00345 -11.70967,0.35484 -0.80662,-0.13444 -2.13038,0.35416 -2.83871,0 -0.14962,-0.0748 -0.19615,-0.30195 -0.35484,-0.35484 -0.22442,-0.0748 -0.52795,0.15144 -0.70968,0 -0.58182,-0.48485 -0.94624,-1.1828 -1.41935,-1.77419 z"
       id="path221" />
    <path
       style="fill:#374548;fill-opacity:1;stroke:#d35f8d;stroke-width:0.626999;stroke-opacity:0"
       d="m 90.483869,119.58064 c -1.331529,-0.92699 -2.876315,-0.009 -4.258064,-0.35484 -3.946163,-0.98654 -7.104361,-4.12523 -9.580645,-7.09677 -0.321257,-0.38551 -0.786159,-0.64698 -1.064516,-1.06452 -0.394332,-0.59149 -1.430293,-3.17167 -1.064517,-3.90322 0.07481,-0.14961 0.236562,-0.23656 0.354841,-0.35484 0,-0.47312 -0.09279,-0.95542 0,-1.41935 0.09841,-0.49208 0.763423,-0.66307 1.064514,-1.06452 0.693674,-0.9249 0.669184,-2.31835 1.419354,-3.19355 5.77741,-6.740311 -1.865365,3.15289 2.838712,-3.903226 1.591281,-2.38692 0.392954,-0.117295 2.129031,-1.419355 0.682342,-0.511754 0.764119,-1.583002 1.419355,-2.12903 0.28734,-0.239451 0.743786,-0.162402 1.064516,-0.354838 0.703445,-0.422069 2.337142,-1.627466 2.83871,-2.129034 0.36854,-0.36854 2.173075,-2.683311 2.483871,-2.838709 0.211584,-0.105793 0.51285,0.13122 0.709678,0 0.220062,-0.146709 0.167823,-0.52266 0.354838,-0.709678 0.344842,-0.34484 0.98316,-0.136742 1.419355,-0.354838 0.632881,-0.316442 1.366332,-0.873842 2.129033,-1.064517 3.180379,-0.795094 6.032255,-1.887191 6.032255,2.483871 0,0.270235 0.20302,1.571181 0,1.774193 -0.20319,0.203192 -1.091936,0.2457 -1.419353,0.35484 -0.501816,0.167273 -0.917538,0.542404 -1.419354,0.709676 -0.44884,0.149614 -0.955424,-0.09279 -1.419355,0 -1.16105,0.232212 -2.325158,0.88977 -3.548388,1.064517 -0.351271,0.05018 -0.720273,-0.08606 -1.064517,0 -0.538818,0.134705 -0.907208,0.893802 -1.419354,1.064517 -0.22442,0.0748 -0.512847,-0.13122 -0.709676,0 -0.573852,0.382566 -0.576837,1.286512 -1.064517,1.774192 -0.08364,0.08364 -0.271203,-0.08363 -0.354838,0 -0.719468,0.719469 -1.10418,1.718141 -1.774195,2.483872 -1.613691,1.844219 -2.632422,2.849737 -3.903226,4.967747 -0.344244,0.57373 -1.0179,0.88408 -1.419355,1.41935 -0.590722,0.78763 -1.086778,2.77192 -0.709676,3.90323 0.03741,0.11221 0.301943,-0.1058 0.354838,0 0.105794,0.21158 -0.0748,0.48525 0,0.70967 0.09362,0.28087 4.044839,4.45299 4.258064,4.61291 0.09463,0.071 0.271203,-0.0836 0.354841,0 0.492723,0.49272 1.44467,2.07196 1.774193,2.48387 0.296838,0.37105 0.774443,1.12928 1.064516,1.41935 0.08364,0.0836 0.301943,-0.10579 0.354838,0 0.105794,0.21159 -0.105791,0.49809 0,0.70968 0.105794,0.21158 0.542404,-0.16727 0.709679,0 0.418179,0.41818 0.709676,0.94624 1.064514,1.41935 z"
       id="path222" />
    <path
       style="fill:#374548;fill-opacity:1;stroke:#d35f8d;stroke-width:0.626999;stroke-opacity:0"
       d="m 128.80645,113.19355 c 3.71799,2.23079 0.12845,-0.2264 2.83871,2.48387 0.30155,0.30155 0.85741,0.33688 1.06451,0.70968 0.41819,0.75272 0.43738,1.66697 0.70968,2.48387 0.34926,1.04776 0.52466,0.55952 1.06452,1.77419 1.75984,0.66974 0.40124,1.9134 0.70968,2.83871 0.16727,0.50182 0.5424,0.91754 0.70967,1.41935 0.30156,0.90467 0.0929,1.9218 0.35484,2.83872 0.1504,0.52637 0.86522,1.17629 1.06452,1.77419 1.78301,5.34904 -0.3101,-0.86318 0.35484,2.12903 0.99611,4.48251 0.36285,2.24921 0.70968,7.45161 0.27503,4.12551 0.21481,-0.3453 0.70967,2.12904 0.0696,0.34794 -0.044,0.71241 0,1.06451 -0.19294,1.05322 0.54933,1.87662 0.70968,2.83871 0.41591,2.49544 0,5.28573 0,7.80645 0,3.0054 0.44239,6.92167 -0.70968,9.22581 -0.10579,0.21158 0.16727,0.5424 0,0.70968 -0.72851,0.7285 -1.91443,-0.99016 -2.12903,-1.41936 -0.88973,-1.77947 0.10917,-3.82139 -0.35484,-5.67742 -0.28857,-1.15429 -0.50543,-2.32292 -0.70968,-3.54839 -0.16598,-0.99593 -0.4099,-4.62822 -0.70967,-5.67741 -0.50565,-1.76975 -1.49918,-3.04265 -1.7742,-4.96775 -0.35944,-2.5161 -1.00001,-4.93556 -1.41935,-7.45161 -0.0583,-0.35001 0.11221,-0.72789 0,-1.06451 -0.38159,-1.14477 -0.81341,-0.76979 -1.06452,-1.7742 -0.29946,-1.19785 -0.64773,-1.58836 -1.06451,-2.83871 -0.0748,-0.22442 0.0748,-0.48526 0,-0.70967 -0.15218,-0.45653 -0.57501,-0.88067 -0.70968,-1.41936 -0.0907,-0.36287 -0.23656,-0.70968 -0.35484,-1.06452 0,-0.5914 0.0972,-1.19084 0,-1.77419 -0.006,-0.0379 -0.68339,-1.61649 -0.70968,-1.77419 -0.22886,-1.37319 0.2729,-2.89358 0,-4.25807 -0.0853,-0.42641 -0.89445,-2.48387 0,-2.48387"
       id="path223" />
    <path
       style="fill:#374548;fill-opacity:1;stroke:#d35f8d;stroke-width:0.626999;stroke-opacity:0"
       d="m 92.96774,174.22581 c 0.401206,2.16701 -0.432168,4.58109 0,6.74193 0.07336,0.36677 0.308446,0.69337 0.354841,1.06452 0.203803,1.63043 -0.203806,3.3373 0,4.96774 0.0328,0.26244 0.302969,0.45033 0.354838,0.70968 0.128608,0.64304 -0.16124,1.48407 0,2.12903 0.257929,1.03172 0.709676,2.1074 0.709676,3.19355 0,1.32885 0.756224,1.48917 1.419354,2.48387 0.207479,0.31121 0.09036,0.80003 0.354841,1.06451 0.0431,0.0431 1.007427,0.0381 1.064514,0 0.819674,-0.54645 1.064517,-1.21756 1.064517,-2.12903 0,-0.94624 0.229496,-1.92072 0,-2.83871 -0.245103,-0.98041 -0.939168,-1.83593 -1.064517,-2.83871 -0.153763,-1.2301 0.245345,-2.6765 0,-3.90322 -0.09564,-0.47821 -0.136742,-0.98317 -0.354838,-1.41936 -0.07481,-0.14961 -0.331182,-0.18925 -0.354838,-0.35484 -0.117091,-0.81963 0.261824,-1.6984 0,-2.48387 -0.245645,-0.73693 -0.401328,-1.86717 -0.709679,-2.48387 -0.190719,-0.38144 -0.587134,-0.65604 -0.709676,-1.06452 -0.240326,-0.80109 0.146979,-1.81478 -0.354838,-2.48387 -0.361868,-0.48249 -1.627917,0.23027 -1.774195,-0.35483 -0.218472,-0.8739 0.748228,-1.64044 1.064517,-2.48388 0.132344,-0.35291 0,-1.03833 0,-1.41935"
       id="path224" />
    <path
       style="fill:#374548;fill-opacity:1;stroke:#d35f8d;stroke-width:0.626999;stroke-opacity:0"
       d="m 115.67742,187.35484 c 1.10318,5.51592 -0.45034,-0.54584 1.06451,2.48387 0.1058,0.21158 -0.10579,0.49809 0,0.70967 0.0529,0.1058 0.23656,0 0.35484,0 0.11828,0.11828 0.30195,0.19615 0.35484,0.35484 0.0748,0.22442 -0.18925,0.56775 0,0.70968 0.39015,0.29261 1.00117,0.10393 1.41936,0.35484 0.45358,0.27215 0.33564,1.04532 0.70967,1.41935 0.18702,0.18702 0.56297,0.13478 0.70968,0.35484 0.35332,0.52998 0.42482,1.20449 0.70968,1.7742 0.30843,0.61687 0.78441,1.14395 1.06451,1.77419 0.48868,1.09952 0.23572,2.08764 0.70968,3.19355 0.16799,0.39198 0.51896,0.68307 0.70968,1.06451 0.0529,0.1058 -0.0836,0.27121 0,0.35484 0.0836,0.0836 0.24905,-0.0529 0.35484,0 0.93376,0.46688 1.57871,0.75784 2.12903,-0.70967 0.44191,-1.17843 0.35484,-2.33631 0.35484,-3.54839 0,-0.47631 -2.25852,-5.02211 -2.48387,-5.32258 -0.15869,-0.21159 -0.55099,-0.14326 -0.70968,-0.35484 -0.57216,-0.76288 -0.99289,-1.63095 -1.41935,-2.48387 -0.16728,-0.33455 -0.11143,-0.78053 -0.35484,-1.06452 -0.27218,-0.31754 -2.01754,-1.46283 -2.48387,-2.12903 -1.45231,-2.07472 -2.305,-3.81233 -3.54839,-5.67742 -0.18838,-0.28256 -1.46391,-0.66512 -1.77419,-0.35484 -0.18702,0.18702 -0.19616,0.4981 -0.35484,0.70968 -0.25588,0.34117 -0.59252,0.65446 -0.70968,1.06452 -0.11709,0.4098 -0.28161,2.98516 0,3.54838 0.0529,0.1058 0.23656,0 0.35484,0 0.11828,0.23656 0.2712,0.45877 0.35484,0.70968 0.0996,0.29887 0.18126,1.41936 0.70967,1.41936 0.60311,0 1.4639,-0.87201 1.7742,-0.35484 0.38488,0.64146 -0.47312,1.41935 -0.70968,2.12903"
       id="path225" />
    <path
       style="fill:#374548;fill-opacity:1;stroke:#d35f8d;stroke-width:0.626999;stroke-opacity:0"
       d="m 102.19355,83.387096 c 3.63456,-0.05705 4.01797,-0.40498 6.74193,1.774192 0.39186,0.313484 0.61568,0.840097 1.06452,1.064517 0.33454,0.167272 0.76529,0.130418 1.06451,0.354838 0.21159,0.158689 0.14832,0.544459 0.35484,0.709679 0.41305,0.33044 1.04533,0.335645 1.41936,0.709678 0.63695,0.636953 0.56485,1.734368 1.06451,2.483869 0.82134,1.232006 1.41936,1.283247 1.41936,2.838712 0,0.354838 0.22166,0.787431 0,1.064514 -0.33044,0.413051 -0.97923,0.416263 -1.41936,0.709678 -0.27835,0.185571 -0.39906,0.585431 -0.70967,0.709676 -0.32946,0.131784 -0.72333,-0.09748 -1.06452,0 -0.7016,0.200459 -2.211,1.262431 -2.83871,1.419355 -0.34424,0.08606 -0.71657,-0.06959 -1.06451,0 -0.56773,0.113546 -1.22265,0.52583 -1.7742,0.709679 -0.93772,0.312573 -3.53679,0.215222 -4.6129,0 -0.24534,-0.04907 -1.64318,-0.683475 -1.77419,-0.709679 -1.269811,-0.25396 -2.166508,-0.03747 -3.193554,-1.064514 -0.669295,-0.669295 0.86133,-1.692921 1.064517,-1.774195 0.44455,-0.177819 2.143527,0.340341 2.483867,0 0.16728,-0.167273 -0.18924,-0.567741 0,-0.709676 1.29137,-0.968529 1.27877,0.07029 2.12904,-0.354838 0.33963,-0.16982 1.89073,-0.826217 2.12903,-1.064517 0.44459,-0.44459 0.94335,-1.878065 1.06451,-2.483871 0.25248,-1.262364 0,-2.963622 0,-4.258064 0,-0.236561 0.16728,-0.542407 0,-0.709679 -0.0836,-0.08364 -0.30194,0.105794 -0.35483,0 -0.1058,-0.211584 0.0748,-0.485256 0,-0.709676 -0.0529,-0.158689 -0.28004,-0.205226 -0.35484,-0.35484 -0.0529,-0.105791 0.10579,-0.301943 0,-0.354838 -0.21159,-0.105794 -0.4981,0.105793 -0.70968,0 -0.10579,-0.0529 0.0836,-0.271204 0,-0.354838 -0.50874,-0.508741 -1.43105,0.180342 -2.12903,0.354838 z"
       id="path226" />
    <path
       style="fill:#374548;fill-opacity:1;stroke:#d35f8d;stroke-width:0.626999;stroke-opacity:0"
       d="m 93.322581,56.064514 c -0.386816,1.991122 0.479422,3.567303 1.064514,5.322581 0.07481,0.22442 -0.105791,0.498094 0,0.709679 0.224419,0.448839 0.806333,0.634211 1.064516,1.064516 0.19244,0.320731 0.09036,0.800034 0.354838,1.064517 0.167275,0.167272 0.475496,-0.03346 0.709679,0 0.807717,0.115387 2.605101,0.669266 3.548392,0.354838 0.36177,-0.120592 0.56476,-0.871302 0.70967,-1.064517 0.87695,-1.169268 0.70968,-0.168434 0.70968,-1.419354 0,-0.5914 0.23296,-1.230615 0,-1.774193 -0.16799,-0.391983 -0.7915,-0.382061 -1.06452,-0.709679 -0.33863,-0.40636 -0.437524,-0.965774 -0.709675,-1.419354 -0.434176,-0.723628 -3.00822,-3.368331 -3.548385,-3.548388 -0.273174,-0.09106 -1.47207,-1.011801 -1.774195,-0.709676 -0.561049,0.561049 -0.709676,1.419354 -1.064514,2.12903 z"
       id="path227" />
    <path
       style="fill:#374548;fill-opacity:1;stroke:#d35f8d;stroke-width:0.626999;stroke-opacity:0"
       d="m 111.41935,57.83871 c 0.10377,1.428633 -0.29737,2.953636 0.35484,4.258064 0.50457,1.009134 0.96913,2.388478 1.7742,3.193547 0.0836,0.08364 0.2712,-0.08364 0.35483,0 0.16728,0.167272 -0.16727,0.542406 0,0.709678 0.37565,0.375645 2.94428,0 3.54839,0 0.23656,0 0.54241,0.167273 0.70968,0 0.18702,-0.187015 0.16782,-0.52266 0.35484,-0.709678 0.73417,-0.734174 -0.0287,1.121915 0.70967,-0.354838 0.19936,-0.398714 0.0737,-2.189091 0,-2.483871 -0.1217,-0.486834 -0.78615,-0.646978 -1.06451,-1.064517 -0.28003,-0.420045 -0.4713,-1.297427 -0.70968,-1.774193 -0.14961,-0.299225 -0.5241,-0.431318 -0.70968,-0.709676 -0.1467,-0.220062 -0.13477,-0.56297 -0.35483,-0.709678 -0.19683,-0.13122 -0.48526,0.0748 -0.70968,0 -1.97339,-0.657797 -0.13765,-2.827089 -4.25807,-0.354838 z"
       id="path228" />
    <path
       style="fill:#37c871;fill-opacity:1;stroke:#d35f8d;stroke-width:0.626999;stroke-opacity:0"
       d="M 251.58064,218.2258 246.6129,76.290322"
       id="path229" />
    <path
       style="fill:#37c871;fill-opacity:1;stroke:#d35f8d;stroke-width:0.626999;stroke-opacity:0"
       d="m 101.48387,87.64516 c 0.11828,-0.473118 0.82796,-1.301076 0.35484,-1.419355 -0.47312,-0.118279 -0.64745,1.809499 -0.35484,1.419355 0.63475,-0.846339 0.85866,-1.941592 1.41936,-2.83871 0.0455,-0.07286 1.65359,-0.0603 1.77419,0 1.47675,0.738378 -0.37934,-0.0245 0.35484,0.709679 0.0836,0.08363 0.2712,-0.08364 0.35484,0 0.11805,0.118057 -0.0239,1.347745 0,1.419355 0.0529,0.158689 0.30194,0.196148 0.35483,0.354838 0.10695,0.320852 0.17815,4.256603 0,4.612901 -0.0529,0.105794 -0.30194,-0.105791 -0.35483,0 -0.1058,0.211588 0.16727,0.542407 0,0.709679 -0.16728,0.167272 -0.4981,-0.105794 -0.70968,0 -0.23656,0.118279 -0.11828,0.591397 -0.35484,0.709679 -0.2455,0.122748 -1.30468,-0.240168 -1.41935,-0.354841 -1.21095,-1.210942 -0.19456,-2.615422 -0.70968,-3.903226 -0.19645,-0.491127 -0.47312,-0.946235 -0.70968,-1.419354 z"
       id="path230" />
    <path
       style="fill:#37c871;fill-opacity:1;stroke:#d35f8d;stroke-width:0.626999;stroke-opacity:0"
       d="m 278.90321,146.19355 6.3871,-107.87097"
       id="path232" />
  </g>
</svg>
