<?xml version="1.0" encoding="UTF-8" standalone="no"?>
<!-- Created with Inkscape (http://www.inkscape.org/) -->

<svg
   width="210mm"
   height="297mm"
   viewBox="0 0 210 297"
   version="1.1"
   id="svg1"
   sodipodi:docname="aliens.squiggly.svg"
   inkscape:version="1.3.2 (091e20e, 2023-11-25, custom)"
   xmlns:inkscape="http://www.inkscape.org/namespaces/inkscape"
   xmlns:sodipodi="http://sodipodi.sourceforge.net/DTD/sodipodi-0.dtd"
   xmlns="http://www.w3.org/2000/svg"
   xmlns:svg="http://www.w3.org/2000/svg">
  <sodipodi:namedview
     id="namedview1"
     pagecolor="#ffffff"
     bordercolor="#000000"
     borderopacity="0.25"
     inkscape:showpageshadow="2"
     inkscape:pageopacity="0.0"
     inkscape:pagecheckerboard="0"
     inkscape:deskcolor="#d1d1d1"
     inkscape:document-units="mm"
     inkscape:zoom="0.74564394"
     inkscape:cx="392.94895"
     inkscape:cy="563.94209"
     inkscape:window-width="1920"
     inkscape:window-height="1051"
     inkscape:window-x="-9"
     inkscape:window-y="-9"
     inkscape:window-maximized="1"
     inkscape:current-layer="g38" />
  <defs
     id="defs1" />
  <g
     inkscape:groupmode="layer"
     id="layer1"
     inkscape:label="Layer 1">
    <g
       id="g38"
       transform="translate(1.6812338,11.748925)">
      <path
         style="fill:#abc837;stroke:#000000;stroke-width:0.626999;stroke-opacity:0"
         d="m 8.2542499,209.67043 c -0.3823557,-6.14897 -0.8576942,-12.34162 -1.7741934,-18.45162 0.4822658,-1.93561 -1.0816082,-3.279 -1.4193549,-4.96774 -1.1114249,-5.55712 0.054701,-1.58202 -0.3548388,-5.67742 -0.048526,-0.48526 -0.3174354,-0.93311 -0.3548385,-1.41935 -0.1266288,-1.64617 0.1266285,-3.32157 0,-4.96774 -0.3099287,-4.02908 -0.3590557,-8.03237 -0.7096776,-12.06452 -0.6096172,-7.0106 -1.7093861,-14.19675 -1.0645161,-21.29032 0.17062,-1.87682 0.6160812,-3.8055 0.7096776,-5.67742 0.088599,-1.77198 -0.08439,-3.5504 0,-5.32258 0.045358,-0.95252 0.1235564,-1.91358 0.3548385,-2.83871 0.064146,-0.25659 0.3220339,-0.44724 0.3548388,-0.70968 0.2200616,-1.76049 -0.077066,-3.55006 0,-5.32258 0.1502746,-3.45632 0.4454567,-6.85545 0.7096773,-10.29032 0.2060364,-2.67847 0,-5.47735 0,-8.16129 0,-6.168784 -0.3548385,-12.284615 -0.3548385,-18.451616 0,-0.782134 -0.3677285,-6.361316 0,-7.096773 0.3084354,-0.616871 0.8288218,-1.126035 1.0645161,-1.774192 0.1863556,-0.51248 0.402749,-3.289372 0.7096773,-3.903226 1.4882426,-2.976486 3.4023609,-5.472983 5.3225803,-8.16129 0.954852,-1.336794 1.413514,-2.827028 2.129032,-4.258067 0.0529,-0.105791 -0.09841,-0.289229 0,-0.354838 1.094089,-0.729392 3.658189,-0.709676 4.967742,-0.709676 0.77242,0 3.988854,-0.367083 4.967742,0 0.742924,0.278596 1.403975,0.742268 2.129033,1.064514 2.486092,1.104932 7.202424,1.880574 9.935483,2.129034 5.310124,0.482737 11.071518,-0.04595 16.322582,-0.354838 3.895804,-0.229167 8.177927,-0.277614 12.064516,0 1.712103,0.122293 3.273253,0.460742 4.96774,0.354838 5.258601,-0.328663 10.686348,-0.665509 15.967741,-0.354838 8.754118,0.514948 -0.542779,-0.108556 7.096776,1.419354 0.695896,0.139179 1.423694,-0.07837 2.12903,0 0.371748,0.0413 0.694243,0.301943 1.064517,0.354838 0.695484,0.09935 1.43355,-0.09935 2.129033,0 2.843665,0.406236 5.606525,1.073378 8.516125,0.709679 1.79536,-0.22442 3.59724,-0.519671 5.32258,-1.064517 1.57098,-0.496096 3.03136,-1.31291 4.61291,-1.774195 3.18037,-0.927605 6.39131,-0.586116 9.58064,-1.064514 2.22964,-0.334447 4.99365,-1.371764 7.45162,-1.064517 12.11026,1.513782 -2.72513,-0.07544 6.74193,1.419355 1.70823,1.092054 3.56232,0.103373 5.32258,0.354838 0.37028,0.05289 0.69337,0.308446 1.06452,0.354838 0.58683,0.07336 1.21314,-0.187015 1.77419,0 0.25091,0.08364 0.0997,0.640088 0.35484,0.709679 1.14681,0.312766 2.37164,0.186732 3.54839,0.354838 2.36927,0.338468 3.85462,0.211039 6.38709,0 0.58936,-0.04911 1.19234,0.105793 1.7742,0 2.22651,-0.404821 4.48009,-1.676662 6.74193,-2.129031 1.1247,-0.224941 2.41335,0.113504 3.54839,0 0.75355,-0.07536 3.22742,-0.297423 4.25806,-0.709679 0.7367,-0.294677 1.36906,-0.836522 2.12904,-1.064516 2.69708,0 0.42976,0.211584 2.12903,-0.354838 1.73367,-0.57789 4.85475,0.314531 6.74193,0 4.12819,-0.688031 6.38267,-0.426694 10.29033,0.354838 0.23196,0.04639 0.49809,-0.105791 0.70967,0 0.29923,0.149614 0.43132,0.524105 0.70968,0.709678 0.21291,0.141936 0.8871,-0.177419 1.06452,0 0.57276,0.572757 0.27528,2.202268 0.35484,2.83871 0.0464,0.371144 0.30194,0.694242 0.35484,1.064516 0.61324,4.292695 -0.47918,8.816475 0,13.129033 0.36296,3.266656 0.33601,0.260701 1.06451,3.903225 0.2851,1.425496 -0.0465,4.51462 0,5.677419 0.0758,1.894649 0.20363,3.787293 0.35484,5.677418 0.24417,3.052078 0.56091,6.204175 1.06451,9.225807 0.0802,0.481042 0.3201,0.932912 0.35485,1.419352 0.41438,5.80143 0.24171,11.62747 1.06451,17.3871 0.66236,4.63656 -0.66236,9.55699 0,14.19355 0.0901,0.63055 0.59573,1.14751 0.70968,1.77419 0.27506,1.51283 -0.0768,3.07719 0,4.6129 0.42741,8.54824 0.35484,1.235 0.35484,7.45162 0,2.18278 -0.43398,4.9269 0,7.09677 0.39248,1.96242 0.54102,2.96135 0.70967,5.32258 0.23714,3.31995 -0.61117,6.6031 -0.35483,9.93549 0.12732,1.65524 0.12006,3.32429 0.35483,4.96774 0.0529,0.37027 0.30845,0.69337 0.35484,1.06451 0.11439,0.91512 -0.23697,2.24565 0,3.19355 0.0907,0.36287 0.30194,0.69424 0.35484,1.06452 0.19189,1.34321 0,2.89962 0,4.25806 0,2.95699 0,5.91398 0,8.87097 0,2.65849 0.0176,5.19946 -0.35484,7.80645 -0.16233,1.13636 0.008,1.74964 -0.35484,2.83871 -0.10645,0.31936 0.10646,0.74516 0,1.06452 -0.21828,0.65484 -2.24408,1.5344 -2.48387,1.77419 -0.0836,0.0836 0.0836,0.2712 0,0.35484 -0.10004,0.10005 -1.38762,-0.006 -1.41935,0 -1.06931,0.21386 -2.12646,0.48503 -3.19355,0.70968 -2.48278,0.52269 -4.6116,1.22818 -7.09677,1.41935 -2.14388,0.16492 -4.2529,0.11771 -6.3871,0.35484 -1.91566,0.21285 -4.16601,0.64979 -6.03226,1.06452 -1.60188,0.35597 -3.42692,1.38898 -4.96774,1.77419 -1.28292,0.32073 -2.62629,0.36589 -3.90323,0.70968 -10.67662,2.87447 -1.19639,0.69566 -8.16129,2.83871 -2.13364,0.6565 -2.06288,0.17269 -4.6129,0.35484 -0.71764,0.0513 -1.41314,0.28324 -2.12903,0.35484 -2.35385,0.23538 -4.73386,-0.11252 -7.09678,0 -2.57848,0.12278 -5.22409,0.77758 -7.80645,1.06451 -2.56863,0.28541 -5.24272,-0.32047 -7.80645,0 -2.71507,0.33939 -5.40745,0.52695 -8.16129,0.35484 -3.15023,-0.19689 -2.28673,-0.51517 -5.67742,-1.41935 -0.69517,-0.18539 -1.44648,-0.12733 -2.12903,-0.35484 -0.75273,-0.25091 -1.35928,-0.87208 -2.12903,-1.06452 -0.68849,-0.17212 -1.4237,0.0784 -2.12904,0 -0.85582,-0.0951 -1.62943,-0.60287 -2.48387,-0.70968 -1.24454,-0.15557 -1.9863,-0.11339 -3.19354,-0.35484 -0.9665,-0.1933 -2.25609,0.0937 -3.19355,0 -0.60012,-0.06 -1.17356,-0.30023 -1.7742,-0.35483 -1.06014,-0.0964 -2.135539,0.11755 -3.193545,0 -1.68367,-0.18708 -3.010855,-0.74411 -4.612904,-1.06452 -0.579911,-0.11598 -1.182796,0 -1.774193,0 -3.525141,0 -2.23698,0.20441 -5.677418,1.06452 -6.51087,1.62771 4.285099,-1.80482 -6.032259,1.41935 -3.122679,0.97584 -0.392645,0.67797 -4.258064,1.06452 -3.805389,0.38053 -7.543382,0.35484 -11.35484,0.35484 -1.485138,0 -3.130015,-0.16477 -4.612902,0 -1.369703,-0.59567 -2.354291,0.53909 -3.548388,0.70967 -0.918136,0.13117 -1.908778,-0.0664 -2.838709,0 -2.807785,0.20056 -5.716841,0.12157 -8.516128,0.35484 -0.601027,0.0501 -1.174774,0.28824 -1.774195,0.35484 -3.389691,0.37663 -6.892798,-0.30887 -10.290323,0 -0.600631,0.0546 -1.177145,0.26955 -1.774193,0.35484 -2.371,0.33871 -5.06513,0 -7.451612,0 -2.183335,0 -3.898181,-0.53184 -6.032258,-0.70968 -1.816032,-0.15133 -3.566337,-0.12426 -5.322581,-0.70968 -0.913178,-0.30439 -1.6202647,-0.98755 -2.4838708,-1.41935 -0.2150536,-0.10753 -0.9158231,-0.20615 -1.0645161,-0.35484 -0.5898986,-0.5899 0.3548388,-4.0397 0.3548388,-4.6129 0,-0.83637 -0.2365592,-1.65592 -0.3548388,-2.48388"
         id="path56" />
      <path
         style="fill:#e5ff80;stroke:#000000;stroke-width:0.626999;stroke-opacity:0"
         d="m 14.641347,207.89623 c -0.749221,-4.94645 -1.541911,-9.90982 -0.709678,-14.90322 0.09915,-0.59491 0.319423,-1.17213 0.354839,-1.7742 0.08335,-1.4169 0,-2.83871 0,-4.25806 0.11828,-2.01075 0.200354,-4.02396 0.354839,-6.03226 0.160169,-2.0822 0.885636,-4.97358 0.354838,-7.09677 -1.164661,-4.65865 -2.048122,-9.45003 -2.838709,-14.19355 -0.313542,-1.88125 -0.185729,-3.8436 -0.709678,-5.67742 -0.217975,-0.76292 -0.785919,-1.38611 -1.064516,-2.12903 -0.9092574,-2.42469 -0.149579,-7.39593 -1.064516,-9.22581 -0.2644812,-0.52896 0,-1.18279 0,-1.77419 0,-2.01075 0,-4.02151 0,-6.03226 0,-2.71885 0.1467612,-5.45628 0.3548388,-8.16129 0.1855655,-2.41235 0.5336722,-2.11206 0.3548392,-4.25807 -0.4937005,-5.92439 -1.1828636,-11.82862 -1.7741941,-17.74193 -0.4559297,-4.5593 -0.03134,-9.747445 0.7096773,-14.193549 0.7638034,-4.582818 -0.071243,2.698981 0.7096776,-3.548385 0.246988,-1.975905 -0.2857783,-4.110408 0.3548392,-6.032259 0.344994,-1.034984 4.86369,-3.144001 4.967741,-3.193547 1.746965,-0.83189 6.586426,-2.764727 8.516129,-3.19355 1.544103,-0.343133 6.593239,-0.112004 8.16129,0 2.457474,0.175535 5.740241,1.77659 8.16129,1.064517 1.686904,-0.496147 3.251263,-1.392754 4.967742,-1.774193 1.505453,-0.334547 3.074646,-0.244965 4.612905,-0.354841 4.352954,-0.310925 5.986108,-0.498311 10.29032,-0.354838 10.259134,0.341972 1.07101,0.0657 12.419356,2.129034 3.990232,0.725495 8.067194,0.346284 12.064516,0.709676 2.016305,0.1833 4.017685,0.508219 6.032257,0.709678 2.770475,0.277048 -0.479375,-0.01029 1.774195,-0.709678 3.15088,-0.977861 6.342168,-1.854166 9.580645,-2.483872 2.32952,-0.452961 8.1151,0 10.64516,0 3.91807,0 7.81523,7.94e-4 11.70968,0.354841 0.60063,0.0546 1.17317,0.304752 1.77419,0.354838 2.00779,0.167314 4.78194,-0.559999 6.74194,0 0.50861,0.145317 0.89892,0.615053 1.41935,0.709676 0.8146,0.148111 1.66605,-0.12913 2.48387,0 4.47606,0.706747 3.05098,1.085744 6.3871,1.419357 1.18671,0.118668 9.70331,0.282554 10.64516,0 1.09343,-0.32803 4.12956,-4.321029 5.67742,-5.322583 5.00147,-3.236243 5.13707,-2.689511 10.29032,-3.548385 1.30341,-0.217234 2.61644,-0.742821 3.90323,-1.064517 1.22723,-0.306808 2.66031,0.248584 3.90322,0 1.11647,-0.223292 2.7016,-0.655246 3.90323,-0.354838 1.02858,0.257146 1.93812,1.58868 2.83871,2.129031 0.0691,0.04145 1.40216,0.337645 1.41935,0.35484 0.16728,0.167273 -0.065,0.482219 0,0.709676 0.84219,2.947657 1.23915,4.951019 1.7742,8.16129 0.75375,4.52252 2.02941,8.014322 3.54838,12.419356 2.66268,7.721767 6.64028,14.953075 9.22581,22.709675 0.60716,1.82146 -0.93177,3.69729 -1.41935,5.32258 -0.40147,1.33822 -0.88699,3.54754 -1.06452,4.96775 -0.38213,3.05699 -0.25608,7.03821 0.70968,9.93548 0.16727,0.50182 0.5424,0.91754 0.70968,1.41935 0.73969,2.2191 0.60486,5.15335 1.06451,7.45162 0.10275,0.51373 0.60693,1.26045 0.70968,1.77419 0.13918,0.6959 0,1.41935 0,2.12903 0,4.69917 -1.08628,9.17561 -1.41936,13.83871 -0.22618,3.16654 0,6.40296 0,9.58065 0,1.2792 -0.34371,6.76418 0,7.45161 0.0748,0.14961 0.32204,0.19081 0.35484,0.35484 0.27212,1.36057 -0.17255,2.87768 0,4.25806 0.14392,1.15138 0.88188,4.00498 0.35484,5.32258 -0.34168,0.85421 -1.6223,1.4206 -1.77419,2.48387 -0.23478,1.64345 -0.18965,3.31585 -0.35484,4.96774 -0.0357,0.35735 0.23653,1.97135 0,2.12904 -2.90467,1.93644 -6.65754,2.01922 -9.93549,2.83871 -0.72573,0.18143 -1.39549,0.56297 -2.12903,0.70968 -4.25006,0.85001 -8.80005,1.14879 -13.12903,1.41935 -2.58153,0.16135 -3.77049,-0.34958 -6.74193,0 -0.52534,0.0618 -0.91271,0.55768 -1.41936,0.70968 -11.71213,3.51364 -0.53689,-0.13191 -9.58065,2.12903 -4.88206,1.22051 -3.39725,1.5039 -7.45161,1.77419 -4.95087,0.33006 -9.96955,-0.0807 -14.90322,-0.35484 -3.66405,-0.20356 -1.40135,0.33715 -5.32258,-0.35483 -1.07389,-0.18951 -2.11676,-0.5374 -3.19355,-0.70968 -2.33063,-0.3729 -8.59473,-0.98204 -11,-1.41936 -0.8472,-0.15403 -1.68437,-0.38987 -2.48387,-0.70968 -0.39596,-0.15838 -0.64386,-0.63956 -1.06452,-0.70967 -0.36894,-0.0615 -0.713,0.22701 -1.06452,0.35484 -0.94973,0.34536 -1.88574,0.72817 -2.8387,1.06451 -3.63572,1.2832 -6.741485,3.15802 -10.645166,3.54839 -12.856501,1.28565 -1.529593,0 -10.999999,0 -6.148186,0 -12.026135,0.62753 -18.096775,1.41936 -1.974741,0.25757 -4.127553,0.42961 -6.032259,1.06451 -3.279103,1.09304 -2.121918,1.14104 -5.32258,1.41936 -5.322454,0.46282 -10.633266,0.35483 -15.967742,0.35483 -2.841879,0 -5.75955,0.19648 -8.516128,-0.35483 -0.695896,-0.13918 -1.429012,0.11666 -2.129033,0 -0.260882,-0.0435 -0.448794,-0.31136 -0.709676,-0.35484 -2.139953,-0.35666 -4.639946,0.5255 -6.741936,0 -1.63094,-0.40774 -0.08051,-0.35484 -1.064516,-0.35484 -0.605701,0 -2.73152,0.30802 -3.193549,0 -0.556716,-0.37115 -0.946236,-0.94624 -1.419354,-1.41936 z"
         id="path57" />
      <path
         style="fill:#ff00cc;stroke:#000000;stroke-width:0.626999;stroke-opacity:0"
         d="m 48.705862,185.89624 c -1.944031,0.18905 -3.82089,-0.24555 -5.677418,-0.70968 -0.352547,-0.0881 -1.568932,-0.50442 -1.774195,-0.70968 -0.08364,-0.0836 0.07097,-0.26021 0,-0.35484 -0.705308,-0.94041 -1.685383,-1.37475 -2.129031,-2.48387 -1.152988,-2.88246 0.218025,-3.50929 2.838709,-4.25806 0.68226,-0.19493 2.020081,-0.90079 2.83871,-1.06452 0.835075,-0.16701 2.050055,0.31546 2.838709,0 0.52682,-0.21073 2.483871,-1.41246 2.483871,-2.12903 0,-0.97885 -1.163108,-0.69787 -1.774193,-1.06452 -2.032523,-1.21951 -2.138968,-0.2056 -3.903225,-0.70967 -2.645228,-0.75578 -5.322581,-2.64207 -5.322581,-5.67742 0,-1.01529 -0.409551,-2.72929 0,-3.54839 0.118973,-0.23795 0.651706,-1.73555 0.709676,-1.77419 2.973348,-1.98223 5.019551,0.90909 6.741935,-4.25807 0.212283,-0.63685 1.069949,-2.11817 0.709679,-2.83871 -0.932588,-1.86517 -3.603943,-2.26583 -5.322581,-2.83871 -0.224419,-0.0748 -0.542406,0.16728 -0.709678,0 -0.301554,-0.30155 -0.408123,-0.76296 -0.709676,-1.06451 -0.187018,-0.18702 -0.522661,-0.16783 -0.709679,-0.35484 -1.279049,-1.27905 -1.064517,-3.35869 -1.064517,-4.96774 0,-0.39284 -0.173283,-1.78247 0,-2.12904 0.216607,-0.43321 2.362827,-0.31157 2.838712,-0.35484 0.949682,-0.0863 1.887532,-0.28689 2.83871,-0.35483 2.081619,-0.14869 7.806451,0.71828 7.806451,-2.48387 0,-0.35484 0.212903,-0.78065 0,-1.06452 -1.24334,-1.65779 -6.370137,-3.69319 -8.51613,-4.6129 -0.343789,-0.14734 -0.753301,-0.14737 -1.064517,-0.35484 -0.09841,-0.0656 0,-0.23656 0,-0.35484 -0.236558,0 -0.498091,0.10579 -0.709676,0 -0.105793,-0.0529 0.105791,-0.30194 0,-0.35484 -0.211584,-0.10579 -0.51285,0.13122 -0.709678,0 -0.220062,-0.14671 -0.134776,-0.56297 -0.354838,-0.70968 -0.196829,-0.13122 -0.480182,0.0574 -0.709676,0 -0.83679,-0.20919 -1.421088,-1.06798 -1.774196,-1.77419 -0.76767,-1.53534 -0.755718,-2.29971 -0.354838,-3.90323 0.114748,-0.45899 -0.26244,-1.02569 0,-1.41935 0.146709,-0.22006 0.522661,-0.16782 0.709676,-0.35484 0.08364,-0.0836 -0.08363,-0.2712 0,-0.35484 0.318011,-0.31801 2.439887,0 2.838712,0 0.725821,0 4.065376,-0.27166 4.612902,-0.70968 0.549169,-0.43933 2.621828,-3.25258 2.838709,-3.90322 0.05327,-0.15981 0.195112,-2.28876 0,-2.48387 -1.432729,-1.43273 -3.319033,-0.595 -4.967742,-1.41936 -1.615326,-1.61532 0.146981,-0.18756 -1.419355,-0.70967 -1.225145,-0.40839 -1.935474,-4.64519 -1.419354,-5.67743 0.0529,-0.10579 0.271203,0.0836 0.35484,0 0.187016,-0.18701 0.143254,-0.55098 0.354838,-0.70967 0.509564,-0.38218 1.228008,-0.38197 1.774193,-0.70968 0.507119,-0.30427 0.836004,-0.96729 1.419355,-1.06452 1.548458,-0.25807 4.204136,-0.13625 5.677421,0.35484 0.404577,0.13486 0.672533,0.54169 1.064514,0.70968 0.928872,0.39809 2.030245,0.45817 2.838712,1.06452 0.211584,0.15869 0.196148,0.49809 0.354838,0.70967 1.09552,1.4607 1.774192,1.49659 1.774192,3.54839 0,0.35484 0.131784,0.73506 0,1.06452 -0.158385,0.39596 -0.518956,0.68307 -0.709676,1.06451 -0.0529,0.10579 0.11221,0.31744 0,0.35484 -0.336629,0.11221 -0.727887,-0.11221 -1.064516,0 -0.22442,0.0748 0.167272,0.54241 0,0.70968 -0.08364,0.0836 -0.236559,0 -0.354838,0 -0.118282,0.11828 -0.262054,0.21566 -0.354841,0.35484 -0.257172,0.38576 -0.709806,2.30626 -0.354838,2.83871 0.592476,0.88871 2.333839,1.99261 3.193547,2.48387 0.324752,0.18557 0.753303,0.14736 1.064517,0.35484 0.05865,0.0391 2.812232,2.45077 2.838709,2.48387 0.233656,0.29207 0.130421,0.76529 0.354841,1.06451 1.135483,1.51398 0.402151,-0.92258 1.064514,1.06452 0.764341,2.29303 -2.151129,2.57255 -3.548386,3.19355 -0.63024,0.28011 -1.157324,0.75608 -1.774195,1.06452 -0.283869,0.14193 -0.780645,-0.14194 -1.064514,0 -0.105793,0.0529 0.11221,0.31743 0,0.35483 -0.336629,0.11221 -0.727887,-0.11221 -1.064516,0 -0.11221,0.0374 0.05289,0.24905 0,0.35484 -0.348057,0.69611 -0.709679,-0.0272 -0.709679,0.70968 0,0.60608 -0.187015,2.18848 0.354841,2.83871 0.378602,0.45432 1.001172,0.64633 1.419354,1.06452 0.187016,0.18701 0.16782,0.52266 0.354838,0.70967 0.558221,0.55822 2.02959,0.61024 2.483871,1.06452 0.301554,0.30155 0.376667,0.79811 0.709676,1.06452 0.292071,0.23365 0.753304,0.14736 1.064517,0.35483 0.09841,0.0656 -0.08364,0.27121 0,0.35484 0.08364,0.0836 0.249047,-0.0529 0.354838,0 0.831805,0.41591 1.088083,1.72706 0.709679,2.48387 -0.29405,0.5881 -1.017201,0.66237 -1.419355,1.06452 -0.804458,0.80446 0.211656,0.78127 -1.064517,1.41935 -0.211584,0.1058 -0.498091,-0.10579 -0.709678,0 -0.6554,0.3277 -2.176486,1.63237 -2.838709,2.12904 -0.243549,0.18266 -1.693315,0.58836 -1.774193,0.70967 -0.207476,0.31122 -0.147362,0.75331 -0.354838,1.06452 -0.06561,0.0984 -0.317437,-0.11221 -0.354841,0 -0.185234,0.55571 -0.204742,3.289 0,3.90323 0.261131,0.78339 1.37641,1.98212 2.129034,2.48387 0.09841,0.0656 0.271203,-0.0836 0.354838,0 0.08364,0.0836 -0.08364,0.2712 0,0.35483 0.167272,0.16728 0.498094,-0.10579 0.709678,0 0.801299,0.40066 2.10778,0.93207 2.838709,1.41936 1.914261,1.27617 -0.244392,0.11045 1.064517,1.41936 0.187016,0.18701 0.522661,0.16782 0.709676,0.35483 0.626774,0.62678 0.709679,2.50883 0.709679,3.19355 0,1.60758 0.238522,1.57444 -0.709679,2.83871 -0.158686,0.21159 -0.134776,0.56297 -0.354838,0.70968 -0.196829,0.13122 -0.485256,-0.0748 -0.709676,0 -0.561051,0.18702 -0.912236,0.76024 -1.419357,1.06452 -1.937216,1.16233 0.463502,-0.27278 -1.419355,0.35483 -0.522946,0.17432 -0.909219,0.89448 -1.419354,1.06452 -0.22442,0.0748 -0.480182,-0.0574 -0.709676,0 -2.066362,0.51659 -1.371902,2.22394 -0.709679,3.54839 1.142209,2.28441 -0.77302,-1.12786 1.419355,1.06451 0.264482,0.26449 0.130421,0.76529 0.35484,1.06452 0.158687,0.21158 0.522661,0.16782 0.709676,0.35484 0.187018,0.18702 0.167823,0.52266 0.354838,0.70968 0.264483,0.26448 0.753303,0.14736 1.064517,0.35483 0.664474,0.44299 1.024477,0.96953 1.774195,1.41936 1.218327,0.73099 1.873464,0.55338 2.483869,1.77419 0.153678,0.30735 0.910188,1.82827 0.709678,2.12903 -0.359616,0.53943 -2.217965,1.61901 -2.838709,1.7742 -0.344244,0.0861 -0.813607,-0.25091 -1.064517,0 -0.08364,0.0836 0.105794,0.30194 0,0.35484 -0.211584,0.10579 -0.498091,-0.1058 -0.709678,0 -0.105791,0.0529 0.112212,0.31743 0,0.35484 -1.183442,0.39448 -0.883169,-0.0907 -1.774193,0.35483 -0.56774,0.28388 -1.56129,-0.28387 -2.12903,0 -0.299228,0.14962 -0.410454,0.56007 -0.709679,0.70968 -0.423169,0.21159 -0.946237,0 -1.419355,0 -0.801663,0 0.158689,-0.0529 -1.064516,0.35484 -1.789827,0.59661 -0.659329,-0.57002 -2.83871,1.06452 z"
         id="path67" />
      <path
         style="fill:#ff2ad4;stroke:#000000;stroke-width:0.626999;stroke-opacity:0"
         d="m 77.092958,182.34785 c -0.925174,-0.74544 -2.16933,-0.90725 -3.193548,-1.41936 -0.420372,-0.21018 -0.912645,-1.62232 -1.419354,-2.12903 -0.378926,-0.37892 -1.000482,-0.64564 -1.419355,-1.06451 -0.671327,-0.67133 -2.576684,-2.57122 -0.709678,-3.19355 0.865452,-0.28849 1.952225,0.22162 2.838709,0 0.974656,-0.24367 1.88061,-0.39031 2.838712,-0.70968 0.813194,-0.27106 1.7663,0.36273 2.483868,-0.35484 0.08364,-0.0836 -0.08364,-0.2712 0,-0.35484 0.187018,-0.18701 0.5914,-0.11828 0.709679,-0.35484 0.07481,-0.14961 -0.262051,-0.21565 -0.354838,-0.35483 -1.342678,-2.01402 -3.513844,-1.22467 -5.322581,-2.12904 -0.211584,-0.10579 -0.542406,0.16728 -0.709678,0 -0.08364,-0.0836 0.0374,-0.24262 0,-0.35483 -0.248386,-0.74517 -0.816129,-1.38388 -1.064517,-2.12904 -0.333483,-1.00045 -0.347498,-4.43915 0.709679,-4.96774 1.526093,-0.76305 6.517071,1.22958 5.677418,-2.12903 -0.379264,-1.51706 -0.820182,-1.05869 -1.774192,-1.77419 -0.211585,-0.15869 -0.134776,-0.56297 -0.354838,-0.70968 -0.196829,-0.13122 -0.485259,0.0748 -0.709679,0 -0.520036,-0.17335 -0.79956,-0.85792 -1.419355,-1.06452 -0.112209,-0.0374 -0.317436,0.11221 -0.354838,0 -0.112209,-0.33663 0.15869,-0.74714 0,-1.06452 -0.434731,-0.86945 -0.791178,0.11035 -1.064516,-0.70967 -0.11221,-0.33663 0.158689,-0.74714 0,-1.06452 -0.47385,-0.9477 -0.686112,-2.87406 0,-3.90322 0.06561,-0.0984 0.249047,0.0529 0.354838,0 0.299228,-0.14962 0.431318,-0.52411 0.709678,-0.70968 1.549773,-1.03318 -0.116961,0.15727 1.419355,-0.35484 0.562875,-0.18762 0.731226,-1.08607 1.064517,-1.41935 0.167272,-0.16728 0.709676,0.23655 0.709676,0 0,-0.59405 -1.42086,-0.88785 -1.774193,-1.06452 -0.995849,-0.49792 -2.99089,-3.85275 -3.548388,-4.96774 -0.22601,-0.45202 -0.149947,-2.38887 0,-2.83871 0.0529,-0.15869 0.280032,-0.20523 0.354838,-0.35484 0.158689,-0.31738 -0.158686,-0.74714 0,-1.06452 0.0529,-0.10579 0.271203,0.0836 0.354841,0 0.187015,-0.18701 0.167822,-0.52266 0.354838,-0.70967 0.08364,-0.0836 0.249047,0.0529 0.354838,0 1.623957,-0.81198 -1.505728,0.14707 1.064516,-0.70968 0.750383,-0.25013 1.571821,-0.0508 2.483872,-0.35484 0.299251,-0.0998 0.784299,0.14011 1.064516,0 0.598017,-0.29901 1.65934,-1.47678 2.483872,-1.06452 0.226226,0.11312 0.96461,1.82932 1.064514,2.12904 0.07481,0.22442 -0.131218,0.51284 0,0.70967 0.146708,0.22006 0.522663,0.16782 0.709678,0.35484 0.200226,0.20023 0.137988,3.05556 0,3.19355 -0.08364,0.0836 -0.271203,-0.0836 -0.354838,0 -0.141769,0.14177 -0.712811,2.00971 -0.35484,2.12903 0.336629,0.11221 0.716568,-0.0696 1.064516,0 2.240722,0.44815 0.07229,0.0723 0.709679,0.70968 0.310046,0.31005 1.497047,0.5711 1.774192,0.70968 0.567743,0.28387 0.851615,1.13548 1.419355,1.41935 1.632318,0.81616 1.379646,1.02481 2.483871,2.12903 0.301557,0.30156 0.683075,0.51896 1.064517,0.70968 0.105791,0.0529 0.271203,-0.0836 0.354838,0 0.08364,0.0836 -0.0529,0.24905 0,0.35484 0.149614,0.29923 0.560065,0.41045 0.709679,0.70968 0.280275,0.56055 0.667747,2.21289 0.354838,2.83871 -0.03545,0.0709 -3.006246,2.74505 -3.19355,2.83871 -0.42317,0.21158 -1.084808,-0.33455 -1.419355,0 -0.26448,0.26448 -0.09036,0.80003 -0.354838,1.06451 -0.212063,0.21207 -0.709676,-0.38353 -0.709676,0.35484 0,0.11828 0.236559,0 0.354838,0 0.354838,0 0.714505,0.0583 1.064517,0 2.186159,-0.36436 -0.149051,-0.83565 3.193547,0 1.011655,0.25292 2.596925,0.87926 3.193547,1.7742 0.146709,0.22006 0.167823,0.52266 0.354841,0.70967 0.08364,0.0836 0.301942,-0.10579 0.354838,0 0.105793,0.21159 -0.167272,0.54241 0,0.70968 0.167272,0.16727 0.542404,-0.16727 0.709678,0 0.167273,0.16727 -0.07481,0.48526 0,0.70968 0.105791,0.31738 0.560063,0.41045 0.709676,0.70968 0.221211,0.44242 0.08477,2.41489 0,2.83871 -0.103737,0.51868 -0.335645,1.04532 -0.709676,1.41935 -0.08364,0.0836 -0.317436,-0.11221 -0.35484,0 -0.11221,0.33663 0.08606,0.72027 0,1.06452 -0.210246,0.84098 -1.656855,1.06522 -2.129031,1.41935 -0.428765,0.32157 -0.484118,1.12916 -1.064516,1.41936 -0.436195,0.21809 -1.013582,0.0843 -1.419355,0.35483 -0.417539,0.27836 -0.598591,0.87815 -1.064517,1.06452 -0.4528,0.18112 -0.93831,0.27466 -1.419354,0.35484 -0.233342,0.0389 -0.542404,-0.16727 -0.709679,0 -0.167272,0.16727 0.105794,0.49809 0,0.70968 -0.0529,0.10579 -0.407733,-0.1058 -0.354838,0 0.638088,1.27617 0.6149,0.26006 1.419355,1.06451 0.08364,0.0836 -0.08364,0.2712 0,0.35484 0.301556,0.30156 0.76296,0.40812 1.064516,0.70968 0.374034,0.37403 0.335645,1.04532 0.709679,1.41935 0.187015,0.18702 0.522661,0.16782 0.709676,0.35484 0.334227,0.33423 0.354838,1.33909 0.354838,1.7742 0,0.93436 0.10749,1.31186 -0.709676,2.12903 -0.187018,0.18701 -0.522661,0.16782 -0.709679,0.35484 -0.08363,0.0836 0.08364,0.2712 0,0.35483 -0.260717,0.26072 -1.414663,0.94468 -1.774192,1.06452 -0.299252,0.0998 -0.784299,-0.14011 -1.064517,0 -1.461831,0.73092 -3.205641,1.07056 -4.612902,1.77419 -1.312238,0.65612 -3.386124,-0.89618 -4.258066,-1.41935 z"
         id="path68" />
      <path
         style="fill:#ff2ad4;stroke:#000000;stroke-width:0.626999;stroke-opacity:0"
         d="m 235.70586,169.21882 20.58064,-9.93549"
         id="path69" />
      <path
         style="fill:#ff55dd;stroke:#000000;stroke-width:0.626999;stroke-opacity:0"
         d="m 62.899411,182.70269 c -3.184548,0.11144 -5.34362,-1.2763 -8.161289,-2.48387 -0.09469,-0.0406 -1.692543,-0.57359 -1.774196,-0.70968 -0.468794,-0.78133 -1.064516,-2.5622 -1.064516,-3.54839 0,-0.31191 -0.210971,-2.16741 0,-2.48387 0.146709,-0.22006 0.522663,-0.16782 0.709678,-0.35484 0.301554,-0.30155 0.376666,-0.7981 0.709676,-1.06451 0.798777,-0.63902 2.316837,-0.62616 3.19355,-1.06452 0.298106,-0.14905 1.579134,-0.15978 1.774193,-0.35484 0.224044,-0.22404 0.683011,-1.80086 0.354838,-2.12903 -2.065271,-2.06527 -7.315907,-1.50278 -8.516128,-3.90322 -1.069401,-2.13881 -0.992682,-5.46625 0,-7.45162 0.0529,-0.10579 -0.08364,-0.2712 0,-0.35484 0.08364,-0.0836 0.249047,0.0529 0.354838,0 0.598453,-0.29922 0.845616,-1.07511 1.419355,-1.41935 0.853498,-0.5121 2.584905,0.32116 3.548388,0 0.158689,-0.0529 0.205226,-0.28003 0.354838,-0.35484 0.211584,-0.10579 0.498094,0.10579 0.709678,0 0.97785,-0.48893 0.709676,-1.59415 0.709676,-2.48387 0,-0.0196 0.211828,-2.76989 0,-3.19355 -0.149611,-0.29923 -0.560062,-0.41045 -0.709676,-0.70968 -0.167272,-0.33454 -0.09036,-0.80003 -0.354838,-1.06451 -0.880901,-0.8809 -1.701506,-0.0641 -2.129033,-1.7742 -0.387792,-1.55116 -0.871228,-1.99922 -0.354838,-3.54838 0.218488,-0.65547 -0.541451,-0.16823 0.354838,-1.06452 0.187015,-0.18702 0.522661,-0.16782 0.709679,-0.35484 0.08363,-0.0836 -0.09842,-0.28923 0,-0.35484 0.311213,-0.20747 0.7533,-0.14736 1.064514,-0.35484 0.09841,-0.0656 -0.08364,-0.2712 0,-0.35483 0.187018,-0.18702 0.52266,-0.16783 0.709678,-0.35484 0.08364,-0.0836 -0.105793,-0.30195 0,-0.35484 0.211585,-0.10579 0.480182,0.0574 0.709676,0 1.062855,-0.26572 0.6956,-0.6956 1.064517,-1.06452 0.413692,-0.41369 0.86487,-0.0663 1.064516,-1.06451 0.216001,-1.08 0.272696,-3.16728 0,-4.25807 -0.428373,-1.7135 -0.168626,0.0176 -0.709678,-1.06451 -0.0529,-0.1058 0.08364,-0.27121 0,-0.35484 -0.06538,-0.0654 -0.999133,-0.28946 -1.064514,-0.35484 -0.08364,-0.0836 0.05289,-0.24905 0,-0.35484 -0.392285,-0.78457 -0.220229,-0.11012 -0.709679,-0.35484 -0.460383,-0.23019 -0.632918,-1.39039 -0.709676,-1.77419 -0.275362,-1.37681 -0.585803,-2.37679 0,-3.54839 0.0529,-0.10579 -0.105793,-0.30194 0,-0.35484 0.539438,-0.26972 1.189091,-0.20856 1.774193,-0.35484 0.319159,-0.0798 1.133911,-0.14272 1.419354,0 0.149614,0.0748 0.196149,0.30194 0.354838,0.35484 0.33663,0.11221 0.813607,-0.25091 1.064517,0 0.08364,0.0836 -0.08364,0.2712 0,0.35484 0.03634,0.0363 1.353254,0.31077 1.419355,0.35484 0.472128,0.31475 0.73184,1.08668 1.064516,1.41935 0.08364,0.0836 0.301943,-0.10579 0.354838,0 0.105794,0.21159 -0.0748,0.48526 0,0.70968 0.369189,1.10757 0.236559,-0.11828 0.709679,0.35484 0.239355,0.23935 0.808344,1.74477 1.064517,2.12903 0.278357,0.41754 0.942805,0.57768 1.064514,1.06452 0.132619,0.53047 0.289888,3.67829 0,4.25806 -0.108202,0.21641 -0.475219,0.94729 -0.709676,1.06452 -0.105794,0.0529 -0.28923,-0.0984 -0.354838,0 -0.207479,0.31121 -0.147365,0.7533 -0.354841,1.06451 -0.07623,0.11435 -1.749936,0.73394 -1.064514,1.41936 0.257373,0.25737 3.978931,-0.21132 4.612902,0 0.158689,0.0529 0.196149,0.30194 0.354838,0.35484 0.07161,0.0239 1.301297,-0.11806 1.419355,0 0.857744,0.85774 1.489963,2.05662 1.774195,3.19355 0.08606,0.34424 -0.196829,0.76927 0,1.06451 0.417184,0.62578 0.999051,0.90608 0.709676,1.7742 -0.220962,0.66289 -1.188183,4.14247 -1.419355,4.25806 -0.283871,0.14194 -0.780645,-0.14194 -1.064516,0 -0.299226,0.14961 -0.392301,0.60388 -0.709676,0.70968 -0.851615,0.28387 -1.987098,-0.28387 -2.83871,0 -0.11221,0.0374 0.08364,0.2712 0,0.35484 -0.08364,0.0836 -0.271203,-0.0836 -0.35484,0 -0.384726,0.38472 -0.642221,2.26394 -0.354838,2.83871 0.319497,0.63899 4.804936,0.19203 4.967742,0.35483 0.08364,0.0836 -0.08364,0.27121 0,0.35484 0.08364,0.0836 0.236559,0 0.354838,0 0.118279,0.11828 0.262054,0.21566 0.354838,0.35484 1.686079,2.52912 1.774195,4.56539 1.774195,7.45162 0,0.70967 0.139179,1.43313 0,2.12903 -0.236558,1.18279 -0.35484,0.35484 -1.064516,1.06451 -0.08364,0.0836 0.08364,0.27121 0,0.35484 -0.08364,0.0836 -0.271203,-0.0836 -0.354838,0 -0.187018,0.18702 -0.208132,0.48962 -0.354841,0.70968 -0.257447,0.38618 -2.040908,1.02927 -2.12903,1.06452 -0.219642,0.0879 -0.498094,-0.1058 -0.709679,0 -0.149611,0.0748 -0.190815,0.32203 -0.354838,0.35483 -0.695897,0.13918 -1.455772,-0.22442 -2.129033,0 -0.317376,0.1058 -0.410451,0.56007 -0.709676,0.70968 -0.211585,0.10579 -0.603885,-0.21158 -0.709679,0 -0.615289,1.23058 0.79751,1.46327 1.419355,1.7742 0.783301,0.39165 -0.09322,0.56032 1.419354,1.06451 0.597675,0.19923 2.423496,-0.41521 2.838712,0 0.187016,0.18702 0.16782,0.52266 0.354838,0.70968 0.08364,0.0836 0.271203,-0.0836 0.354838,0 0.08364,0.0836 -0.06561,0.25642 0,0.35484 0.315447,0.47317 1.155261,0.89117 1.419355,1.41935 0.81367,1.62734 1.19616,3.23364 1.774195,4.96774 0.615117,1.84536 -0.852249,2.20032 -2.129033,2.83871 -0.794361,0.39718 -2.330844,-0.21567 -3.193547,0 -0.642239,-0.21387 -0.65994,0.57482 -1.064517,0.70968 -0.22442,0.0748 -0.47312,0 -0.709679,0 -0.354838,0 -0.727887,-0.11221 -1.064516,0 -0.11221,0.0374 0.105793,0.30194 0,0.35484 -0.351245,0.17562 -1.464064,0.0447 -1.774193,0.35484 -0.08364,0.0836 0.118279,0.35484 0,0.35484 -0.60311,0 -1.182796,-0.23656 -1.774193,-0.35484 z"
         id="path70" />
      <path
         style="fill:#ff55dd;stroke:#000000;stroke-width:0.626999;stroke-opacity:0"
         d="M 312.35103,235.21881 280.0607,173.83172"
         id="path71" />
      <path
         style="fill:#d400aa;stroke:#000000;stroke-width:0.626999;stroke-opacity:0"
         d="m 109.02844,176.67043 c -1.18279,-0.94624 -2.36559,-1.89247 -3.54838,-2.83871 -0.35484,-0.47312 -0.64634,-1.00117 -1.06452,-1.41935 -0.30155,-0.30156 -0.76296,-0.40813 -1.06452,-0.70968 -1.4455,-1.4455 -0.52276,-1.58728 -1.41935,-2.48387 -0.0836,-0.0836 -0.27121,0.0836 -0.35484,0 -0.51647,-0.51648 -0.0309,-1.45023 -0.35484,-1.7742 -0.18702,-0.18701 -0.52266,-0.16782 -0.70968,-0.35483 -1.543859,-1.54387 0.71329,-2.13264 1.41936,-2.83871 0.18702,-0.18702 0.16782,-0.52267 0.35484,-0.70968 0.34484,-0.34484 0.98316,-0.13674 1.41935,-0.35484 0.38159,-0.1908 1.24309,-0.93174 1.7742,-1.06452 1.64956,-0.41239 2.83871,-1.11801 2.83871,-3.19354 0,-0.38803 -0.25432,-1.97826 -0.35484,-2.12904 -0.14671,-0.22006 -0.56951,-0.13056 -0.70968,-0.35483 -0.47742,-0.76388 -0.62705,-1.69644 -1.06452,-2.48388 -0.79761,-1.43569 -0.48878,-0.13394 -1.41935,-1.06451 -0.80446,-0.80446 0.21166,-0.78127 -1.06452,-1.41936 -0.21158,-0.10579 -0.48526,0.0748 -0.70968,0 -0.30265,-0.10088 -3.544455,-3.18373 -3.548384,-3.19355 -0.22103,-0.55258 -0.127592,-3.03801 0,-3.54838 0.327851,-1.3114 3.404474,-6.66998 4.967744,-7.45162 0.94725,-0.47362 2.61838,-0.45219 2.83871,-1.77419 0.23592,-1.4155 0.22528,-6.22946 0,-7.80645 -0.0154,-0.10797 -2.1515,-1.96285 -2.48387,-2.12903 -0.10579,-0.0529 -0.2712,0.0836 -0.35484,0 -0.0836,-0.0836 0.0656,-0.25643 0,-0.35484 -1.64109,-2.46164 -1.79932,-2.02853 -1.06452,-4.96774 0.38015,-1.52061 1.07303,-2.5009 1.7742,-3.90323 0.10579,-0.21158 -0.1058,-0.49809 0,-0.70968 0.27173,-0.54346 0.63233,-0.27749 1.06451,-0.70967 0.18702,-0.18702 0.13478,-0.56297 0.35484,-0.70968 0.19683,-0.13122 0.47771,0.0464 0.70968,0 0.36677,-0.0734 0.71723,-0.21593 1.06452,-0.35484 0.87426,-0.3497 2.33467,-2.07259 1.77419,-3.19355 -0.64663,-1.29326 -2.31514,-0.89578 -3.19355,-1.77419 -0.0836,-0.0836 0.0984,-0.28923 0,-0.35484 -0.31121,-0.20748 -0.80003,-0.0904 -1.06452,-0.35484 -0.26448,-0.26448 -0.18756,-0.72997 -0.35483,-1.06452 -1.09001,-2.18001 -1.03243,-8.193373 0.70967,-9.935483 0.58135,-0.58134 1.29278,-1.21029 2.12904,-1.41935 1.20338,-0.30085 8.2814,-0.904365 9.22581,0.35483 0.65317,0.87091 0.42791,3.69455 0.70967,4.258073 0.14962,0.29923 0.52411,0.43132 0.70968,0.70968 0.14337,0.21506 0.27014,3.98792 0,4.25806 -0.0836,0.0836 -0.2712,-0.0836 -0.35484,0 -0.31975,0.31975 -0.49812,1.35109 -0.70968,1.77419 -0.14961,0.29923 -0.56006,0.41045 -0.70967,0.70968 -0.0529,0.10579 0.0836,0.27121 0,0.35484 -0.48768,0.48768 -1.28652,0.57684 -1.7742,1.06452 -0.18701,0.18701 -0.16782,0.52266 -0.35484,0.70967 -0.73417,0.73418 0.0287,-1.12191 -0.70967,0.35484 -0.0529,0.10579 0.10579,0.30195 0,0.35484 -0.21159,0.1058 -0.54241,-0.16727 -0.70968,0 -0.25091,0.25091 -0.11221,0.72789 0,1.06452 0.11828,0.35484 0.0904,0.80003 0.35484,1.06451 0.0836,0.0836 0.24904,-0.0529 0.35484,0 0.59845,0.29923 1.0179,0.88409 1.41935,1.41936 0.071,0.0946 0,0.23656 0,0.35484 0.23656,0.23656 0.44204,0.50895 0.70968,0.70968 0.34575,0.25931 0.84745,0.27554 1.06452,0.70967 0.0529,0.1058 -0.0836,0.27121 0,0.35484 0.18701,0.18702 0.52266,0.16782 0.70967,0.35484 0.399,0.39899 0.7486,1.30031 1.06452,1.77419 0.62636,0.93955 1.75847,1.6134 2.48387,2.48387 0.78454,0.94146 2.32495,3.23054 2.83871,4.25807 0.85644,1.71289 -1.33038,4.11013 -2.83871,4.6129 -0.58941,0.19647 -1.57223,-0.2784 -2.12903,0 -1.18372,0.59186 -1.44955,3.45783 -1.06452,4.6129 0.14011,0.42033 0.86501,0.66552 1.06452,1.06452 0.0529,0.10579 0,0.23656 0,0.35484 0.11828,0.23656 0.20813,0.48962 0.35484,0.70968 0.99803,1.49705 -0.60897,-1.92761 1.06451,1.41935 0.88037,1.76074 0.63356,0.81937 1.41936,2.12903 0.33346,0.55577 0.66299,2.43719 1.06451,2.83871 0.18702,0.18702 0.56297,0.13478 0.70968,0.35484 0.13122,0.19683 -0.10579,0.49809 0,0.70968 0.0529,0.10579 0.28387,-0.0946 0.35484,0 1.4468,1.92907 0.21971,1.01396 0.70968,2.48387 0.0529,0.15869 0.30194,0.19615 0.35483,0.35484 0.0384,0.11523 0.0537,1.66689 0,1.77419 -0.14961,0.29923 -0.50894,0.44204 -0.70967,0.70968 -0.22442,0.29923 -0.0904,0.80004 -0.35484,1.06452 -1.38484,1.38484 -0.19057,-0.0821 -1.06452,0.35483 -0.85944,0.42973 -1.38326,1.79974 -1.77419,2.48388 -0.21159,0.37027 -0.40812,0.76296 -0.70968,1.06451 -0.0836,0.0836 -0.31743,-0.11221 -0.35484,0 -0.22418,0.67257 0,2.11517 0,2.83871 0,0.15784 -0.1101,1.19915 0,1.41936 0.44058,0.88115 0.30288,-0.15293 1.06452,0.35484 0.21546,0.43091 0.30329,0.79358 0.70968,1.06451 0.17392,0.11595 3.54343,2.1216 3.54838,2.12903 0.20748,0.31122 0.13042,0.76529 0.35484,1.06452 0.70968,0.94624 0.82796,-0.35484 1.06452,1.06452 0.28648,1.71885 -0.14459,1.78083 -0.70968,3.19354 -0.0879,0.21964 0.0574,0.48019 0,0.70968 -0.13034,0.52138 -1.14061,2.77543 -1.41935,3.19355 -0.0656,0.0984 -0.27121,-0.0836 -0.35484,0 -0.26448,0.26448 -0.0203,0.89724 -0.35484,1.06452 -0.21159,0.10579 -0.48526,-0.0748 -0.70968,0 -0.30364,0.10121 -1.54712,0.83744 -1.77419,1.06451 -0.0836,0.0836 0.10579,0.30194 0,0.35484 -0.67932,0.33966 -1.80377,0.0148 -2.48387,0.35484 -0.53543,0.26771 -0.75737,0.48902 -1.41936,0.70968 -0.62583,0.20861 -1.49488,-0.15854 -2.12903,0 -0.16228,0.0406 -0.19615,0.30194 -0.35484,0.35484 -0.22442,0.0748 -0.48526,-0.0748 -0.70968,0 -0.50181,0.16727 -0.91753,0.5424 -1.41935,0.70967 -1.37387,0.45796 -3.17437,0.42197 -4.61291,0.70968 z"
         id="path72" />
      <path
         style="fill:#d400aa;stroke:#000000;stroke-width:0.626999;stroke-opacity:0"
         d="M 289.64134,252.96074 239.60908,173.83172"
         id="path73" />
      <path
         style="fill:#ff2ad4;stroke:#000000;stroke-width:0.626999;stroke-opacity:0"
         d="m 132.80264,174.89624 c -2.72357,0.17314 -8.71595,-0.0448 -10.29032,-3.19355 -0.1058,-0.21159 0.16727,-0.54241 0,-0.70968 -0.0836,-0.0836 -0.30194,0.10579 -0.35484,0 -0.20942,-0.41883 0,-1.65203 0,-2.12903 0,-0.80544 -0.24911,-2.09138 0,-2.83871 0.0649,-0.19487 1.7566,-0.35484 2.12903,-0.35484 0.27488,0 3.46486,-0.5983 3.54839,-0.70968 0.2129,-0.28387 -0.18256,-0.76024 0,-1.06451 0.21941,-0.36569 0.7315,-0.44327 1.06451,-0.70968 0.87103,-0.69682 2.38201,-3.04244 1.7742,-4.25806 -0.52348,-1.04695 -2.28895,-0.0533 -3.19355,-0.35484 -0.15869,-0.0529 -0.19615,-0.30195 -0.35484,-0.35484 -0.22442,-0.0748 -0.49809,0.10579 -0.70968,0 -0.21158,-0.1058 0.19683,-0.57846 0,-0.70968 -0.31121,-0.20748 -0.83086,-0.0628 -1.06451,-0.35484 -0.30465,-0.38081 -0.20062,-0.9567 -0.35484,-1.41935 -0.24839,-0.74517 -0.81613,-1.38387 -1.06452,-2.12904 -0.43016,-1.29047 -0.0694,-4.04999 0.35484,-5.32258 0.0529,-0.15868 0.30194,-0.19615 0.35484,-0.35483 0.11221,-0.33663 -0.25091,-0.81361 0,-1.06452 0.41819,-0.41819 2.8629,-1.66398 3.19355,-1.77419 0.53226,-0.17742 1.24193,0.17741 1.77419,0 0.11221,-0.0374 -0.0529,-0.24905 0,-0.35484 0.27173,-0.54347 0.63233,-0.27749 1.06452,-0.70968 0.18541,-0.18541 0.99533,-2.84763 1.06451,-3.19355 0.40574,-2.02868 -3.39621,-2.24053 -4.6129,-2.48387 -0.34795,-0.0696 -0.95231,0.33663 -1.06452,0 -0.11221,-0.33663 0.11221,-0.72789 0,-1.06452 -0.0374,-0.11221 -0.2712,0.0836 -0.35484,0 -0.62935,-0.62935 -0.52898,-1.76982 -1.06451,-2.48387 -0.20073,-0.26763 -0.61777,-0.388 -0.70968,-0.70967 -0.16334,-0.57169 -0.186,-4.05491 0,-4.61291 0.85675,-2.57024 -0.1023,0.55945 0.70968,-1.06451 0.0529,-0.1058 -0.0984,-0.28923 0,-0.35484 0.31121,-0.20748 0.76529,-0.13042 1.06451,-0.35484 0.21159,-0.15869 0.12805,-0.5736 0.35484,-0.70968 1.07118,-0.6427 2.65662,-0.30464 3.54839,-1.41935 0.60161,-0.75202 1.10571,-2.25262 1.41936,-3.19355 0.91856,-2.7557 -3.26667,-1.81075 -4.61291,-2.48387 -0.4895,-0.24476 -0.7696,-1.47928 -1.06451,-1.77419 -0.0836,-0.0836 -0.24905,0.0529 -0.35484,0 -1.4292,-0.7146 -1.61848,-2.50937 -1.41936,-3.90323 0.10175,-0.71224 0.0714,-1.46774 0.35484,-2.12903 0.10419,-0.2431 0.57361,-0.12805 0.70968,-0.35484 0.357,-0.595 0.18884,-1.77877 1.06451,-2.12904 0.78118,-0.31246 6.6632,-0.74904 7.45162,-0.35483 0.71012,0.35506 1.47868,0.73934 2.12903,1.06451 0.54346,0.27173 0.27749,0.63233 0.70968,1.06452 0.23656,0.11828 0.47312,0.23656 0.70967,0.35484 0,0.11828 -0.0836,0.2712 0,0.35484 0.0836,0.0836 0.30195,-0.10579 0.35484,0 0.1058,0.21158 -0.0748,0.48526 0,0.70967 0.0529,0.15869 0.23656,0.23656 0.35484,0.35484 0.11828,0.35484 0.26413,0.70165 0.35484,1.06452 0.1679,0.67161 0.27969,3.34384 0,3.90323 -0.54105,1.0821 -0.2813,-0.64899 -0.70968,1.06451 -0.0574,0.2295 0.16728,0.54241 0,0.70968 -1.17672,1.17672 -1.06451,-0.26727 -1.06451,0.70968 0,0.89275 -1.42496,2.7655 -0.35484,3.19354 0.0483,0.0193 1.96899,0.74445 2.12903,1.06452 0.24473,0.48945 -0.42973,0.31739 0.35484,0.70968 0.35484,0.11828 0.70968,0.23655 1.06452,0.35484 0.11827,0.11828 0.20522,0.28003 0.35484,0.35483 0.21158,0.1058 0.51284,-0.13122 0.70967,0 0.27836,0.18558 0.42281,0.53756 0.70968,0.70968 0.32073,0.19244 0.76529,0.13042 1.06452,0.35484 0.21158,0.15869 0.16782,0.52266 0.35484,0.70968 0.55621,0.55622 2.07667,0.65732 2.48387,1.06451 0.87166,0.12653 0.14736,0.75331 0.35483,1.06452 0.47787,0.71679 0.89118,0.55268 1.06452,1.41936 0.17275,0.86376 0.25695,3.13238 0,3.90322 -0.10579,0.31738 -0.56006,0.41045 -0.70968,0.70968 -0.0529,0.10579 0.0836,0.2712 0,0.35484 -0.0836,0.0836 -0.26247,-0.0739 -0.35484,0 -0.52247,0.41797 -0.85196,1.06473 -1.41935,1.41935 -0.84471,0.52795 -2.25599,0.39716 -3.19355,0.70968 -0.56729,0.1891 -2.75544,-0.43811 -3.19355,0 -0.0991,0.0991 -0.56938,3.11929 -0.35484,3.54839 0.33839,0.67678 0.0165,0.38773 0.35484,1.06451 0.0529,0.10579 0.24905,-0.0529 0.35484,0 1.52877,0.76439 2.52102,0.70968 4.25807,0.70968 0.35484,0 0.72788,-0.11221 1.06451,0 0.25091,0.0836 0.45034,0.30297 0.70968,0.35484 0.34795,0.0696 0.72789,-0.11221 1.06452,0 0.11221,0.0374 -0.0836,0.2712 0,0.35484 1.89247,0.94623 -0.35484,-0.35484 1.06451,1.06451 0.81455,0.81455 1.40056,0.65328 1.7742,1.7742 0.11221,0.33663 -0.0861,0.72027 0,1.06451 0.45553,1.82213 0.97446,3.10885 0.35483,4.96774 -0.0374,0.11222 0.0836,0.27121 0,0.35484 -0.67099,0.671 -2.06155,0.75366 -2.83871,1.06452 -0.1553,0.0621 -0.19615,0.30194 -0.35483,0.35484 -1.06452,0.35484 -2.48387,-0.35484 -3.54839,0 -0.50182,0.16727 -0.92823,0.51322 -1.41936,0.70967 -0.10982,0.0439 -0.2712,-0.0836 -0.35483,0 -0.0836,0.0836 0.10579,0.30195 0,0.35485 -0.31738,0.15868 -0.81361,-0.25091 -1.06452,0 -0.65539,0.65539 0.48486,1.79181 0.70968,2.12903 0.27035,0.40553 -0.46598,0.43607 0.35484,0.70967 0.88134,0.29378 2.57786,0.14099 3.19354,1.06452 0.13122,0.19683 -0.13122,0.51285 0,0.70968 0.35812,0.53717 2.4834,1.59606 2.83871,2.12903 0.27052,0.40577 0.10393,1.00117 0.35484,1.41936 0.23656,0.35483 0.47312,0.70967 0.70968,1.06451 0.11828,0 0.2712,-0.0836 0.35484,0 0.85294,0.85295 1.45813,3.43205 1.06451,4.6129 -0.12555,0.37667 -3.09075,1.97649 -3.54838,2.12904 -0.22442,0.0748 -0.49004,-0.0879 -0.70968,0 -0.87881,-0.19673 -0.89039,0.80003 -1.41935,1.06451 -0.31738,0.15869 -0.74714,-0.15869 -1.06452,0 -1.10862,0.55431 -2.36075,1.73315 -3.54839,2.12903 -0.26559,0.0885 -3.23476,0.31363 -3.54838,0 -0.0836,-0.0836 0,-0.23655 0,-0.35483 -0.47312,-0.11828 -0.94624,-0.23656 -1.41936,-0.35484 z"
         id="path74" />
      <path
         style="fill:#ff2ad4;stroke:#000000;stroke-width:0.626999;stroke-opacity:0"
         d="M 292.48005,222.08978 281.83489,191.92849"
         id="path75" />
      <path
         style="fill:#ff2ad4;stroke:#000000;stroke-width:0.626999;stroke-opacity:0"
         d="m 100.15748,180.21882 c -0.687914,-1.0471 -2.317342,-0.36355 -3.193555,-1.06452 -0.33301,-0.26641 -0.443267,-0.7315 -0.709676,-1.06451 -0.564131,-0.70517 -1.721871,-1.31472 -2.129033,-2.12904 -0.75501,-1.51002 -1.516647,-3.86889 -1.064517,-5.67742 0.415809,-1.66323 0.75106,-1.14376 2.129033,-1.41935 0.59717,-0.11943 1.177026,-0.59024 1.774193,-0.70968 0.463931,-0.0928 1.08481,0.33455 1.419357,0 0.03548,-0.0355 0.03548,-1.02903 0,-1.06451 -1.170932,-1.17094 -3.164427,-0.5817 -4.612904,-1.06452 -0.718495,-0.2395 -0.934506,-1.19237 -1.419355,-1.77419 -1.318098,-1.58172 -1.16686,-1.63078 -1.419354,-3.90323 -0.440899,-3.9681 -0.354838,0.67233 -0.354838,-2.48387 0,-0.6105 -0.419997,-3.12839 0,-3.54839 0.08363,-0.0836 0.2712,0.0836 0.354838,0 0.737639,-0.73764 0.23799,-1.53835 1.419354,-2.12903 0.723715,-0.36186 2.08162,0.25236 2.838709,0 0.281395,-0.0938 1.582114,-4.09531 1.064517,-4.6129 -0.892286,-0.89229 -4.164579,0.31765 -5.32258,-1.41936 -0.865802,-1.2987 0.0068,-1.39887 -0.354838,-2.48387 -0.0529,-0.15869 -0.301943,-0.19615 -0.354841,-0.35484 -0.28135,-0.84405 0.09626,-4.09575 0.354841,-4.6129 0.752334,-1.50467 2.85933,-1.79482 3.903225,-2.83871 0.264481,-0.26448 0.147363,-0.7533 0.354838,-1.06452 0.278358,-0.41753 0.751033,-0.67266 1.064517,-1.06451 0.330438,-0.41305 0.416261,-0.97923 0.709676,-1.41936 0.330044,-0.49506 1.613792,-1.35129 1.419355,-2.12903 -0.303432,-1.21373 -2.963945,-1.81594 -3.903226,-2.12903 -0.22442,-0.0748 -0.512847,0.13122 -0.709676,0 -1.016685,-0.67779 -2.013511,-1.66281 -2.483871,-2.83871 -0.131784,-0.32946 0,-0.70968 0,-1.06452 0,-2.50912 0.946673,-3.98266 2.483871,-6.03225 0.255876,-0.34118 0.317696,-0.89653 0.709676,-1.06452 0.112575,-0.0482 3.643786,-0.0954 3.903226,-0.35484 0.08364,-0.0836 -0.08364,-0.2712 0,-0.35484 0.08364,-0.0836 0.271203,0.0836 0.35484,0 0.167273,-0.16727 0,-0.47312 0,-0.70968 0,-3.82873 -3.281915,-2.39413 -3.903226,-4.25806 -0.07481,-0.22442 0.07481,-0.48526 0,-0.70968 -0.142102,-0.42631 -0.549026,-0.48195 -0.35484,-1.06452 0.348022,-1.04406 1.117256,-1.11725 1.774195,-1.77419 0.871665,-0.12652 0.147362,-0.7533 0.354838,-1.06451 0.308951,-0.46343 1.25852,-1.51636 1.774193,-1.7742 0.462505,-0.23125 3.012888,-0.62259 3.548388,-0.35484 0.10579,0.0529 -0.11221,0.31744 0,0.35484 0.33663,0.11221 0.74714,-0.15869 1.06452,0 0.23656,0.11828 0.16782,0.52266 0.35483,0.70968 0.16403,0.16403 0.85028,-0.10712 1.06452,0 0.38144,0.19072 0.76296,0.40812 1.06452,0.70968 0.0678,0.0678 1.05636,1.37859 1.06451,1.41935 0.3455,1.72747 0.19178,4.39241 -0.35484,6.03226 -0.32477,0.97433 -0.87289,0.9545 -1.41935,1.77419 -0.18557,0.27836 -0.56007,0.41045 -0.70968,0.70968 -0.0726,0.14517 -0.0994,1.6748 0,1.7742 1.43485,1.43484 2.76646,1.31258 4.61291,1.77419 2.09966,0.52491 5.3544,1.83784 6.3871,3.90322 0.10579,0.21159 -0.1058,0.4981 0,0.70968 0.0748,0.14961 0.30194,0.19615 0.35483,0.35484 0.60533,1.81597 -1.9428,3.84786 -2.83871,4.96774 -0.12253,0.15316 -0.57888,1.35396 -0.70968,1.41936 -0.21158,0.10579 -0.48525,-0.0748 -0.70967,0 -0.29695,0.099 -1.27651,1.55991 -1.41936,1.77419 -0.25672,0.38509 0.14759,1.33143 0,1.77419 -0.01,0.03 -0.7388,0.87254 -0.35484,1.06452 0.65002,0.32501 1.81181,-0.26883 2.48387,0 0.31062,0.12425 0.41046,0.56006 0.70968,0.70968 0.5283,0.26414 1.17528,0.11076 1.7742,0.70967 0.73417,0.73418 -1.12192,-0.0287 0.35484,0.70968 0.43108,0.21554 1.12779,0.12655 1.41935,0.70968 0.15869,0.31738 -0.11221,0.72789 0,1.06452 0.0529,0.15868 0.28003,0.20522 0.35484,0.35483 0.15869,0.31738 -0.11221,0.72789 0,1.06452 0.43848,1.31543 0.35484,-0.43253 0.35484,0.70968 0,0.4924 0.23145,1.66613 0,2.12903 -0.0748,0.14961 -0.30194,0.19615 -0.35484,0.35484 -0.14961,0.44884 0.14961,0.97051 0,1.41935 -0.22844,0.68533 -0.60288,0.12402 -1.06452,0.35484 -0.10579,0.0529 0.0984,0.28923 0,0.35484 -0.31121,0.20748 -0.7533,0.14736 -1.06451,0.35484 -0.0984,0.0656 0.0984,0.28923 0,0.35484 -0.9396,0.6264 -1.89911,0.0833 -2.83872,0.70968 -0.0984,0.0656 0.1058,0.30194 0,0.35483 -0.57205,0.28603 -1.04845,-0.38695 -1.41935,0.35484 -0.0298,0.0596 -0.66654,1.81734 -0.35484,2.12903 0.79228,0.79229 3.00443,1.40376 3.54839,2.12904 0.14194,0.18924 -0.13122,0.51284 0,0.70967 0.022,0.99914 0.80004,0.0904 1.06452,0.35484 0.0836,0.0836 -0.0529,0.24905 0,0.35484 0.29405,0.5881 1.0172,0.66236 1.41935,1.06452 0.43691,0.4369 0.70968,4.48376 0.70968,5.32258 0,0.86146 0.3274,2.5113 -0.35484,3.19355 -0.30155,0.30155 -0.7315,0.44327 -1.06451,0.70968 -0.26124,0.20898 -0.41045,0.56006 -0.70968,0.70967 -0.53944,0.26972 -1.34773,-0.0716 -1.7742,0.35484 -0.18701,0.18702 -0.16782,0.52266 -0.35484,0.70968 -0.24195,0.24195 -1.85464,0.16089 -2.12903,0.70968 -0.10471,0.20941 0,0.82601 0,1.06451 0,1.97196 1.22243,0.8676 2.12903,1.7742 0.47312,0.47311 -0.75272,0.34049 0.35484,0.70967 0.22442,0.0748 0.4981,-0.10579 0.70968,0 0.10579,0.0529 -0.0656,0.25643 0,0.35484 0.27836,0.41754 0.8401,0.61568 1.06452,1.06452 0.10579,0.21158 -0.10579,0.49809 0,0.70967 -0.13263,0.77302 0.5914,0.11828 0.70968,0.35484 0.28032,0.56066 0,1.84026 0,2.48387 0,0.60085 0.3952,2.79835 0,3.19355 -0.0836,0.0836 -0.23656,0 -0.35484,0 -0.23656,0.11828 -0.52267,0.16782 -0.70968,0.35484 -0.18702,0.18702 -0.11828,0.5914 -0.35484,0.70968 -0.11828,0.0591 -1.49821,-0.0394 -1.7742,0 -3.05171,0.43596 -0.6372,0.1593 -2.83871,0.70968 -1.21076,0.30269 -2.72476,-0.39282 -3.90322,0 -1.70009,0.56669 -2.95256,0.47533 -4.6129,-0.35484 z"
         id="path76" />
      <path
         style="fill:#d400aa;stroke:#000000;stroke-width:0.626999;stroke-opacity:0"
         d="M 235.35102,246.92849 254.86715,190.1543"
         id="path77" />
      <path
         style="fill:#d400aa;stroke:#000000;stroke-width:0.626999;stroke-opacity:0"
         d="m 157.64135,172.41237 c -3.25503,-1.82771 -6.3871,-5.92369 -6.3871,-9.93549 0,-0.35484 -0.25091,-0.81361 0,-1.06451 0.77999,-0.78 1.66063,-0.6529 2.48387,-1.06452 0.1058,-0.0529 0.27121,0.0836 0.35484,0 0.0836,-0.0836 -0.0836,-0.2712 0,-0.35484 0.16728,-0.16727 0.57846,0.19683 0.70968,0 0.20747,-0.31121 0.18756,-0.72997 0.35484,-1.06451 0.24114,-0.48229 0.82337,-0.93708 1.06451,-1.41936 0.43608,-0.87215 0,-2.95803 0,-3.90323 0,-0.23656 0.16728,-0.5424 0,-0.70967 -0.27731,-0.27732 -1.06815,-0.23777 -1.41935,-0.35484 -0.4076,-0.13587 -0.49231,-0.84715 -0.70968,-1.06452 -0.0836,-0.0836 -0.24904,0.0529 -0.35484,0 -0.6774,-0.3387 -0.99924,-1.14403 -1.41935,-1.77419 -0.29342,-0.44012 -0.33565,-1.04532 -0.70968,-1.41936 -0.0836,-0.0836 -0.23656,0 -0.35484,0 -0.11828,-0.35483 -0.12118,-0.77244 -0.35484,-1.06451 -0.26641,-0.33301 -0.80864,-0.36851 -1.06451,-0.70968 -0.14194,-0.18925 0,-0.47312 0,-0.70968 0,-0.84768 -0.28635,-2.68934 0,-3.54838 0.10579,-0.31738 0.56006,-0.41045 0.70967,-0.70968 0.0529,-0.10579 -0.0656,-0.25643 0,-0.35484 0.87339,-1.31008 1.78753,-0.72301 2.83871,-1.77419 0.0836,-0.0836 -0.0836,-0.27121 0,-0.35484 0.47312,-0.47312 0.34049,0.75273 0.70968,-0.35484 0.52211,-1.56633 -0.90565,0.19597 0.70968,-1.41936 0.11828,-0.11828 0.23656,-0.23655 0.35484,-0.35483 0.11828,0 0.2712,0.0836 0.35484,0 0.23786,-0.23787 0.7392,-2.80919 0.35484,-3.19355 -0.18702,-0.18702 -0.52267,-0.16782 -0.70968,-0.35484 -0.86184,-0.86183 0.10552,-0.52105 -0.70968,-1.06452 -0.65979,-0.43986 -2.10465,-0.66091 -2.48387,-1.41935 -0.1844,-0.3688 -0.96856,-1.74521 -1.06452,-2.12903 -0.13864,-0.55459 -0.19381,-4.48322 0,-4.96775 0.15839,-0.39596 0.5513,-0.66855 0.70968,-1.06451 0.0879,-0.21964 -0.14193,-0.52043 0,-0.70968 0.57759,-0.77012 4.53419,-2.56258 5.32258,-1.77419 0.0836,0.0836 -0.0836,0.2712 0,0.35484 0.0319,0.0319 1.04661,0.0269 1.06452,0 0.20747,-0.31122 0.28148,-0.69775 0.35484,-1.06452 0.109,-0.54503 0.1824,-2.48055 -0.35484,-2.83871 -0.19683,-0.13122 -0.51285,0.13122 -0.70968,0 -0.22006,-0.14671 -0.13478,-0.56297 -0.35484,-0.70968 -0.19683,-0.13122 -0.48526,0.0748 -0.70968,0 -1.10756,-0.36919 0.11828,-0.23656 -0.35483,-0.70967 -0.18702,-0.18702 -0.55099,-0.14326 -0.70968,-0.35484 -0.31738,-0.42317 -0.47312,-0.94624 -0.70968,-1.41936 -0.1132,-0.2264 -0.23693,-6.62291 0,-7.09677 0.0536,-0.10714 1.95395,-0.35484 2.12903,-0.35484 1.77307,0 6.23235,-0.44974 7.80645,0 0.50861,0.14532 0.91754,0.5424 1.41936,0.70968 0.22442,0.0748 0.48526,-0.0748 0.70968,0 0.15869,0.0529 0.19256,0.31426 0.35483,0.35483 0.459,0.11475 1.08481,-0.33454 1.41936,0 0.0654,0.0654 0.28946,0.99914 0.35484,1.06452 0.0836,0.0836 0.2712,-0.0836 0.35484,0 0.89939,0.8994 0.46211,3.79596 -0.35484,4.6129 -0.31517,0.31518 -1.34726,0.49528 -1.7742,1.06452 -0.25587,0.34117 -0.51895,0.68308 -0.70967,1.06452 -0.0529,0.10579 0.0836,0.2712 0,0.35484 -0.37596,0.37596 -1.74084,0.32148 -2.12903,0.70967 -0.66148,0.66148 0.32841,2.55277 0.70967,2.83871 0.41608,0.31206 1.88208,0.10788 2.12903,0.35484 0.18702,0.18702 0.14326,0.55099 0.35485,0.70968 0.71645,0.53734 1.8178,0.62047 2.48386,1.06451 1.51118,1.00745 1.99911,3.49843 2.83872,4.96775 0.16598,0.29046 0.56006,0.41045 0.70967,0.70967 0.26448,0.52897 -0.14343,1.20046 0,1.7742 0.0406,0.16228 0.26206,0.21566 0.35484,0.35484 0.11828,0.23655 0.23656,0.47311 0.35484,0.70967 0,0.11828 -0.0529,0.24905 0,0.35484 0.61829,1.23657 0.5288,0.8182 -1.06452,1.7742 -0.77293,0.46375 0.16014,0.40351 -1.06451,0.70967 -1.07394,0.26849 -3.22586,-0.5161 -4.25807,0 -0.39332,0.19667 -0.49579,4.47195 -0.35483,4.61291 0.0363,0.0363 1.35325,0.31076 1.41935,0.35483 0.56648,0.37766 0.62994,0.98478 1.06451,1.41936 0.73391,0.73391 0.94723,0.43501 1.41936,1.06452 0.81091,1.08122 0.63891,2.15295 1.41936,3.19354 0.15868,0.21159 0.52266,0.16783 0.70967,0.35484 0.0533,0.0533 0.54709,2.58238 0.35484,2.83871 -1.9228,2.56374 -0.4273,0.21365 -1.41936,0.70968 -0.29922,0.14961 -0.41045,0.56006 -0.70967,0.70968 -0.2982,0.1491 -1.21313,0.14861 -1.41936,0.35484 -0.0836,0.0836 0.0836,0.2712 0,0.35483 -0.18701,0.18702 -0.52266,0.16783 -0.70967,0.35484 -0.18702,0.18702 -0.16783,0.52266 -0.35484,0.70968 -0.18702,0.18702 -0.52266,0.16782 -0.70968,0.35484 -0.0836,0.0836 0.0656,0.25642 0,0.35484 -1.02288,1.53432 -0.70968,0.87101 -0.70968,2.83871 0,0.17392 -0.18991,2.10405 0,2.48387 0.23763,0.47525 0.84652,0.49167 1.06452,0.70967 0.25091,0.25091 -0.15869,0.74715 0,1.06452 0.0419,0.0837 2.06853,0.66934 2.12903,0.70968 0.0984,0.0656 -0.0836,0.2712 0,0.35484 0.18702,0.18701 0.52266,0.16782 0.70968,0.35484 0.20566,0.20566 0.50401,1.21369 0.70967,1.41935 0.0836,0.0836 0.23656,0 0.35485,0 0.23655,0.23656 0.56006,0.41045 0.70967,0.70968 0.35484,0.70968 -0.17742,0.53226 0,1.06452 0.0836,0.2509 0.29069,0.45309 0.35484,0.70967 0.0493,0.19703 0.04,3.8632 0,3.90323 -0.18702,0.18702 -0.52266,0.16782 -0.70968,0.35484 -0.44913,0.44913 -0.62353,2.04288 -1.06451,2.48387 -0.0836,0.0836 -0.24905,-0.0529 -0.35484,0 -0.80607,0.40303 -1.28137,1.84647 -2.12903,2.12903 -0.85728,0.28576 -1.95395,0.41476 -2.83871,0.70968 -0.73194,0.24398 -1.38172,0.87768 -2.12904,1.06451 -2.14262,0.53566 -4.73482,-0.30825 -6.74193,-0.70967 z"
         id="path78" />
      <path
         style="fill:#d400aa;stroke:#000000;stroke-width:0.626999;stroke-opacity:0"
         d="m 245.99619,196.89624 2.12903,-18.80645 M 65.383282,152.5414 290.70587,168.1543"
         id="path79" />
    </g>
  </g>
</svg>
