<?xml version="1.0" encoding="UTF-8" standalone="no"?>
<!-- Created with Inkscape (http://www.inkscape.org/) -->

<svg
   width="210mm"
   height="297mm"
   viewBox="0 0 210 297"
   version="1.1"
   id="svg1"
   sodipodi:docname="aliens.bells.svg"
   inkscape:version="1.3.2 (091e20e, 2023-11-25, custom)"
   xmlns:inkscape="http://www.inkscape.org/namespaces/inkscape"
   xmlns:sodipodi="http://sodipodi.sourceforge.net/DTD/sodipodi-0.dtd"
   xmlns="http://www.w3.org/2000/svg"
   xmlns:svg="http://www.w3.org/2000/svg">
  <sodipodi:namedview
     id="namedview1"
     pagecolor="#ffffff"
     bordercolor="#000000"
     borderopacity="0.25"
     inkscape:showpageshadow="2"
     inkscape:pageopacity="0.0"
     inkscape:pagecheckerboard="0"
     inkscape:deskcolor="#d1d1d1"
     inkscape:document-units="mm"
     inkscape:zoom="0.74564394"
     inkscape:cx="392.94895"
     inkscape:cy="563.94209"
     inkscape:window-width="1920"
     inkscape:window-height="1051"
     inkscape:window-x="-9"
     inkscape:window-y="-9"
     inkscape:window-maximized="1"
     inkscape:current-layer="g38" />
  <defs
     id="defs1" />
  <g
     inkscape:groupmode="layer"
     id="layer1"
     inkscape:label="Layer 1">
    <g
       id="g38"
       transform="translate(1.6812338,11.748925)">
      <path
         style="fill:#abc837;stroke:#000000;stroke-width:0.626999;stroke-opacity:0"
         d="m 8.2542499,209.67043 c -0.3823557,-6.14897 -0.8576942,-12.34162 -1.7741934,-18.45162 0.4822658,-1.93561 -1.0816082,-3.279 -1.4193549,-4.96774 -1.1114249,-5.55712 0.054701,-1.58202 -0.3548388,-5.67742 -0.048526,-0.48526 -0.3174354,-0.93311 -0.3548385,-1.41935 -0.1266288,-1.64617 0.1266285,-3.32157 0,-4.96774 -0.3099287,-4.02908 -0.3590557,-8.03237 -0.7096776,-12.06452 -0.6096172,-7.0106 -1.7093861,-14.19675 -1.0645161,-21.29032 0.17062,-1.87682 0.6160812,-3.8055 0.7096776,-5.67742 0.088599,-1.77198 -0.08439,-3.5504 0,-5.32258 0.045358,-0.95252 0.1235564,-1.91358 0.3548385,-2.83871 0.064146,-0.25659 0.3220339,-0.44724 0.3548388,-0.70968 0.2200616,-1.76049 -0.077066,-3.55006 0,-5.32258 0.1502746,-3.45632 0.4454567,-6.85545 0.7096773,-10.29032 0.2060364,-2.67847 0,-5.47735 0,-8.16129 0,-6.168784 -0.3548385,-12.284615 -0.3548385,-18.451616 0,-0.782134 -0.3677285,-6.361316 0,-7.096773 0.3084354,-0.616871 0.8288218,-1.126035 1.0645161,-1.774192 0.1863556,-0.51248 0.402749,-3.289372 0.7096773,-3.903226 1.4882426,-2.976486 3.4023609,-5.472983 5.3225803,-8.16129 0.954852,-1.336794 1.413514,-2.827028 2.129032,-4.258067 0.0529,-0.105791 -0.09841,-0.289229 0,-0.354838 1.094089,-0.729392 3.658189,-0.709676 4.967742,-0.709676 0.77242,0 3.988854,-0.367083 4.967742,0 0.742924,0.278596 1.403975,0.742268 2.129033,1.064514 2.486092,1.104932 7.202424,1.880574 9.935483,2.129034 5.310124,0.482737 11.071518,-0.04595 16.322582,-0.354838 3.895804,-0.229167 8.177927,-0.277614 12.064516,0 1.712103,0.122293 3.273253,0.460742 4.96774,0.354838 5.258601,-0.328663 10.686348,-0.665509 15.967741,-0.354838 8.754118,0.514948 -0.542779,-0.108556 7.096776,1.419354 0.695896,0.139179 1.423694,-0.07837 2.12903,0 0.371748,0.0413 0.694243,0.301943 1.064517,0.354838 0.695484,0.09935 1.43355,-0.09935 2.129033,0 2.843665,0.406236 5.606525,1.073378 8.516125,0.709679 1.79536,-0.22442 3.59724,-0.519671 5.32258,-1.064517 1.57098,-0.496096 3.03136,-1.31291 4.61291,-1.774195 3.18037,-0.927605 6.39131,-0.586116 9.58064,-1.064514 2.22964,-0.334447 4.99365,-1.371764 7.45162,-1.064517 12.11026,1.513782 -2.72513,-0.07544 6.74193,1.419355 1.70823,1.092054 3.56232,0.103373 5.32258,0.354838 0.37028,0.05289 0.69337,0.308446 1.06452,0.354838 0.58683,0.07336 1.21314,-0.187015 1.77419,0 0.25091,0.08364 0.0997,0.640088 0.35484,0.709679 1.14681,0.312766 2.37164,0.186732 3.54839,0.354838 2.36927,0.338468 3.85462,0.211039 6.38709,0 0.58936,-0.04911 1.19234,0.105793 1.7742,0 2.22651,-0.404821 4.48009,-1.676662 6.74193,-2.129031 1.1247,-0.224941 2.41335,0.113504 3.54839,0 0.75355,-0.07536 3.22742,-0.297423 4.25806,-0.709679 0.7367,-0.294677 1.36906,-0.836522 2.12904,-1.064516 2.69708,0 0.42976,0.211584 2.12903,-0.354838 1.73367,-0.57789 4.85475,0.314531 6.74193,0 4.12819,-0.688031 6.38267,-0.426694 10.29033,0.354838 0.23196,0.04639 0.49809,-0.105791 0.70967,0 0.29923,0.149614 0.43132,0.524105 0.70968,0.709678 0.21291,0.141936 0.8871,-0.177419 1.06452,0 0.57276,0.572757 0.27528,2.202268 0.35484,2.83871 0.0464,0.371144 0.30194,0.694242 0.35484,1.064516 0.61324,4.292695 -0.47918,8.816475 0,13.129033 0.36296,3.266656 0.33601,0.260701 1.06451,3.903225 0.2851,1.425496 -0.0465,4.51462 0,5.677419 0.0758,1.894649 0.20363,3.787293 0.35484,5.677418 0.24417,3.052078 0.56091,6.204175 1.06451,9.225807 0.0802,0.481042 0.3201,0.932912 0.35485,1.419352 0.41438,5.80143 0.24171,11.62747 1.06451,17.3871 0.66236,4.63656 -0.66236,9.55699 0,14.19355 0.0901,0.63055 0.59573,1.14751 0.70968,1.77419 0.27506,1.51283 -0.0768,3.07719 0,4.6129 0.42741,8.54824 0.35484,1.235 0.35484,7.45162 0,2.18278 -0.43398,4.9269 0,7.09677 0.39248,1.96242 0.54102,2.96135 0.70967,5.32258 0.23714,3.31995 -0.61117,6.6031 -0.35483,9.93549 0.12732,1.65524 0.12006,3.32429 0.35483,4.96774 0.0529,0.37027 0.30845,0.69337 0.35484,1.06451 0.11439,0.91512 -0.23697,2.24565 0,3.19355 0.0907,0.36287 0.30194,0.69424 0.35484,1.06452 0.19189,1.34321 0,2.89962 0,4.25806 0,2.95699 0,5.91398 0,8.87097 0,2.65849 0.0176,5.19946 -0.35484,7.80645 -0.16233,1.13636 0.008,1.74964 -0.35484,2.83871 -0.10645,0.31936 0.10646,0.74516 0,1.06452 -0.21828,0.65484 -2.24408,1.5344 -2.48387,1.77419 -0.0836,0.0836 0.0836,0.2712 0,0.35484 -0.10004,0.10005 -1.38762,-0.006 -1.41935,0 -1.06931,0.21386 -2.12646,0.48503 -3.19355,0.70968 -2.48278,0.52269 -4.6116,1.22818 -7.09677,1.41935 -2.14388,0.16492 -4.2529,0.11771 -6.3871,0.35484 -1.91566,0.21285 -4.16601,0.64979 -6.03226,1.06452 -1.60188,0.35597 -3.42692,1.38898 -4.96774,1.77419 -1.28292,0.32073 -2.62629,0.36589 -3.90323,0.70968 -10.67662,2.87447 -1.19639,0.69566 -8.16129,2.83871 -2.13364,0.6565 -2.06288,0.17269 -4.6129,0.35484 -0.71764,0.0513 -1.41314,0.28324 -2.12903,0.35484 -2.35385,0.23538 -4.73386,-0.11252 -7.09678,0 -2.57848,0.12278 -5.22409,0.77758 -7.80645,1.06451 -2.56863,0.28541 -5.24272,-0.32047 -7.80645,0 -2.71507,0.33939 -5.40745,0.52695 -8.16129,0.35484 -3.15023,-0.19689 -2.28673,-0.51517 -5.67742,-1.41935 -0.69517,-0.18539 -1.44648,-0.12733 -2.12903,-0.35484 -0.75273,-0.25091 -1.35928,-0.87208 -2.12903,-1.06452 -0.68849,-0.17212 -1.4237,0.0784 -2.12904,0 -0.85582,-0.0951 -1.62943,-0.60287 -2.48387,-0.70968 -1.24454,-0.15557 -1.9863,-0.11339 -3.19354,-0.35484 -0.9665,-0.1933 -2.25609,0.0937 -3.19355,0 -0.60012,-0.06 -1.17356,-0.30023 -1.7742,-0.35483 -1.06014,-0.0964 -2.135539,0.11755 -3.193545,0 -1.68367,-0.18708 -3.010855,-0.74411 -4.612904,-1.06452 -0.579911,-0.11598 -1.182796,0 -1.774193,0 -3.525141,0 -2.23698,0.20441 -5.677418,1.06452 -6.51087,1.62771 4.285099,-1.80482 -6.032259,1.41935 -3.122679,0.97584 -0.392645,0.67797 -4.258064,1.06452 -3.805389,0.38053 -7.543382,0.35484 -11.35484,0.35484 -1.485138,0 -3.130015,-0.16477 -4.612902,0 -1.369703,-0.59567 -2.354291,0.53909 -3.548388,0.70967 -0.918136,0.13117 -1.908778,-0.0664 -2.838709,0 -2.807785,0.20056 -5.716841,0.12157 -8.516128,0.35484 -0.601027,0.0501 -1.174774,0.28824 -1.774195,0.35484 -3.389691,0.37663 -6.892798,-0.30887 -10.290323,0 -0.600631,0.0546 -1.177145,0.26955 -1.774193,0.35484 -2.371,0.33871 -5.06513,0 -7.451612,0 -2.183335,0 -3.898181,-0.53184 -6.032258,-0.70968 -1.816032,-0.15133 -3.566337,-0.12426 -5.322581,-0.70968 -0.913178,-0.30439 -1.6202647,-0.98755 -2.4838708,-1.41935 -0.2150536,-0.10753 -0.9158231,-0.20615 -1.0645161,-0.35484 -0.5898986,-0.5899 0.3548388,-4.0397 0.3548388,-4.6129 0,-0.83637 -0.2365592,-1.65592 -0.3548388,-2.48388"
         id="path56" />
      <path
         style="fill:#e5ff80;stroke:#000000;stroke-width:0.626999;stroke-opacity:0"
         d="m 14.641347,207.89623 c -0.749221,-4.94645 -1.541911,-9.90982 -0.709678,-14.90322 0.09915,-0.59491 0.319423,-1.17213 0.354839,-1.7742 0.08335,-1.4169 0,-2.83871 0,-4.25806 0.11828,-2.01075 0.200354,-4.02396 0.354839,-6.03226 0.160169,-2.0822 0.885636,-4.97358 0.354838,-7.09677 -1.164661,-4.65865 -2.048122,-9.45003 -2.838709,-14.19355 -0.313542,-1.88125 -0.185729,-3.8436 -0.709678,-5.67742 -0.217975,-0.76292 -0.785919,-1.38611 -1.064516,-2.12903 -0.9092574,-2.42469 -0.149579,-7.39593 -1.064516,-9.22581 -0.2644812,-0.52896 0,-1.18279 0,-1.77419 0,-2.01075 0,-4.02151 0,-6.03226 0,-2.71885 0.1467612,-5.45628 0.3548388,-8.16129 0.1855655,-2.41235 0.5336722,-2.11206 0.3548392,-4.25807 -0.4937005,-5.92439 -1.1828636,-11.82862 -1.7741941,-17.74193 -0.4559297,-4.5593 -0.03134,-9.747445 0.7096773,-14.193549 0.7638034,-4.582818 -0.071243,2.698981 0.7096776,-3.548385 0.246988,-1.975905 -0.2857783,-4.110408 0.3548392,-6.032259 0.344994,-1.034984 4.86369,-3.144001 4.967741,-3.193547 1.746965,-0.83189 6.586426,-2.764727 8.516129,-3.19355 1.544103,-0.343133 6.593239,-0.112004 8.16129,0 2.457474,0.175535 5.740241,1.77659 8.16129,1.064517 1.686904,-0.496147 3.251263,-1.392754 4.967742,-1.774193 1.505453,-0.334547 3.074646,-0.244965 4.612905,-0.354841 4.352954,-0.310925 5.986108,-0.498311 10.29032,-0.354838 10.259134,0.341972 1.07101,0.0657 12.419356,2.129034 3.990232,0.725495 8.067194,0.346284 12.064516,0.709676 2.016305,0.1833 4.017685,0.508219 6.032257,0.709678 2.770475,0.277048 -0.479375,-0.01029 1.774195,-0.709678 3.15088,-0.977861 6.342168,-1.854166 9.580645,-2.483872 2.32952,-0.452961 8.1151,0 10.64516,0 3.91807,0 7.81523,7.94e-4 11.70968,0.354841 0.60063,0.0546 1.17317,0.304752 1.77419,0.354838 2.00779,0.167314 4.78194,-0.559999 6.74194,0 0.50861,0.145317 0.89892,0.615053 1.41935,0.709676 0.8146,0.148111 1.66605,-0.12913 2.48387,0 4.47606,0.706747 3.05098,1.085744 6.3871,1.419357 1.18671,0.118668 9.70331,0.282554 10.64516,0 1.09343,-0.32803 4.12956,-4.321029 5.67742,-5.322583 5.00147,-3.236243 5.13707,-2.689511 10.29032,-3.548385 1.30341,-0.217234 2.61644,-0.742821 3.90323,-1.064517 1.22723,-0.306808 2.66031,0.248584 3.90322,0 1.11647,-0.223292 2.7016,-0.655246 3.90323,-0.354838 1.02858,0.257146 1.93812,1.58868 2.83871,2.129031 0.0691,0.04145 1.40216,0.337645 1.41935,0.35484 0.16728,0.167273 -0.065,0.482219 0,0.709676 0.84219,2.947657 1.23915,4.951019 1.7742,8.16129 0.75375,4.52252 2.02941,8.014322 3.54838,12.419356 2.66268,7.721767 6.64028,14.953075 9.22581,22.709675 0.60716,1.82146 -0.93177,3.69729 -1.41935,5.32258 -0.40147,1.33822 -0.88699,3.54754 -1.06452,4.96775 -0.38213,3.05699 -0.25608,7.03821 0.70968,9.93548 0.16727,0.50182 0.5424,0.91754 0.70968,1.41935 0.73969,2.2191 0.60486,5.15335 1.06451,7.45162 0.10275,0.51373 0.60693,1.26045 0.70968,1.77419 0.13918,0.6959 0,1.41935 0,2.12903 0,4.69917 -1.08628,9.17561 -1.41936,13.83871 -0.22618,3.16654 0,6.40296 0,9.58065 0,1.2792 -0.34371,6.76418 0,7.45161 0.0748,0.14961 0.32204,0.19081 0.35484,0.35484 0.27212,1.36057 -0.17255,2.87768 0,4.25806 0.14392,1.15138 0.88188,4.00498 0.35484,5.32258 -0.34168,0.85421 -1.6223,1.4206 -1.77419,2.48387 -0.23478,1.64345 -0.18965,3.31585 -0.35484,4.96774 -0.0357,0.35735 0.23653,1.97135 0,2.12904 -2.90467,1.93644 -6.65754,2.01922 -9.93549,2.83871 -0.72573,0.18143 -1.39549,0.56297 -2.12903,0.70968 -4.25006,0.85001 -8.80005,1.14879 -13.12903,1.41935 -2.58153,0.16135 -3.77049,-0.34958 -6.74193,0 -0.52534,0.0618 -0.91271,0.55768 -1.41936,0.70968 -11.71213,3.51364 -0.53689,-0.13191 -9.58065,2.12903 -4.88206,1.22051 -3.39725,1.5039 -7.45161,1.77419 -4.95087,0.33006 -9.96955,-0.0807 -14.90322,-0.35484 -3.66405,-0.20356 -1.40135,0.33715 -5.32258,-0.35483 -1.07389,-0.18951 -2.11676,-0.5374 -3.19355,-0.70968 -2.33063,-0.3729 -8.59473,-0.98204 -11,-1.41936 -0.8472,-0.15403 -1.68437,-0.38987 -2.48387,-0.70968 -0.39596,-0.15838 -0.64386,-0.63956 -1.06452,-0.70967 -0.36894,-0.0615 -0.713,0.22701 -1.06452,0.35484 -0.94973,0.34536 -1.88574,0.72817 -2.8387,1.06451 -3.63572,1.2832 -6.741485,3.15802 -10.645166,3.54839 -12.856501,1.28565 -1.529593,0 -10.999999,0 -6.148186,0 -12.026135,0.62753 -18.096775,1.41936 -1.974741,0.25757 -4.127553,0.42961 -6.032259,1.06451 -3.279103,1.09304 -2.121918,1.14104 -5.32258,1.41936 -5.322454,0.46282 -10.633266,0.35483 -15.967742,0.35483 -2.841879,0 -5.75955,0.19648 -8.516128,-0.35483 -0.695896,-0.13918 -1.429012,0.11666 -2.129033,0 -0.260882,-0.0435 -0.448794,-0.31136 -0.709676,-0.35484 -2.139953,-0.35666 -4.639946,0.5255 -6.741936,0 -1.63094,-0.40774 -0.08051,-0.35484 -1.064516,-0.35484 -0.605701,0 -2.73152,0.30802 -3.193549,0 -0.556716,-0.37115 -0.946236,-0.94624 -1.419354,-1.41936 z"
         id="path57" />
      <path
         style="fill:#afe9c6;stroke:#000000;stroke-width:0.626999;stroke-opacity:0"
         d="m 78.631003,169.91614 c -2.239386,-0.56146 -3.764696,-2.01649 -5.677419,-3.19355 -0.675743,-0.41584 -1.461606,-0.63545 -2.129033,-1.06451 -0.994942,-0.63961 -1.817034,-1.53306 -2.838709,-2.12904 -0.421246,-0.24572 -1.001173,-0.10393 -1.419355,-0.35483 -0.792147,-0.47529 -1.331079,-1.30873 -2.129033,-1.7742 -0.845222,-0.49305 -6.9498,-2.71203 -7.451612,-3.54839 -0.182562,-0.30427 0.06959,-0.71656 0,-1.06451 -0.35484,-1.41936 -0.709678,-2.83871 -1.064516,-4.25807 0,-0.35484 0.04401,-0.71242 0,-1.06451 -0.128217,-1.02574 -0.627885,-2.4562 -0.354838,-3.54839 0.02869,-0.11475 0.2712,0.0836 0.354838,0 0.08364,-0.0836 -0.06561,-0.25642 0,-0.35484 0.829101,-1.24365 2.596475,-1.9994 3.193547,-3.19355 0.264483,-0.52896 1.049912,-0.60271 1.419355,-1.06451 0.233659,-0.29207 0.130421,-0.76529 0.35484,-1.06452 0.234834,-0.31311 1.467792,-1.11295 1.774193,-1.41935 1.281721,-1.28173 1.578732,-4.12575 2.483871,-5.67742 1.494179,-2.56145 3.056726,-3.69454 3.903226,-6.74194 0.820201,-2.95272 0.66485,-3.81105 1.064517,-6.74193 0.210198,-1.54146 0.489664,-3.07282 0.709676,-4.61291 0.562033,-3.93423 -0.283782,-8.09157 0,-12.06451 0.285223,-3.99313 0.160099,-0.37731 1.419354,-3.90323 1.154581,-3.232837 1.043985,-6.68035 2.129034,-9.935495 0.404209,-1.212625 0.610729,-2.483871 2.12903,-2.483871 0.118282,0 0.271203,-0.08364 0.354841,0 2.610641,2.610643 0.723818,6.42952 1.774193,9.580647 1.223824,3.671479 2.48418,7.455039 2.838709,11.354849 0.05354,0.58897 -0.08364,1.18874 0,1.77419 0.10501,0.73507 0.730075,2.16983 1.064516,2.83871 0.295699,0.5914 0.827958,0.23656 1.064517,1.06452 0.16247,0.56864 -0.187018,1.21314 0,1.77419 0.08364,0.25091 0.591397,0.11828 0.709676,0.35484 0.321757,0.64351 -0.04425,1.5304 0.354841,2.12903 2.331405,3.49711 -1.158793,-2.73756 1.419354,1.7742 1.504998,2.63374 -0.101457,0.15192 1.419355,3.19354 0.39333,0.78666 1.278475,2.5326 1.774193,3.19355 0.07097,0.0946 0.271203,-0.0836 0.354838,0 0.301556,0.30156 0.47312,0.70968 0.709678,1.06452 0.293415,0.44012 0.335645,1.04532 0.709676,1.41936 0.535535,0.53553 1.168308,0.96493 1.774195,1.41935 0.211585,0.15869 0.473118,0.23656 0.709676,0.35484 1.655916,1.06451 3.404,1.99774 4.967743,3.19355 0.469781,0.35924 0.591399,1.06451 1.064517,1.41935 0.509563,0.38217 1.217393,0.40035 1.774193,0.70968 3.20928,1.78292 0.14006,0.35349 2.12905,1.77419 2.11482,1.51058 4.50621,2.9805 6.74197,4.25807 0.027,0.0154 2.41445,0.78682 2.48388,1.06451 0.58661,2.34644 -0.43405,5.06438 0,7.45162 0.0946,0.52043 0.58138,0.90618 0.70967,1.41935 0.29762,1.19045 -0.19202,1.699 -0.35484,2.83871 -0.1195,0.8365 0.26907,2.03149 0,2.83871 -0.29367,0.88102 -0.87549,1.53874 -1.06451,2.48387 -0.0696,0.34795 0.2129,0.78065 0,1.06452 -0.30109,0.40145 -0.76343,0.66306 -1.06452,1.06451 -0.88772,1.18363 -1.67806,2.90839 -2.83872,3.90323 -0.40162,0.34424 -0.96578,0.43753 -1.41936,0.70968 -0.28687,0.17212 -0.41046,0.56006 -0.70968,0.70967 -1.30789,0.65394 -2.77233,1.3497 -4.25809,1.7742 -0.46892,0.13397 -0.98317,0.13674 -1.41937,0.35484 -2.353699,2.3537 0.6691,-0.33455 -1.419352,0.70967 -0.105791,0.0529 0,0.23656 0,0.35484 -0.236559,0.11828 -0.453091,0.29069 -0.709676,0.35484 -2.110875,0.52772 -4.211743,1.06452 -6.387097,1.06452 -1.008632,0 -7.244596,0.20701 -7.451614,0 -0.08364,-0.0836 0,-0.23656 0,-0.35484 -0.236559,0 -0.542404,0.16727 -0.709676,0 -0.264483,-0.26448 -0.09036,-0.80004 -0.354838,-1.06452 -0.248245,-0.24824 -1.091446,0.16396 -1.419355,0 -1.476756,-0.73837 0.379334,0.0245 -0.35484,-0.70967 -0.748065,-0.74807 -1.892472,-0.94624 -2.838709,-1.41936 z"
         id="path66" />
      <path
         style="fill:#87deaa;stroke:#000000;stroke-width:0.626999;stroke-opacity:0"
         d="m 61.598744,180.20646 c -1.019222,-0.83593 -2.473049,0.004 -3.548385,-0.35484 -0.158689,-0.0529 -0.19953,-0.29271 -0.354841,-0.35484 -1.621885,-0.64875 -3.35226,-1.03988 -4.967739,-1.77419 -1.108612,-0.50391 -2.038279,-1.3891 -3.19355,-1.77419 -0.33663,-0.11221 -0.747139,0.15869 -1.064517,0 -0.236559,-0.11828 -0.167822,-0.52266 -0.354838,-0.70968 -1.396674,-1.39668 -0.720757,-0.0148 -1.774193,-1.41935 -1.133758,-1.51168 -1.419354,-3.53926 -1.419354,-5.32258 0,-0.35484 -0.158689,-0.74714 0,-1.06452 0.05289,-0.10579 0.2712,0.0836 0.354838,0 0.373602,-0.3736 0.570505,-1.78949 1.419354,-2.12903 0.32946,-0.13179 0.720273,0.0861 1.064517,0 0.162277,-0.0406 0.205224,-0.28004 0.354838,-0.35484 0.573416,-0.28671 1.533152,-0.38465 2.129033,-0.70968 0.979596,-0.53432 1.840664,-1.27517 2.83871,-1.77419 0.211584,-0.10579 0.498091,0.10579 0.709676,0 0.236561,-0.11828 0.134778,-0.56297 0.35484,-0.70968 1.680385,-1.12026 2.973623,-2.60123 3.548385,-4.6129 0.06499,-0.22746 -0.105791,-0.4981 0,-0.70968 0.264483,-0.52896 0.760246,-0.91224 1.064517,-1.41936 0.06085,-0.10142 -0.08364,-0.2712 0,-0.35483 0.08364,-0.0836 0.271203,0.0836 0.354838,0 0.20066,-0.20066 0.61609,-2.37078 0.709679,-2.83871 0.409093,-2.04547 0.181004,-4.3011 0.354838,-6.3871 0.494429,-5.93315 0.928756,-11.65724 2.838709,-17.3871 0.07481,-0.22442 -0.105791,-0.49809 0,-0.70967 0.308435,-0.61687 0.756081,-1.15733 1.064517,-1.7742 1.122193,-2.24438 0.186211,-1.19452 1.419354,-2.83871 1.323626,-1.76483 2.303002,-2.12903 4.258064,-2.12903 0.198006,0 0.905722,-0.10586 1.064517,0 1.074269,-0.8756 0.610346,0.96518 0.709678,1.06452 0.301554,0.30155 0.808638,0.3685 1.064517,0.70967 0.283869,0.3785 -0.09279,0.95543 0,1.41936 0.172104,0.86053 0.93418,1.96253 1.064514,2.48387 0.699802,2.7992 -0.695402,7.15387 0,9.93548 0.284136,1.13654 0.558231,2.3368 0.709679,3.54839 0.08802,0.7042 -0.139179,1.43314 0,2.12903 0.191283,0.95642 0.535199,1.87908 0.709676,2.83871 0.270941,1.49018 -0.01397,3.13766 0.35484,4.6129 0.251254,1.00503 0.930945,1.94959 1.064514,2.48388 0.08606,0.34424 -0.11221,0.72788 0,1.06451 0.269722,0.80916 1.102588,1.33711 1.419358,2.12903 0.175709,0.43928 -0.175713,0.98008 0,1.41936 0.182152,0.45538 1.378794,2.54216 1.774192,2.83871 0.189246,0.14194 0.485257,-0.0748 0.709676,0 0.435975,0.14532 1.0941,1.20252 1.419357,1.41935 1.053222,0.70215 4.767572,1.45803 6.032257,1.7742 0.344244,0.0861 0.813607,-0.25091 1.064517,0 0.734173,0.73417 -1.121916,-0.0287 0.354838,0.70968 0.105793,0.0529 0.271203,-0.0836 0.354838,0 0.167274,0.16727 -0.131218,0.51284 0,0.70967 0.27836,0.41754 0.942808,0.57768 1.064516,1.06452 0.08606,0.34424 -0.06959,0.71657 0,1.06451 0.05187,0.25935 0.302969,0.45034 0.354838,0.70968 0.331931,1.65964 0.03101,3.42435 -0.354838,4.96774 -0.05737,0.2295 0.105794,0.49809 0,0.70968 -0.149611,0.29923 -0.524105,0.43132 -0.709676,0.70968 -0.293182,0.43977 -0.46387,1.28258 -0.709678,1.77419 -0.333291,0.66658 -1.302168,0.59249 -1.774193,1.06452 -1.38393,1.38393 -0.35428,0.92236 -2.483871,1.77419 -2.707474,1.08299 -6.058564,-0.0469 -8.870969,0.35484 -6.414225,0.91632 1.044128,-0.34668 -2.483871,1.06452 -0.827513,0.331 -1.992082,-0.28221 -2.838709,0 -0.728364,0.24278 -1.238039,0.88631 -2.129031,1.06451 -1.72095,0.34419 -6.802625,0 -7.096776,0 z"
         id="path62" />
      <path
         style="fill:#5fd38d;stroke:#000000;stroke-width:0.626999;stroke-opacity:0"
         d="m 90.695518,158.91614 c -3.879575,-3.32535 -1.571212,-0.60781 -3.193547,-4.25806 -0.539856,-1.21468 -0.715261,-0.72643 -1.064517,-1.7742 -0.26448,-0.79344 -0.15199,-1.67248 -0.354838,-2.48387 -0.170632,-0.68253 -1.565158,-4.19012 -1.419354,-4.96774 1.420992,-7.57864 0.566171,-2.37036 1.774192,-7.80645 0.261665,-1.1775 0.417127,-2.37818 0.709679,-3.54839 0.09071,-0.36286 0.09035,-0.80003 0.354838,-1.06452 0.495861,-0.49586 1.884921,-1.47471 2.483871,-1.77419 0.105791,-0.0529 0.271201,0.0836 0.354838,0 0.187016,-0.18702 0.134776,-0.56297 0.354838,-0.70968 2.49328,-1.66218 7.379007,-2.19695 8.870969,-4.96774 2.473973,-4.59451 4.040813,-9.41404 6.032283,-14.19355 0.59742,-1.43379 0.86778,-0.81974 1.77421,-2.12903 0.78072,-1.1277 2.96375,-4.86699 3.5484,-6.3871 0.21651,-0.5629 0.16412,-1.20203 0.35484,-1.77419 0.52211,-1.566346 0.35484,1.28919 0.35484,-1.06453 0,-0.946234 -0.11828,0.11828 0.35484,-0.354835 0.30155,-0.301556 0.37961,-0.794464 0.70968,-1.064516 5.09935,-4.172199 1.3207,-0.812575 4.96774,-2.83871 0.86285,-0.479364 1.38281,-1.431538 2.48387,-1.064516 0.96526,0.321754 1.18279,1.655913 1.77419,2.483871 0.24788,0.347027 0.8738,0.328237 1.06452,0.709676 0.15869,0.317378 -0.0975,0.723331 0,1.064517 0.14532,0.508611 0.55768,0.912701 0.70967,1.419353 0.669,2.22999 0.34348,4.93365 1.06452,7.09679 0.0836,0.25091 0.32563,0.44681 0.35484,0.70967 0.20805,1.87249 0.3294,8.93458 -0.35484,10.64517 -0.31805,0.79513 -0.9376,1.59548 -1.06452,2.48387 -0.30736,2.15153 0,4.58731 0,6.74193 0,0.57262 -0.30997,3.23841 0,3.54839 0.0836,0.0836 0.27121,-0.0836 0.35484,0 0.40804,0.40804 0.43254,1.35847 0.70968,1.77419 0.69744,1.04617 1.66561,1.88408 2.48387,2.83871 0.74252,0.86627 1.69179,0.98211 2.48387,1.7742 0.30156,0.30155 0.40813,0.76296 0.70968,1.06451 0.68426,0.68426 4.00321,3.39352 4.6129,4.61291 0.2181,0.43619 0.17372,0.96655 0.35484,1.41935 0.88833,2.22082 -0.13052,-0.90547 0.70968,0.35484 0.72459,1.08689 0.35484,2.68086 0.35484,3.90322 0,0.10966 0.25326,3.97976 0,4.61291 -0.12425,0.31061 -0.58543,0.39906 -0.70968,0.70968 -0.26357,0.65891 0.19496,1.44665 0,2.12903 -0.43345,1.51708 -0.99683,1.47832 -1.77419,2.83871 -0.87968,1.53944 -0.41494,2.31742 -1.77419,3.90322 -1.06879,1.24691 -2.93171,3.26819 -4.61291,3.54839 -0.93336,0.15556 -1.90535,-0.15556 -2.83871,0 -0.52176,0.087 -0.91754,0.54241 -1.41935,0.70968 -1.71774,0.57258 -4.22096,1.25469 -6.03226,1.41935 -2.19221,0.19929 -4.53743,0 -6.74194,0 -2.08336,0 -4.32333,0.18762 -6.38713,0 -1.81064,-0.1646 -2.07868,-1.21675 -3.19357,-1.77419 -1.041933,-0.52097 -2.129032,-0.94624 -3.193546,-1.41936 -1.449046,-0.64401 -3.324376,-1.16263 -4.612905,-2.12903 -0.09462,-0.071 0.0529,-0.24905 0,-0.35484 -0.190719,-0.38144 -0.507492,-0.68902 -0.709676,-1.06451 -0.626954,-1.16434 -1.211116,-2.35185 -1.774195,-3.54839 -0.531553,-1.12955 -1.774192,-3.19323 -1.774192,-4.6129"
         id="path64" />
      <path
         style="fill:#afe9c6;stroke:#000000;stroke-width:0.432035;stroke-opacity:0"
         d="m 140.88298,166.82725 c -1.57177,-0.51148 -2.77602,-1.53408 -3.6957,-2.71755 -0.0488,-0.0628 0.0622,-0.17309 0,-0.22647 -0.13914,-0.11935 -0.41883,-0.086 -0.52797,-0.22646 -0.41063,-0.52841 0.38131,-0.45293 -0.26397,-0.45293 -0.43998,-0.52841 -0.82415,-1.09452 -1.31989,-1.58524 -0.76262,-0.75487 -2.81579,-2.34012 -3.69571,-3.17047 -0.758,-0.71531 -1.39044,-1.52198 -2.11184,-2.26464 -0.9671,-0.99559 0.51131,-3.25805 1.05592,-3.84988 0.0248,-0.027 3.1593,-2.51486 3.95968,-2.94402 0.23597,-0.12651 0.56041,-0.0941 0.79195,-0.22646 0.31062,-0.17765 0.50041,-0.47932 0.79192,-0.67937 0.44033,-0.3022 1.33194,-0.0103 1.58388,-0.22647 0.0622,-0.0534 -0.0394,-0.15896 0,-0.22647 0.41831,-0.71772 1.2947,-1.16461 1.84785,-1.8117 1.06202,-0.68411 1.16977,-1.84499 1.84785,-2.71756 0.13806,-0.17765 0.41665,-0.26196 0.52796,-0.45293 0.13199,-0.22645 -0.066,-0.45292 0,-0.67939 0.15537,-0.53315 0.42265,-1.04316 0.52796,-1.58523 0.15683,-0.80728 -0.0907,-1.67422 0,-2.49109 0.16768,-1.51047 0.3923,-3.01646 0.52796,-4.52927 0.11302,-1.26046 -0.38614,-3.59633 0,-4.75572 0.28294,-0.84957 0.71567,-1.65714 1.05591,-2.4911 0.43214,-1.0592 1.00263,-2.08179 1.3199,-3.17048 0.12989,-0.44572 0.0157,-1.57852 1.05591,-1.13231 1.04784,0.44946 0.49762,0.62733 1.05592,1.58523 0.16695,0.28646 0.62497,0.39294 0.79192,0.67939 0.23612,0.40511 -0.10353,0.91465 0,1.35878 0.0387,0.16552 0.20177,0.2928 0.26399,0.45293 0.31575,0.81262 0.35993,2.07914 0.52796,2.94402 0.15376,0.79143 -0.0917,1.70411 0,2.49109 0.13832,1.18664 0.50416,2.51896 1.05591,3.62341 0.314,0.62853 0.77769,0.98851 1.05592,1.58524 0.23791,0.51025 0.26779,1.08304 0.52796,1.58524 0.20837,0.40223 0.61659,0.71866 0.79193,1.13232 0.60092,1.41767 -0.007,1.43165 0.26398,2.94402 0.17282,0.96369 0.78189,2.00369 1.05592,2.94402 0.0427,0.14646 -0.0906,0.32346 0,0.45292 0.19207,0.27463 0.58485,0.41291 0.79193,0.67939 0.70035,0.90122 0.56856,2.70014 1.58387,3.39696 1.38474,0.95034 2.89607,2.03486 4.48764,2.71755 0.15742,0.0675 0.38717,-0.0906 0.52796,0 0.29866,0.19216 0.48816,0.49323 0.79194,0.67939 0.32022,0.19621 0.74863,0.24203 1.05591,0.45292 0.30494,0.20928 1.5122,2.4716 1.58387,2.71755 0.17074,0.58588 0,1.20781 0,1.81172 0,1.44708 0.0691,3.09646 -1.05591,4.30279 -0.26449,0.28362 -1.86952,1.85998 -2.11182,2.03817 -2.49767,1.8366 -10.50069,1.35878 -14.25486,1.35878 -1.17576,0 -3.84611,-0.25894 -4.75162,0 -0.48675,0.13919 -0.87993,0.45291 -1.31989,0.67938 z"
         id="path67" />
    </g>
  </g>
</svg>
