<?xml version="1.0" encoding="UTF-8" standalone="no"?>
<!-- Created with Inkscape (http://www.inkscape.org/) -->

<svg
   width="210mm"
   height="297mm"
   viewBox="0 0 210 297"
   version="1.1"
   id="svg1"
   sodipodi:docname="alien.reading.svg"
   inkscape:version="1.3.2 (091e20e, 2023-11-25, custom)"
   xmlns:inkscape="http://www.inkscape.org/namespaces/inkscape"
   xmlns:sodipodi="http://sodipodi.sourceforge.net/DTD/sodipodi-0.dtd"
   xmlns="http://www.w3.org/2000/svg"
   xmlns:svg="http://www.w3.org/2000/svg">
  <sodipodi:namedview
     id="namedview1"
     pagecolor="#ffffff"
     bordercolor="#000000"
     borderopacity="0.25"
     inkscape:showpageshadow="2"
     inkscape:pageopacity="0.0"
     inkscape:pagecheckerboard="0"
     inkscape:deskcolor="#d1d1d1"
     inkscape:document-units="mm"
     inkscape:zoom="0.74564394"
     inkscape:cx="410.38354"
     inkscape:cy="474.08687"
     inkscape:window-width="1920"
     inkscape:window-height="1051"
     inkscape:window-x="-9"
     inkscape:window-y="-9"
     inkscape:window-maximized="1"
     inkscape:current-layer="layer1" />
  <defs
     id="defs1" />
  <g
     inkscape:groupmode="layer"
     id="layer1"
     inkscape:label="Layer 1">
    <path
       style="fill:#5fd35f;fill-opacity:1;stroke:#d35f8d;stroke-width:0.626999;stroke-opacity:0"
       d="m 72.741935,185.2258 c -9.929482,-2.48237 -0.788586,0.71681 -5.677419,-2.83871 -0.728504,-0.52982 -1.693071,-0.63317 -2.483871,-1.06451 -2.268686,-1.23747 -3.925313,-3.49288 -6.032259,-4.96774 -1.477545,-1.03428 -3.075543,-1.7154 -4.258064,-3.19355 C 52.36497,170.7546 52.041218,167.83333 51.096775,165 c -1.540278,-4.62084 -2.837561,-9.94353 -2.129034,-14.90323 0.0374,-0.26182 0.271203,-0.45877 0.354838,-0.70967 0.246743,-0.74023 0.108098,-1.74365 0.354841,-2.48388 0.341572,-1.02471 1.006475,-1.87532 1.419355,-2.83871 1.098068,-0.44212 0.181535,-1.19652 0.354838,-1.77419 0.322431,-1.07478 0.742082,-2.11877 1.064516,-3.19355 0.203922,-0.67974 -0.194963,-1.44666 0,-2.12903 0.09191,-0.32167 0.560065,-0.41045 0.709676,-0.70968 0.654291,-1.30858 0.679567,-2.84658 1.064517,-4.25806 0.668546,-2.45134 2.041781,-4.70599 2.838709,-7.09678 0.07481,-0.22442 0,-0.47311 0,-0.70967 0.354838,-0.70968 0.785921,-1.38611 1.064517,-2.12904 0.08306,-0.22149 -0.141936,-0.52043 0,-0.70967 0.255878,-0.34117 0.76296,-0.40812 1.064516,-0.70968 0.08364,-0.0836 -0.04153,-0.24409 0,-0.35484 0.316289,-0.84343 0.756677,-1.63731 1.064517,-2.48387 0.301331,-0.82866 0.397608,-2.46539 0.709676,-3.19355 0.271679,-0.63392 0.846421,-1.1199 1.064517,-1.77419 0.149614,-0.44884 -0.07778,-0.95267 0,-1.41936 0.122981,-0.73788 0.375131,-1.45994 0.709676,-2.12903 0.0529,-0.10579 0.326151,0.11475 0.35484,0 0.114747,-0.45899 -0.07778,-0.95267 0,-1.41935 0.01595,-0.0958 3.462211,-6.24347 3.548385,-6.3871 0.42748,-0.71246 1.346716,-1.41657 1.774196,-2.129033 0.192436,-0.32073 0.147362,-0.7533 0.354838,-1.064516 0.06561,-0.09842 0.271203,0.08364 0.354838,0 0.540893,-0.540891 -0.255641,-3.440015 0,-4.258064 1.653862,-5.292357 5.354447,-9.676244 7.096775,-14.903225 0.07481,-0.22442 -0.07481,-0.485259 0,-0.709679 0.520968,-1.562902 1.541209,-2.982015 1.774193,-4.612902 0.380323,-2.66225 0.742103,-5.805281 0.354838,-8.51613 -0.207568,-1.452981 -0.575783,-2.78525 -0.709676,-4.258064 -0.372274,-4.094993 -0.225978,-9.772994 0.354838,-13.838708 0.303104,-2.121726 2.208101,-7.742574 3.903226,-9.225807 0.519038,-0.45416 1.235641,-0.633674 1.774193,-1.064516 0.09236,-0.07389 0,-0.236559 0,-0.354838 0.47312,-0.354841 0.854109,-0.890596 1.419354,-1.064517 1.023705,-0.314986 2.13976,-0.16324 3.19355,-0.354838 0.260215,-0.04731 0.473117,-0.236561 0.709676,-0.354841 0.354841,-0.118279 0.695574,-0.293346 1.064517,-0.354838 0.998601,-0.166433 3.693268,-0.306546 4.612904,0 0.236559,0.11828 0.473118,0.236559 0.709676,0.354838 0,0.236559 -0.196829,0.578459 0,0.709679 0.62243,0.414951 1.479529,0.338532 2.129034,0.709676 0.229634,0.13122 0.128047,0.573603 0.354838,0.709679 0.418181,0.250909 0.966557,0.17372 1.419354,0.354838 1.227413,0.490966 1.977753,1.977755 2.838713,2.838709 0.18701,0.187018 0.52266,0.167822 0.70968,0.354841 0.0836,0.08363 -0.0147,0.237471 0,0.354838 0.10373,0.829902 0.0735,1.696233 0.35483,2.483871 0.32073,0.898043 1.10849,1.582362 1.41936,2.483871 0.87926,2.549848 1.47486,5.189791 2.12903,7.806452 0.37732,1.509273 0.26264,3.122787 0.70968,4.612902 0.12254,0.408477 0.59252,0.654462 0.70968,1.064516 0.12997,0.454914 -0.0587,0.949889 0,1.419355 0.0605,0.483912 0.27466,0.93831 0.35483,1.419355 0.59472,3.568311 -0.40008,7.399252 0,10.999999 0.0413,0.371744 0.29335,0.695573 0.35484,1.064516 0.20735,1.244108 -0.076,1.900944 0.35484,3.193547 1.39914,4.197417 2.70584,8.219282 4.96774,12.064519 2.16122,3.674075 5.30656,6.526532 7.80645,9.935482 2.40517,3.279773 4.61733,6.712203 7.09678,9.935483 0.56324,0.73222 1.25254,1.36662 1.77419,2.12903 1.50093,2.19367 2.8141,4.51036 4.25807,6.74194 1.90161,2.93887 4.66953,6.15382 5.67741,9.58065 0.34036,1.1572 0.39889,2.38289 0.70968,3.54838 1.08086,4.05323 0.5415,-0.94686 1.41936,4.6129 0.64027,4.05505 0.51915,8.6663 0.35484,12.7742 -0.15047,3.76164 -0.12016,9.68525 -2.12903,13.12903 -0.51268,0.87888 -1.22794,1.62546 -1.7742,2.48387 -1.58968,2.49807 -5.14693,11.79927 -8.51613,13.48387 -0.43619,0.2181 -0.96272,0.18361 -1.41935,0.35484 -0.49529,0.18573 -0.90299,0.59493 -1.41936,0.70968 -0.57731,0.12829 -1.18874,-0.0836 -1.77419,0 -1.00043,0.14291 -1.90041,0.68919 -2.83871,1.06451 -2.81716,1.12687 -5.8416,2.44439 -8.51613,3.90323 -1.42143,0.77533 -1.96406,1.37811 -3.54839,1.77419 -0.92094,0.23024 -2.86532,0.26487 -3.90322,0.70968 -0.39198,0.16799 -0.65604,0.58713 -1.06452,0.70968 -1.26663,0.37999 -2.58891,0.56364 -3.90322,0.70968 -2.51751,0.27972 -5.275085,0 -7.806455,0 -2.19153,0 -5.002419,0.43054 -7.096775,-0.35484 -0.39931,-0.14974 -0.665205,-0.55994 -1.064517,-0.70968 -0.564708,-0.21177 -1.209482,-0.14307 -1.774193,-0.35484 -0.399309,-0.14974 -0.665205,-0.55994 -1.064516,-0.70968 -0.564709,-0.21176 -1.219849,-0.11726 -1.774193,-0.35484 -4.043553,-1.73295 2.07736,0.10106 -1.419355,-1.06451 -0.448839,-0.14961 -0.955423,0.0928 -1.419354,0 -0.530162,-0.10603 -0.988206,-0.60189 -1.419355,-0.70968 -0.316201,-0.079 -3.789339,-0.14236 -3.903226,0 -0.430842,0.53855 -0.709678,1.1828 -1.064516,1.77419 z"
       id="path232" />
    <path
       style="fill:#2ca02c;fill-opacity:1;stroke:#d35f8d;stroke-width:0.626999;stroke-opacity:0"
       d="m 114.6129,91.903223 c 5.79107,-0.603395 11.57588,-0.709676 17.3871,-0.709676 4.21741,0 8.55899,-0.281014 12.77419,0 4.81906,0.321271 2.35284,0.01855 6.74194,1.774193 0.69456,0.277826 1.47953,0.338534 2.12903,0.709679 0.22963,0.13122 0.13962,0.55595 0.35484,0.709676 0.64565,0.461179 1.44866,0.656293 2.12903,1.064516 0.78278,0.469667 3.47033,3.037433 3.90323,3.903226 0.10579,0.211585 -0.0748,0.485259 0,0.709683 0.16727,0.50181 0.56436,0.91074 0.70967,1.41935 0.19497,0.68237 -0.26357,1.47011 0,2.12903 0.12425,0.31062 0.58544,0.39906 0.70968,0.70968 0.2647,0.66174 -0.27773,1.94409 -0.35484,2.48387 -0.14872,1.04108 0.13038,2.15052 0,3.19355 0.0594,0.90247 -0.5879,1.63143 -0.70968,2.48387 -0.0669,0.46836 0.0669,0.95099 0,1.41935 -0.12014,0.84102 -0.74049,1.48099 -1.06451,2.12904 -0.27173,0.54346 -0.63233,0.27749 -1.06452,0.70967 -0.5754,0.57541 -0.0756,0.70221 -0.70968,1.06452 -0.6889,0.39366 -1.46884,0.62439 -2.12903,1.06452 -0.41753,0.27835 -0.62881,0.81554 -1.06451,1.06451 -0.42343,0.24196 -0.96656,0.17372 -1.41936,0.35484 -1.0677,0.42708 -2.0694,1.56696 -3.19355,2.12903 -1.23281,0.61641 -5.34275,3.52822 -6.74193,2.12904 -0.16727,-0.16728 0.0748,-0.48526 0,-0.70968 -0.16727,-0.50182 -0.52395,-0.92407 -0.70968,-1.41936 -0.02,-0.0533 -0.62458,-2.07926 -0.35484,-2.48387 0.14671,-0.22006 0.56297,-0.13478 0.70968,-0.35484 0.26244,-0.39366 -0.14961,-0.97051 0,-1.41935 0.13587,-0.4076 0.84715,-0.49231 1.06452,-0.70968 0.22265,-0.22265 0.43532,-1.145 0.70967,-1.41935 0.30156,-0.30156 0.84511,-0.34399 1.06452,-0.70968 0.36512,-0.60854 0,-1.41936 0,-2.12903 0,-3.30998 -0.6876,-5.9881 -2.12903,-8.87097 -0.45503,-0.91006 -1.76441,-1.05473 -2.48388,-1.77419 -0.16727,-0.16728 0.18473,-0.5619 0,-0.70968 -0.98585,-0.78868 -4.11159,-1.44412 -4.96774,-2.129035 -0.33301,-0.266409 -0.3685,-0.808638 -0.70967,-1.064514 -0.18925,-0.141936 -0.49004,0.08786 -0.70968,0 -0.8093,-0.32372 -1.27026,-0.892762 -2.12903,-1.064516 -0.34795,-0.06959 -0.72028,0.08606 -1.06452,0 -0.75344,-0.188363 -1.73669,-1.120484 -2.48387,-1.419355 -0.74006,-0.296026 -2.482,-0.472496 -3.19355,-0.709679 -0.15869,-0.0529 -0.19256,-0.314269 -0.35484,-0.354838 -1.26165,-0.315412 -0.68339,0.105138 -1.41935,0 -1.41323,-0.20189 -2.60729,-0.385691 -3.90323,-0.709678 -0.45899,-0.114747 -1.02569,0.26244 -1.41935,0 -0.22006,-0.146706 -0.16782,-0.522661 -0.35484,-0.709676 -0.25738,-0.257376 -1.79812,-0.134231 -2.12903,-0.354838 -0.55672,-0.371147 -0.94624,-0.946238 -1.41936,-1.419358 z"
       id="path234" />
    <path
       style="fill:#8a916f;fill-opacity:1;stroke:#d35f8d;stroke-width:0.626999;stroke-opacity:0"
       d="m 114.25806,100.41935 c -0.11828,-1.182792 -0.24214,-2.365043 -0.35484,-3.548384 -0.34964,-3.671258 -0.78259,-7.335068 -1.06451,-10.999999 -0.2391,-3.108243 0.51291,-6.503191 0,-9.580645 -0.0892,-0.535244 -0.72866,-4.239087 -0.35484,-4.612904 0.26448,-0.26448 0.80003,-0.619318 1.06452,-0.354838 0.0836,0.08364 -0.0656,0.256424 0,0.354838 0.41933,0.629002 0.99281,1.134375 1.41935,1.774195 0.5644,0.846593 1.71814,1.104178 2.48387,1.774193 0.32095,0.280829 0.37667,0.798108 0.70968,1.064516 0.29207,0.233657 0.74378,0.162399 1.06451,0.354838 0.93509,0.561049 1.59651,1.495201 2.48388,2.129034 2.51189,1.794211 6.24145,3.050995 9.2258,3.548385 0.79008,0.13168 1.30863,0.149738 2.12904,0.354838 0.39892,0.09973 0.69212,0.878324 1.06451,1.064517 0.10579,0.0529 0.2712,-0.08364 0.35484,0 0.30155,0.301556 0.40812,0.762963 0.70968,1.064516 0.49182,0.491821 1.41829,0.70756 1.77419,1.419355 0.0529,0.105794 -0.0836,0.271203 0,0.354838 0.0836,0.08364 0.2712,-0.08364 0.35484,0 2.36559,2.365592 -1.7742,-0.827955 1.06452,1.064517 0.66385,0.442571 1.51516,1.351938 1.77419,2.129033 0.0374,0.11221 -0.0836,0.271203 0,0.354838 0.0654,0.06538 0.99913,0.289457 1.06452,0.354838 0.11827,0.118279 0.23655,0.946237 0.35483,1.064516 0.0836,0.08364 0.27121,-0.08363 0.35484,0 0.53948,0.539481 -0.19784,3.787069 -0.35484,4.258064 -0.14961,0.448842 0,0.946238 0,1.419355 0,2.483871 0,4.967746 0,7.451616 0,0.66647 0.15964,1.4905 0,2.12903 -0.14627,0.5851 -0.13085,1.21422 -0.35483,1.77419 -0.15839,0.39597 -0.57482,0.65994 -0.70968,1.06452 -0.56685,1.70054 0.20227,3.85699 0,5.67742 -0.36977,3.32793 -0.6372,6.45202 -1.41936,9.58064 -0.29289,1.17158 -0.0923,2.72188 -0.35484,3.90323 -0.0574,0.25818 -0.31135,0.4488 -0.35483,0.70968 -0.15557,0.93336 0.13381,1.90198 0,2.83871 -0.12064,0.84446 -0.57565,1.67968 -0.70968,2.48387 -0.0778,0.46668 0.11474,0.96036 0,1.41935 -0.0287,0.11475 -0.30195,-0.10579 -0.35484,0 -0.42317,0.84634 0.13382,1.90199 0,2.83871 -0.14825,1.03773 -0.85135,2.1277 -1.06452,3.19355 -0.0374,0.18681 0.16991,1.60428 0,1.77419 -0.68892,0.68893 -1.6825,-0.92698 -1.77419,-1.06451 -0.23656,-0.35484 -0.51896,-0.68308 -0.70968,-1.06452 -0.0529,-0.10579 0,-0.23656 0,-0.35484 -0.11828,-0.47311 -0.0714,-1.02251 -0.35484,-1.41935 -0.34374,-0.48124 -1.00117,-0.64634 -1.41935,-1.06452 -0.37403,-0.37403 -0.33565,-1.04532 -0.70968,-1.41935 -0.30155,-0.30156 -0.70968,-0.47312 -1.06452,-0.70968 -0.59139,-0.70968 -1.1971,-1.40767 -1.77419,-2.12903 -1.70297,-2.12872 -2.40384,-4.32568 -3.54839,-6.74194 -0.6279,-1.32556 -2.06312,-3.77141 -2.83871,-5.32258 -0.58197,-1.16396 -1.634,-1.95597 -2.12903,-3.19355 -0.54235,-1.35587 -1.16029,-2.83321 -1.41935,-4.25806 -0.0846,-0.46549 0.12448,-0.96291 0,-1.41936 -0.53266,-1.95309 -1.68727,-3.33462 -2.12903,-5.32258 -0.77881,-3.5046 1.39329,2.4057 -0.35484,-2.83871 -0.0529,-0.15868 -0.30195,-0.19615 -0.35484,-0.35483 -0.19072,-0.57217 -0.16412,-1.20204 -0.35484,-1.7742 -0.0529,-0.15869 -0.23656,-0.23656 -0.35484,-0.35484 -0.11828,-0.35483 -0.26412,-0.70165 -0.35484,-1.06451 -0.35484,-1.41936 -0.74714,-2.82987 -1.06451,-4.258067 -0.0513,-0.230926 0.10579,-0.498092 0,-0.709679 -0.0529,-0.105791 -0.30195,0.105794 -0.35484,0 -0.29257,-0.585129 0.26098,-1.774193 0,-1.774193 -0.35484,0 -0.11221,0.727888 0,1.064517 0.16727,0.501817 0.56436,0.910746 0.70967,1.419355 0.22977,0.804182 0.15199,1.672478 0.35484,2.483867 z"
       id="path236" />
    <path
       style="fill:#bec8b7;fill-opacity:1;stroke:#d35f8d;stroke-width:0.626999;stroke-opacity:0"
       d="m 96.870966,124.54839 c -0.69007,-6.30756 -0.354838,-12.78738 -0.354838,-19.16129 0,-0.7049 0.451318,-3.06599 0.354838,-3.54839 -0.393573,-1.967864 -1.16359,-3.631297 -1.419355,-5.67742 -0.200903,-1.607233 0.267216,-3.364455 0,-4.967743 -0.06149,-0.368943 -0.281485,-0.697746 -0.354838,-1.064516 -0.09279,-0.463931 0.149614,-0.970516 0,-1.419355 -0.122515,-0.367548 -0.533664,-0.712491 -0.709678,-1.064516 -0.158687,-0.317376 0.08606,-0.720273 0,-1.064517 -0.02806,-0.112234 -0.643295,-1.130895 -0.354838,-1.419355 0.07825,-0.07825 2.244426,0.354841 2.483871,0.354841 3.117768,0 6.188072,0.15145 9.225802,-0.354841 1.26401,-0.210666 2.6309,0.159044 3.90323,0 0.48391,-0.06049 0.93544,-0.294349 1.41935,-0.354838 3.1765,-0.397063 6.72524,0 9.93549,0 0.98312,0 2.73186,-0.116647 3.54839,0 0.16559,0.02365 0.19615,0.301943 0.35483,0.354838 0.49761,0.16587 1.29183,-0.214381 1.7742,0 0.96674,0.429665 1.93154,0.875059 2.83871,1.419355 0.28687,0.172122 0.39906,0.585433 0.70967,0.709679 0.32947,0.131783 0.72333,-0.09748 1.06452,0 1.2717,0.363341 2.75737,1.201263 3.90323,1.774192 0.56971,0.284856 1.16992,0.508257 1.77419,0.709679 0.34077,0.113588 1.07879,-0.170281 1.41936,0 0.72293,0.361466 0.74793,0.453112 1.77419,0.709676 0.18924,0.04731 0.93441,-0.130106 1.06452,0 0.25583,0.255836 -0.19837,2.092674 -0.35485,2.483871 -0.0621,0.15531 -0.34094,0.188145 -0.35483,0.354841 -0.10805,1.29658 0,2.60215 0,3.903223 0,5.795696 0,11.591396 0,17.387096 0,1.73151 0.21464,3.60545 0,5.32258 -0.2695,2.15596 -0.35484,4.18942 -0.35484,6.3871 0,3.43011 0,6.86021 0,10.29032 0,1.15407 0.15973,2.78509 0,3.90323 -0.0374,0.26182 -0.29069,0.45309 -0.35484,0.70968 -0.4267,1.70679 -1.06467,3.54915 -1.41935,5.32258 -0.22887,1.14431 -1.04921,7.43629 -1.41936,7.80645 -0.43219,0.43218 -0.79279,0.16621 -1.06452,0.70967 -0.20399,0.408 -0.49395,0.98792 -0.70967,1.41936 -0.10579,0.21158 0.16727,0.5424 0,0.70968 -0.16728,0.16727 -0.47312,0 -0.70968,0 -2.04154,0 -1.78152,-1.65836 -2.12903,-1.7742 -0.33663,-0.11221 -0.71657,0.0696 -1.06452,0 -0.17237,-0.0345 -2.11433,-1.05349 -2.12903,-1.06451 -0.21158,-0.15869 -0.11828,-0.5914 -0.35484,-0.70968 -0.31738,-0.15869 -0.71451,0.0583 -1.06451,0 -0.36895,-0.0615 -0.70968,-0.23656 -1.06452,-0.35484 -0.82796,-0.11828 -1.65095,-0.27912 -2.48387,-0.35484 -0.70677,-0.0643 -1.42484,0.088 -2.12904,0 -1.08206,-0.13525 -2.11148,-0.57442 -3.19354,-0.70968 -2.51859,-0.31482 -5.26836,0 -7.80646,0 -1.08481,0 -2.11416,0.35484 -3.19354,0.35484 -3.32181,0 -6.99074,-0.41244 -10.290325,0 -3.233534,0.4042 -6.270776,1.06452 -9.580645,1.06452 -0.444127,0 -2.533094,0.30561 -2.838712,0 -0.67251,-0.67251 1.414275,-0.70629 1.419355,-0.70968 0.244821,-0.16321 0.663353,-1.7047 0.709679,-1.77419 0.06561,-0.0984 0.271203,0.0836 0.354838,0 0.301556,-0.30156 0.368506,-0.80864 0.709678,-1.06452 0.189246,-0.14193 0.512847,0.13122 0.709676,0 0.116705,-0.0778 1.023954,-1.61193 1.064517,-1.77419 0.703643,-2.81458 -1.24601,0.95167 1.064516,-2.12903 0.670611,-0.89415 0.0371,-2.24033 0.354838,-3.19355 0.0529,-0.15869 0.280033,-0.20523 0.354838,-0.35484 0.187884,-0.37577 0.217358,-1.00691 0.354841,-1.41935 0.455845,-1.36754 1.698569,-2.61184 2.129031,-3.90323 0.29228,-0.87684 0.342796,-1.92151 0.709678,-2.83871 0.220568,-0.55142 0.874438,-1.20396 1.064517,-1.7742 0.149611,-0.44883 -0.149614,-0.97051 0,-1.41935 0.0529,-0.15869 0.280032,-0.20522 0.354838,-0.35484 0.20003,-0.40006 0,-1.29323 0,-1.77419"
       id="path235" />
    <path
       style="fill:#2ca02c;fill-opacity:1;stroke:#d35f8d;stroke-width:0.626999;stroke-opacity:0"
       d="m 70.612901,98.645161 c -2.063604,0.55077 -3.977732,1.558329 -6.032256,2.129029 -0.805852,0.22385 -1.711844,0.0332 -2.483871,0.35484 -2.251335,0.93806 -3.044558,3.3994 -4.612905,4.96774 -0.08364,0.0836 -0.289227,-0.0984 -0.354838,0 -0.414951,0.62243 -0.375131,1.45994 -0.709676,2.12904 -0.264483,0.52896 -0.902047,0.85071 -1.064517,1.41935 -0.390477,1.36667 -0.823629,4.3047 0,5.67742 1.180508,1.96751 0.127225,0.45026 1.419355,1.41935 0.669089,0.50182 1.126884,1.24458 1.774193,1.7742 1.501423,1.22844 3.034318,2.42082 4.612904,3.54838 0.947933,0.6771 2.167872,0.86707 3.193547,1.41936 0.750978,0.40437 1.388486,0.99618 2.129034,1.41935 1.011433,0.57797 2.12903,0.94624 3.193547,1.41936 0.108085,0.048 0.236559,0 0.354838,0 0.354841,0.11828 0.753303,0.14736 1.064517,0.35484 0.417539,0.27836 0.628816,0.81554 1.064516,1.06452 0.423424,0.24195 0.956702,0.20062 1.419355,0.35483 3.717554,1.23919 3.866229,0.76574 7.451614,1.06452 2.145506,0.17879 4.254457,0.53196 6.387097,0.70968 0.707226,0.0589 1.423694,-0.0784 2.12903,0 0.371745,0.0413 0.692021,0.32097 1.064517,0.35483 1.172316,0.31472 2.368211,-0.0787 3.548388,0 2.776815,0.18512 6.15763,0.54961 8.87097,-0.35483 0.73671,-0.24557 4.8625,-0.73172 3.54838,-2.48388 -0.22442,-0.29922 -0.72997,-0.18756 -1.06451,-0.35483 -1.39557,-0.69779 -0.64254,-0.76722 -2.12903,-1.06452 -2.75602,-0.5512 -5.685775,0.25167 -8.516134,-0.35484 -0.416997,-0.0894 -0.65446,-0.59252 -1.064517,-0.70968 -0.454914,-0.12997 -0.962906,0.12449 -1.419354,0 -3.78727,-1.03289 -6.967043,-3.7417 -10.645161,-4.96774 -0.572159,-0.19072 -1.214221,-0.13085 -1.774193,-0.35484 -2.273816,-0.90952 -1.122011,-1.08368 -3.193547,-1.77419 -0.885235,-0.29508 -1.93085,-0.25575 -2.838712,-0.70968 -0.381439,-0.19072 -0.668555,-0.55129 -1.064514,-0.70967 -0.219641,-0.0879 -0.498094,0.10579 -0.709679,0 -0.299225,-0.14962 -0.3923,-0.60389 -0.709676,-0.70968 -0.793445,-0.26448 -1.690428,-0.0904 -2.483871,-0.35484 -0.317378,-0.10579 -0.410451,-0.56007 -0.709679,-0.70968 -1.28625,-0.64313 -2.299803,-0.43357 -3.193547,-1.77419 -0.654619,-0.98193 -0.354841,-2.42628 -0.354841,-3.54839 0,-2.6215 -0.09527,-3.003 1.064517,-5.32258 0.261898,-0.52379 0.961776,-0.14936 1.064517,-0.35484 0.218096,-0.43619 0.136742,-0.98316 0.354838,-1.41935 0.02151,-0.043 1.007065,-0.29739 1.064516,-0.35484 0.11828,-0.11828 0.236559,-0.94624 0.354838,-1.06452 0.137478,-0.13747 0.81516,0.27806 0.709679,-0.35484 -0.104714,-0.628284 -0.473117,-1.182792 -0.709679,-1.774189 z"
       id="path233" />
    <path
       style="fill:#454837;fill-opacity:1;stroke:#d35f8d;stroke-width:0.626999;stroke-opacity:0"
       d="m 294.16129,75.935482 3.54838,23.774193"
       id="path237" />
    <path
       style="fill:#454837;fill-opacity:1;stroke:#d35f8d;stroke-width:0.626999;stroke-opacity:0"
       d="m 101.12903,97.580645 c 2.36559,0 4.73118,0 7.09678,0 1.7304,0 7.99647,-0.409777 9.2258,0 0.36755,0.122515 0.71249,0.533664 1.06452,0.709676 0.10579,0.0529 0.30194,-0.105791 0.35484,0 0.10579,0.211584 -0.0464,0.477713 0,0.709678 0.61627,3.081361 -0.0785,7.332171 -1.06452,10.290321 -0.53226,1.59678 0.53226,3.72581 0,5.32258 -0.0836,0.25091 -0.30297,0.45033 -0.35484,0.70968 -0.0696,0.34795 0.13179,0.73506 0,1.06452 -0.12425,0.31061 -0.5241,0.43131 -0.70968,0.70967 -0.24797,0.37196 0.10286,2.07761 -1.41935,2.83871 -0.42317,0.21159 -0.94624,0 -1.41936,0 -1.2733,0 -10.96177,0.0765 -11.35483,-0.70968 -0.1058,-0.21158 0.10579,-0.49809 0,-0.70967 -0.0529,-0.1058 -0.31744,0.11221 -0.35484,0 -0.14961,-0.44884 0.21158,-0.99619 0,-1.41936 -0.81833,-1.63665 -0.0883,-3.81145 -0.35484,-5.67742 -0.20589,-1.4412 -0.44336,-3.01575 -1.06452,-4.25806 -0.1819,-0.36381 0.0998,-1.0201 0,-1.41936 -0.65993,-2.63973 -0.65941,-5.62565 0.35484,-8.161285 z"
       id="path238" />
    <path
       style="fill:#454837;fill-opacity:1;stroke:#d35f8d;stroke-width:0.626999;stroke-opacity:0"
       d="m 106.09677,89.419355 c 3.66667,0 7.33334,0 11,0 2.60215,0 5.2043,0 7.80645,0 0.38935,0 4.93819,-0.02956 4.96775,0 0.65228,0.65228 0.49993,3.258203 0,4.258064 -0.10445,0.208886 -1.74695,1.05089 -1.7742,1.064516 -0.47407,0.237035 -0.8802,-0.586801 -1.06451,-0.709678 -1.11848,-0.745652 -3.01897,-0.461857 -4.25807,-0.709676 -0.25934,-0.05187 -0.45309,-0.290695 -0.70968,-0.354841 -0.9606,-0.240152 -2.62877,0 -3.54838,0 -2.49626,0 -5.34852,0.409657 -7.80645,0 -0.36895,-0.06149 -0.69425,-0.301942 -1.06452,-0.354838 -0.4743,-0.06776 -2.30166,0.268526 -2.83871,0 -0.29923,-0.149614 -0.43132,-0.524105 -0.70968,-0.709679 -0.19683,-0.131217 -0.5424,0.167275 -0.70967,0 -0.60889,-0.60888 0.32458,-1.713687 0.70967,-2.483868 z"
       id="path239" />
    <path
       style="fill:#454837;fill-opacity:1;stroke:#d35f8d;stroke-width:0.626999;stroke-opacity:0"
       d="m 125.6129,105.03226 c 2.72476,0 0.0602,0.0928 3.19355,-0.35484 0.90214,-0.12888 1.92876,0 2.83871,0 0.64887,0 4.11239,-0.14567 4.25806,0 0.5927,0.5927 -1.04709,1.77419 -1.77419,1.77419 -1.24807,0 -3.41799,0.3983 -4.6129,0 -0.15869,-0.0529 -0.19256,-0.31427 -0.35484,-0.35484 -0.42648,-0.10662 -1.70888,0.25209 -2.12903,0 -0.50712,-0.30427 -0.94624,-0.70967 -1.41936,-1.06451 z"
       id="path240" />
    <path
       style="fill:#454837;fill-opacity:1;stroke:#d35f8d;stroke-width:0.626999;stroke-opacity:0"
       d="m 118.16129,113.54839 c 4.8505,0.56634 10.19474,-0.82229 14.90323,0.35483 0.49258,0.12315 1.32192,-0.22613 1.77419,0 0.32642,0.16321 1.68288,1.14541 1.77419,1.41936 0.0748,0.22442 -0.0574,0.48018 0,0.70968 0.0642,0.25658 0.45307,0.46411 0.35484,0.70967 -0.78043,1.95107 -5.00404,1.66763 -6.74194,1.41936 -1.29216,-0.1846 -0.74642,-0.36709 -1.77419,-0.70968 -1.35228,-0.45076 -2.42639,-0.70968 -3.90322,-0.70968 -1.28509,0 -2.34297,-0.0535 -3.54839,-0.35483 -0.34425,-0.0861 -1.41936,0 -1.06452,0 0.35484,0 0.70968,0 1.06452,0"
       id="path241" />
    <path
       style="fill:#454837;fill-opacity:1;stroke:#d35f8d;stroke-width:0.626999;stroke-opacity:0"
       d="m 118.51613,124.54839 c 2.64833,-0.67048 6.92814,0.66312 9.58064,0 1.8682,-0.46705 0.2474,-0.35484 2.12903,-0.35484 1.15249,0 3.16441,0.36455 4.25807,0 0.31728,-0.10576 2.0719,-0.76682 2.48387,-0.35484 0.73462,0.73461 -2.07481,1.69238 -2.48387,1.77419 -1.14035,0.22807 -13.50418,0.22979 -14.19355,0 -0.65429,-0.21809 -1.18279,-0.70968 -1.77419,-1.06451 z"
       id="path242" />
    <path
       style="fill:#454837;fill-opacity:1;stroke:#d35f8d;stroke-width:0.626999;stroke-opacity:0"
       d="m 105.03226,131.64516 c 0.82795,-0.11828 1.64879,-0.30845 2.48387,-0.35484 3.26619,-0.18145 8.16279,0.53201 11.35484,0 0.90445,-0.15074 1.89049,-0.60432 2.83871,-0.70968 2.5421,-0.28245 5.25098,0 7.80645,0 1.00975,0 5.11684,-0.56057 6.03225,0.35484 0.88215,0.88214 -1.21396,1.70417 -1.77419,1.77419 -0.5914,0 -1.18279,0 -1.77419,0 0,-0.11827 0.11221,-0.31743 0,-0.35483 -1.35742,-0.45247 -6.64538,0 -8.16129,0 -1.75671,0 -12.08218,0.34895 -13.12903,0 C 110.45877,132.2712 110.25934,132.05187 110,132 c -1.50294,-0.30059 -3.37154,-0.0888 -4.96774,-0.35484 z"
       id="path243" />
    <path
       style="fill:#454837;fill-opacity:1;stroke:#d35f8d;stroke-width:0.626999;stroke-opacity:0"
       d="m 103.25806,135.90322 c 7.92473,0 15.84947,0 23.7742,0 1.48016,0 4.72478,-0.43582 6.03226,0 0.40457,0.13486 1.41935,0.47312 1.06451,0.70968 -2.46603,1.64402 -6.82919,1.39754 -9.58064,0.70968 -2.38037,-0.59509 -5.68661,0.41245 -8.16129,0 -0.165,-0.0275 -0.18985,-0.32734 -0.35484,-0.35484 -0.9371,-0.15618 -2.94284,-0.21764 -3.90323,-0.35484 -1.28622,-0.18374 -3.03241,0.40855 -4.25806,0 -0.15869,-0.0529 -0.20523,-0.28003 -0.35484,-0.35484 -0.50807,-0.25403 -1.86631,0 -2.48387,0"
       id="path244" />
    <path
       style="fill:#454837;fill-opacity:1;stroke:#d35f8d;stroke-width:0.626999;stroke-opacity:0"
       d="m 102.19355,143.35484 c 4.38453,0.63105 8.69437,1.55246 13.12903,1.77419 1.89221,0.0946 3.81567,0.0445 5.67742,0.35484 0.26088,0.0435 0.45033,0.30297 0.70968,0.35484 0.69589,0.13918 1.42901,-0.11667 2.12903,0 0.95657,0.15943 1.85683,0.70968 2.83871,0.70968 0.80737,0 5.61833,0.0591 4.96774,0.70967 -0.25091,0.25091 -0.72027,-0.0861 -1.06452,0 -2.87811,0.71953 -6.986,0.5899 -9.93548,0 -0.86833,-0.17366 -1.29565,-0.78672 -2.12903,-1.06451 -0.56105,-0.18702 -1.21315,0.18701 -1.7742,0 -0.15869,-0.0529 -0.18984,-0.32734 -0.35483,-0.35484 -1.37218,-0.2287 -6.87465,0.4659 -7.80646,0 -0.14961,-0.0748 -0.20522,-0.28004 -0.35483,-0.35484 -1.02061,-0.51031 -2.7772,0.28151 -3.90323,0 -0.86721,-0.2168 -2.36554,-0.70968 -3.19355,-0.70968"
       id="path245" />
    <path
       style="fill:#454837;fill-opacity:1;stroke:#d35f8d;stroke-width:0.626999;stroke-opacity:0"
       d="m 103.96774,140.16129 c 2.95699,0 5.91398,0 8.87097,0 3.15447,0 6.07413,0.70967 9.2258,0.70967 1.56056,0 3.45265,0.55949 4.96775,1.06452 0.50181,0.16727 0.90618,0.58139 1.41935,0.70968 1.62396,0.40599 -0.36895,-0.71673 1.77419,0.35484 0.22715,0.11357 1.2749,0.56521 1.41936,0.70968 0.0836,0.0836 -0.10579,0.30194 0,0.35483 0.21159,0.1058 0.49809,-0.10579 0.70968,0 0.10579,0.0529 -0.0836,0.27121 0,0.35484 0.12977,0.12978 1.06451,0.2436 1.06451,0.70968 0,0.35484 -0.70968,0 -1.06451,0 -3.29865,0 -6.31704,-1.5851 -9.58065,-2.12903 -2.76199,-0.46033 -5.75414,0.46033 -8.51613,0 -2.44641,-0.40774 0.28419,-0.35484 -1.06451,-0.35484 -0.84584,0 -3.60368,0.43626 -4.25807,0 -0.22006,-0.14671 -0.10927,-0.61145 -0.35484,-0.70968 -0.94315,-0.37726 -2.63162,0.45838 -3.54838,0 -0.14962,-0.0748 -0.19615,-0.30194 -0.35484,-0.35484 -0.22442,-0.0748 -0.60389,0.21159 -0.70968,0 -0.21159,-0.42317 0,-0.94623 0,-1.41935 z"
       id="path246" />
    <path
       style="fill:#7fff2a;fill-opacity:1;stroke:#d35f8d;stroke-width:0.626999;stroke-opacity:0"
       d="m 82.322579,56.419355 c 2.289733,-3.264236 3.776604,-3.903226 7.451614,-3.903226 0.299371,0 2.130406,-0.176734 2.483871,0 0.105791,0.0529 -0.105794,0.301943 0,0.354838 0.211585,0.105794 0.498091,-0.105793 0.709676,0 0.105794,0.0529 -0.0529,0.249047 0,0.354838 0.264483,0.528963 0.800037,0.890395 1.064517,1.419355 0.666035,1.332071 1.419354,4.15463 1.419354,5.677421 0,0.333325 0.263441,2.575269 0,2.838709 -0.44586,0.44586 -1.822725,-0.40337 -2.12903,-0.709678 -0.865804,-0.865804 -0.745268,-1.585087 -1.419358,-2.483872 -0.260836,-0.347784 -0.901155,-0.219596 -1.064514,-0.709676 -0.570108,-1.710322 1.567204,0.502687 -1.064516,-2.129033 -0.374875,-0.374872 -2.006931,-1.535724 -2.483871,-1.774193 -1.323163,-0.661582 0.613484,0.66158 -0.709679,0 -0.414697,-0.207348 -1.542211,-1.296498 -2.129031,-0.709678 -0.08364,0.08364 0.08364,0.271203 0,0.35484 -0.457917,0.457915 -0.709678,-0.221604 -0.709678,1.064514"
       id="path247" />
    <path
       style="fill:#7fff2a;fill-opacity:1;stroke:#d35f8d;stroke-width:0.626999;stroke-opacity:0"
       d="m 102.54839,59.612902 c 2.13272,-1.440804 3.32505,-3.009892 3.90322,-5.32258 0.21529,-0.861145 1.38489,-2.414932 1.7742,-3.193547 0.10579,-0.211585 -0.16728,-0.542407 0,-0.709679 0.16727,-0.167272 0.5424,0.167272 0.70967,0 0.0836,-0.08364 -0.0836,-0.271203 0,-0.354838 0.26384,-0.263835 2.56187,-0.06921 2.83871,0 0.485,0.121248 0.53599,0.535985 0.70968,0.709676 0.16727,0.167272 0.5424,-0.167272 0.70968,0 0.74515,0.745157 -0.67824,3.388183 -1.06452,3.903226 -0.36446,0.485955 -0.46778,1.575284 -1.06452,1.774195 -0.22441,0.07481 -0.5424,-0.167272 -0.70967,0 -0.26448,0.26448 -0.13042,0.765289 -0.35484,1.064514 -0.47117,0.628224 -1.92121,0.428345 -2.48387,0.709679 -0.10579,0.05289 0.0836,0.271203 0,0.354838 -0.17742,0.177419 -0.8871,-0.177419 -1.06452,0 -0.0836,0.08364 0.10579,0.301942 0,0.35484 -0.21158,0.105791 -0.48526,-0.07481 -0.70968,0 -0.36754,0.122516 -0.71249,0.533665 -1.06451,0.709676 -0.63476,0.317379 -1.41936,0 -2.12903,0 z"
       id="path248" />
    <path
       style="fill:#2ca02c;fill-opacity:1;stroke:#d35f8d;stroke-width:0.626999;stroke-opacity:0"
       d="m 84.096774,185.93548 c -0.01455,6.41052 -0.513736,12.82195 -1.419357,19.16129 -0.06151,0.43056 -0.454054,3.03714 -0.709676,3.54839 -1.029417,2.05883 -2.623362,2.65518 -3.548388,4.96774 -0.131784,0.32946 0.124592,0.73227 0,1.06452 -0.242162,0.64577 -0.822351,1.12842 -1.064517,1.77419 -0.124589,0.33225 0.05834,0.71451 0,1.06452 -0.155691,0.93415 -0.525205,1.91636 -0.709676,2.83871 -0.13645,0.68224 -0.75589,1.86662 -1.064516,2.48387 -0.149614,0.29922 -0.709676,0.37513 -0.709676,0.70967 0,0.11828 0.2712,-0.0836 0.354838,0 0.08364,0.0836 -0.11221,0.31744 0,0.35484 1.538115,0.51271 3.488317,-0.35484 4.967742,-0.35484 0.409009,0 1.540828,-0.35963 1.774193,-0.70967 0.13122,-0.19683 -0.105794,-0.4981 0,-0.70968 0.0529,-0.10579 0.271203,0.0836 0.354838,0 0.08233,-0.0823 0.673806,-1.59484 0.709679,-1.77419 0.159673,-0.79837 -0.133917,-1.68038 0,-2.48387 0.199982,-1.1999 0.537712,-2.34465 0.709676,-3.54839 0.180644,-1.2645 -0.250132,-2.65256 0,-3.90323 0.05187,-0.25934 0.311359,-0.44879 0.35484,-0.70967 0.246401,-1.47842 -0.135461,-3.12284 0,-4.61291 0.10762,-1.18381 0.256122,-2.3638 0.354838,-3.54839 0.153334,-1.84 -0.30426,-3.85185 0,-5.67741 0.534482,-3.2069 0.866839,-6.8813 -0.354838,-9.93549 z"
       id="path250" />
    <path
       style="fill:#2ca02c;fill-opacity:1;stroke:#d35f8d;stroke-width:0.626999;stroke-opacity:0"
       d="m 118.87097,181.32258 c 2.75677,8.88422 4.75327,17.97201 3.90322,27.32258 -0.12776,1.40534 -1.01072,1.96764 -1.41935,3.19355 -0.1724,0.5172 -0.28727,2.07843 -0.35484,2.48387 -0.16111,0.96665 -0.22532,8.25709 -0.35484,8.51613 -0.11828,0.23656 -0.5914,0.11828 -0.70968,0.35484 -0.10579,0.21158 0.16728,0.5424 0,0.70967 -0.11828,0.11828 -0.23656,-0.23656 -0.35484,-0.35484 -0.18701,-0.18701 -0.55098,-0.14325 -0.70967,-0.35483 -0.23656,-0.47312 -0.47312,-0.94624 -0.70968,-1.41936 0,-0.11828 0.0529,-0.24905 0,-0.35484 -1.28908,-2.57814 -0.0992,0.20607 -1.41936,-1.77419 -0.39908,-0.59863 -0.12732,-1.44649 -0.35483,-2.12903 -0.24982,-0.74945 -0.70968,-1.24143 -0.70968,-2.12904 0,-2.92613 -0.26411,-5.96575 0,-8.87096 0.0546,-0.60064 0.30858,-1.17286 0.35484,-1.7742 0.20638,-2.68299 -0.16819,-5.19133 0.35484,-7.80645 0.42959,-2.14798 0,-6.46478 0,-8.87097 0,-0.6831 -0.18379,-2.10356 0,-2.83871 0.18145,-0.72582 0.35483,-0.72476 0.35483,-1.41935"
       id="path251" />
  </g>
</svg>
