<?xml version="1.0" encoding="UTF-8" standalone="no"?>
<!-- Created with Inkscape (http://www.inkscape.org/) -->

<svg
   width="210mm"
   height="297mm"
   viewBox="0 0 210 297"
   version="1.1"
   id="svg1"
   sodipodi:docname="aliens.noodles.svg"
   inkscape:version="1.3.2 (091e20e, 2023-11-25, custom)"
   xmlns:inkscape="http://www.inkscape.org/namespaces/inkscape"
   xmlns:sodipodi="http://sodipodi.sourceforge.net/DTD/sodipodi-0.dtd"
   xmlns="http://www.w3.org/2000/svg"
   xmlns:svg="http://www.w3.org/2000/svg">
  <sodipodi:namedview
     id="namedview1"
     pagecolor="#ffffff"
     bordercolor="#000000"
     borderopacity="0.25"
     inkscape:showpageshadow="2"
     inkscape:pageopacity="0.0"
     inkscape:pagecheckerboard="0"
     inkscape:deskcolor="#d1d1d1"
     inkscape:document-units="mm"
     inkscape:zoom="0.74564394"
     inkscape:cx="392.94895"
     inkscape:cy="563.94209"
     inkscape:window-width="1920"
     inkscape:window-height="1051"
     inkscape:window-x="-9"
     inkscape:window-y="-9"
     inkscape:window-maximized="1"
     inkscape:current-layer="g38" />
  <defs
     id="defs1" />
  <g
     inkscape:groupmode="layer"
     id="layer1"
     inkscape:label="Layer 1">
    <g
       id="g38"
       transform="translate(1.6812338,11.748925)">
      <path
         style="fill:#9955ff;stroke:#000000;stroke-width:0.626999;stroke-opacity:0"
         d="m 48.258063,226.03226 c -5.204299,0 -10.4086,0 -15.612901,0 -2.345836,0 -4.802098,0.21882 -7.096775,-0.35484 -0.162278,-0.0406 -0.190815,-0.32204 -0.354839,-0.35484 -1.493093,-0.29862 -5.997287,0.54974 -7.096774,0 -0.149613,-0.0748 -0.190264,-0.32492 -0.354839,-0.35484 -0.616104,-0.11202 -7.018091,-0.631 -7.096774,-0.70968 -0.08364,-0.0836 0.08364,-0.2712 0,-0.35484 -0.08364,-0.0836 -0.271202,0.0836 -0.354838,0 -0.08364,-0.0836 0.04393,-0.24502 0,-0.35484 -1.4062749,-3.51568 -1.5937018,-7.20966 -1.7741942,-10.99999 -0.094348,-1.9813 0.2321939,-4.05862 0,-6.03226 -0.2228395,-1.89414 -0.4301797,-3.79081 -0.7096773,-5.67742 -0.1937967,-1.30813 -0.5780931,-2.58739 -0.7096773,-3.90323 -0.2135616,-2.13561 0.1740826,-4.62625 -0.3548388,-6.74193 -0.1552413,-0.62097 -1.1748405,-1.04065 -1.4193549,-1.7742 -0.5041381,-1.51241 -1.0725846,-3.05244 -1.4193546,-4.6129 -0.1814327,-0.81645 -0.044221,-1.70733 -0.3548388,-2.48387 -0.1583843,-0.39596 -0.551293,-0.66856 -0.7096776,-1.06452 -0.2196395,-0.5491 0.031083,-1.18361 0,-1.77419 -0.00411,-0.0781 -0.7815587,-11.7074 -0.3548386,-12.7742 0.098226,-0.24556 0.5226609,-0.16782 0.7096774,-0.35483 0.1494742,-0.14948 -0.030701,-4.56863 0,-4.96775 0.6862059,-8.92067 -0.0043,0.7441 0.7096776,-4.96774 0.3487028,-2.78962 0.02668,-5.72677 0.3548385,-8.51613 0.3635457,-3.09013 0.8627618,-6.16454 1.4193549,-9.2258 0.916564,-5.04111 0.5603999,-0.0759 1.0645161,-4.6129 0.2069894,-1.86291 -0.2759855,-0.27599 0,-2.48388 0.2600034,-2.08002 1.3628727,-3.97565 1.7741934,-6.03225 0.086807,-0.43404 -0.039152,-0.98868 0,-1.41936 0.27294,-3.00234 0.1549329,-5.87238 0.3548388,-8.87097 0.00888,-0.13327 0.2719538,-3.06922 0.3548388,-3.19355 0.1855721,-0.27835 0.603885,-0.3923 0.7096773,-0.70967 0.4550303,-1.3651 0.4522733,-2.84234 0.7096773,-4.25807 0.805412,-4.42976 0.340381,-8.697468 0.709678,-13.12903 0.257081,-3.084978 0.534099,-6.175912 1.064516,-9.225806 0.211584,-1.216613 0.709677,-0.752401 0.709677,-2.129031 0,-1.182796 0,-2.365592 0,-3.548388 0,-0.118279 -0.11221,-0.317436 0,-0.354838 0.33663,-0.11221 0.709678,0 1.064516,0 3.81381,0 8.2976,0.495755 12.064516,-0.354841 2.409095,-0.543988 4.692677,-1.563362 7.096774,-2.12903 1.628261,-0.383119 3.325114,-0.393787 4.967742,-0.709679 1.436712,-0.276291 2.820866,-0.790763 4.258064,-1.064514 1.988862,-0.378833 4.032414,-0.393914 6.032259,-0.709678 4.217676,-0.665949 3.355996,-0.808541 7.451611,-1.064517 5.706751,-0.356672 11.346252,0.550907 17.032259,0.354838 5.244925,-0.180859 10.730076,-0.127714 15.967741,-0.709676 3.316293,-0.368477 6.624947,-1.0883 9.935485,-1.419355 3.505661,-0.350567 7.583361,0.142359 11.000001,0 1.99964,-0.08332 4.01782,-0.709678 6.03226,-0.709678 5.57215,0 11.18615,1.579906 16.67741,2.129033 1.88309,0.188307 3.78757,-0.09947 5.67743,0 7.40395,0.389681 -0.53324,0.109029 5.67741,1.064517 1.64083,0.252433 3.31443,0.204536 4.96775,0.354838 2.41287,0.219352 10.23518,0.312023 12.41935,0 0.74055,-0.105794 1.39303,-0.575861 2.12903,-0.709679 0.58186,-0.105791 1.18573,0.05885 1.7742,0 2.21291,-0.22129 4.12336,-0.354838 6.38709,-0.354838 3.31183,0 6.62366,0 9.93549,0 1.24763,0 3.43928,0.391208 4.6129,0 2.4004,-0.800132 4.22871,-0.709676 6.74194,-0.709676 1.71793,0 5.6279,-0.453861 5.67741,-0.354841 0.5651,1.130194 -0.12426,6.882678 0,8.870969 0.20073,3.211639 1.57923,5.855483 2.48388,8.870968 0.77482,2.582754 1.08632,5.497039 1.41935,8.16129 0.52503,4.200212 -0.60439,8.531862 -0.35484,12.774192 0.16063,2.73071 0.51532,5.44032 0.70968,8.16129 0.21124,2.95738 -0.17658,5.94814 0.35484,8.87097 0.15403,0.8472 0.57874,1.63279 0.70967,2.48387 0.44441,2.88861 -0.21156,6.85845 -0.35483,9.58065 -0.12056,2.29053 -0.17914,4.45775 -0.35484,6.74193 -0.27428,3.56558 0.23305,7.11779 -0.35484,10.64516 -0.30378,1.82267 0.44642,3.89173 0,5.67742 -0.97125,3.885 -0.35484,11.58354 -0.35484,15.96774 0,1.13616 0.18635,2.43028 0,3.54839 -0.0802,0.48104 -0.28587,0.93658 -0.35484,1.41935 -0.30327,2.12289 0.60059,6.00468 0,7.80646 -1.0904,3.2712 -1.67138,7.28907 -2.12903,10.64516 -0.17579,1.28914 0,2.60215 0,3.90322 0,1.69431 -0.4178,5.78043 0,7.45161 0.32221,1.28884 0.35484,2.22117 0.35484,3.54839 0,0.003 0.2241,2.6146 0,2.83871 -0.0836,0.0836 -0.23747,-0.0147 -0.35484,0 -0.8299,0.10374 -1.65485,0.2443 -2.48387,0.35484 -0.94524,0.12603 -1.89247,0.23656 -2.83871,0.35484 -1.1828,0 -2.37209,-0.12382 -3.54839,0 -1.08449,0.11416 -2.10905,0.59552 -3.19355,0.70968 -1.95466,0.20575 -5.31314,-0.66438 -7.09677,0.35484 -6.60072,3.77184 -12.99466,3.1678 -20.22581,3.54838 -3.22512,0.16975 -6.34773,0.35484 -9.58064,0.35484 -7.46352,0 -14.90454,0.0834 -22.35484,-0.35484 -3.46277,-0.20369 -6.81169,0.5481 -10.29032,0.35484 -6.13627,-0.3409 -0.64068,-0.24148 -5.32258,-0.70968 -3.07263,-0.30726 -6.15133,-0.0986 -9.22581,-0.35483 -0.48599,-0.0405 -0.93466,-0.30099 -1.41935,-0.35484 -2.40025,-0.2667 -8.110392,-0.25348 -10.645167,0 -2.138164,0.21381 -4.23224,0.88494 -6.387094,1.06451 -3.193352,0.26611 -6.183281,0.76002 -9.225807,1.7742 -0.336629,0.11221 -0.723331,-0.0975 -1.064516,0 -2.319224,0.66263 -4.286853,1.85624 -6.741935,2.12903 -2.993668,0.33263 -6.213594,0 -9.225807,0 -0.379806,0 -7.834696,-0.0282 -8.161289,-0.35484 -0.08364,-0.0836 0.08363,-0.2712 0,-0.35484 -0.167275,-0.16727 -0.492247,0.0932 -0.709679,0 -0.72929,-0.31255 -1.419355,-0.70968 -2.129033,-1.06451 z"
         id="path38"
         transform="translate(-1.6812338,-11.748925)" />
      <path
         style="fill:#e5d5ff;stroke:#000000;stroke-width:0.626999;stroke-opacity:0"
         d="m 253.09296,234.86397 4.96774,-58.54838"
         id="path39" />
      <path
         style="fill:#e5d5ff;stroke:#000000;stroke-width:0.626999;stroke-opacity:0"
         d="m 18.544572,76.251075 c -1.888133,5.664399 0.461955,-1.567296 -2.838709,10.645161 -0.419744,1.553051 -1.070362,3.042436 -1.419355,4.612902 -1.393514,6.270813 -1.586541,12.525142 -2.483871,18.806452 -0.08529,0.59705 -0.319423,1.17212 -0.354839,1.77419 -0.513144,8.72346 0.459309,17.5312 0,26.25807 -0.04396,0.8352 -0.299204,1.64936 -0.354838,2.48387 -0.111437,1.67155 0.153225,5.28629 0,6.74193 -0.102106,0.97 -0.54933,1.87663 -0.709678,2.83871 -0.4572972,2.74379 0,7.10796 0,9.93549 0,1.99466 -0.4463072,4.4531 0,6.38709 0.252315,1.09337 0.756252,2.11463 1.064516,3.19355 1.054008,3.68903 1.207056,7.66693 2.129032,11.35484 0.06415,0.25659 0.30297,0.45033 0.354839,0.70968 0.431013,2.15506 -0.476393,4.59816 0,6.74193 0.211585,0.95214 0.5352,1.87909 0.709678,2.83871 0.371852,2.04519 0.01112,4.32477 0.354838,6.3871 0.31755,1.9053 0.780507,1.70198 1.064516,4.25806 0.02802,0.25222 0.311063,5.98849 0.354839,6.03226 0.0026,0.003 7.002097,0 7.096774,0 4.184864,0 -1.387571,-0.11475 2.838709,0.35484 1.29312,0.14368 2.605458,-0.0927 3.903226,0 5.464969,0.39036 0.817968,0.13633 4.258064,0.70968 1.53456,0.25576 3.060626,-0.60619 4.612905,-0.70968 2.242333,-0.14949 4.495958,-0.0774 6.741935,0 4.788974,0.16514 2.127424,0.22777 6.032259,1.06452 3.207197,0.68725 1.532215,-0.002 3.903223,0.70967 0.716518,0.21496 1.389666,0.59593 2.129034,0.70968 0.818329,0.1259 1.657188,-0.0459 2.483871,0 1.30443,0.0725 2.59775,0.30463 3.903226,0.35484 3.072995,0.11819 6.155843,-0.18058 9.225806,0 1.919978,0.11294 3.776956,0.82696 5.677419,1.06452 2.562566,0.32032 4.144367,-1.7742 6.741935,-1.7742 5.91398,0 11.827957,0 17.741934,0 2.12534,0 4.6337,0.30118 6.74194,0 0.48277,-0.069 0.93544,-0.29435 1.41935,-0.35484 0.56478,-0.0706 1.49523,0.12677 2.12903,0 2.03099,-0.40619 1.27917,-0.54567 3.90323,-0.70967 1.06244,-0.0664 2.13725,0.13203 3.19355,0 0.85444,-0.10681 1.63753,-0.55099 2.48387,-0.70968 1.05272,-0.19739 2.13494,-0.19198 3.19355,-0.35484 0.482,-0.0742 1.04908,-0.0375 1.41935,-0.35484 0.52365,-0.44884 0.70968,-1.18279 1.06452,-1.77419 0.94624,-0.82796 1.82479,-1.74033 2.83871,-2.48387 3.1732,-2.32702 6.79988,-3.61719 10.64516,-4.25807 4.31949,-0.71991 8.75824,-0.70967 13.12903,-0.70967 1.71569,0 3.62799,0.24208 5.32258,0 0.37028,-0.0529 0.69424,-0.30195 1.06452,-0.35484 0.46836,-0.0669 0.9575,0.10263 1.41935,0 2.46406,-0.54757 0.97475,-0.81799 3.19355,-1.06452 0.58778,-0.0653 1.19234,0.10579 1.7742,0 0.73599,-0.13382 1.38848,-0.60388 2.12903,-0.70968 1.63927,-0.23418 3.31863,-0.14992 4.96774,0 1.766,-1.90041 1.39549,0.56297 2.12903,0.70968 0.57992,0.11598 1.21315,-0.18702 1.77419,0 0.71932,0.23977 1.39595,0.52641 2.12904,0.70968 0.88377,0.22094 1.94679,-0.17839 2.83871,0 0.25934,0.0519 0.44879,0.31136 0.70967,0.35484 1.0565,0.17608 2.13706,0.17875 3.19355,0.35484 0.44561,0.0743 0.99504,-0.14144 1.41936,0 0.25091,0.0836 0.45033,0.30297 0.70967,0.35484 1.39246,0.27849 3.17577,0 4.61291,0 0.14611,0 0.97058,0.0939 1.06451,0 0.0836,-0.0836 -0.0212,-0.23847 0,-0.35484 0.21578,-1.18677 0.58341,-2.3488 0.70968,-3.54839 0.46866,-4.45227 -0.13262,-9.03943 -0.35484,-13.48387 -0.17076,-3.41522 0.24367,-6.87899 0,-10.29032 -0.16938,-2.37135 -0.56138,-4.72402 -0.70968,-7.09678 -0.11684,-1.86953 0.17009,-3.80645 0,-5.67742 -0.31356,-3.44926 -0.99195,-6.87111 -1.41935,-10.29032 0.22908,-1.05881 -0.57174,-1.87316 -0.70968,-2.83871 -0.27323,-1.91262 0,-4.58172 0,-6.3871 0,-4.62282 0.45351,-10.72297 0,-15.25806 -0.0485,-0.48526 -0.27466,-0.93831 -0.35483,-1.41935 -0.17273,-1.03635 0.13045,-2.14988 0,-3.19355 -0.24261,-1.94086 -0.35485,-3.70207 -0.35485,-5.67742 0,-0.72188 -0.14456,-1.76106 0,-2.48387 0.60905,-3.04523 0.67471,-6.73682 0.35485,-9.93549 -0.15414,-1.541369 -0.20153,-3.079776 -0.35485,-4.612901 -0.63591,-6.359165 -0.0442,1.110215 -0.70967,-3.548388 -0.44975,-3.148254 0,-6.756051 0,-9.935483 0,-4.021505 0,-8.04301 0,-12.064515 0,-0.688592 0.0633,-2.807079 0,-2.83871 -0.21159,-0.105793 -0.4981,0.105791 -0.70968,0 -0.10579,-0.0529 0.0836,-0.271203 0,-0.35484 -0.0802,-0.08019 -1.43007,-0.892456 -1.77419,-1.064514 -0.5914,-0.236562 -1.1828,-0.47312 -1.7742,-0.709679 -0.35484,0 -0.72788,0.11221 -1.06451,0 -1.00364,-0.334544 -1.83508,-1.08481 -2.83871,-1.419355 -3.86129,-1.287094 0.59461,0.260858 -2.48387,-0.354838 -0.25935,-0.05187 -0.47312,-0.236561 -0.70968,-0.35484 -0.47312,-0.118279 -0.93831,-0.274664 -1.41936,-0.354838 -2.08316,-0.347194 -4.34921,0.495162 -6.38709,0.709678 -2.36433,0.248876 -4.72349,0.570072 -7.09678,0.709676 -5.98285,0.351933 -12.09817,0 -18.09677,0 -0.75181,0 -5.51446,-0.345193 -6.03226,0 -0.27836,0.185574 -0.38924,0.613548 -0.70968,0.709679 -2.80167,0.840502 -6.34378,0.704263 -9.2258,1.064517 -1.42782,0.178477 -2.83024,0.531198 -4.25807,0.709676 -5.84892,0.731115 -11.85476,0.354838 -17.74193,0.354838 -3.03223,0 -8.29949,0.491003 -11.000002,0 -0.626681,-0.11394 -1.159682,-0.542084 -1.774193,-0.709676 -1.737844,-0.473959 -4.189296,-1.016839 -6.032259,-0.709679 -2.101225,0.350205 -4.029916,1.816426 -6.032256,2.483871 -3.750363,1.250122 -8.174128,1.190509 -12.064516,1.419355 -2.525996,0.148587 -4.934378,-0.175035 -7.451614,-0.354838 -4.917008,-0.351216 -9.970767,0 -14.903225,0 -1.182796,0 -2.38856,0.231966 -3.548388,0 -0.8637,-0.172741 -1.530884,-0.501452 -2.483871,-0.354838 -2.309312,0.355277 -4.466733,1.040154 -6.741935,1.419355 -2.73813,0.456353 -6.495915,0 -9.225806,0 -1.039223,0 -9.84303,-0.802132 -10.290323,-0.354841 -0.102446,0.102447 -0.150491,2.333382 0,2.483871 0.08364,0.08364 0.271203,-0.08364 0.354839,0 0.08364,0.08364 -0.0529,0.249047 0,0.354841 0.161753,0.323503 0.881027,0.550466 0.709678,1.064514 -0.187017,0.561051 -0.709678,0.946237 -1.064517,1.419357 z"
         id="path40" />
      <path
         style="fill:#c8ab37;stroke:#000000;stroke-width:0.626999;stroke-opacity:0"
         d="M 286.44779,111.38011 282.54458,76.605913"
         id="path41" />
      <path
         style="fill:#c8ab37;stroke:#000000;stroke-width:0.626999;stroke-opacity:0"
         d="m 36.286508,182.34785 c -2.411936,-4.82387 0.35777,1.07331 -2.483871,-7.45162 -4.937085,-14.81125 0.367078,3.35671 -2.483871,-7.09677 -0.167595,-0.61451 -0.630674,-1.14216 -0.709679,-1.77419 -0.337425,-2.69943 0,-5.44086 0,-8.16129 0,-2.31546 -0.449482,-6.15634 0,-8.51613 0.301022,-1.58037 0.949243,-3.07435 1.419355,-4.61291 0.830964,-2.71951 1.603523,-5.45736 2.483871,-8.16129 2.532957,-7.77979 2.24414,-8.44135 6.741935,-13.8387 1.071999,-1.2864 2.489555,-3.55123 3.903226,-4.25807 5.701618,-2.85081 13.922603,-1.77419 20.225808,-1.77419 0.232839,0 6.963188,0.25465 7.096773,0.35483 0.401455,0.30109 0.615678,0.8401 1.064517,1.06452 1.027308,0.51365 2.527816,0.38414 3.548388,1.06452 0.09841,0.0656 -0.08364,0.2712 0,0.35484 0.409432,0.40943 1.869435,-0.20482 2.483869,0 1.482269,0.49409 3.181146,2.43426 3.548387,3.90322 0.03489,0.13958 0.158063,4.00162 -0.354838,4.25807 -0.211584,0.10579 -0.50683,-0.12171 -0.709678,0 -1.380167,0.8281 -1.089933,1.71081 -2.838709,1.41935 -0.481045,-0.0802 -0.98316,-0.13674 -1.419355,-0.35484 -0.105791,-0.0529 0,-0.23656 0,-0.35484 -0.118279,-0.11828 -0.196149,-0.30194 -0.354838,-0.35483 -0.22442,-0.0748 -0.498094,0.10579 -0.709679,0 -0.211584,-0.1058 0.167273,-0.54241 0,-0.70968 -0.418605,-0.41861 -2.690791,-1.62628 -2.838709,-1.7742 -0.08364,-0.0836 0.105794,-0.30194 0,-0.35483 -2.535886,-1.26795 -5.559393,-1.44312 -8.16129,-2.48387 -0.654693,-0.26188 -1.704861,-0.95324 -2.483871,-1.06452 -0.585454,-0.0836 -1.187363,0.0734 -1.774193,0 -0.371144,-0.0464 -0.692771,-0.31354 -1.064516,-0.35484 -1.757791,-0.19531 -5.911398,-0.31584 -7.806452,0 -1.660292,0.27672 -1.020932,0.76432 -2.838709,1.77419 -0.426308,0.23684 -0.966558,0.17372 -1.419355,0.35484 -0.707408,0.28297 -1.434248,1.07196 -2.129033,1.41936 -0.105791,0.0529 -0.271201,-0.0836 -0.354838,0 -3.451654,3.45165 -1.24628,2.54076 -3.193547,5.32258 -0.479624,0.68517 -1.272376,1.1051 -1.774196,1.77419 -0.808095,1.07746 0.05123,1.18154 -0.354838,2.12903 -0.83136,1.93984 -1.950937,3.66577 -3.193547,5.32258 -0.383466,0.51129 -0.520853,1.56256 -0.709679,2.12904 -0.288422,0.86526 -0.781137,1.63373 -1.064516,2.48387 -0.510633,1.5319 -0.510802,3.37673 -0.709676,4.96774 -0.453946,3.63155 -0.280948,6.99285 0,10.64516 0.112162,1.45814 0.07013,2.83453 0.354838,4.25806 0.772345,3.86173 -0.139393,0.21545 0.709676,1.06452 0.264483,0.26448 0.187568,0.72997 0.35484,1.06452 0.236559,0.47312 0.513226,0.92822 0.709676,1.41935 0.08786,0.21964 -0.105791,0.49809 0,0.70968 0.67432,1.34864 0.21635,-1.54923 1.064517,1.41935 0.129977,0.45492 -0.114747,0.96037 0,1.41936 0.245102,0.98041 0.798616,1.86374 1.064517,2.83871 0.09336,0.34233 -0.11221,0.72788 0,1.06451 0.0374,0.11221 0.301942,-0.10579 0.354838,0 0.147616,0.29524 -0.04124,1.44431 0,1.7742 0.873958,6.99166 -0.2682,0.52811 0.709678,2.48387 0.359686,0.71937 0,2.42327 0,3.19355 0,0.23656 0.167273,0.5424 0,0.70967 -0.167272,0.16728 -0.498094,-0.10579 -0.709678,0 -1.405208,0.70261 -1.56595,0.26689 -3.193548,-0.70967 z"
         id="path42" />
      <path
         style="fill:#ffe680;stroke:#000000;stroke-width:0.626999;stroke-opacity:0"
         d="m 230.02844,182.34785 12.77419,-47.90323"
         id="path43" />
      <path
         style="fill:#ffd42a;stroke:#000000;stroke-width:0.626999;stroke-opacity:0"
         d="m 57.931669,178.44462 c -1.86331,-5.05755 -2.834836,-6.71481 -3.548388,-11.70968 -0.186979,-1.30885 0.143999,-2.60724 0,-3.90322 -0.376394,-3.38755 -0.705467,-7.61059 -0.354838,-11 0.186179,-1.79973 0.782328,-3.53539 1.064516,-5.32258 2.930964,-18.56278 0.04945,-1.43538 1.419355,-11.70968 0.118279,-0.5914 0.236559,-1.1828 0.354838,-1.77419 0.118279,-0.23656 0.290692,-0.4531 0.354841,-0.70968 0.445521,-1.78209 0.801031,-11.32406 0.354838,-12.77419 -1.282716,-4.16883 -2.924588,-9.09665 -6.387098,-12.06452 -1.009906,-0.86563 -2.183643,-1.61824 -3.193547,-2.48387 -1.418569,-1.21592 -2.601804,-2.60195 -4.258066,-3.54839 -0.974254,-0.55671 -2.139006,-0.68104 -3.193548,-1.06451 -0.598606,-0.21768 -1.144645,-0.612829 -1.774192,-0.709682 -1.693241,-0.260498 -4.472988,-0.139914 -5.677421,1.064512 -0.187016,0.18702 -0.134777,0.56297 -0.354838,0.70968 -0.196829,0.13122 -0.542404,-0.16727 -0.709679,0 -0.26448,0.26448 -0.130418,0.76529 -0.354838,1.06452 -0.158689,0.21158 -0.522661,0.16782 -0.709676,0.35484 -0.03559,0.0356 -1.297956,2.00763 -1.419355,2.12903 -0.08364,0.0836 -0.301942,-0.10579 -0.35484,0 -0.105791,0.21158 0.121708,0.50683 0,0.70968 -0.505143,0.8419 -1.584328,1.31197 -2.129031,2.12903 -0.618852,0.92828 -0.829731,3.29278 -1.064517,3.90322 -0.247581,0.64372 -0.792837,1.14028 -1.064516,1.7742 -0.307909,0.71845 0.03116,4.27015 0,4.6129 -0.122068,1.34274 -0.892691,3.88831 -0.354839,5.32258 0.242163,0.64577 0.784411,1.14396 1.064517,1.7742 0.22461,0.50537 0.103294,1.98078 0.354838,2.48387 0.0529,0.10579 0.317437,-0.11221 0.354838,0 0.41882,1.25645 1.675628,6.68279 1.064517,8.51613 -0.0374,0.11221 -0.249047,-0.0529 -0.354838,0 -0.653264,0.32663 -0.05641,0.73788 -0.709679,1.06451 -0.812601,0.4063 -4.079366,0.13339 -4.612902,0 -0.324557,-0.0811 -0.39906,-0.58543 -0.709678,-0.70968 -0.329459,-0.13178 -0.727886,0.11221 -1.064516,0 -0.11221,-0.0374 0.06561,-0.25642 0,-0.35483 -0.185572,-0.27836 -0.595349,-0.39528 -0.709677,-0.70968 -0.928095,-2.55226 -0.709678,-5.16147 -0.709678,-7.80645 0,-3.09009 0.203871,-6.19097 0.709678,-9.22581 0.492221,-2.95333 1.636811,-5.91764 2.129032,-8.87097 0.01449,-0.0869 -0.140545,-1.4931 0,-1.77419 1.672875,-3.34575 3.561947,-6.55854 5.67742,-9.580647 4.842478,-7.747965 -0.907232,0.754507 3.548385,-4.258064 0.566656,-0.637484 1.037916,-1.366152 1.419355,-2.129033 0.0529,-0.105791 -0.09841,-0.289229 0,-0.354838 1.571789,-1.047858 4.975132,-1.893705 6.387097,-2.129033 1.050033,-0.175004 2.129033,0 3.19355,0 6.507112,0 6.785959,2.946006 10.290323,7.451614 1.185939,1.52478 1.425236,1.429157 2.483869,3.193551 0.344244,0.57374 1.030454,0.87489 1.419354,1.41935 0.307454,0.43044 0.365435,1.01774 0.709679,1.41936 0.384876,0.44902 1.001173,0.64633 1.419355,1.06451 0.282379,0.28238 0.472011,1.37809 0.709678,1.7742 0.304271,0.50712 0.751075,0.91785 1.064514,1.41935 0.902605,1.44417 1.375254,3.10534 2.129033,4.6129 0.308436,0.61687 0.846421,1.11991 1.064517,1.7742 0.26448,0.79344 0.118846,1.68149 0.354838,2.48387 0.359455,1.22214 0.990894,2.34869 1.419355,3.54839 0.241982,0.67755 0.102216,1.45537 0.354838,2.12903 0.278598,0.74292 0.785921,1.38611 1.064516,2.12903 0.394674,1.05246 0.511842,2.91404 0.709679,3.90323 0.359831,1.79915 0.857771,3.46187 1.064517,5.32258 0.217365,1.9563 0,4.07032 0,6.03225 0,1.15861 0.28186,2.77578 0,3.90323 -0.129583,0.51832 -2.241093,6.85399 -2.838712,7.45161 -0.75764,0.75764 0.0074,-1.79993 -0.709676,0.70968 -0.165688,0.57991 -0.13085,1.21422 -0.354838,1.77419 -0.636162,1.59041 -2.137868,3.23772 -2.483872,4.96775 -0.369482,1.84741 -0.203761,2.74031 -0.709678,4.25806 -0.197448,0.59235 0,1.4906 0,2.12903 0,0.89874 -0.297807,2.30013 0,3.19355 0.567303,1.70191 1.56819,3.28521 2.129033,4.96774 0.10645,0.31936 -0.106452,0.74516 0,1.06452 0.308412,0.92524 1.383816,2.59049 1.064517,3.54839 -0.201425,0.60427 -0.508257,1.16992 -0.709679,1.77419 -0.0374,0.11221 0.08364,0.2712 0,0.35484 -0.236559,0.11828 -0.473117,0.23656 -0.709676,0.35484 0,0.11828 0.08364,0.2712 0,0.35484 -0.234617,0.23461 -2.93842,0.17008 -3.19355,0 -0.556718,-0.37115 -0.946237,-0.94624 -1.419354,-1.41936 z"
         id="path44" />
      <path
         style="fill:#ffe680;stroke:#000000;stroke-width:0.626999;stroke-opacity:0"
         d="M 269.77039,228.47688 250.96392,128.05753"
         id="path45" />
      <path
         style="fill:#ffe680;stroke:#000000;stroke-width:0.626999;stroke-opacity:0"
         d="M 284.6736,224.21881 254.15747,89.380105"
         id="path47" />
      <path
         style="fill:#d3bc5f;stroke:#000000;stroke-width:0.626999;stroke-opacity:0"
         d="m 127.83489,172.41236 c -0.35483,-1.18279 -0.64918,-2.38545 -1.06451,-3.54838 -0.75236,-2.10662 -2.65936,-3.45161 -3.19355,-5.67742 -0.563,-2.34583 -0.87118,-4.74744 -1.41935,-7.09678 -0.28061,-1.20257 -0.84362,-2.33343 -1.06452,-3.54838 -0.56309,-3.09699 -0.50067,-6.44554 -0.70968,-9.58065 0.54617,-1.934 -0.53978,-3.80851 -0.70968,-5.67742 -0.22878,-2.51666 -0.14017,-5.2834 0,-7.80645 0.042,-0.75567 0.66461,-4.58668 0.35484,-6.03226 -0.25874,-1.20746 -0.81012,-2.34 -1.06451,-3.54838 -0.22065,-1.0481 -0.14479,-2.14329 -0.35484,-3.19355 -0.14671,-0.73354 -0.55294,-1.39758 -0.70968,-2.12904 -0.3015,-1.40699 -0.42748,-2.84707 -0.70968,-4.25806 -0.28307,-1.41536 0,-3.13155 0,-4.6129 0,-3.05216 -0.0319,-5.803514 -0.35484,-8.870971 -0.006,-0.0601 -0.87954,-5.492451 -1.06451,-5.677419 -0.16727,-0.167272 -0.48526,0.07481 -0.70968,0 -1.41432,-0.471442 -2.81786,-2.473447 -4.25806,-3.19355 -0.42317,-0.211584 -0.95543,0.09279 -1.41936,0 -0.68531,-0.137059 -1.02983,-0.354838 -1.77419,-0.354838 -0.35484,0 -0.95231,0.33663 -1.06452,0 -0.0267,-0.08014 -0.61601,-5.061407 -0.35484,-5.32258 0.0836,-0.08364 0.2712,0.08364 0.35484,0 0.0836,-0.08364 -0.10579,-0.301943 0,-0.354838 0.66464,-0.332317 1.29855,0.196289 1.77419,0.354838 0.4716,0.157199 1.32366,-0.225269 1.7742,0 0.78933,0.394665 1.58346,0.259471 2.48387,0.709678 1.27617,0.638085 0.26006,0.614897 1.06451,1.419355 0.39345,0.393443 2.08588,0.666517 2.48388,1.064514 0.30155,0.301556 0.3685,0.808641 0.70967,1.064517 0.18925,0.141935 0.4981,-0.105791 0.70968,0 0.29923,0.149613 0.44204,0.508949 0.70968,0.709678 0.21158,0.158689 0.52266,0.167823 0.70968,0.354838 2.63101,2.631019 3.82201,5.788612 4.96774,9.225807 0.42492,1.274773 0.89401,1.659048 1.06451,3.193551 0.31639,2.84744 -0.20612,5.69048 -0.35484,8.51613 -0.0995,1.88985 0,3.78494 0,5.67741 0,4.34701 0.33297,8.80043 0,13.12904 -0.0463,0.60133 -0.28823,1.17477 -0.35483,1.77419 -0.2557,2.30124 0.13528,4.79691 0,7.09678 -0.09,1.53032 -0.62035,3.37467 -0.35484,4.96774 0.0802,0.48104 0.23656,0.94623 0.35484,1.41935 0.11828,1.7742 0.1779,3.55327 0.35483,5.32258 0.44053,4.40527 1.22011,8.56163 2.48388,12.77419 0.63178,2.10595 2.48387,5.74841 2.48387,7.45162 0,1.30107 0,2.60215 0,3.90322 0,0.35615 -0.17635,1.50861 -0.35484,1.41936 -0.52896,-0.26448 -0.94624,-0.70968 -1.41936,-1.06452 z"
         id="path48" />
      <path
         style="fill:#aa8800;stroke:#000000;stroke-width:0.626999;stroke-opacity:0"
         d="m 290.35103,181.99301 11,-100.419354"
         id="path49" />
      <path
         style="fill:#aa8800;stroke:#000000;stroke-width:0.626999;stroke-opacity:0"
         d="m 90.22199,174.5414 c -2.756543,-5.63566 -1.156177,-11.25137 0,-17.03226 0.210275,-1.05138 -0.630823,0.78853 0,-1.41936 0.507761,-1.01552 0.803462,-1.43965 1.064516,-2.48387 0.46845,-1.8738 0.498023,-5.33507 0.709679,-7.45161 0.101184,-1.01186 1.018344,-6.51506 0.709676,-8.16129 -0.188267,-1.0041 -1.799172,-7.74944 -2.129031,-8.87097 -0.179729,-0.61107 -0.555193,-1.15626 -0.709678,-1.77419 -0.346536,-1.38615 0.150092,-3.84858 0.709678,-4.96775 0.149612,-0.29922 0.524105,-0.43131 0.709676,-0.70967 0.06561,-0.0984 -0.08364,-0.2712 0,-0.35484 7.94e-4,-7.9e-4 1.59494,0.97305 2.129034,1.77419 0.196828,0.29525 -0.131784,0.73506 0,1.06452 0.124245,0.31062 0.537553,0.42281 0.709675,0.70968 0.519941,0.86656 0.563129,1.96128 1.064517,2.83871 0.165981,0.29046 0.543698,0.41921 0.709679,0.70967 0.593865,1.03927 0.782537,2.06563 1.064516,3.19355 0.756195,3.02479 0.04725,6.1499 0.354838,9.22581 0.558202,5.58202 0.04626,10.76873 -1.064516,16.32258 -0.256471,1.28235 -0.531016,2.12655 -1.064517,3.19355 -0.07481,0.14961 -0.301942,0.19615 -0.354838,0.35483 -0.07481,0.22442 0.13122,0.51285 0,0.70968 -0.146709,0.22007 -0.52266,0.16783 -0.709679,0.35484 -0.390427,0.39043 -1.267936,3.29756 -1.419354,3.90323 -0.200808,0.80323 0,1.65591 0,2.48387 0,0.35053 -0.131331,1.9977 0,2.12903 0.08364,0.0836 0.236561,0 0.354841,0 0.118279,0.35484 0.121181,0.77245 0.354838,1.06452 1.166566,1.4582 0.843385,0.10028 2.12903,1.06451 0.211587,0.15869 0.167823,0.52266 0.354841,0.70968 0.167272,0.16727 0.473117,0 0.709676,0 0.591399,0 1.188741,0.0836 1.774195,0 3.624978,-0.51785 4.164018,-4.39347 5.322578,-7.09677 0.86764,-2.02449 2.45289,-5.53449 3.54839,-7.45162 0.0587,-0.10269 0.23656,0 0.35484,0 0.11828,-0.11828 0.28003,-0.20522 0.35484,-0.35484 1.87784,-3.75569 2.59385,-9.40082 4.25806,-13.8387 0.21177,-0.56471 0.0851,-1.23476 0.35484,-1.7742 1.17592,-2.35184 3.18216,-4.32115 4.25806,-6.74193 0.19807,-0.44565 0.10393,-1.00118 0.35484,-1.41936 1.46566,-2.44277 0.15442,0.55526 1.06452,-0.35484 0.16727,-0.16727 -0.0879,-0.49004 0,-0.70967 0.62895,-1.57239 1.18964,-3.20382 2.12903,-4.61291 2.93649,-4.40473 2.38992,6.85684 2.12903,8.16129 -0.35882,1.79412 -1.38215,3.99694 -2.12903,5.67742 -0.42966,0.96675 -1.02645,1.85645 -1.41935,2.83871 -0.13179,0.32946 0.0502,0.71324 0,1.06452 -0.30637,2.14458 -0.90897,4.557 -2.12904,6.38709 -0.55918,0.83878 -1.58744,1.72565 -2.12903,2.48387 -1.09414,1.5318 -1.64744,3.29488 -2.48387,4.96775 -0.19072,0.38144 -0.53647,0.67481 -0.70968,1.06451 -0.81196,1.82692 -0.81621,3.86798 -1.41935,5.67742 -0.18702,0.56105 -0.80004,0.89039 -1.06452,1.41936 -0.33454,0.66909 -0.29472,1.5066 -0.70968,2.12903 -0.47311,0.70968 -0.35483,-0.82796 -0.35483,0.35484 0,0.94624 0.11828,-0.11828 -0.35484,0.35484 -0.0836,0.0836 0,0.23656 0,0.35484 -0.11828,0.23656 -0.16782,0.52266 -0.35484,0.70967 -0.18636,0.18636 -1.41279,0.71625 -0.70968,1.41936 0.16727,0.16727 0.49809,-0.10579 0.70968,0 0.29923,0.14961 0.41045,0.56006 0.70968,0.70968 0.63475,0.31737 1.41935,0 2.12903,0 3.71959,0 6.61576,-1.64802 9.2258,-4.25807 0.30156,-0.30155 0.40813,-0.76296 0.70968,-1.06451 0.18702,-0.18702 0.52266,-0.16783 0.70968,-0.35484 0.0836,-0.0836 -0.0374,-0.24263 0,-0.35484 0.31957,-0.95872 0.59705,-1.94275 1.06451,-2.83871 1.15416,-2.21213 2.13892,-4.62279 3.90323,-6.3871 0.18702,-0.18702 0.52266,-0.16782 0.70968,-0.35484 0.41818,-0.41818 0.5914,-1.06451 1.06452,-1.41935 0.50956,-0.38217 1.24421,-0.35636 1.77419,-0.70968 0.90734,-0.60489 1.58728,-1.50832 2.48387,-2.12903 3.96767,-2.74685 0.5181,0.46835 3.54839,-2.12903 1.80712,-1.54896 2.16788,-3.83675 3.54838,-5.67742 0.51176,-0.68235 0.86428,-1.48145 1.41936,-2.12904 0.55507,-0.64759 1.4738,-0.87332 2.12903,-1.41935 0.38551,-0.32126 0.58845,-0.90583 1.06452,-1.06452 0.22442,-0.0748 0.49809,0.1058 0.70967,0 0.54284,-0.094 0.61568,-0.84009 1.06452,-1.06451 0.0885,-0.0442 1.39724,-0.0442 1.41935,0 0.1058,0.21158 0,0.47312 0,0.70967 0.11828,0.35484 0.16241,0.74379 0.35484,1.06452 0.17212,0.28687 0.65468,0.37969 0.70968,0.70968 0.36901,2.21402 -3.63565,6.50344 -4.6129,7.80645 -0.31738,0.42317 -0.41626,0.97923 -0.70968,1.41935 -1.27617,1.91426 -0.11045,-0.24439 -1.41935,1.06452 -0.30156,0.30156 -0.44327,0.7315 -0.70968,1.06452 -0.76157,0.95195 -0.74958,0.59966 -1.7742,1.41935 -1.16226,0.92982 -0.43585,0.65378 -1.41935,2.12903 -1.27617,1.91426 -0.11045,-0.24439 -1.41935,1.06452 -0.18702,0.18702 -0.1558,0.53551 -0.35484,0.70968 -0.76574,0.67001 -1.66989,1.1637 -2.48387,1.77419 -0.62951,0.47213 -0.33061,0.68545 -1.06452,1.41936 -1.39668,1.39667 -0.72076,0.0148 -1.77419,1.41935 -0.15869,0.21159 -0.16783,0.52266 -0.35484,0.70968 -0.38016,0.38015 -2.20309,1.70786 -2.48387,2.12903 -0.4305,0.64574 -0.16729,0.65772 -0.70968,1.06452 -0.34117,0.25587 -0.76296,0.40812 -1.06452,0.70967 -0.0836,0.0836 0.0836,0.27121 0,0.35484 -0.0836,0.0836 -0.23656,0 -0.35484,0 -0.11827,0.35484 -0.12118,0.77245 -0.35484,1.06452 -0.50267,0.62835 -1.16798,0.66038 -1.77419,1.06451 -1.20606,0.80405 -1.82763,2.15576 -3.19355,2.83871 -0.21158,0.1058 -0.48525,-0.0748 -0.70967,0 -0.6543,0.2181 -1.11991,0.84642 -1.7742,1.06452 -0.22442,0.0748 -0.47771,-0.0464 -0.70968,0 -0.93038,0.18608 -1.60391,0.84453 -2.48387,1.06452 -0.69798,0.17449 -1.41679,0.25309 -2.12903,0.35483 -0.23418,0.0335 -0.5424,-0.16727 -0.70968,0 -0.0836,0.0836 0.0836,0.27121 0,0.35484 -0.3624,0.3624 -1.64197,-0.24353 -2.12903,0 -0.10579,0.0529 0.10579,0.30195 0,0.35484 -0.70142,0.35071 -6.5178,0.1334 -7.45161,0 -0.9031,-0.12901 -1.903138,-0.55375 -2.83871,-0.70968 -0.477168,-0.0795 -1.621573,0.16916 -2.129033,0 -0.425805,-0.14193 -0.63871,-0.92258 -1.064517,-1.06451 -0.224419,-0.0748 -0.498091,0.10579 -0.709676,0 -0.105794,-0.0529 0.105794,-0.30194 0,-0.35484 -0.317378,-0.15869 -0.813607,0.25091 -1.064517,0 -0.08363,-0.0836 0.08364,-0.2712 0,-0.35484 -0.186719,-0.18672 -3.463874,-1.03634 -3.548387,-1.06451 z"
         id="path50" />
      <path
         style="fill:#aa8800;stroke:#000000;stroke-width:0.626999;stroke-opacity:0"
         d="M 256.2865,204.34785 243.86715,125.21882"
         id="path51" />
      <path
         style="fill:#aa8800;stroke:#000000;stroke-width:0.626999;stroke-opacity:0"
         d="m 285.38327,126.28333 34.41938,125.25806"
         id="path52" />
      <path
         style="fill:#ffeeaa;stroke:#000000;stroke-width:0.626999;stroke-opacity:0"
         d="m 155.51231,166.02527 c -1.72069,-4.20248 -1.41332,-8.44378 -1.77419,-12.7742 -0.15556,-1.86677 -0.93681,-3.15943 0.35484,-4.96774 0.2174,-0.30436 0.78053,-0.11142 1.06452,-0.35484 2.56853,-2.2016 0.0192,-1.99093 4.25806,-2.83871 2.70723,-0.54144 6.31281,0.92424 8.87096,-0.35484 1.58223,-0.79111 3.13962,-3.79535 3.90323,-5.32258 0.28486,-0.56971 0.45099,-1.19213 0.70968,-1.77419 1.05759,-2.37958 2.24385,-2.91872 -1.77419,-4.25806 -1.68347,-0.56116 -4.8789,0.33262 -6.3871,0.70967 -1.31182,0.32796 -2.66379,0.045 -3.90323,0.35484 -0.16228,0.0406 -0.19256,0.31427 -0.35483,0.35484 -0.69799,0.1745 -1.42354,0.21374 -2.12904,0.35484 -1.31521,0.26304 -2.63954,-0.23449 -3.90322,-0.35484 -2.00516,-0.19097 -4.02031,-0.25903 -6.03226,-0.35484 -3.52903,-0.16805 -7.11153,0 -10.64516,0 -1.97777,0 -5.57227,1.02514 -6.3871,-1.41935 -0.22442,-0.67326 0,-1.41936 0,-2.12904 0,-2.90788 1.32788,-4.01261 3.19355,-6.38709 1.58497,-2.01725 4.33845,-5.58594 6.74193,-6.3871 1.6868,-0.56226 4.40734,0.8105 5.67742,1.06452 0.57992,0.11598 1.18874,-0.0836 1.7742,0 0.37177,0.0531 1.64952,1.00218 1.77419,1.06451 1.32866,0.66433 4.07917,1.70382 5.67742,1.06452 0.49113,-0.19645 0.94624,-0.47312 1.41935,-0.70968 1.30108,-0.35484 2.62384,-0.63805 3.90323,-1.06451 2.2506,-0.7502 4.29121,-2.14561 6.3871,-3.19355 0.56971,-0.28486 1.21739,-0.40035 1.77419,-0.70968 1.80211,-1.00117 1.01704,-0.95557 2.48387,-2.12903 0.20653,-0.16522 0.56297,-0.13478 0.70968,-0.35484 0.13122,-0.19683 -0.10579,-0.49809 0,-0.70968 0.10579,-0.21158 0.64469,0.22746 0.70968,0 0.47435,-1.66022 0.45516,-4.93245 0.35484,-6.3871 -0.26086,-3.78242 0.0458,-6.75336 -2.83871,-9.225801 -1.76952,-1.516732 -5.31094,-0.305811 -7.45162,0 -0.44709,0.06387 -2.9008,-0.07984 -3.19354,0 -0.76549,0.208769 -1.41936,0.709678 -2.12904,1.064516 -0.94623,0.354838 -1.8583,0.819415 -2.83871,1.064517 -1.74539,0.436348 -4.27962,-0.134819 -6.03226,0 -1.75129,0.134715 -7.09931,2.127758 -8.51612,1.419358 -0.14962,-0.0748 -0.19082,-0.32204 -0.35484,-0.35484 -0.46393,-0.09279 -0.96444,0.12997 -1.41936,0 -0.94866,-0.271049 -2.51641,-1.624427 -2.83871,-2.483873 -0.18035,-0.480938 -0.40242,-3.855648 -0.35484,-3.903226 0.65322,-0.653222 1.3215,-1.325559 2.12904,-1.774195 0.31018,-0.172323 0.7145,0.05833 1.06451,0 0.36895,-0.06149 0.7143,-0.223507 1.06452,-0.354838 1.96049,-0.735184 1.60151,-1.09189 3.19355,-1.774193 1.58939,-0.681169 3.61017,-1.133953 5.32258,-1.419354 0.83915,-0.139859 2.02597,0 2.83871,0 0.91629,0 3.23523,-0.340948 4.25806,0 1.32976,0.443251 2.32188,1.515777 3.54839,2.12903 1.40138,0.700691 2.14701,0.718667 3.54838,1.419355 0.38145,0.19072 0.65994,0.574818 1.06452,0.709679 0.33663,0.112209 0.72789,-0.11221 1.06452,0 0.65429,0.218096 1.1199,0.846418 1.77419,1.064516 0.53226,0.177419 0.35484,-0.35484 1.06452,0 1.61532,1.615327 -0.14698,0.187566 1.41935,0.709676 0.93015,0.31005 -0.22221,0.487469 0.35484,1.064517 0.35484,0.354838 0.70968,-0.177419 1.06452,0 0.2164,0.108204 0.94728,0.475218 1.06451,0.709679 0.0529,0.105791 -0.0836,0.2712 0,0.354838 0.31846,0.318455 1.81058,0.39122 2.12904,0.709676 0.18701,0.187018 0.23655,0.47312 0.35483,0.709678 0.47312,0.236559 1.00631,0.379238 1.41936,0.709676 0.33301,0.266412 0.40812,0.762963 0.70968,1.064517 0.18701,0.187018 0.59139,0.118279 0.70967,0.354842 0.1058,0.21158 0,0.47312 0,0.70967 0.11828,0.23656 0.21877,0.48289 0.35484,0.70968 0.30427,0.50712 0.94854,0.83944 1.06452,1.41936 0.0928,0.46393 -0.0778,0.95267 0,1.41935 0.13977,0.83865 0.88914,1.60698 1.06451,2.48387 0.25823,1.29114 0.84417,4.20946 0.35484,5.67742 -0.31015,0.93045 -1.52874,1.24061 -2.12903,1.77419 -0.69045,0.61374 -1.08374,1.5153 -1.77419,2.12904 -0.39535,0.35142 -1.04532,0.33564 -1.41936,0.70967 -0.16727,0.16728 0.0748,0.48526 0,0.70968 -0.26294,0.78882 -0.78558,-0.004 -1.06451,0.35484 -0.70968,1.06452 -1.41936,2.12903 -2.12904,3.19355 -0.35483,0.23656 -0.7981,0.37666 -1.06451,0.70968 -0.1272,0.15899 -0.40767,1.54769 -0.70968,1.77419 -1.15549,0.86662 -4.0772,1.48895 -5.67742,2.12903 -0.49113,0.19646 -0.90299,0.59493 -1.41935,0.70968 -0.45292,0.10065 -5.37604,0.54233 -6.03226,0.35484 -0.63969,-0.18277 -1.43403,-0.83285 -2.12903,-1.06452 -3.45955,-1.15318 -6.31831,-1.06451 -9.93549,-1.06451 -0.5692,0 -3.03762,-0.39783 -2.48387,0.70967 1.31931,2.63861 0.87803,0.97128 3.19355,2.12904 1.0821,0.54105 -0.64898,0.2813 1.06452,0.70967 0.35182,0.088 1.06397,-0.1523 1.41935,0 0.72929,0.31256 1.39975,0.75197 2.12903,1.06452 1.00752,0.43179 2.5007,-0.34923 3.54839,0 2.03554,0.67851 7.4358,0.66124 9.58064,0.35484 0.37028,-0.0529 0.69338,-0.30845 1.06452,-0.35484 0.58683,-0.0734 1.20046,0.14343 1.7742,0 0.66909,-0.16727 1.1199,-0.84642 1.77419,-1.06452 0.77407,-0.25802 2.08698,0.094 2.83871,0 1.47014,-0.18376 4.95665,-0.83165 6.3871,-0.35483 1.12705,0.37568 1.87615,1.57229 2.48387,2.48387 0.32805,0.49207 0.87749,0.8583 1.06451,1.41935 0.0748,0.22442 -0.0574,0.48018 0,0.70968 0.90158,3.6063 1.41936,3.39948 1.41936,7.09677 0,0.47312 0.26244,1.0257 0,1.41936 -0.18558,0.27836 -0.56007,0.41045 -0.70968,0.70967 -0.90292,1.80584 1.75898,-0.69446 -0.70968,1.7742 -0.0836,0.0836 -0.2712,-0.0836 -0.35484,0 -0.93057,0.93057 0.37118,0.62174 -1.06451,1.41935 -4.74849,2.63805 -0.45549,-0.007 -4.25807,1.41936 -0.55894,0.2096 -3.41487,1.64068 -3.90322,2.12903 -0.0836,0.0836 0.0984,0.28923 0,0.35484 -0.24954,0.16635 -1.78071,0.9484 -2.12903,1.06451 -0.22442,0.0748 -0.54241,-0.16727 -0.70968,0 -0.26448,0.26449 -0.0556,0.8401 -0.35484,1.06452 -0.28387,0.2129 -0.71657,-0.0696 -1.06452,0 -0.45973,0.0919 -0.95962,0.61773 -1.41935,0.70968 -0.57992,0.11598 -1.28212,-0.32805 -1.7742,0 -1.02108,0.68072 -1.88285,1.71919 -2.8387,2.48387 -1.40003,1.12002 0.008,-0.71816 -1.7742,1.06451 -0.0836,0.0836 0.0836,0.27121 0,0.35484 -0.73417,0.73418 0.0287,-1.12191 -0.70968,0.35484 -0.70521,1.41043 -0.0965,1.03064 -0.35484,2.83871 -0.0374,0.26183 -0.2712,0.45877 -0.35483,0.70968 -0.45684,1.3705 0,3.4996 0,4.96774 0,0.39414 0.25091,2.23296 0,2.48387 -0.48768,0.48768 -1.22245,-0.6507 -1.7742,-1.06451 z"
         id="path53" />
      <path
         style="fill:#ffeeaa;stroke:#000000;stroke-width:0.626999;stroke-opacity:0"
         d="M 234.2865,196.18656 266.57681,72.347849"
         id="path54" />
    </g>
  </g>
</svg>
