<?xml version="1.0" encoding="UTF-8" standalone="no"?>
<!-- Created with Inkscape (http://www.inkscape.org/) -->

<svg
   width="210mm"
   height="297mm"
   viewBox="0 0 210 297"
   version="1.1"
   id="svg1"
   sodipodi:docname="alien happy.svg"
   inkscape:version="1.3.2 (091e20e, 2023-11-25, custom)"
   xml:space="preserve"
   xmlns:inkscape="http://www.inkscape.org/namespaces/inkscape"
   xmlns:sodipodi="http://sodipodi.sourceforge.net/DTD/sodipodi-0.dtd"
   xmlns="http://www.w3.org/2000/svg"
   xmlns:svg="http://www.w3.org/2000/svg"><sodipodi:namedview
     id="namedview1"
     pagecolor="#ffffff"
     bordercolor="#000000"
     borderopacity="0.25"
     inkscape:showpageshadow="2"
     inkscape:pageopacity="0.0"
     inkscape:pagecheckerboard="0"
     inkscape:deskcolor="#d1d1d1"
     inkscape:document-units="mm"
     inkscape:zoom="0.52724989"
     inkscape:cx="449.50223"
     inkscape:cy="568.04185"
     inkscape:window-width="1920"
     inkscape:window-height="1051"
     inkscape:window-x="-9"
     inkscape:window-y="-9"
     inkscape:window-maximized="1"
     inkscape:current-layer="layer1" /><defs
     id="defs1" /><g
     inkscape:groupmode="layer"
     id="layer1"
     inkscape:label="Layer 1"><path
       style="fill:#ab37c8;fill-opacity:1;stroke:#d35f8d;stroke-width:0.626999;stroke-opacity:0"
       d="m 123.94897,232.84342 c -13.94888,1.08514 -28.153191,1.5787 -42.152684,0.50182 -9.355281,-0.71964 -18.85587,-2.74441 -25.090885,-10.53818 -3.414786,-4.26848 -0.829286,-2.24756 -3.010905,-5.51999 -0.594122,-0.89118 -1.384726,-1.63753 -2.007272,-2.50909 -1.165879,-1.63223 -1.458219,-3.87284 -2.007272,-5.52 -0.236559,-0.70967 -0.747988,-1.30424 -1.003633,-2.00727 -1.415939,-3.89383 -1.505453,-7.94035 -1.505453,-12.04362 0,-6.00679 -0.350094,-12.10207 0.501817,-18.06544 0.592545,-4.14781 0.275804,-0.91934 1.505452,-5.01818 0.927751,-3.0925 0.56284,-6.39249 1.505453,-9.53453 1.050904,-3.50301 2.060006,-6.97229 3.010908,-10.53817 0.921917,-3.4572 1.34507,-6.54431 2.509089,-10.03636 0.473117,-1.41935 1.481942,-2.61367 2.007269,-4.01454 0.117467,-0.31325 -0.105791,-0.68626 0,-1.00364 1.213366,-3.64009 3.14964,-6.98469 4.516361,-10.53817 0.306181,-0.79607 0.232098,-1.69993 0.501816,-2.50909 1.142828,-3.42848 2.599791,-4.65241 4.516359,-7.52726 0.63709,-0.95563 4.349667,-10.87504 4.51636,-11.54181 0.246774,-0.9871 0.101013,-2.0757 0.501817,-3.0109 2.465877,-5.753716 0.20057,-1.20421 3.010908,-4.014546 0.118279,-0.118279 -0.08606,-0.358383 0,-0.501819 0.430305,-0.717175 0.914053,-1.415873 1.505453,-2.00727 1.093171,-1.093173 5.132313,-3.820702 6.52363,-4.51636 0.946237,-0.473118 2.06467,-0.530517 3.010905,-1.003634 0.149614,-0.07481 -0.141846,-0.413165 0,-0.501819 0.982692,-0.61418 6.560077,-3.225753 8.530902,-2.509089 2.819961,1.02544 5.729295,2.813854 8.530895,4.014542 0.3438,0.147338 0.79617,0.190603 1.00364,0.501819 0.18557,0.278357 -0.20899,0.742399 0,1.003633 6.6909,8.363633 -2.50909,-5.519994 3.51273,3.512725 2.03104,3.046571 -1.44458,-1.571257 1.00363,2.509089 0.24342,0.405696 0.76022,0.597939 1.00363,1.003636 0.27216,0.45358 0.18445,1.082283 0.50182,1.505453 0.22442,0.29922 0.77922,0.20259 1.00364,0.50182 0.31738,0.42317 0.22967,1.05187 0.50182,1.50545 1.12175,1.86959 3.11041,3.3779 4.51636,5.01818 2.21624,2.58561 3.6413,5.71286 5.51999,8.5309 0.46393,0.69589 1.16577,1.24299 1.50545,2.00727 1.04795,2.35788 1.30818,5.96754 2.00728,8.5309 0.28003,1.97603 1.4694,3.63745 2.00727,5.52 1.7572,6.1502 2.07296,12.92074 4.01454,19.06907 0.14247,0.45116 0.66909,0.66909 1.00363,1.00363 0.50182,1.33818 1.12941,2.63573 1.50546,4.01454 0.13203,0.48414 -0.10886,1.01559 0,1.50546 0.33454,1.00363 0.66909,2.00727 1.00363,3.01091 0,0.33454 -0.0656,0.67558 0,1.00363 1.90452,9.5226 4.55127,18.91635 5.52,28.60361 0.32997,3.29978 0,6.70482 0,10.03635 0,5.772 -0.40956,11.4698 -2.00727,17.06181 -0.42899,1.50144 -0.5971,0.64474 -1.50546,2.00727 -0.3519,0.52785 -0.12936,2.01248 -0.50182,2.50908 -3.26247,4.34997 0.19863,-0.56035 -3.0109,2.00728 -0.47095,0.37676 -0.64177,1.02296 -1.00364,1.50545 -0.88177,1.1757 -2.02405,1.52224 -3.0109,2.50909 -2.49228,2.49228 1.97857,-2.21513 -0.50182,1.50545 -0.20748,0.31121 -0.79616,0.1906 -1.00364,0.50182 -0.18557,0.27836 0.1058,0.68626 0,1.00363 -0.22442,0.67326 -1.07964,0.93772 -1.50545,1.50546 -0.22442,0.29922 -0.12778,1.00363 -0.50182,1.00363 -0.90079,0 -2.04563,-1.77605 -2.50909,-1.00363 -0.62653,1.04422 0.83142,2.3072 1.00364,3.51272 0.002,0.0116 -1.80431,0 -3.01091,0"
       id="path310" /><path
       style="fill:#d42aff;fill-opacity:1;stroke:#d35f8d;stroke-width:0.581513;stroke-opacity:0"
       d="m 121.74477,229.24849 c -12.76492,1.01999 -25.763594,1.48391 -38.574823,0.4717 -8.561217,-0.67644 -17.255407,-2.57963 -22.961206,-9.90542 -3.124943,-4.01218 -0.758898,-2.1126 -2.755343,-5.18854 -0.543694,-0.83768 -1.267192,-1.53921 -1.836898,-2.35843 -1.06692,-1.53422 -1.334446,-3.6403 -1.836896,-5.18855 -0.21648,-0.66706 -0.684501,-1.22593 -0.918446,-1.88674 -1.295756,-3.66002 -1.377672,-7.46358 -1.377672,-11.32047 0,-5.64611 -0.320379,-11.37538 0.459223,-16.98069 0.54225,-3.89876 0.252394,-0.86414 1.377671,-4.71686 0.849004,-2.90682 0.515066,-6.00866 1.377672,-8.96203 0.961705,-3.29267 1.885155,-6.55365 2.755346,-9.9054 0.843665,-3.24962 1.230902,-6.15137 2.296121,-9.43373 0.432959,-1.33413 1.356156,-2.45673 1.836894,-3.77348 0.107497,-0.29445 -0.09681,-0.64506 0,-0.94338 1.110377,-3.42152 2.882298,-6.5653 4.133022,-9.9054 0.280192,-0.74828 0.212391,-1.59787 0.459217,-2.35844 1.045829,-3.22261 2.379123,-4.37305 4.133017,-7.07528 0.583016,-0.89825 3.980476,-10.22205 4.133018,-10.84878 0.225824,-0.92783 0.09244,-1.95107 0.459225,-2.83012 2.25657,-5.40822 0.183546,-1.1319 2.755348,-3.77349 0.108232,-0.11117 -0.07879,-0.33686 0,-0.47168 0.393776,-0.67411 0.836466,-1.33086 1.377669,-1.88675 1.000384,-1.027526 4.696687,-3.591281 5.969913,-4.24517 0.865924,-0.444702 1.889423,-0.498656 2.755338,-0.943367 0.136921,-0.07031 -0.1298,-0.388352 0,-0.471688 0.899291,-0.577301 6.003269,-3.03206 7.806817,-2.358431 2.580612,0.963867 5.242993,2.644901 7.806803,3.773486 0.31462,0.138493 0.72859,0.179165 0.91846,0.471688 0.16981,0.261646 -0.19127,0.697822 0,0.943376 6.12297,7.861426 -2.29613,-5.18855 3.21456,3.301806 1.85865,2.86362 -1.32195,-1.476921 0.91845,2.35842 0.22276,0.38133 0.69569,0.56203 0.91844,0.94337 0.24906,0.42635 0.16879,1.0173 0.45922,1.41505 0.20538,0.28126 0.71309,0.19043 0.91846,0.4717 0.29044,0.39776 0.21018,0.98871 0.45922,1.41506 1.02655,1.75732 2.84641,3.17507 4.13302,4.71686 2.02813,2.43036 3.33223,5.36983 5.05146,8.01866 0.42455,0.6541 1.06683,1.16836 1.37768,1.88674 0.95899,2.21631 1.19713,5.60922 1.8369,8.01866 0.25626,1.85738 1.34467,3.41904 1.8369,5.18855 1.60804,5.78091 1.897,12.14492 3.67378,17.92407 0.13038,0.42406 0.6123,0.62891 0.91845,0.94336 0.45922,1.25784 1.03355,2.47747 1.37767,3.77349 0.12083,0.45506 -0.0996,0.9546 0,1.41506 0.30615,0.94337 0.6123,1.88674 0.91845,2.83013 0,0.31444 -0.0601,0.635 0,0.94336 1.74286,8.95081 4.16496,17.78051 5.05146,26.8861 0.30196,3.10165 0,6.30223 0,9.43372 0,5.42542 -0.3748,10.78109 -1.8369,16.03732 -0.39257,1.41129 -0.54641,0.60603 -1.37767,1.88675 -0.32203,0.49616 -0.11837,1.89164 -0.45922,2.35842 -2.98556,4.08878 0.18177,-0.5267 -2.75534,1.88676 -0.43098,0.35412 -0.58731,0.96153 -0.91845,1.41505 -0.80694,1.1051 -1.85225,1.43083 -2.75535,2.35843 -2.28073,2.34263 1.81064,-2.08213 -0.45922,1.41505 -0.18988,0.29253 -0.72858,0.17916 -0.91845,0.47169 -0.16981,0.26165 0.0968,0.64506 0,0.94337 -0.20538,0.63284 -0.988,0.88141 -1.37767,1.41506 -0.20538,0.28126 -0.11694,0.94337 -0.45922,0.94337 -0.82433,0 -1.87201,-1.6694 -2.29612,-0.94337 -0.57336,0.98152 0.76085,2.16867 0.91844,3.3018 0.002,0.0109 -1.65116,0 -2.75534,0"
       id="path310-8" /><path
       style="fill:#ffd42a;fill-opacity:1;stroke:#d35f8d;stroke-width:0.626999;stroke-opacity:0"
       d="m 72.763567,234.85069 c -0.61713,4.14762 -2.107695,7.97918 -3.010905,12.04362 -0.100365,0.45164 0.200726,1.104 0,1.50546 -0.374034,0.74806 -1.075148,1.29009 -1.505453,2.00727 -0.08414,0.14023 -0.226867,10.13251 0,11.03999 0.09072,0.36286 0.428463,0.63686 0.501817,1.00363 0.135612,0.67805 -0.336418,2.33807 0,3.0109 0.105793,0.21159 0.455424,0.26985 0.501819,0.50184 0.131217,0.65608 -0.211585,1.3725 0,2.00726 0.501817,1.50545 1.003633,0.50181 1.505453,1.50545 0.0748,0.14962 -0.11828,0.38354 0,0.50181 0.118279,0.11829 0.427011,-0.1496 0.501816,0 0.149614,0.29924 -0.105791,0.68628 0,1.00364 0.08587,0.25763 1.299096,0.91454 1.505453,0.50181 0.224814,-0.4496 -0.39986,-4.21047 -0.501817,-4.51636 -0.0529,-0.15867 -0.334544,0 -0.501816,0 -0.167275,-0.33454 -0.38354,-0.64878 -0.50182,-1.00361 -0.378745,-1.13626 -0.272444,-2.36588 -0.501816,-3.51274 -0.07336,-0.36677 -0.448922,-0.63336 -0.50182,-1.00363 -0.135916,-0.95142 -0.357195,-12.97931 0,-14.0509 1.422334,-4.267 2.509089,-7.93829 2.509089,-12.54544 z"
       id="path312" /><path
       style="fill:#ffd42a;fill-opacity:1;stroke:#d35f8d;stroke-width:0.626999;stroke-opacity:0"
       d="m 113.91262,234.34887 c -0.3725,3.02063 1.0176,5.60376 1.50545,8.5309 0.11,0.65999 0,1.33818 0,2.00727 0.33455,1.33818 0.70441,2.66802 1.00364,4.01454 0.254,1.14303 -0.1925,2.35775 0,3.51273 0.17392,1.04353 0.77414,1.97817 1.00363,3.0109 0.41513,1.86807 -0.073,3.80465 -0.50181,5.52 -0.28399,1.13595 0,2.34182 0,3.51272 0,1.41725 0.2914,3.56115 0,5.01818 -0.11843,0.59211 -1.3796,3.13677 -1.00364,3.51271 0.35484,0.35486 1.05662,0.22442 1.50545,0 0.33455,-0.16726 0.16728,-0.83634 0.50182,-1.00361 0.43067,-0.21535 0.81871,0.4228 1.00364,-0.50184 0.47246,-2.36233 1.07313,-14.84602 0.50181,-16.55997 -0.71874,-2.15625 -0.70615,-5.92867 -1.50545,-7.52727 -0.21158,-0.42317 -0.74119,-0.60998 -1.00363,-1.00363 -0.27836,-0.41754 0.15868,-1.02939 0,-1.50546 -0.34018,-1.02052 -1.28019,-2.38638 -1.50546,-3.51272 -0.24345,-1.21728 -0.13364,-1.90639 -0.50181,-3.01091 -0.14962,-0.44884 -0.79206,-0.58046 -1.00364,-1.00363 -0.0748,-0.14962 0.11828,-0.38354 0,-0.50182 -0.11828,-0.11828 -0.50182,0.16727 -0.50182,0 0,-0.85293 0.33455,-1.67273 0.50182,-2.50909 z"
       id="path313" /><path
       style="fill:#ffd42a;fill-opacity:1;stroke:#d35f8d;stroke-width:0.492585;stroke-opacity:0"
       d="m 85.905184,142.37806 c 0.198785,1.01622 0.242519,2.12992 0.404661,3.16873 0.04769,0.30554 0.154639,0.55866 0.20233,0.8642 0.05556,0.356 0.0137,0.82873 0.134887,1.15226 -0.02034,0.40268 0.253114,0.39653 0.337216,0.57613 0.101362,0.21648 0.09764,0.41644 0.202332,0.57615 0.131916,0.20121 0.263905,0.40435 0.40466,0.57613 0.01951,0.0238 0.04945,-0.0288 0.06745,0 0.07631,0.12221 0.124716,0.3137 0.202329,0.43209 0.08181,0.12481 0.193439,0.14834 0.269775,0.28808 0.08534,0.15621 0.122847,0.40638 0.202329,0.57613 0.0159,0.034 0.05155,-0.034 0.06745,0 0.168984,0.36088 0.328718,0.74396 0.472104,1.15225 0.06032,0.17177 0.06946,0.41313 0.134888,0.57614 0.146304,0.36452 0.343025,0.63104 0.539545,0.8642 0.171097,0.203 0.86386,0.65417 0.944208,0.72016 0.162366,0.13337 0.543296,0.64015 0.674435,0.72017 0.174275,0.10633 0.361223,0.0747 0.539548,0.14403 0.349724,0.1358 0.06519,0.18381 0.472103,0.43211 0.24842,0.64954 0.646855,0.16105 0.944208,0.28805 0.139424,0.0596 0.265634,0.22446 0.404667,0.28807 0.307266,0.14062 0.821264,0.23846 1.146542,0.28806 0.623168,0.0951 1.811832,0.11963 2.427958,0 0.260261,-0.0506 0.503089,-0.40613 0.741882,-0.57613 0.398424,-0.28362 0.800772,-0.55972 1.213979,-0.72016 0.08847,-0.0343 0.181069,0.0317 0.269767,0 0.438214,-0.15597 0.813583,-0.4977 1.213993,-0.8642 0.15043,-0.13768 0.33592,-0.0941 0.4721,-0.28806 0.0675,-0.096 0.0776,-0.3097 0.13489,-0.4321 0.10663,-0.22774 0.27677,-0.2614 0.40465,-0.4321 0.66425,-0.88661 -0.0797,0.0196 0.47211,-0.86421 0.41002,-0.65673 0.85501,-1.26531 1.28143,-1.87241 0.10581,-0.15066 0.17047,-0.40648 0.26978,-0.57614 0.13188,-0.22534 0.22572,-0.25867 0.33721,-0.57614 0.0604,-0.17176 0.0745,-0.40436 0.13489,-0.57614 0.0572,-0.16295 0.15967,-0.24991 0.20233,-0.43209 0.24757,-1.05744 0.3363,-2.22762 0.53954,-3.31276 0.0982,-0.52413 0.20301,-1.158 0.26978,-1.7284 0.0164,-0.13973 -0.0213,-0.29546 0,-0.4321 0.0383,-0.24528 0.10553,-0.46933 0.13489,-0.72016 0.0803,-0.68625 0,-2.21653 0,-3.0247 0,-0.33707 -0.0675,0.29318 -0.0675,0.43209 0,0.14404 0.0302,0.30327 0,0.4321 -0.0101,0.043 -0.0604,-0.0455 -0.0675,0 -0.0213,0.13664 0.0164,0.29237 0,0.43211 -0.008,0.0659 -0.0598,0.0782 -0.0675,0.14403 -0.12631,1.0789 0.12429,-0.0988 -0.0675,0.72016 -0.0834,0.35625 -0.15991,0.55136 -0.26978,0.86421 -0.0445,0.12698 -0.28566,1.22013 -0.33722,1.44034 -0.20822,0.88933 -0.36546,1.87696 -0.60698,2.73662 -0.36164,1.28722 -0.61755,1.72071 -1.21399,2.44855 -0.0873,0.10656 -0.19126,0.15394 -0.26977,0.28808 -0.51449,1.09878 0.0834,-0.0493 -0.40466,0.57613 -0.0545,0.0698 -0.078,0.22734 -0.13488,0.28807 -0.0403,0.043 -0.0946,-0.043 -0.1349,0 -0.24256,0.25901 -0.0494,0.24959 -0.20233,0.57614 -0.10663,0.22773 -0.28689,0.2309 -0.40465,0.43208 -0.0393,0.0671 -0.0273,0.22367 -0.0675,0.28808 -0.39889,0.63888 -0.006,-0.28222 -0.40467,0.14403 -0.0852,0.0911 -0.12054,0.3273 -0.20233,0.4321 -0.0386,0.0494 -0.0903,-0.0119 -0.13488,0 -0.135693,0.0361 -0.271996,0.0732 -0.404676,0.14403 -0.146309,0.0781 -0.263449,0.31902 -0.404659,0.43209 -0.08677,0.0696 -0.182654,0.0764 -0.269767,0.14404 -0.160915,0.12497 -0.309676,0.31647 -0.472105,0.4321 -0.373009,0.26554 -0.584704,0.0903 -1.011649,0.14403 -0.759816,0.0954 -0.382354,0.14404 -1.348872,0.14404 -0.425342,0 -0.943654,0.17066 -1.348862,-0.14404 -0.472315,-0.36678 -0.363106,-0.56502 -0.876765,-0.8642 -0.08677,-0.0506 -0.179855,0 -0.269777,0 -0.20234,-0.096 -0.408472,-0.16086 -0.606996,-0.28806 -0.19429,-0.12448 -0.433117,-0.6414 -0.606991,-0.86419 -0.207625,-0.26605 -0.465289,-0.31559 -0.674435,-0.57613 -0.08239,-0.1027 -0.117018,-0.34101 -0.202329,-0.43211 -0.102529,-0.1095 -0.225316,-0.0909 -0.337218,-0.14403 -0.411791,-0.19544 -0.907649,-0.32105 -1.281426,-0.72016 -0.546365,-0.58342 -1.070869,-1.28753 -1.618641,-1.87244 -0.301616,-0.32206 -0.528739,-0.89682 -0.809321,-1.2963 -0.05915,-0.0842 -0.145457,-0.0529 -0.202331,-0.14403 -0.10487,-0.16797 -0.118411,-0.50511 -0.202329,-0.72018 -0.06107,-0.15647 -0.126028,-0.30988 -0.202331,-0.43209 -0.01798,-0.0288 -0.05498,0.0399 -0.06745,0 -0.03943,-0.12632 -0.02801,-0.30577 -0.06745,-0.43209 -0.01247,-0.04 -0.04873,0.0266 -0.06745,0 -0.0529,-0.0754 -0.09674,-0.17944 -0.134888,-0.28807 -0.212738,-0.60578 -0.399734,-0.85999 -0.741876,-1.15227 z"
       id="path316" /><path
       style="fill:#ffcc00;fill-opacity:1;stroke:#d35f8d;stroke-width:0.626999;stroke-opacity:0"
       d="m 53.945403,149.29077 c -1.422627,3.80461 -3.610295,7.14293 -5.770904,10.53817 -0.261821,0.41144 -0.501816,0.83636 -0.752726,1.25455 -0.418182,0.50181 -0.901311,0.95597 -1.254543,1.50545 -0.404524,0.62925 -0.632492,1.35777 -1.003636,2.00727 -1.058849,1.85298 -1.180118,1.30698 -2.007272,3.51272 -0.706258,1.88336 -1.827874,6.55755 -2.007269,8.5309 -0.117266,1.28993 0,2.71221 0,4.01455 0,0.38253 -0.135031,2.63262 0.501816,2.75999 2.083261,0.41665 2.373315,-3.08766 3.763635,-4.01454 1.145921,-0.76395 3.042949,-1.71484 4.265448,-2.25818 0.823153,-0.36584 1.759588,-0.50396 2.509089,-1.00364 0.295246,-0.19682 0.448455,-0.57016 0.752729,-0.75272 0.143433,-0.0861 0.352202,0.0748 0.501816,0 1.433693,-0.71685 2.784158,-1.87425 4.265451,-2.50909 0.316958,-0.13584 0.695198,-0.0967 1.003634,-0.25091 0.762018,-0.38101 2.201563,-1.35576 2.759998,-2.00727 0.37256,-0.43465 1.189974,-1.6027 1.756362,-2.00727 0.304364,-0.2174 0.692423,-0.29434 1.003636,-0.50182 0.445591,-0.29706 0.808953,-0.70657 1.254544,-1.00363 1.903338,-1.2689 4.272459,-2.5126 6.272723,-3.51273 0.105791,-0.0529 0.167272,-0.16727 0.250907,-0.25091 0.250909,-0.16727 0.483007,-0.36695 0.752726,-0.50181 0.236561,-0.11828 0.541142,-0.0922 0.752726,-0.25091 0.149614,-0.11221 0.118669,-0.36958 0.25091,-0.50182 0.177419,-0.17742 0.514694,0.0793 0.752726,0 0.22442,-0.0748 0.290232,-0.39602 0.50182,-0.50182 0.200726,-0.10036 0.551997,0.10037 0.752726,0 0.424746,-0.21237 0.815864,-0.85741 1.254543,-1.00363 0.238032,-0.0794 0.575307,0.17742 0.752726,0 0.05914,-0.0591 -0.06959,-0.20452 0,-0.25091 0.500579,-0.33372 0.920039,-0.0558 1.254546,-0.50182 0.395724,-0.52763 0.666343,-0.96044 1.254543,-1.25454 0.07481,-0.0374 0.19177,0.0591 0.25091,0 0.0245,-0.0245 0.157125,-0.84651 0.501816,-0.50182 0.05914,0.0591 0,0.16727 0,0.25091 0,1.2404 -0.4676,1.22033 -1.254543,2.00727 -0.354562,0.35456 -0.507039,1.00624 -1.003636,1.25454 -0.639148,0.31958 -1.30656,0.61259 -2.007272,0.75273 -0.246036,0.0492 -0.511471,-0.0689 -0.752726,0 -0.243295,0.0695 -2.562421,1.20909 -2.759996,1.50545 -0.09279,0.13918 0.09279,0.36264 0,0.50182 -0.103738,0.15561 -0.358148,0.13118 -0.501819,0.25091 -0.340752,0.28396 -1.87244,1.62153 -2.258179,2.00727 -0.37868,0.37868 -0.624957,0.87587 -1.003636,1.25455 -0.84513,0.84512 -2.706158,2.41583 -3.763632,3.26181 -0.47095,0.37676 -1.047538,0.61113 -1.505453,1.00363 -0.141993,0.12171 -0.09873,0.39312 -0.250909,0.50182 -0.85276,0.60912 -1.871329,0.95004 -2.759999,1.50546 -1.094475,0.68404 -1.864153,1.55248 -3.010905,2.25817 -0.383582,0.23606 -0.836364,0.33455 -1.254543,0.50182 -0.752726,0.58546 -1.474139,1.21357 -2.258182,1.75636 -0.54329,0.37613 -2.189882,0.77564 -2.509088,1.00364 -0.340286,0.24306 -0.426181,0.7424 -0.752727,1.00364 -0.130617,0.10449 -0.352202,-0.0748 -0.501816,0 -0.211585,0.10579 -0.298972,0.3801 -0.501817,0.50181 -0.226793,0.13608 -0.525936,0.11484 -0.752729,0.25091 -0.202845,0.12171 -0.317095,0.35404 -0.501817,0.50182 -0.918472,0.73478 -1.656828,0.84604 -2.759998,1.00363 -0.628404,0.0898 -1.193276,0.37345 -1.254543,0.25091 -0.271206,-0.54241 0.193868,-1.42566 0,-2.00727 -0.295807,-0.88742 -1.111919,-1.2202 -1.505453,-2.00727 -0.254508,-0.50901 -0.360447,-4.83094 -0.250909,-5.26908 0.173312,-0.69326 0.556413,-1.32018 0.752726,-2.00727 0.70811,-0.60224 0.109625,-1.34795 0.25091,-2.00728 0.216762,-1.01156 0.549838,-1.99647 0.752726,-3.0109 0.04921,-0.24604 -0.07934,-0.51469 0,-0.75273 0.25091,-0.50182 0.501817,-1.00363 0.752726,-1.50545 0.08364,0 0.213506,0.0748 0.25091,0 0.154218,-0.30844 0.122838,-0.68346 0.250907,-1.00364 0.07618,-0.19043 0.642178,-0.84886 0.752729,-1.00363 0.311272,-0.43578 0.706572,-0.80895 1.003633,-1.25455 0.534289,-0.80143 0.859589,-2.34025 1.254546,-3.26181 0.294677,-0.68758 0.735094,-1.30907 1.003636,-2.00727 0.182626,-0.47483 0.02339,-1.05042 0.250907,-1.50545 0.105794,-0.21159 0.396026,-0.29024 0.501819,-0.50182 0.0374,-0.0748 0,-0.16728 0,-0.25091 0.08364,-0.16728 0.147169,-0.34621 0.250907,-0.50182 0.103738,-0.15561 0.418182,-0.0836 0.50182,-0.25091 0.07481,-0.14961 -0.0529,-0.34313 0,-0.50182 0.110556,-0.33167 0.592812,-0.68381 0.752726,-1.00363 0.07481,-0.14961 -0.07481,-0.35221 0,-0.50182 0.321754,-0.64351 0.855456,-1.15773 1.254543,-1.75636 z"
       id="path317" /><path
       style="fill:#ffcc00;fill-opacity:1;stroke:#d35f8d;stroke-width:0.626999;stroke-opacity:0"
       d="m 130.72351,149.79259 c 2.77694,2.382 4.53151,5.37347 5.77091,8.78181 0.3165,0.87038 0.538,2.01498 1.00363,2.75999 2.64697,4.23516 0.011,-0.12925 2.25818,2.76 0.74055,0.95213 1.3957,1.97123 2.00727,3.01091 1.79101,0.65581 0.88679,2.39912 1.50545,3.51272 0.26008,0.46814 0.72811,0.79533 1.00364,1.25455 0.59472,0.99119 0.6859,2.01577 1.25455,3.0109 0.55101,0.96428 0.53625,-0.54609 0.75272,0.75273 0.0825,0.49499 -0.12171,1.01862 0,1.50545 0.25209,1.00837 0.25091,1.91953 0.25091,3.01091 0,0.47574 0.20838,1.59052 0,2.00727 -0.0374,0.0748 -0.17404,-0.0329 -0.25091,0 -0.51568,0.22101 -0.97818,0.56099 -1.50545,0.75272 -1.29936,0.4725 -2.90589,0.25091 -4.26545,0.25091 -3.2972,0 -6.08272,-1.96424 -8.78181,-3.76363 -0.7495,-0.49967 -1.7034,-0.60079 -2.50909,-1.00363 -0.84353,-0.42177 -1.31729,-1.15263 -2.00727,-1.75637 -0.95446,-0.83515 -1.98968,-1.77963 -3.01091,-2.50908 -0.39684,-0.28346 -0.9097,-0.40789 -1.25454,-0.75273 -0.18702,-0.18702 -0.0639,-0.56571 -0.25091,-0.75273 -0.50874,-0.50874 -1.21863,-0.77655 -1.75636,-1.25454 -0.67616,-0.60103 -0.95387,-1.54112 -1.50546,-2.25818 -1.27811,-1.66155 -2.72536,-3.4067 -4.01454,-5.01818 -0.99332,-1.24165 -2.20714,-2.32621 -3.26181,-3.51272 -0.63354,-0.71273 -1.12841,-1.54052 -1.75636,-2.25818 -0.28646,-0.32738 -2.28081,-3.23919 -2.50909,-3.01091 -0.31638,0.31638 2.11179,0.96177 2.25818,1.25454 0.724,1.44801 2.07469,2.32561 3.26181,3.51273 0.13224,0.13224 0.10724,0.38209 0.25091,0.50182 0.37465,0.3122 0.8644,0.46012 1.25455,0.75272 0.28387,0.21291 0.46398,0.54648 0.75272,0.75273 0.30437,0.2174 0.69242,0.29434 1.00364,0.50182 0.61343,0.40896 0.68529,0.99945 1.25454,1.50545 0.45077,0.40069 1.05157,0.60649 1.50545,1.00364 0.22695,0.19857 0.28859,0.53949 0.50182,0.75272 0.5914,0.5914 1.41588,0.91406 2.00727,1.50546 2.46002,3.28002 -0.69589,-0.6959 1.50546,1.50545 0.42646,0.42646 0.57717,1.07899 1.00363,1.50545 0.19885,0.19885 1.83737,1.65017 2.00727,1.75636 1.20924,0.75578 2.8053,0.74968 4.01454,1.50546 0.30091,0.18806 0.46399,0.54648 0.75273,0.75273 1.12488,0.80348 0.81335,0.27515 2.00727,0.75272 0.39172,0.15669 0.6531,0.97411 1.00364,1.25454 0.78251,0.62602 1.67687,1.20155 2.50908,1.75637 1.41953,0.94635 3.20564,0.98491 4.76728,1.50545 0.38542,0.12848 0.99799,0.75554 1.50545,0.50182 0.73884,-0.36942 0.63902,-2.4621 0.50181,-3.01091 -0.0731,-0.29255 -0.39593,-0.47037 -0.50181,-0.75273 -0.14974,-0.3993 -0.0744,-0.8663 -0.25091,-1.25454 -0.25676,-0.56486 -1.5028,-2.08381 -1.75636,-2.76 -0.11747,-0.31324 0,-0.66909 0,-1.00363 -0.33455,-0.41818 -0.74356,-0.78641 -1.00364,-1.25455 -0.72643,-1.30758 -0.82061,-3.82265 -1.25454,-5.26908 -0.034,-0.11329 -0.19801,-0.14512 -0.25091,-0.25091 -0.48547,-0.97093 -0.52818,-2.05998 -1.00364,-3.01091 -0.0529,-0.10579 -0.20698,-0.14109 -0.25091,-0.25091 -0.22827,-0.57069 -0.30651,-2.11848 -0.50182,-2.50908 -0.18701,-0.37404 -0.62048,-0.60692 -0.75272,-1.00364 -0.13224,-0.39672 0.0519,-0.83959 0,-1.25455 -0.0656,-0.52487 -0.41486,-0.98368 -0.50182,-1.50545 -0.0844,-0.50655 -0.0975,-1.79801 -0.25091,-2.25818 -0.60581,-1.81744 0.0723,0.39559 -0.50181,-0.75272 -0.0748,-0.14962 0.0748,-0.35221 0,-0.50182 -0.0529,-0.10579 -0.16728,-0.16727 -0.25091,-0.25091 -0.0836,-0.16727 -0.16728,-0.33455 -0.25091,-0.50182"
       id="path318" /><path
       style="fill:#ffcc00;fill-opacity:1;stroke:#d35f8d;stroke-width:0.626999;stroke-opacity:0"
       d="m 74.519929,122.94534 c 0.69287,-2.4834 0.443138,-5.13706 1.505453,-7.52727 0.227864,-0.51269 0.53172,-0.98976 0.752726,-1.50545 0.231744,-0.54073 -0.55559,0.0538 0.25091,-0.75273 0.132241,-0.13224 0.398079,-0.0953 0.501819,-0.25091 0.09278,-0.13918 -0.07481,-0.3522 0,-0.50181 0.248296,-0.4966 0.899981,-0.64908 1.254543,-1.00364 0.05914,-0.0591 -0.04639,-0.18132 0,-0.25091 0.232252,-0.34838 1.256067,-1.30594 1.505453,-1.50545 0.622104,-0.49768 1.55824,-0.47275 2.258179,-0.75273 0.957284,-0.38291 2.09885,-1.14038 3.261815,-0.75272 0.514242,0.17141 0.521351,0.94604 0.752729,1.25454 0.547436,0.72992 0.539832,-0.31173 0.752726,0.75273 0.04921,0.24603 -0.04921,0.50669 0,0.75272 0.150271,0.75136 0.943854,0.72873 1.254543,1.50546 0.124249,0.31061 -0.08114,0.67908 0,1.00363 0.322999,1.29199 0.257093,-0.45853 0.501817,1.25455 0.319794,2.23854 0,5.40616 0,7.77817 0,0.16727 0,0.33455 0,0.50182 -0.08364,0 -0.213505,-0.0748 -0.250907,0 -0.09871,0.19743 0.167286,1.08726 0,1.25454 -0.378679,0.37868 -0.856514,-0.73961 -1.003636,-1.25454 -0.06893,-0.24126 0.04125,-0.50523 0,-0.75273 -0.367088,-2.20252 -0.0923,0.38354 -0.501817,-1.25454 -0.256331,-1.02533 0.174361,-2.21565 0,-3.26182 -0.04348,-0.26088 -0.213505,-0.4909 -0.250909,-0.75272 -0.09462,-0.66237 0.09462,-1.34491 0,-2.00727 -0.08698,-0.60884 -0.386324,-1.1789 -0.501817,-1.75637 -0.04921,-0.24603 0.06085,-0.50931 0,-0.75272 -0.06405,-0.25619 -0.64966,-0.39875 -0.752729,-0.50182 -0.118279,-0.11828 0.07481,-0.35221 0,-0.50182 -0.614775,-1.22955 -1.978035,-1.18065 -3.261815,-0.75273 -0.404577,0.13487 -0.873104,0.0602 -1.254543,0.25091 -0.07481,0.0374 0.05914,0.19177 0,0.25091 -0.26448,0.26448 -0.648798,0.38354 -1.003636,0.50182 -0.158689,0.0529 -0.362638,-0.0928 -0.501817,0 -0.744892,0.49659 -0.332554,0.58346 -1.003636,1.25454 -0.295698,0.2957 -0.90221,0.34704 -1.003636,0.75273 -0.06085,0.24342 0.04125,0.50523 0,0.75273 -0.111765,0.6706 -0.595828,1.12877 -0.752726,1.75636 -0.139393,0.55758 0.209092,0.62727 0,1.25454 -0.496914,1.49075 -0.539427,0.0124 -0.752726,1.50546 -0.101823,0.71276 -0.07706,1.31186 -0.25091,2.00727 -0.06415,0.25658 -0.167272,0.50182 -0.250907,0.75273 -0.418182,0.41818 -1.11111,0.6808 -1.254546,1.25454 -0.147674,0.5907 0.426297,1.15218 0.50182,1.75636 0.0047,0.0376 -0.520674,1.25455 -1.003636,1.25455"
       id="path319" /><path
       style="fill:#ffcc00;fill-opacity:1;stroke:#d35f8d;stroke-width:0.626999;stroke-opacity:0"
       d="m 99.359907,123.69806 c 0.485822,-3.1713 0.649783,-6.49145 1.756363,-9.53453 0.10305,-0.2834 0.39593,-0.47037 0.50182,-0.75273 0.66254,-0.58361 0.0377,-1.36757 0.25091,-2.00727 0.0264,-0.0793 0.19177,0.0591 0.2509,0 0.4235,-0.4235 0.31504,-0.88098 0.50182,-1.25454 0.0374,-0.0748 0.19177,0.0591 0.25091,0 0.21323,-0.21324 0.28859,-0.5395 0.50182,-0.75273 0.13224,-0.13224 0.36958,-0.11867 0.50181,-0.25091 0.0591,-0.0591 -0.0502,-0.184 0,-0.25091 0.65053,-0.86736 0.7356,-0.8639 1.50546,-1.50545 0.56821,-0.47351 0.99336,-1.06379 1.75636,-1.25454 0.16228,-0.0406 0.34313,0.0529 0.50182,0 0.49703,-0.16568 0.77346,-0.43391 1.50545,-0.25091 0.94541,0.23635 1.79188,2.23373 2.25818,3.0109 0.12171,0.20285 0.39603,0.29024 0.50182,0.50182 0.74192,1.48385 -0.9043,-0.53665 0.25091,1.00364 0.37492,0.49989 0.60089,0.3963 0.75272,1.00363 0.10143,0.4057 -0.0591,0.84057 0,1.25455 0.26308,1.8415 0.25091,3.64031 0.25091,5.51999 0,1.28194 0.15851,2.7465 0,4.01454 -0.0328,0.26244 -0.2135,0.4909 -0.25091,0.75273 -0.0473,0.33118 0.1058,0.68626 0,1.00363 -0.0748,0.22442 -0.3801,0.29898 -0.50181,0.50182 -0.476,0.79333 0.14921,2.10897 -0.50182,2.76 -0.003,0.003 -0.25004,-1.4985 -0.25091,-1.50545 -0.77227,-3.86138 0.10662,0.95954 -0.25091,-2.25818 -0.16544,-1.48901 -0.71918,-1.92341 -1.25454,-3.26182 -0.28638,-0.71594 -0.37505,-1.49758 -0.50182,-2.25818 -0.18085,-1.0851 -0.41046,-2.16555 -0.50182,-3.26181 -0.0746,-0.89522 0.13909,-3.88455 -1.00363,-4.26545 -0.96936,-0.32312 -0.91375,0.27461 -1.25455,0.50181 -0.13918,0.0928 -0.34313,-0.0529 -0.50182,0 -0.61468,0.2049 -0.98229,1.80444 -1.25454,2.25818 -0.59997,0.99996 -0.97138,2.19366 -1.50545,3.26182 -0.098,0.19597 -0.28258,1.0353 -0.50182,1.25454 -0.21323,0.21323 -0.59758,0.24324 -0.75273,0.50182 -0.12909,0.21515 0.11221,0.52831 0,0.75273 -0.0836,0.16727 -0.36957,0.11867 -0.50181,0.25091 -1.02527,1.02526 -2.136798,3.15127 -2.509093,4.51635 -0.202888,0.74392 -0.314802,1.51012 -0.501817,2.25819 -0.0081,0.0323 0.07496,0.92867 0,1.00363 -0.05914,0.0591 -0.167275,0 -0.25091,0"
       id="path320" /><path
       style="fill:#ffcc00;fill-opacity:1;stroke:#d35f8d;stroke-width:0.237029;stroke-opacity:0"
       d="m 94.603321,87.38547 c -1.037757,-0.452018 -1.497565,-0.627495 -2.726913,-1.583691 -0.786269,-0.611567 -1.446374,-1.395787 -2.181529,-2.078595 -0.785111,-0.729205 -1.586687,-1.437583 -2.363325,-2.177575 -0.28085,-0.267598 -0.472351,-0.613338 -0.727177,-0.890826 -0.04791,-0.05217 -0.133887,-0.04681 -0.181793,-0.09898 -0.428493,-0.466599 -0.689836,-1.088895 -1.090766,-1.583691 -0.156568,-0.193225 -0.393887,-0.296942 -0.545382,-0.494904 -0.156384,-0.204349 -0.210989,-0.485151 -0.363589,-0.692864 -0.09464,-0.128819 -0.26294,-0.173644 -0.363588,-0.296943 -0.145156,-0.177823 -0.221397,-0.413241 -0.363588,-0.593884 -0.04409,-0.05601 -0.121197,-0.06599 -0.181795,-0.09898 -0.0606,-0.06599 -0.130374,-0.123306 -0.181794,-0.197962 -0.05749,-0.08347 -0.02314,-0.223165 -0.0909,-0.296942 -0.0557,-0.06065 -0.315959,-0.136692 -0.0909,-0.197961 0.407364,-0.110897 0.941063,0.02555 1.363455,0 0.2985,-0.01806 1.718109,-0.09703 2.181531,-0.197962 0.49804,-0.108467 0.958543,-0.374925 1.454353,-0.494903 0.238461,-0.0577 0.488715,-0.04128 0.727176,-0.09898 1.915221,-0.625663 0.05329,-0.07099 1.545251,-0.395923 0.468872,-0.102113 0.909238,-0.346519 1.363457,-0.494903 0.774275,-0.25294 1.603352,-0.292955 2.363324,-0.593884 0.395625,-0.156658 0.77067,-0.367035 1.181662,-0.494904 0.368918,-0.114778 0.83923,-0.1105 1.181662,-0.296942 0.1355,-0.07377 0.220918,-0.241457 0.363587,-0.296942 0.680248,-0.26455 0.884652,-0.09457 1.454355,-0.197961 0.154878,-0.02811 1.060484,-0.197942 0.636279,-0.593884 -0.641981,-0.599206 -2.574523,-0.892324 -3.454089,-1.38573 -0.711616,-0.399192 -1.402583,-0.841255 -2.090633,-1.286749 -0.557821,-0.361173 -1.280492,-0.944636 -1.90884,-1.286749 -2.529555,-1.377257 0.15281,0.08635 -1.636146,-0.692865 -0.441184,-0.192167 -0.805141,-0.639149 -1.27256,-0.791846 -0.176529,-0.05767 -0.36923,-0.03996 -0.545382,-0.09898 -1.077081,-0.360882 -1.773427,-0.941333 -2.545118,-1.781653 -0.542215,-0.590434 -0.138721,-0.349019 -0.545383,-0.791845 -0.425959,-0.46384 -0.976849,-0.717381 -1.454354,-1.088788 -1.005096,-0.729654 0.195423,0.212802 -0.363587,-0.395923 -0.0523,-0.05695 -0.54602,-0.09829 -0.363589,-0.296942 0.02143,-0.02333 0.06569,0.0183 0.0909,0 0.106959,-0.07765 0.145435,-0.277146 0.272692,-0.296942 0.179967,-0.028 0.365702,0.0301 0.545382,0 0.218015,-0.03653 0.419478,-0.153696 0.63628,-0.197961 2.202402,-0.449675 -0.757339,0.368887 1.817941,-0.395923 2.25227,-0.668882 4.502697,-1.145423 6.817282,-1.48471 0.633444,-0.09286 1.274379,-0.113708 1.908838,-0.197962 3.406632,-0.452389 0.173595,-0.254679 4.453955,-0.395923 1.745017,-0.05758 3.451307,-0.09882 5.181137,-0.197961 0.30257,-0.01734 0.60722,0.02987 0.90897,0 0.36709,-0.03634 0.72382,-0.159906 1.09076,-0.197961 0.69088,-0.07165 1.39852,0.05797 2.09064,0 0.48712,-0.0408 0.96655,-0.168452 1.45435,-0.197962 0.62675,-0.03791 1.27904,0 1.90884,0 0.3077,0 0.78626,-0.04737 1.09076,0 0.16823,-0.07352 0.16671,0.16911 0.2727,0.197962 0.29881,0.08135 0.26458,-0.146685 0.45448,0.197961 0.75917,1.37781 0.5202,3.117288 0.36359,4.652093 -0.0839,0.822414 -0.0979,1.652104 -0.18179,2.474517 -0.0106,0.103697 -0.0803,0.193245 -0.0909,0.296942 -0.0201,0.19675 0.0225,0.397451 0,0.593884 -0.13498,1.175795 -1.37475,-0.09037 -1.72705,-0.296942 -0.3749,-0.219824 -1.13683,-0.434257 -1.54525,-0.494903 -0.29382,-0.04363 -2.3348,-0.178047 -2.54511,-0.197962 -1.38779,-0.131408 -2.71977,-0.444116 -4.09037,-0.692865 -0.60072,-0.109023 -1.21328,-0.118948 -1.81795,-0.197961 -4.055607,-0.529953 0.82859,0.100615 -2.363321,-0.395923 -0.301443,-0.04689 -0.610869,-0.03135 -0.908972,-0.09898 -0.945162,-0.214421 -1.8638,-0.602963 -2.817809,-0.791846 -0.421581,-0.08347 -0.855718,-0.08989 -1.27256,-0.197961 -0.224475,-0.0582 -0.415732,-0.223047 -0.636278,-0.296942 -0.352304,-0.118042 -0.733168,-0.100612 -1.090766,-0.197962 -0.597175,-0.16257 -0.433885,-0.228462 -0.999867,-0.296942 -0.363103,-0.04393 -0.646578,-0.06972 -0.999868,-0.197961 -0.272692,-0.09898 -0.534543,-0.245485 -0.818074,-0.296942 -0.179321,-0.03254 -0.363588,0 -0.545382,0 -0.121197,0 -0.401915,-0.125202 -0.363589,0 0.250939,0.819767 1.592428,0.460825 1.999736,0.593884 0.636485,0.207926 1.216681,0.582717 1.817942,0.890826 1.715505,0.879091 3.414712,1.815752 5.181134,2.573498 2.387264,1.024072 1.137112,0.149077 3.999474,2.078595 1.38262,0.932027 2.34537,2.222331 3.54498,3.365343 0.29201,0.278234 0.61437,0.516871 0.90897,0.791846 0.13014,0.121464 0.21825,0.297003 0.36359,0.395923 0.10594,0.0721 0.24876,0.04539 0.36359,0.09898 0.35497,0.165658 0.29591,0.322231 0.54539,0.593884 0.0214,0.02333 0.0695,-0.02333 0.0909,0 0.16965,0.184745 -0.26748,0.29588 -0.27269,0.296943 -0.54344,0.110955 -1.11162,0.106548 -1.63615,0.296942 -0.21891,0.07946 -0.41737,0.217482 -0.63628,0.296942 -0.80944,0.293809 -1.63567,0.529683 -2.45422,0.791845 -0.63485,0.203327 -1.26686,0.419115 -1.90884,0.593884 -0.45173,0.122976 -1.656781,0.297041 -2.090633,0.395923 -0.942496,0.21481 -1.872716,0.492057 -2.817811,0.692865 -0.298865,0.0635 -0.607529,0.05209 -0.908971,0.09898 -1.282073,0.199441 -2.54414,0.547117 -3.817677,0.791845 -1.053564,0.202458 -2.13531,0.20607 -3.181398,0.395923 -0.08485,0.0154 -0.523527,0.150364 -0.545382,0.197961 -0.171806,0.37417 0.488792,0.398542 0.63628,0.494904 0.152786,0.09982 0.37102,0.502997 0.454485,0.593884 0.107123,0.11665 0.270579,0.166725 0.363588,0.296942 0.124785,0.174705 0.156998,0.41191 0.272691,0.593884 0.159006,0.2501 0.383018,0.445339 0.545383,0.692865 0.141984,0.216455 0.208902,0.48699 0.363588,0.692865 0.326734,0.434856 0.802523,0.70769 1.181662,1.088788 0.491902,0.494443 0.925792,1.039021 1.363456,1.583691 0.112866,0.140461 0.265299,0.243022 0.363589,0.395923 0.116557,0.181318 0.164968,0.406199 0.272691,0.593884 0.04542,0.07914 0.149966,0.111316 0.181794,0.197961 0.03376,0.0919 -0.02205,0.200917 0,0.296942 0.03118,0.1358 0.201385,0.180472 0.272692,0.296942 0.0168,0.02745 -0.02143,0.07565 0,0.09898 0.04791,0.05217 0.144212,0.03759 0.181794,0.09898 0.03361,0.05491 -0.01917,0.13536 0,0.197961 0.0779,0.2545 0.197128,0.363739 0.272691,0.692865 z"
       id="path321" /><path
       style="fill:#ffcc00;fill-opacity:1;stroke:#d35f8d;stroke-width:0.626999;stroke-opacity:0"
       d="m 148.53804,50.432681 c 0.41818,-0.418182 0.83637,-0.836364 1.25455,-1.254546 0.2509,-0.08363 0.54954,-0.08159 0.75272,-0.250909 0.32126,-0.267714 0.43147,-0.73592 0.75273,-1.003634 0.20318,-0.169317 0.50182,-0.167275 0.75273,-0.250909 0.33454,-0.25091 0.70793,-0.457028 1.00363,-0.752727 1.02785,-1.02785 2.34937,-4.15123 2.76,-5.519994 0.12254,-0.408479 0.10117,-0.855236 0.25091,-1.254545 0.10858,-0.289539 0.67517,-0.866768 0.75272,-1.254544 0.0492,-0.246038 -0.0412,-0.505232 0,-0.752726 0.26623,-1.597369 1.00364,-1.732735 1.00364,-4.014544 0,-1.33818 -0.089,-2.679324 0,-4.014541 0.28639,-4.29589 0.25091,-0.192913 0.25091,-2.509089 0,-0.495128 -0.0558,-1.72848 0,-1.756361 0.14961,-0.07481 0.40145,-0.133818 0.50182,0 0.2069,0.275873 0.15181,0.673337 0.25091,1.003635 0.53055,1.768506 0.58917,2.717305 0.75272,4.51636 0.12366,1.360268 0.2714,2.981897 0.75273,4.265451 0.13133,0.350216 0.4111,0.640768 0.50182,1.003634 0.0811,0.324556 -0.0415,0.671674 0,1.003636 0.14788,1.183063 0.66571,2.386306 1.00363,3.512725 0.56578,1.885936 0.58255,3.423279 1.50545,5.269084 0.973,1.945992 2.27413,2.603357 4.01455,3.763634 0.3777,0.251804 0.77733,0.657286 1.25454,0.752727 0.24604,0.04921 0.51976,-0.09319 0.75273,0 0.21964,0.08786 0.28218,0.413961 0.50181,0.501816 0.75428,0.301713 0.66655,-0.337092 1.25455,0.25091 0.70649,0.01558 0.0639,0.565711 0.25091,0.752726 0.11151,0.111517 0.47394,-0.195151 0.25091,0.25091 -0.29751,0.595019 -4.92648,0.06326 -5.77091,0.25091 -0.29437,0.06542 -0.47274,0.389821 -0.75272,0.501816 -0.15531,0.06212 -0.35839,-0.08606 -0.50182,0 -0.30427,0.182563 -0.44846,0.570164 -0.75273,0.752727 -0.14343,0.08606 -0.3522,-0.07481 -0.50182,0 -0.78574,0.392872 -1.07297,1.300768 -1.75636,1.756362 -0.1556,0.103738 -0.36958,0.118668 -0.50181,0.25091 -0.0591,0.05914 0.0264,0.171563 0,0.250907 -0.54636,1.63907 -0.84776,3.052558 -1.00364,4.767267 0.0572,1.038593 -0.40057,1.998478 -0.50182,3.010908 -0.15832,1.583164 -0.32583,3.183398 -0.50182,4.767268 -0.0995,0.8953 -0.0559,1.882712 -0.2509,2.759999 -0.11475,0.516366 -0.4072,0.985022 -0.50182,1.505452 -0.0959,0.527664 -0.25091,2.386336 -0.25091,3.010906 0,0.994627 -0.0396,2.42979 -0.25091,2.007272 -0.29609,-0.592191 0,-5.746811 0,-7.02545 0,-1.914091 0.11221,0.197932 -0.25091,-1.254543 -0.25207,-1.008287 0.12948,-2.226013 0,-3.261815 -0.0428,-0.34218 -0.20814,-0.661458 -0.25091,-1.003636 -0.083,-0.663924 0.0606,-1.340929 0,-2.007272 -0.11659,-1.28252 -0.34344,-2.49664 -0.50182,-3.763632 -0.0519,-0.414951 0.15531,-0.866272 0,-1.254545 -0.10133,-0.253347 -0.67966,-0.889212 -0.75272,-1.254543 -0.0656,-0.328049 0.0811,-0.67908 0,-1.003636 -0.1283,-0.513168 -0.39808,-0.986764 -0.50182,-1.505453 -0.12449,-0.62244 -0.0533,-1.414494 -0.25091,-2.007269 -0.16643,-0.499298 -0.23418,-0.117092 -0.50182,-0.25091 -0.21158,-0.105794 -0.29023,-0.396026 -0.50181,-0.501819 -0.0748,-0.0374 -0.19177,0.05914 -0.25091,0 -0.13224,-0.132239 -0.0953,-0.398079 -0.25091,-0.501817 -0.13918,-0.09279 -0.34313,0.05289 -0.50182,0 -0.11221,-0.0374 -0.16727,-0.167272 -0.25091,-0.25091 -0.16727,-0.08363 -0.32038,-0.205549 -0.50182,-0.250907 -1.79668,-0.449172 -1.99787,-0.752726 -4.01454,-0.752726 z"
       id="path322" /><path
       style="fill:#ffcc00;fill-opacity:1;stroke:#d35f8d;stroke-width:0.626999;stroke-opacity:0"
       d="m 9.0327188,132.47988 c 4.8436322,-1.34031 9.6684712,-3.90323 12.2945342,-8.28 0.310297,-0.51716 0.779646,-0.94548 1.003635,-1.50545 0.76899,-1.92247 0.482929,-4.09277 1.254544,-6.02181 0.08786,-0.21964 0.396026,-0.29023 0.501818,-0.50182 0.354839,-0.70968 0.59712,-1.48014 0.752727,-2.25818 0.444533,-2.22267 0.495234,-4.57147 1.003635,-6.77454 0.101276,-0.43886 0.404113,-0.81487 0.501818,-1.25454 0.07257,-0.32658 -0.04731,-0.67246 0,-1.00364 0.0374,-0.26182 0.218104,-0.49029 0.25091,-0.75273 0.315462,-2.5237 0,-5.690821 0,-8.279988 0,-4.243351 -0.224421,-0.105955 0.250907,-2.007269 0.06085,-0.24342 0,-1.003636 0,-0.752727 0,2.43232 0.379148,4.839814 0.250909,7.276354 -0.216434,4.11226 -0.37457,8.17427 0,12.29454 0.234342,2.57777 1.202632,5.36425 2.007272,7.77817 0.439463,1.31839 0.686565,2.73659 1.254543,4.01454 0.506021,1.13855 1.559423,1.57985 2.509089,2.25818 0.192495,0.1375 0.280321,0.41876 0.501817,0.50182 0.476348,0.17863 1.029107,0.0723 1.505455,0.25091 0.221496,0.0831 0.298969,0.38011 0.501817,0.50182 0.22679,0.13607 0.516167,0.13263 0.752726,0.25091 0.759632,0.37981 1.312508,1.08859 2.007272,1.50545 0.193164,0.1159 1.505453,0.5116 1.505453,1.00363 0,0.42911 -3.43181,0.25091 -3.763635,0.25091 -1.630084,0 -5.387898,-0.28725 -6.774537,0.75273 -0.189248,0.14193 -0.30499,0.3706 -0.501819,0.50182 -0.220062,0.14671 -0.532664,0.1042 -0.752726,0.25091 -0.489519,0.32634 -0.124005,0.1211 -0.25091,0.50181 -0.655939,1.96783 -0.1978,0.989 -0.501817,2.50909 -0.05187,0.25935 -0.218104,0.49029 -0.250909,0.75273 -0.177718,1.42175 -0.07935,2.85722 -0.501817,4.26545 -0.3156,1.052 -0.880675,2.15517 -1.003636,3.26181 -0.08312,0.74813 0.09336,1.51127 0,2.25818 -0.11372,0.90977 -0.612437,1.66736 -0.752726,2.50909 -0.162551,0.97531 0.06836,2.05311 -0.250909,3.01091 -0.11828,0.35484 -0.383538,0.6488 -0.501818,1.00363 -0.09561,0.28682 -0.209005,2.30009 0,2.50909 0.487679,0.48768 0.444543,-1.31997 0.501818,-2.00727 0.03473,-0.41673 0,-0.83636 0,-1.25454 0.167273,-0.50182 0.414857,-0.98369 0.501818,-1.50546 0.246317,-1.4779 0,-3.27184 0,-4.76726 0,-2.00728 0,-4.01454 0,-6.02182 0,-0.70687 0.237205,-2.29929 0,-3.0109 -0.133799,-0.4014 -1.26892,-1.26892 -1.505453,-1.50545 -0.779551,-0.77956 -0.759287,-0.5062 -1.505454,-1.00364 -0.06959,-0.0464 0.07481,-0.21351 0,-0.25091 -0.149613,-0.0748 -0.339539,0.0406 -0.501817,0 -1.508758,-0.37719 -2.960116,-0.8091 -4.51636,-1.00364 -0.74937,-0.0937 -1.777155,0.18299 -2.509088,0 -0.362865,-0.0907 -0.643994,-0.39906 -1.003636,-0.50181 -0.482509,-0.13786 -1.006704,0.0554 -1.505453,0 -0.505628,-0.0562 -0.998803,-0.29697 -1.505453,-0.25091 -0.4485453,0.0408 -0.8363629,0.33454 -1.2545442,0.50182 z"
       id="path323" /><path
       style="fill:#ffcc00;fill-opacity:1;stroke:#d35f8d;stroke-width:0.626999;stroke-opacity:0"
       d="m 162.33803,92.836277 c 2.72908,-2.926522 4.37682,-6.476691 5.52,-10.287265 0.0831,-0.276926 0.46771,-2.725899 0.50181,-2.759996 0.0591,-0.05914 0.22446,-0.07935 0.25091,0 0.30207,0.906206 -0.0827,1.918833 -0.25091,2.759996 -0.4621,2.310522 0.26968,6.812079 1.25454,8.781812 0.52212,1.044223 -0.0173,-0.268232 0.50182,0.250907 0.25579,0.255786 -0.27628,0.489132 0.25091,0.752729 0.3606,0.180298 3.58599,1.934003 3.26182,2.258179 -0.32704,0.327043 -3.81336,-0.452099 -4.76727,0.501817 -0.0591,0.05914 0.023,0.170492 0,0.250909 -0.61726,2.160395 -0.64786,3.887142 -1.00363,6.021815 -0.0825,0.49499 0.0825,1.01046 0,1.50545 -0.12031,0.72182 -0.25091,1.24069 -0.25091,2.00727 0,0.33455 0,1.33818 0,1.00364 0,-3.59297 0.18557,1.33689 -0.50182,-1.75637 -0.28321,-1.27444 0.16265,-2.71332 0,-4.01454 -0.0529,-0.423166 -0.19802,-0.831371 -0.25091,-1.25454 -0.10147,-0.811718 0.34076,-3.082118 0,-3.763634 -0.0311,-0.06215 -4.12348,-2.101028 -4.51636,-2.258179 z"
       id="path324" /><path
       style="fill:#ffcc00;fill-opacity:1;stroke:#d35f8d;stroke-width:0.626999;stroke-opacity:0"
       d="m 44.159958,92.585367 c 1.28619,0.277627 1.966711,-0.543888 3.010908,-0.752726 0.410059,-0.08201 0.958845,0.295698 1.254543,0 0.133406,-0.133406 0.144976,-0.663517 0.501817,-0.752727 0.243419,-0.06085 0.528306,0.11221 0.752726,0 0.167275,-0.08364 0.118668,-0.369578 0.25091,-0.501817 0.05914,-0.05914 0.19177,0.05914 0.250909,0 0.05914,-0.05914 -0.0374,-0.176104 0,-0.250909 0.105791,-0.211585 0.396026,-0.290232 0.501817,-0.501817 0.232286,-0.464571 0.150717,-1.004498 0.25091,-1.505455 0.07498,-0.374878 0.4256,-0.698765 0.501816,-1.003634 0.195075,-0.780293 0.25091,-1.671264 0.25091,-2.509088 0,-0.605309 0.157152,-0.942909 0.25091,-1.505453 0.122401,-0.734417 0,-1.757688 0,-2.509089 0,-0.103317 -0.06642,-0.68631 0,-0.752729 0.05914,-0.05914 0.176101,-0.0374 0.250907,0 0.460869,0.230437 0.501819,1.528088 0.501819,2.007272 0,1.544379 -0.261766,0.741871 0.501817,1.505453 0.261149,0.261149 -0.163142,1.430078 0,1.756362 0.108011,0.216022 0.444915,0.525111 0.501819,0.752727 0.06085,0.243416 -0.04921,0.50669 0,0.752726 0.09123,0.456166 0.369274,0.856917 0.501817,1.254546 0.05914,0.177419 0.19177,0.324397 0.250909,0.501816 0.0529,0.15869 -0.149614,0.427012 0,0.501817 1.03709,0.518546 0.276,-0.426543 0.501817,0.25091 0.233074,0.699219 1.591622,2.175809 2.258179,2.509089 0.143113,0.07156 1.735667,0.196588 2.007272,0.250909 0.503859,-0.05758 0.817597,0.392581 1.254543,0.501817 0.324557,0.08114 1.338181,0 1.003636,0 -1.039,0 -3.138913,-0.291875 -4.014541,0 -0.249865,0.08329 -0.502862,0.418531 -0.752727,0.501819 -0.238032,0.07934 -0.528306,-0.11221 -0.752726,0 -0.211585,0.105791 -0.290232,0.396023 -0.501819,0.501817 -0.07481,0.0374 -0.191768,-0.05914 -0.250907,0 -0.05914,0.05914 0.05914,0.19177 0,0.25091 -0.05282,0.05281 -0.994749,0.484039 -1.003636,0.501816 -0.335434,0.67087 -0.01072,1.53761 -0.25091,2.258179 -0.327152,0.981462 -0.501997,2.007992 -0.752726,3.010908 -0.02545,0.101857 -0.408604,5.519994 -0.250907,5.519994 0.08363,0 0,-0.16727 0,-0.25091 0,-0.25091 0,-0.50182 0,-0.75273 -0.08364,-0.0836 -0.222224,-0.13616 -0.25091,-0.25091 -0.251796,-1.00718 0,-2.47026 0,-3.51272 0,-0.17475 0.05751,-4.458851 0,-4.516358 -0.05914,-0.05914 -0.19177,0.05914 -0.25091,0 -0.118279,-0.118279 0.07481,-0.352203 0,-0.501817 -0.105862,-0.211727 -2.114338,-1.558988 -2.509088,-1.756362 -0.487963,-0.243983 -0.833933,-0.291513 -1.254543,-0.501817 -0.334547,-0.167275 -0.920002,0.167272 -1.254546,0 -0.07481,-0.0374 0.05914,-0.19177 0,-0.250909 -0.504635,-0.504638 0.0028,0.504634 -0.501817,0 -0.23369,-0.233691 0.01969,-0.25091 -0.501819,-0.25091"
       id="path325" /><path
       style="fill:#ffcc00;fill-opacity:1;stroke:#d35f8d;stroke-width:0.626999;stroke-opacity:0"
       d="m 17.814529,35.629058 c 0.552147,-1.031359 1.736667,-0.540183 2.509088,-1.003636 0.358588,-0.215153 0.426182,-0.742399 0.752727,-1.003636 0.816964,-0.653571 1.652241,-1.185129 2.509088,-1.756362 0.497065,0.02506 0.118669,-0.369578 0.250909,-0.501817 0.820697,-0.820697 0.980329,-0.385283 1.254544,-1.756362 0.280347,-1.401731 0.250909,-2.816802 0.250909,-4.265451 0,-0.585454 0,-1.170908 0,-1.756362 0,-0.167272 -0.167272,-0.501817 0,-0.501817 0.522443,0 0.391678,1.175031 0.501818,1.505453 0.273428,0.820283 0.472224,1.667579 0.752728,2.509088 0.105791,0.317379 -0.08114,0.67908 0,1.003636 0.101422,0.405697 0.537572,0.645047 0.752726,1.003636 0.475327,-0.02858 0.167272,0.585452 0.250907,0.752727 0.331698,0.663392 2.326537,2.052841 3.010908,2.509088 0.161936,0.107956 0.894969,0.393153 1.003633,0.501817 0.05914,0.05914 -0.05914,0.19177 0,0.25091 0.05914,0.05914 0.213509,-0.07481 0.25091,0 0.275434,0.550868 -0.121428,0.441102 0.501819,0.752726 0.278379,0.139189 1.811436,0.697651 1.505453,1.003636 -0.191508,0.191508 -1.264624,0 -1.505453,0 -0.22231,0 -0.847928,-0.07786 -1.003636,0 -0.305302,0.152649 -1.905624,1.451422 -2.007272,1.75636 -0.0529,0.158689 0.09279,0.36264 0,0.501819 -0.103737,0.155607 -0.369575,0.118668 -0.501816,0.250907 -0.05914,0.05914 0.05018,0.184002 0,0.25091 -0.563311,0.751083 -1.323049,1.140645 -1.756363,2.007272 -0.686911,1.373822 -0.26308,2.582114 -0.501816,4.014541 -0.145003,0.870011 -0.25091,1.601613 -0.25091,2.509089 0,1.216861 -0.293385,2.841 0,4.014541 0.100675,0.402701 0.433766,0.846241 0.501817,1.254543 0.635709,3.814255 -0.504985,-0.762227 0.250909,1.505456 0.0529,0.158686 0,0.669089 0,0.501816 0,-0.585454 0.09625,-1.178874 0,-1.756362 0.488072,-0.697098 -0.411101,-0.640771 -0.501816,-1.003636 -0.112104,-0.448411 0.14751,-1.062921 0,-1.505453 -0.05914,-0.177419 -0.205552,-0.320384 -0.25091,-0.501816 -0.297635,-1.190541 0,-5.533038 0,-7.02545 0,-0.407135 0.12782,-1.121987 0,-1.505452 -0.107293,-0.321877 -0.394526,-0.68176 -0.501818,-1.003636 -0.0529,-0.15869 0.0529,-0.343128 0,-0.501817 -0.09607,-0.288216 -0.599026,-0.348118 -0.752727,-0.501817 -0.118279,-0.118282 0.149614,-0.427014 0,-0.501819 -0.149613,-0.07481 -0.352204,0.0748 -0.501817,0 -0.07481,-0.0374 0.0374,-0.176102 0,-0.25091 -0.158689,-0.317375 -0.555898,-0.45748 -0.752727,-0.752726 -0.04639,-0.06959 0.05914,-0.191768 0,-0.250907 -0.187016,-0.187018 -0.56571,-0.06389 -0.752726,-0.25091 -0.05914,-0.05914 0.0374,-0.176101 0,-0.25091 -0.0036,-0.0073 -1.680028,-1.467283 -1.756362,-1.505452 -0.22442,-0.11221 -0.575307,0.177419 -0.752727,0 -0.05914,-0.05914 0.07481,-0.213506 0,-0.25091 -0.445601,-0.2228 -1.661271,-0.250907 -2.25818,-0.250907"
       id="path326" /><path
       style="fill:#ffcc00;fill-opacity:1;stroke:#d35f8d;stroke-width:0.626999;stroke-opacity:0"
       d="m 164.3453,185.67255 c 0.71739,-2.5664 2.92875,-5.11367 3.26182,-7.77817 0.13046,-1.04375 0,-2.21459 0,-3.26182 0,-0.75272 0,-1.50545 0,-2.25818 0,-0.25091 0,-0.50181 0,-0.75272 0,-0.0836 0.0836,-0.25091 0,-0.25091 -0.30156,0 0.34666,0.49414 0.50181,0.75272 0.21891,0.36486 0.46809,1.77118 0.50182,2.00728 0.10522,0.73653 -0.12218,1.5251 0,2.25817 0.0972,0.58336 0.15368,1.17302 0.25091,1.75637 0.36709,2.20252 0.0923,-0.38354 0.50182,1.25454 0.11046,0.44186 -0.19936,1.10673 0,1.50546 0.16525,0.33049 0.58747,0.67313 0.75272,1.00363 0.11221,0.22442 -0.0793,0.51469 0,0.75273 0.0221,0.0662 1.15584,2.44328 1.25455,2.50908 0.13918,0.0928 0.36264,-0.0928 0.50182,0 0.70649,0.0156 0.0639,0.56571 0.2509,0.75273 0.12546,0.12545 0.37637,0.12545 0.50182,0.25091 0.0591,0.0591 0.0464,0.18132 0,0.25091 -0.64971,0.97457 -1.00453,0.1259 -1.75636,0.50182 -0.0748,0.0374 0.0591,0.19177 0,0.25091 -0.0591,0.0591 -0.16727,0 -0.25091,0 -0.25091,0.25091 -0.57668,0.44464 -0.75273,0.75272 -0.34217,0.59881 -0.24567,1.36692 -0.50181,2.00727 -0.66036,1.65089 -0.75273,2.51587 -0.75273,4.26545 0,0.50182 0,1.00364 0,1.50546 0,0.0836 -0.0836,0.2509 0,0.2509 0.18702,0 -0.20555,-0.32038 -0.25091,-0.50181 -0.0608,-0.24342 0.0932,-0.51977 0,-0.75273 -0.6201,-1.55024 -0.50181,0.39246 -0.50181,-1.00363 0,-0.63538 0.2134,-1.86888 0,-2.50909 -0.1472,-0.4416 -0.62282,-0.86481 -0.75273,-1.25455 -0.0529,-0.15869 0,-0.33454 0,-0.50182 -0.16728,-0.2509 -0.36696,-0.483 -0.50182,-0.75272 -0.0748,-0.14962 0.11828,-0.38354 0,-0.50182 -0.13224,-0.13224 -0.36958,-0.11867 -0.50182,-0.25091 -1.0025,-1.0025 0.7334,-0.26637 -1.75636,-2.25818 z"
       id="path327" /><path
       style="fill:#ffcc00;fill-opacity:1;stroke:#d35f8d;stroke-width:0.626999;stroke-opacity:0"
       d="m 221.0507,203.23617 -1.50545,-30.86179"
       id="path328" /></g></svg>
