<?xml version="1.0" encoding="UTF-8" standalone="no"?>
<!-- Created with Inkscape (http://www.inkscape.org/) -->

<svg
   width="297mm"
   height="210mm"
   viewBox="0 0 297 210"
   version="1.1"
   id="svg1"
   sodipodi:docname="panel5.bg.svg"
   inkscape:version="1.3.2 (091e20e, 2023-11-25, custom)"
   xml:space="preserve"
   xmlns:inkscape="http://www.inkscape.org/namespaces/inkscape"
   xmlns:sodipodi="http://sodipodi.sourceforge.net/DTD/sodipodi-0.dtd"
   xmlns="http://www.w3.org/2000/svg"
   xmlns:svg="http://www.w3.org/2000/svg"><sodipodi:namedview
     id="namedview1"
     pagecolor="#ffffff"
     bordercolor="#000000"
     borderopacity="0.25"
     inkscape:showpageshadow="2"
     inkscape:pageopacity="0.0"
     inkscape:pagecheckerboard="0"
     inkscape:deskcolor="#d1d1d1"
     inkscape:document-units="mm"
     inkscape:zoom="0.52724989"
     inkscape:cx="538.64402"
     inkscape:cy="389.75826"
     inkscape:window-width="1920"
     inkscape:window-height="1051"
     inkscape:window-x="-9"
     inkscape:window-y="-9"
     inkscape:window-maximized="1"
     inkscape:current-layer="layer1" /><defs
     id="defs1" /><g
     inkscape:groupmode="layer"
     id="layer1"
     inkscape:label="Layer 1"><path
       style="fill:#ff55dd;fill-opacity:1;stroke:#d35f8d;stroke-width:0.626999;stroke-opacity:0"
       d="M 449.62868,215.2798 427.5487,161.08349"
       id="path358" /><path
       style="fill:#ffd5f6;fill-opacity:1;stroke:#d35f8d;stroke-width:0.626999;stroke-opacity:0"
       d="m 445.61413,254.42158 16.05817,28.6036"
       id="path361" /><path
       style="fill:#ffd5f6;fill-opacity:1;stroke:#d35f8d;stroke-width:0.626999;stroke-opacity:0"
       d="M 457.15594,160.07985 439.59232,85.810827"
       id="path363" /><path
       style="fill:#5fbcd3;fill-opacity:1;stroke:#d35f8d;stroke-width:0.626999;stroke-opacity:0"
       d="m 4.5163594,84.807194 c 11.3622746,1.029671 22.7173086,2.271 34.1236046,1.003633 3.514929,-0.390546 7.009098,-1.211363 10.538171,-1.505453 4.148942,-0.345744 0.926957,0.558115 5.519994,-0.501816 1.980113,-0.456949 6.022867,-1.434066 8.029086,-2.007272 1.374187,-0.392623 2.635721,-1.129411 4.014541,-1.505453 1.613784,-0.440124 3.353753,0.166444 5.018178,0 1.649153,-0.164915 3.370132,-0.797629 5.018174,-1.003636 3.19255,-0.399068 6.284947,-0.339336 9.534538,-0.501817 12.945497,-0.647274 -0.825306,-0.198691 8.029083,-1.003636 2.38015,-0.216376 4.233498,0.07072 6.523631,-0.501816 1.00364,-0.25091 0,0.501816 1.50545,0 0.22442,-0.07481 0.33455,-0.334545 0.50182,-0.50182 1.33818,-0.501816 2.65871,-1.053507 4.01454,-1.505452 2.76416,-0.921385 5.73887,-1.148184 8.5309,-2.00727 1.21758,-0.374639 2.27685,-1.196485 3.51273,-1.505452 2.4378,-0.609452 9.35108,0 12.04362,0 1.78989,0 5.8059,-0.573792 7.52727,0 0.35484,0.118279 0.23733,0.739153 0.50182,1.003633 0.73343,0.733433 3.51447,0.502695 4.51635,1.003636 3.62113,1.810565 -0.88612,0.247729 3.51273,2.007272 3.46263,1.385051 7.39519,2.601523 11.03999,3.512722 2.80013,0.700035 6.1627,-0.318889 9.03272,0 3.38465,0.376073 6.62871,0.501819 10.03635,0.501819 3.35435,0 1.05732,-0.51971 2.50909,-1.003636 0.31738,-0.105793 0.68626,0.105794 1.00364,0 0.9908,-0.330266 2.12818,-1.979459 3.0109,-2.509088 1.92164,-1.152986 4.02488,-0.559875 6.02181,-1.003636 1.0881,-0.544045 2.2821,-1.259327 3.51273,-1.505453 0.65609,-0.13122 1.35117,0.13122 2.00727,0 2.83258,-0.566515 6.09601,-0.795488 9.03272,-0.501817 0.52634,0.05263 0.98057,0.436208 1.50545,0.501817 4.73541,0.591926 8.46434,0.861539 13.04726,2.007272 3.11312,0.77828 6.33231,2.153285 9.53454,2.509089 3.17832,0.353144 6.3314,0.510844 9.53453,1.003633 1.36333,0.209743 2.65395,0.77687 4.01455,1.003636 2.38394,0.397325 5.13669,0 7.52726,0 11.03999,0 22.07997,0 33.11998,0 4.92262,0 10.19751,0.607126 15.05452,0 6.28645,-0.785805 -4.01881,-0.501817 5.52001,-0.501817 3.51271,0 7.02542,0 10.53816,0 0.83635,0 1.67273,0 2.50907,0 0.1673,0 0.50184,0.167273 0.50184,0 0,-0.167272 -0.33454,0 -0.50184,0 -0.66907,0 -1.33815,0 -2.00726,0 -1.01991,0 -4.19687,0.009 -5.01816,0.501817 -0.60855,0.365128 -0.8281,1.293775 -1.50546,1.505453 -2.88919,0.902874 -9.59315,1.719429 -13.04726,2.007272 -2.01041,0.167534 -4.48379,-0.339974 -6.52362,0 -1.8464,0.307729 -3.63133,1.316585 -5.52,1.505452 -0.99867,0.09986 -2.00983,-0.07151 -3.01091,0 -7.2399,0.517136 -14.47607,1.494502 -21.57817,2.509089 -2.6788,0.382686 -5.2633,0.04085 -8.02908,0.501817 -1.0799,0.179983 -3.36641,0.287488 -4.51636,0 -0.84212,-0.210529 -1.65924,-0.833665 -2.50909,-1.003634 -1.31219,-0.26244 -2.68454,0.147776 -4.01454,0 -5.40754,-0.600839 -10.79381,-1.129879 -16.05817,-2.007272 -1.53105,-0.255174 -3.47783,0 -5.01817,0 -1.76301,0 -3.81064,-0.170936 -5.52,0 -1.65754,0.165754 -2.98083,1.198349 -4.51636,1.505453 -0.49207,0.09842 -1.01046,-0.0825 -1.50545,0 -3.42203,0.570339 -6.66778,2.262336 -10.03636,3.010908 -1.31648,0.29255 -2.69806,0.209264 -4.01454,0.501817 -1.58908,0.353131 -7.26779,1.090125 -9.03272,0.501817 -0.79344,-0.264481 -1.23072,-1.194835 -2.00727,-1.505453 -0.31061,-0.124246 -0.69302,0.124248 -1.00363,0 -0.55998,-0.223988 -0.96602,-0.733917 -1.50546,-1.003636 -1.25475,-0.627375 -2.25797,-0.376259 -3.51272,-1.003634 -0.21159,-0.105793 -0.27232,-0.444444 -0.50182,-0.501819 -1.30833,-0.32708 -2.73515,-0.07535 -4.01454,-0.501817 -1.74331,-0.581104 -3.70095,-1.050692 -5.51999,-1.505452 -1.25913,-0.314783 -2.74057,0.254793 -4.01454,0 -0.36678,-0.07336 -0.6691,-0.334547 -1.00364,-0.50182 -0.66909,-0.167272 -1.32697,-0.388434 -2.00727,-0.501816 -0.49499,-0.0825 -1.15062,0.354838 -1.50546,0 -0.11827,-0.11828 0.165,-0.474319 0,-0.50182 -0.98997,-0.164994 -2.01225,0.09987 -3.0109,0 -4.833,-0.483298 -9.70034,-1.468117 -14.55271,-2.007269 -1.53667,-0.170741 -4.65894,-0.315912 -6.02182,0.501817 -0.40569,0.243419 -0.58046,0.792051 -1.00363,1.003636 -0.29923,0.149614 -0.67245,-0.04731 -1.00364,0 -1.3655,0.195072 -2.64361,0.85131 -4.01454,1.003636 -2.31264,0.256958 -8.54446,0.415922 -11.03999,0 -0.36894,-0.06149 -0.64077,-0.411102 -1.00363,-0.50182 -4.01455,-1.003633 4.01454,2.007272 -3.01091,0 -0.57991,-0.165684 -0.92555,-0.837946 -1.50546,-1.003633 -0.64334,-0.183814 -1.3449,0.09462 -2.00726,0 -0.52365,-0.07481 -0.98677,-0.398081 -1.50546,-0.501819 -2.55939,-0.511876 -5.59478,0.715333 -8.02908,-0.501817 -1.195602,-0.5978 -2.213599,-1.574228 -3.512725,-2.007272 -2.313265,-0.771088 -4.969729,0.62987 -7.025449,1.003636 -1.490284,0.270962 -3.026074,0.230857 -4.516358,0.501819 -1.307222,0.237676 -2.706243,1.287402 -4.014542,1.505453 -0.659987,0.109998 -1.33818,0 -2.007272,0 -0.669089,0.167272 -1.330981,0.366559 -2.007269,0.501817 -1.885884,0.377176 -4.678516,0 -6.52363,0 -3.679997,0 -7.359994,0 -11.039991,0 -1.524704,0 -3.96431,-0.311137 -5.519994,0 -2.028867,0.405773 -3.97356,1.212844 -6.021813,1.505452 -2.127893,0.303985 -4.395735,0.197835 -6.52363,0.50182 -1.365502,0.195072 -2.649041,0.808564 -4.014542,1.003633 -1.798733,0.256963 -3.712887,-0.18071 -5.519994,0 -1.012431,0.101246 -1.999652,0.389456 -3.010908,0.501819 -3.469511,0.385501 -7.064642,-0.347352 -10.538171,0 -0.372177,0.03722 -0.636866,0.428464 -1.003635,0.501817 -1.322406,0.264483 -2.684296,0.280112 -4.014542,0.501819 -1.592145,0.265356 -6.8686788,0.195961 -7.0254479,0 -0.5328187,-0.666025 0.342536,-2.388467 -0.5018177,-2.509088 -1.1940966,-0.170585 -1.8814876,1.583737 -3.0109063,2.007269 -0.8193133,0.307242 -4.0254449,-2.509089 -5.018177,-2.509089"
       id="path364" /><rect
       style="fill:#d5f6ff;fill-opacity:1;stroke:#d35f8d;stroke-width:0.626999;stroke-opacity:0"
       id="rect363"
       width="433.0687"
       height="291.55609"
       x="-65.738121"
       y="-38.639961" /><path
       style="fill:#0088aa;fill-opacity:1;stroke:#d35f8d;stroke-width:0.626999;stroke-opacity:0"
       d="m -16.559984,178.14529 c 3.672041,-0.23837 5.522352,-3.66433 8.5309007,-5.01818 2.0747609,-0.93364 4.3887561,-1.22074 6.5236302,-2.00727 2.5314239,-0.026 3.506794,-2.67389 5.5199948,-3.51272 1.0918113,-0.45493 2.3444022,-0.31735 3.5127239,-0.50182 2.0100567,-0.31738 4.0169474,-0.65497 6.0218124,-1.00364 3.199816,-0.55649 6.330881,-1.47333 9.534537,-2.00727 0.659986,-0.11 1.33818,0 2.00727,0 1.170908,-0.16727 2.358096,-0.24523 3.512724,-0.50182 0.365128,-0.0811 0.634693,-0.44032 1.003636,-0.50182 3.822213,-0.63703 10.635546,0 14.552713,0 5.625457,0 10.978718,-0.6548 16.559985,-1.00363 1.011642,-0.0632 10.68297,0.42942 11.541807,0 1.481095,-0.74055 2.151245,-2.57016 3.512725,-3.51272 1.047398,-0.72513 2.373304,-0.93575 3.512722,-1.50546 1.886291,-0.94314 3.655528,-2.07867 5.519997,-3.0109 0.423169,-0.21159 0.554794,-0.85403 1.003633,-1.00364 0.634757,-0.21158 1.372518,0.21159 2.007272,0 0.22442,-0.0748 0.290232,-0.39602 0.501817,-0.50182 2.96273,-1.48136 7.395916,-0.18759 10.538174,-0.50181 3.32702,-0.33271 6.76741,-1.78266 10.03635,-2.50909 7.75273,-1.72283 15.76265,-2.71075 23.58544,-4.01454 2.11577,-0.35263 3.85718,-1.33895 6.02181,-1.50546 2.90142,-0.22318 11.70992,-0.4738 14.55271,0 3.56717,0.59453 6.41247,2.60826 10.03635,3.01091 5.48342,0.60927 11.17154,0.66016 16.55999,2.00727 3.56848,0.89212 -0.66909,0.66909 6.02181,2.00727 2.59221,0.51844 5.89688,0.12553 8.5309,0.50182 1.50202,0.21457 3.04609,1.01536 4.51636,1.50545 7.91333,2.63778 -4.86059,-1.84242 4.51636,0.50182 1.26877,0.84584 1.5269,1.20865 3.01091,1.50545 0.80419,0.16084 1.70489,-0.16084 2.50909,0 0.36677,0.0734 0.64077,0.4111 1.00363,0.50182 1.60107,0.40027 5.36989,0 6.52363,0 5.18545,0 10.3709,0 15.55635,0 5.35272,0 10.70545,0 16.05817,0 1.67272,0 3.39539,0.40569 5.01818,0 2.05346,-0.51337 0.96898,-1.12043 2.50908,-1.50545 3.8975,-0.97438 3.15454,-1.31927 6.52363,-4.01455 2.17392,-1.73913 4.77396,-2.8789 7.02546,-4.51635 0.38262,-0.27828 0.58044,-0.79205 1.00362,-1.00364 0.94626,-0.47312 2.04782,-0.56586 3.0109,-1.00364 2.24759,1.06136 1.93205,-1.46783 3.01091,-2.00726 1.76048,-0.88024 3.14579,-0.88133 5.01819,-1.50546 1.50546,-0.50182 3.03525,-0.93579 4.51636,-1.50545 0.69821,-0.26854 1.28556,-0.80681 2.00726,-1.00364 3.9387,-1.07419 7.75015,-1.11507 11.54182,-3.0109 2.20898,-1.1045 1.01237,-1.14526 3.51271,-2.50909 1.11837,-0.61002 2.38868,-0.90597 3.51274,-1.50546 1.3924,-0.7426 2.60308,-1.80336 4.01452,-2.50908 2.17998,-1.08999 4.8336,-1.41317 7.02546,-2.50909 3.28422,-1.64211 6.12767,-4.05991 9.53455,-5.52 3.51234,-1.50529 8.43944,-1.67735 12.04362,-2.50909 1.86185,-0.42965 0.18886,-0.59624 2.00726,-1.50545 0.29922,-0.14961 0.7044,0.14961 1.00365,0 0.42317,-0.21158 0.66907,-0.66909 1.00361,-1.00363 0.83638,-0.16728 1.72514,-0.16584 2.5091,-0.50182 0.43487,-0.18637 0.58047,-0.79205 1.00364,-1.00364 4.41317,-2.20658 -0.43198,1.4589 4.01455,-1.50545 0.39365,-0.26244 0.58045,-0.79205 1.00362,-1.00364 0.29924,-0.14961 0.66911,0 1.00365,0 0.16726,0 -0.35222,-0.0748 -0.50181,0 -0.6022,0.30109 -0.90329,1.20437 -1.50546,1.50546 -0.94625,0.47311 -2.03853,0.5869 -3.01093,1.00363 -1.43682,0.61579 -2.82784,1.99375 -4.01452,3.01091 -3.27528,2.80737 -7.06504,5.00134 -10.53817,7.52726 -4.01796,2.92216 -7.31642,6.77823 -11.04,10.03636 -0.80606,0.7053 -1.70302,1.30197 -2.50907,2.00727 -0.53409,0.46732 -0.87072,1.18808 -1.50548,1.50545 -0.76288,0.38144 -1.7326,0.14888 -2.50907,0.50182 -1.85881,0.84491 -3.15235,2.68346 -5.0182,3.51273 -0.77941,0.3464 -1.7858,0.0498 -2.50907,0.50181 -0.70924,0.44327 -0.87045,1.46298 -1.50545,2.00727 -0.56798,0.48684 -1.4283,0.52994 -2.00729,1.00364 -1.70209,1.39263 -5.00949,4.50478 -6.52362,6.52363 -0.5852,0.78029 -0.87069,1.76854 -1.50545,2.50909 -0.72797,0.84928 -2.7024,1.44004 -3.51271,2.00727 -1.0703,0.74919 -1.92389,1.7844 -3.01091,2.50909 -0.76975,0.51316 -5.23018,1.80936 -6.02184,2.00727 -0.48683,0.1217 -1.03952,-0.18637 -1.50545,0 -0.43926,0.17571 -0.59793,0.76022 -1.00362,1.00363 -1.20904,0.72542 -2.7088,0.48134 -4.01455,1.00364 -2.83064,1.13225 -5.08732,2.15499 -8.02907,3.51272 -1.10569,0.51032 -2.42353,0.45904 -3.51274,1.00364 -0.74806,0.37403 -1.29803,1.06218 -2.00726,1.50545 -1.67119,1.04449 -3.98598,1.78369 -5.52,3.01091 -0.29207,0.23365 -0.23733,0.73915 -0.50182,1.00363 -0.9242,0.92421 -7.83872,3.73191 -9.53453,4.01454 -2.34182,0.33455 -4.68363,0.66909 -7.02545,1.00364 -0.83636,0 -1.67784,-0.0924 -2.50909,0 -1.37093,0.15232 -2.64904,0.80856 -4.01454,1.00363 -5.12416,0.73203 -11.44584,-0.36436 -16.55998,-1.00363 -1.77002,-0.22125 -3.82278,0.48492 -5.52,0 -0.86613,-0.24747 -1.62579,-0.82698 -2.50909,-1.00364 -0.82012,-0.16402 -1.67616,0.0757 -2.50909,0 -5.0271,-0.45701 -9.98478,-0.50182 -15.05453,-0.50182 -2.80921,0 -5.6837,-0.97634 -8.5309,-0.50181 -3.34236,0.55706 -6.30791,2.53071 -9.53453,3.51272 -2.48426,0.75608 -5.04002,1.2611 -7.52727,2.00727 -1.7256,0.51768 -3.2595,1.61646 -5.01818,2.00727 -1.99092,0.44243 -4.49551,-0.156 -6.52363,0 -4.54985,0.34999 -8.97382,0.50182 -13.54907,0.50182 -1.50546,0 -3.04433,0.31544 -4.51637,0 -4.11313,-0.88138 -5.33461,-1.58456 -9.03271,-2.50909 -3.30418,-0.82604 -8.5374,-1.5087 -11.54181,-3.0109 -0.42317,-0.21159 -0.60243,-0.75289 -1.00364,-1.00364 -0.95153,-0.59471 -1.98552,-1.04973 -3.0109,-1.50545 -0.48338,-0.21483 -1.09241,-0.17138 -1.50546,-0.50182 -0.47095,-0.37676 -0.47998,-1.20623 -1.00363,-1.50545 -0.74055,-0.42317 -1.67648,-0.31679 -2.50909,-0.50182 -2.65708,-0.59046 -5.34967,-1.05888 -8.029083,-1.50545 -2.523247,-0.42055 -5.489454,0.1814 -8.029083,0 -6.393365,-0.45667 -12.782227,-1.10915 -19.069074,-2.00728 -2.237906,-0.3197 -4.760552,0 -7.025447,0 -5.226147,0 -10.395008,-0.14334 -15.556351,0.50182 -5.755058,0.71939 -11.823721,-0.81998 -17.563618,0 -4.852443,0.69321 -9.90172,0.84453 -14.552714,2.00727 -0.973669,0.24342 -2.020927,-0.16499 -3.010906,0 -2.166547,0.3611 -4.369307,2.03036 -6.5236307,2.50909 -0.6531573,0.14515 -1.3449051,-0.0946 -2.0072707,0 -1.5709381,0.22442 -2.976853,1.12058 -4.5163595,1.50545 -1.25514999,0.31379 -2.775625,0.1921 -4.0145416,0.50182 -0.2294961,0.0574 -0.2843855,0.40864 -0.5018177,0.50182 -1.3686118,0.58655 -3.932179,1.61032 -5.5199948,2.00727 -0.9736693,0.24342 -2.026761,-0.19683 -3.010906,0 -0.314233,0.0628 -1.731566,0.89058 -2.509089,0.50182 -0.872387,-0.43619 -1.53373,-1.50545 -2.509088,-1.50545 -1.122099,0 -1.979535,1.06343 -3.010907,1.50545 -0.864197,0.37037 -2.581956,0 -3.512724,0"
       id="path367" /><path
       style="fill:#0088aa;fill-opacity:1;stroke:#d35f8d;stroke-width:0.626999;stroke-opacity:0"
       d="m -14.050896,81.294469 c 0.836363,0 1.676877,0.08322 2.509089,0 0.848693,-0.08487 1.657341,-0.456988 2.5090882,-0.501817 9.15183372,-0.481676 18.4612524,0.702977 27.5999738,0 7.997753,-0.615211 15.517936,-0.31029 23.585434,0 7.002552,0.269328 14.06671,0 21.076342,0 5.352722,0 10.705444,0 16.058166,0 1.397286,0 5.948796,-0.538326 7.025449,0 0.539438,0.269719 1.07899,0.57717 1.505453,1.003634 0.118279,0.118279 -0.118279,0.38354 0,0.501819 0.42055,0.420547 2.519566,0.61056 3.010906,1.003633 0.47095,0.376762 0.577172,1.078992 1.003636,1.505456 0.475448,0.475448 7.769293,3.172256 9.032719,4.014541 0.13918,0.09279 -0.11828,0.383537 0,0.501817 0.20155,0.201549 1.22164,-0.09461 1.50545,0 0.70968,0.236558 1.2976,0.767077 2.00727,1.003636 0.47607,0.158689 1.01338,-0.09842 1.50546,0 2.69937,0.539874 5.22633,0.501817 8.02908,0.501817 2.67266,0 9.13953,0.600569 11.54181,0 0.72573,-0.181433 1.29759,-0.767075 2.00727,-1.003634 1.94915,-0.649716 3.61116,-1.24374 5.51999,-2.007272 1.74102,-0.69641 4.22519,-0.831718 6.02182,-1.505453 1.72507,-0.646903 2.82277,-2.446379 4.51635,-3.010908 0.63476,-0.211584 1.35816,0.16228 2.00728,0 4.8024,-1.200599 10.52442,-0.501816 15.55635,-0.501816 1.34935,0 5.65978,0.21387 6.52363,0.501816 0.9253,0.308438 1.67272,1.003636 2.50908,1.505456 1.50546,0.501816 2.98539,1.087913 4.51636,1.505452 0.64552,0.176049 1.34729,-0.109997 2.00727,0 0.66909,0.167273 1.33818,0.334545 2.00727,0.501817 0,0.167272 -0.14961,0.427011 0,0.501819 0.76288,0.38144 1.68163,0.294953 2.50909,0.501817 1.1895,0.297373 -0.22303,-0.892119 2.00727,0 0.43928,0.175713 0.58047,0.792051 1.00364,1.003636 0.6974,0.348702 7.12777,0.150217 8.02908,0 1.69691,-0.282818 3.31584,-0.760444 5.01818,-1.003636 0.9812,-0.140171 2.55542,0.319101 3.51272,0 0.70968,-0.236559 1.2976,-0.767077 2.00727,-1.003636 2.76309,-0.921028 5.74705,-1.813123 8.53091,-2.509089 1.83364,-0.458409 3.68064,-1.547434 5.51999,-2.007269 1.14748,-0.286872 2.33906,-0.35511 3.51273,-0.501819 0.33454,-0.04182 1.33818,0.08364 1.50545,0 0.42317,-0.211585 0.58046,-0.792049 1.00363,-1.003634 1.19691,-0.598453 2.68455,0.147775 4.01455,0 0.52572,-0.05841 0.97972,-0.443404 1.50545,-0.501819 3.0767,-0.341855 6.43873,0 9.53453,0 4.50331,0 -0.54547,-0.299225 4.01455,1.003636 1.08605,0.310301 4.09057,0 5.01817,0 5.01818,0 10.03636,0 15.05453,0 5.22783,0 10.35204,-0.06813 15.55634,-0.501817 4.59555,-0.382963 9.48423,0.652381 14.05091,0 3.30745,-0.472495 6.62604,-1.104241 10.03636,-1.505455 2.61538,-0.307692 5.44693,-0.07146 8.02907,-0.501817 1.51279,-0.252129 3.02192,-0.790143 4.51636,-1.003636 2.74408,-0.392009 5.84094,0.09595 8.53091,-0.501816 0.87934,-0.195408 1.62579,-0.826977 2.5091,-1.003636 1.68653,-0.337307 3.77589,-0.283806 5.51997,-0.501817 3.05102,-0.381376 6.02552,-0.502433 9.03272,-1.003636 0.66,-0.109998 2.67636,0 2.00729,0 -1.92048,0 -5.54591,-0.720582 -7.52727,-1.003636 -4.34533,-0.620763 -10.71848,-0.117621 -15.05452,0.501819 -0.52367,0.07481 -0.9806,0.436208 -1.50548,0.501817 -2.79411,0.349263 -5.72649,0.101187 -8.53088,0.501817 -2.04828,0.292608 -4.00577,1.040209 -6.02181,1.505452 -2.26465,0.522611 -4.72163,0.747655 -7.02546,1.003636 -5.62652,0.625171 -12.99488,0 -18.56727,0 -1.69928,0 -7.90821,0.542108 -9.53452,0 -3.61091,-1.203637 -7.10384,-1.36431 -10.53818,-2.509088 -1.06229,-0.354098 -2.41975,0.273243 -3.51272,0 -0.36286,-0.09072 -0.63687,-0.428464 -1.00363,-0.501817 -0.49208,-0.09841 -1.01862,0.121708 -1.50546,0 -0.22949,-0.05737 -0.2774,-0.427011 -0.50182,-0.501817 -2.03386,-0.677955 -4.91534,0.351682 -7.02544,0 -0.36895,-0.06149 -0.64077,-0.411101 -1.00364,-0.501819 -2.01696,-0.50424 -10.46757,0.716161 -11.54181,0 -0.31121,-0.207476 -0.23733,-0.739153 -0.50181,-1.003636 -0.56846,-0.568457 -12.01755,0.677786 -14.0509,0 -0.15869,-0.0529 0.14961,-0.427011 0,-0.501817 -0.59845,-0.299225 -1.35117,0.13122 -2.00727,0 -1.04622,-0.209243 -2.01234,-0.80392 -3.01091,-1.003636 -0.65609,-0.13122 -1.37251,0.211585 -2.00727,0 -2.44852,-0.816173 -3.93409,-2.077497 -6.52363,-2.509088 -2.7197,-0.453285 -5.86311,0.666948 -8.5309,0 -4.61947,-1.154867 -10.22347,-0.501817 -15.05453,-0.501817 -0.31125,0 -7.55055,-0.478533 -8.02908,0 -0.11828,0.118279 0.14961,0.427011 0,0.501817 -0.1838,0.0919 -1.79617,-0.211104 -2.00728,0 -0.26448,0.264482 -0.23733,0.739155 -0.50181,1.003636 -0.23656,0.236558 -0.76708,-0.236559 -1.00364,0 -1.03828,1.038277 1.58663,-0.04059 -0.50181,1.003636 -0.29923,0.149611 -0.76708,-0.236559 -1.00364,0 -1.03828,1.038277 1.58663,-0.04059 -0.50182,1.003636 -0.40614,0.20307 -1.1241,0.273002 -1.50545,0.501816 -0.71718,0.430305 -1.25921,1.131419 -2.00727,1.505453 -1.19691,0.598453 -2.69457,-0.219996 -4.01454,0 -0.23334,0.03889 -0.29024,0.396026 -0.50182,0.501819 -0.44884,0.22442 -1.02939,-0.158689 -1.50546,0 -0.22441,0.07481 -0.27232,0.444442 -0.50181,0.501817 -2.20819,0.552048 -6.41362,0.203941 -8.5309,-0.501817 -1.20141,-0.40047 -2.45537,-1.742932 -3.51273,-2.007272 -1.42524,-0.356309 -3.07804,-0.214153 -4.51636,-0.501816 -1.03738,-0.207479 -1.97352,-0.796161 -3.0109,-1.003636 -0.63971,-0.127942 -1.37607,0.1578 -2.00727,0 -1.3583,0.852873 -1.2976,-0.767078 -2.00727,-1.003636 -1.04687,-0.348954 -2.44126,0.267869 -3.51273,0 -2.94414,-0.736037 -6.99915,-0.881468 -10.03635,-0.501817 -0.37115,0.04639 -0.64077,0.411102 -1.00364,0.501817 -0.81139,0.202848 -1.6841,-0.137496 -2.50909,0 -0.52176,0.08696 -0.98676,0.398078 -1.50545,0.501816 -1.59551,0.319104 -3.44229,-0.393972 -5.01818,0 -1.53396,0.383493 -2.9728,1.698562 -4.51636,2.007272 -0.65609,0.13122 -1.45055,-0.371144 -2.00727,0 -4.432504,2.955004 4.55451,-1.519758 -3.51272,1.505453 -0.564711,0.211767 -0.940745,0.791869 -1.505455,1.003636 -1.443985,0.541494 -2.995166,0.750102 -4.516358,1.003636 -0.915234,0.152538 -2.134677,-0.292079 -3.010906,0 -1.005305,0.3351 -1.950802,0.9754 -3.010908,1.505453 -1.471999,0.735999 -4.047995,-0.736 -5.519994,0 -2.377588,1.188794 -8.035779,0.502933 -11.039991,1.003636 -7.308569,1.218094 -15.17615,0.501816 -22.581795,0.501816 -13.214533,0 -26.429067,0 -39.6435997,0 -4.1818141,0 -8.36362844,0 -12.5454427,0 -1.9280301,0 -4.1172685,-0.317423 -6.0218126,0 -0.680299,0.113382 -1.326972,0.388435 -2.007271,0.501817 -0.49499,0.0825 -1.383744,-0.486833 -1.505453,0 -0.72594,2.903762 1.763917,2.301259 -3.010906,1.505455"
       id="path365" /><path
       style="fill:#0088aa;fill-opacity:1;stroke:#d35f8d;stroke-width:0.626999;stroke-opacity:0"
       d="m 82.799922,80.792652 c -3.687776,-0.285168 -7.05738,0.847006 -10.538172,2.00727 -1.774192,0.591399 -3.243985,1.917692 -5.018177,2.509088 -0.965266,0.321755 -2.023806,0.255043 -3.010906,0.501817 -0.941173,0.235294 -4.493262,1.750589 -5.519996,2.007272 -0.486834,0.121708 -1.039527,-0.18637 -1.505453,0 -0.43928,0.175713 -0.59794,0.760219 -1.003633,1.003636 -0.873689,0.524211 -2.669098,0.62869 -3.512725,1.003636 -0.891294,0.396129 -1.574866,1.225185 -2.509089,1.505453 -0.801089,0.240326 -1.740349,-0.329459 -2.509088,0 -0.554345,0.237574 -0.464199,1.235734 -1.003636,1.505453 -0.838891,0.419443 -10.727045,2.377429 -12.043625,2.509088 -1.546775,0.154678 -2.167056,-0.309581 -3.512724,-0.501819 -1.829017,-0.261287 -3.683709,-0.297786 -5.519995,-0.501817 -3.010906,-0.334544 -6.018318,-0.702196 -9.032719,-1.003636 -0.665769,-0.06658 -1.358157,0.16228 -2.00727,0 -0.725731,-0.181433 -1.273733,-0.856927 -2.007271,-1.003636 -0.984146,-0.196829 -2.01341,0.110834 -3.0109065,0 C 7.721824,92.133046 5.8570298,91.547586 4.0145417,91.330824 -2.2532439,90.593435 -9.2369869,90.302391 -15.556349,90.829005 c -2.850227,0.237519 -5.694916,0.265485 -8.530901,0.501819 -12.123439,1.010285 2.522732,-0.281821 -5.519995,1.505453 -1.181865,0.262636 -3.18825,0 -4.516358,0 -2.516524,0 -4.64148,-0.05005 -7.02545,-1.003636 -0.491127,-0.196451 -1.97857,-0.265259 -1.505452,-0.501817 2.158367,-1.079185 5.251997,-0.398397 7.527266,-0.501819 2.678816,-0.121764 5.354315,-0.310762 8.029083,-0.501817 6.352949,-0.453782 12.728124,-0.607327 19.0690727,-1.003636 4.0174383,-0.25109 7.55200921,-2.20218 11.5418072,-2.509089 1.1674591,-0.0898 2.3577476,0.192498 3.5127239,0 0.8885343,-0.148087 1.654524,-0.71878 2.5090887,-1.003636 0.6542905,-0.218096 1.3903995,-0.193381 2.0072705,-0.501817 3.267685,-1.633841 -1.000331,-0.50292 2.007271,-1.505452 0.65429,-0.218096 1.366917,-0.245676 2.007271,-0.50182 0.21964,-0.08785 0.277398,-0.427011 0.501818,-0.501816 1.878824,-0.626274 3.225726,-0.203076 5.018177,-0.501817 2.550703,-0.425117 4.926226,-0.501819 7.527265,-0.501819"
       id="path366" /><path
       style="fill:#0088aa;fill-opacity:1;stroke:#d35f8d;stroke-width:0.626999;stroke-opacity:0"
       d="M 453.6432,53.694496 57.207218,-81.796286"
       id="path368" /><path
       style="fill:#0088aa;fill-opacity:1;stroke:#d35f8d;stroke-width:0.626999;stroke-opacity:0"
       d="M 397.94145,122.94534 467.19227,-37.636328"
       id="path369" /></g></svg>
